<?xml version="1.0" encoding="utf-8" ?>
<svg baseProfile="full" height="200mm" version="1.1" viewBox="0,0,200,200" width="200mm" xmlns="http://www.w3.org/2000/svg" xmlns:ev="http://www.w3.org/2001/xml-events" xmlns:xlink="http://www.w3.org/1999/xlink"><defs /><rect fill="#1a1a1a" height="200" width="200" x="0" y="0" /><text alignment-baseline="middle" fill="#e1ed5e" style="dominant-baseline: central; font-size:9.0px; font-family:Arial;" text-anchor="middle" x="100.0" y="100.0">2024</text><line stroke="#e1ed5e" stroke-width="0.3" x1="100.0" x2="100.0" y1="15.0" y2="10.0" /><path d="M 100.0 14.0 a86.0,86.0 0 0,1 42.35913384403234,11.155469271406648" fill="none" id="id133" stroke="none" /><text fill="#e1ed5e" style="font-size:6.75px; font-family:Arial;" text-anchor="middle"><textPath startOffset="22.145653131862478" xlink:href="#id133">January</textPath></text><path d="M 100.0 79.0 l 0.0 -13.222659782533434 a34.222659782533434,34.222659782533434 0 0,0 0.5874774629101309,0.005042787459039605 l -0.22698453806127616 13.220711393268829" fill="#ff810b" stroke="none" /><path d="M 100.36049292484886 79.00309439819443 l 0.3045107744879368 -17.73622600037617 a38.738839859139574,38.738839859139574 0 0,0 0.6648077196942657,0.01712308862399393 l -0.6089318082529438 17.72838519440213" fill="#ffc011" stroke="none" /><path d="M 100.72087961077811 79.0123766808444 l 0.6121712436066364 -17.822697820190882 a38.83320810233918,38.83320810233918 0 0,0 0.6660343424614027,0.028602380434685687 l -0.9180313466688753 17.809562871330364" fill="#ffc112" stroke="none" /><path d="M 101.08105385017728 79.02784411241856 l 0.916278989196107 -17.77556760450472 a38.799167701001075,38.799167701001075 0 0,0 0.6648618871316658,0.03999644013213215 l -1.2212852284602351 17.757219186547896" fill="#ffc111" stroke="none" /><path d="M 101.44090949804482 79.04949213459386 l 0.7127877961033173 -10.363778119924365 a31.388260843918815,31.388260843918815 0 0,0 0.5372340070184246,0.041585309848549676 l -0.8905907978969755 10.350015043080763" fill="#ff5908" stroke="none" /><path d="M 101.80034050326958 79.07731436759882 l 3.0264293221409138 -35.171696232373066 a56.30166412938971,56.30166412938971 0 0,0 0.9622234208661106,0.09112355837593933 l -3.6297523063920374 35.11456091849194" fill="#66ff29" stroke="none" /><path d="M 102.15924093988457 79.11130261209362 l 0.8459136964915825 -8.183447662511702 a29.227052061764304,29.227052061764304 0 0,0 0.4986192121797412,0.05587132274489035 l -0.9862688102721204 8.167720579259841" fill="#ff3905" stroke="none" /><path d="M 102.51750503828377 79.15144685158666 l 1.573992424202591 -13.034915208574345 a34.129602684246386,34.129602684246386 0 0,0 0.5810518995082691,0.07522880145563858 l -1.7975221456016517 13.005974810918309" fill="#ff800b" stroke="none" /><path d="M 102.87502721639298 79.19773525538626 l 2.7399301336632513 -19.824769552517907 a41.01321325893963,41.01321325893963 0 0,0 0.6965896908486623,0.10237469617131716 l -3.079844930119596 19.77481378304771" fill="#ffdf14" stroke="none" /><path d="M 103.23170211078529 79.25015418208739 l 2.2787170911482413 -14.630998366516724 a35.8073854809857,35.8073854809857 0 0,0 0.6065472653541649,0.0998071216957238 l -2.5295418595554766 14.589725246325331" fill="#ff980e" stroke="none" /><path d="M 103.58742460773223 79.30868818359171 l 3.326068914451047 -19.183881630135197 a40.47008086328139,40.47008086328139 0 0,0 0.683492000599338,0.12455501082567419 l -3.6548956486014386 19.123958445378154" fill="#ffd714" stroke="none" /><path d="M 103.94208987418118 79.37332000966035 l 1.753407507713617 -9.174568999845588 a30.34061851383698,30.34061851383698 0 0,0 0.5107388226574232,0.10216206860644945 l -1.9106428159019972 9.143117534576279" fill="#ff4906" stroke="none" /><path d="M 104.29559338865022 79.4440306129975 l 7.440440021806371 -35.60519897395116 a57.37430881395206,57.37430881395206 0 0,0 0.9623518040368566,0.2097400965825156 l -8.050554242462361 35.472227419234926" fill="#5bff2a" stroke="none" /><path d="M 104.9986988182912 79.60360301121754 l 3.54214858518482 -14.453174988722632 a35.88089660787159,35.88089660787159 0 0,0 0.5969807309103445,0.15175016732242125 l -3.7897346093205586 14.390239589564942" fill="#ff990e" stroke="none" /><path d="M 105.3480935250658 79.69241777938227 l 6.017860577352225 -22.850796810867426 a44.6299293443717,44.6299293443717 0 0,0 0.739196166711572,0.20147120229658533 l -6.40923814499849 22.744125114426698" fill="#f0ff19" stroke="none" /><path d="M 105.69591212413111 79.78721728523813 l 6.1306480787123245 -21.75550725066491 a43.60280826797309,43.60280826797309 0 0,0 0.7186988340001657,0.20920275614841344 l -6.503206925094095 21.647060800213982" fill="#feff18" stroke="none" /><path d="M 106.04205211174951 79.88797359093562 l 4.351706093628574 -14.485414269987482 a36.12496520652134,36.12496520652134 0 0,0 0.5923795312405746,0.18352069302846966 l -4.599726257740779 14.408576989152365" fill="#ff9c0e" stroke="none" /><path d="M 106.38641147887787 79.99465700312896 l 5.894868393292182 -18.4655912822493 a40.38369249594402,40.38369249594402 0 0,0 0.6585950690326817,0.2164932805513083 l -6.210986199972607 18.36167708029597" fill="#ffd614" stroke="none" /><path d="M 107.06938296918511 80.22567764915836 l 2.6907387785901387 -7.5264752527453656 a28.992990986157633,28.992990986157633 0 0,0 0.4672163178909486,0.17156830354988514 l -2.819544248135212 7.479176100186758" fill="#ff3505" stroke="none" /><path d="M 107.40779381753099 80.34994680014964 l 5.311872894022712 -14.090373939859287 a36.05837412894629,36.05837412894629 0 0,0 0.5773250262636948,0.22332172251291535 l -5.552970182779933 13.997112329208333" fill="#ff9b0e" stroke="none" /><path d="M 107.74402155503746 80.48000691201159 l 5.993369269541983 -15.107205717824947 a37.252634857209245,37.252634857209245 0 0,0 0.5923976771174547,0.2409229780765439 l -6.251821407849877 15.002095483169109" fill="#ffac0f" stroke="none" /><path d="M 108.07796709384702 80.6158196554323 l 8.744348004408579 -20.98325194246285 a43.73236644309332,43.73236644309332 0 0,0 0.6904818472534975,0.2947256420039149 l -9.103264926832507 20.830051650799533" fill="#fcff18" stroke="none" /><path d="M 108.4095320186766 80.7573450057729 l 5.982723815775137 -13.689642902486243 a35.93985632639869,35.93985632639869 0 0,0 0.5632059533481927,0.25191485924212814 l -6.216843171978961 13.58492429233426" fill="#ff9a0e" stroke="none" /><path d="M 108.73861861582097 80.90454125486305 l 9.164829344635717 -20.02680610638717 a43.02423800586804,43.02423800586804 0 0,0 0.6689475850473546,0.3131012469458584 l -9.507265643554577 19.866528627870778" fill="#fff917" stroke="none" /><path d="M 109.06512990194946 81.05736502329252 l 16.006845456803166 -33.44815064940054 a58.08096389446981,58.08096389446981 0 0,0 0.8956630890573326,0.4381136991076981 l -16.578668795122567 33.16844320019562" fill="#53ff2b" stroke="none" /><path d="M 109.3889696526874 81.21577127319529 l 3.5359338130212645 -7.074236254201002 a28.908707006225413,28.908707006225413 0 0,0 0.4419904226265201,0.2256834590995472 l -3.6568514573613635 7.012494843428621" fill="#ff3404" stroke="none" /><path d="M 110.02825361518725 81.54914285379988 l 10.792874682543896 -19.857673789070695 a43.60118032816521,43.60118032816521 0 0,0 0.6545488334146664,0.3630672041742817 l -11.132167704114662 19.669473669463265" fill="#feff18" stroke="none" /><path d="M 110.34350942703115 81.72400993836675 l 8.005023107217946 -14.144108803954703 a37.2522678049927,37.2522678049927 0 0,0 0.5538304094285877,0.31975413596899577 l -8.246645984506932 14.004607770709535" fill="#ffac0f" stroke="none" /><line stroke="#e1ed5e" stroke-width="0.3" x1="143.13028292997686" x2="145.6673583964461" y1="26.7553504044142" y2="22.446841604673864" /><path d="M 143.63769802327073 25.89364864446614 a86.0,86.0 0 0,1 29.32050498858742,28.57503671076993" fill="none" id="id134" stroke="none" /><text fill="#e1ed5e" style="font-size:6.75px; font-family:Arial;" text-anchor="middle"><textPath startOffset="20.669276256404974" xlink:href="#id134">February</textPath></text><path d="M 112.16784306229584 82.88440491214696 l 9.656056270335757 -13.582452405283414 a37.66500633176236,37.66500633176236 0 0,0 0.5237570044409213,0.37915968022680097 l -9.887794285150648 13.414691953683539" fill="#ffb210" stroke="none" /><path d="M 112.45986205192187 83.09580414077388 l 13.266692977976973 -17.99881696678585 a43.35984245865256,43.35984245865256 0 0,0 0.5953657606786912,0.4467735661372528 l -13.573711727566431 17.76842437338458" fill="#fffd17" stroke="none" /><path d="M 112.7482090630111 83.31218511350987 l 10.329549287708748 -13.521711600597508 a38.01576542788885,38.01576542788885 0 0,0 0.5151861327551024,0.4006118529058333 l -10.560145365099075 13.342398696070882" fill="#ffb610" stroke="none" /><path d="M 113.03279911837588 83.53348406188908 l 18.56865259039499 -23.46088595794201 a50.920027221818216,50.920027221818216 0 0,0 0.6807504007626037,0.5483643350619185 l -18.96865376151285 23.138673329086682" fill="#a3ff21" stroke="none" /><path d="M 113.59037401385872 83.9905735841838 l 12.619424758358955 -14.865650634254642 a40.49967820277038,40.49967820277038 0 0,0 0.526149679843646,0.45447556198921546 l -12.872753917965461 14.646830939800706" fill="#ffd814" stroke="none" /><path d="M 113.86319453409587 84.22622945171908 l 12.919574316709156 -14.70010395886898 a40.57060185396776,40.57060185396776 0 0,0 0.5191780762374064,0.46425223718237146 l -13.170017419769938 14.47615619180322" fill="#ffd914" stroke="none" /><path d="M 114.13192950727249 84.46653392183569 l 11.536741086272173 -12.680899393387964 a38.14355868298375,38.14355868298375 0 0,0 0.48055476398362906,0.4447943152771944 l -11.752725621569766 12.480987331978394" fill="#ffb811" stroke="none" /><path d="M 114.65682725009322 84.96080404539774 l 13.577591678397493 -13.931805182577849 a40.45369351641461,40.45369351641461 0 0,0 0.49316535241848997,0.4889502892642525 l -13.814748950945944 13.696674883084937" fill="#ffd714" stroke="none" /><path d="M 114.91283532996326 85.21462403516908 l 10.591213201049953 -10.50069055524063 a35.91436553149394,35.91436553149394 0 0,0 0.4303108760008674,0.4415368670960088 l -10.769910878201632 10.31733099607688" fill="#ff990e" stroke="none" /><path d="M 115.16444852881244 85.47280134310134 l 26.73110941162139 -25.60779813417509 a58.01771921197651,58.01771921197651 0 0,0 0.6827971830079861,0.7251069467488376 l -27.166762428365637 25.145149727481762" fill="#54ff2b" stroke="none" /><path d="M 115.41159269507618 85.73525988315684 l 7.563095240188625 -7.000288043862745 a31.305553954504898,31.305553954504898 0 0,0 0.3616571126562639,0.39752451981039966 l -7.682150053686766 6.869425948494674" fill="#ff5708" stroke="none" /><path d="M 115.6541949942343 86.00192230759917 l 13.2840828158438 -11.878708767647094 a38.82051004446204,38.82051004446204 0 0,0 0.4399453277174468,0.500577023292548 l -13.486039207519836 11.648919466543248" fill="#ffc112" stroke="none" /><path d="M 115.8921839302757 86.27271002978787 l 17.008721061712805 -14.691728151458365 a43.4753969538139,43.4753969538139 0 0,0 0.4830022125243389,0.5689753918618866 l -17.258417837744258 14.397585977146928" fill="#ffff18" stroke="none" /><path d="M 116.1254893667686 86.54754324733833 l 7.354778264327847 -6.135617609855713 a30.57802520208633,30.57802520208633 0 0,0 0.33279547244467805,0.405956364595599 l -7.459020556011152 6.008458963561619" fill="#ff4d07" stroke="none" /><path d="M 116.35404254752997 86.82634096563983 l 16.0596040601149 -12.936480231105515 a41.621915607853765,41.621915607853765 0 0,0 0.4434390353562341,0.5602707351622206 l -16.279309526112694 12.658889552028615" fill="#ffe715" stroke="none" /><path d="M 116.7966241395341 87.39550010848427 l 38.91119462500597 -29.19968586278309 a69.64876896315371,69.64876896315371 0 0,0 0.7094157628424428,0.9624587295379526 l -39.40671240743223 28.527420823976264" fill="#3aff94" stroke="none" /><path d="M 117.01052211995028 87.68569379921539 l 7.145973198923986 -5.17313351428201 a29.82191834672752,29.82191834672752 0 0,0 0.29663564169065415,0.4172551787370573 l -7.2337239391446015 5.049701108835449" fill="#ff4106" stroke="none" /><path d="M 117.21940702142032 87.97951657250589 l 14.574334747674017 -10.174017553754108 a38.77419102297922,38.77419102297922 0 0,0 0.3763132417698217,0.549052265999655 l -14.746837726259162 9.922330552684405" fill="#ffc111" stroke="none" /><path d="M 117.42321728460499 88.27688183743584 l 21.297500089970434 -14.329908537762039 a46.66962774920813,46.66962774920813 0 0,0 0.4415292608778504,0.6685315760660777 l -21.54035378976901 13.962197083356903" fill="#d7ff1c" stroke="none" /><path d="M 117.62189284568427 88.57770195909679 l 10.888957653312183 -7.058090794222862 a33.97636483901094,33.97636483901094 0 0,0 0.31303930948632314,0.4921497889597864 l -11.008514654424395 6.870127330584403" fill="#ff7e0b" stroke="none" /><path d="M 117.81537515405839 88.88188828441811 l 19.19358481010031 -11.978216472897499 a43.62457442106053,43.62457442106053 0 0,0 0.3910258306210958,0.6387113075875359 l -19.39637860517681 11.646968049185407" fill="#fdff18" stroke="none" /><line stroke="#e1ed5e" stroke-width="0.3" x1="172.87174338648825" x2="177.1583165268699" y1="56.24261187166439" y2="53.66864786411523" /><path d="M 173.72905801456457 55.72781907015455 a86.0,86.0 0 0,1 12.242430191666344,42.057860355516425" fill="none" id="id135" stroke="none" /><text fill="#e1ed5e" style="font-size:6.75px; font-family:Arial;" text-anchor="middle"><textPath startOffset="22.145653131862474" xlink:href="#id135">March</textPath></text><path d="M 118.18653347947321 89.5 l 36.20031203145941 -20.900259896111542 a62.80051979222308,62.80051979222308 0 0,0 0.5310131892577871,0.9382494247174443 l -36.55375858573857 20.27575370129498" fill="#31ff40" stroke="none" /><path d="M 118.36410011445183 89.81374322990088 l 8.188939851387794 -4.542266894716464 a30.36434324619107,30.36434324619107 0 0,0 0.24892204265275222,0.45798852180709976 l -8.265707243655887 4.401023539434761" fill="#ff4906" stroke="none" /><path d="M 118.53625476483649 90.13048839642627 l 13.071593387046184 -6.95988721817656 a35.80900346971419,35.80900346971419 0 0,0 0.2842415207833128,0.5450705947513429 l -13.18914297680444 6.734470380320719" fill="#ff980e" stroke="none" /><path d="M 118.70294669586156 90.45014215332178 l 20.928160764568357 -10.686068005437892 a44.49850979114339,44.49850979114339 0 0,0 0.34153684143261254,0.6833024693251993 l -21.108517519212707 10.325233679948942" fill="#f2ff19" stroke="none" /><path d="M 118.8641267826498 90.77261029715802 l 6.871249036398955 -3.3610722263829236 a28.64923982047734,28.64923982047734 0 0,0 0.2123055218927201,0.4436368864265633 l -6.927933816251587 3.2426228378912567" fill="#ff3004" stroke="none" /><path d="M 119.0197475246899 91.09779779509293 l 17.181897498809786 -8.04199559430722 a39.970801111140844,39.970801111140844 0 0,0 0.28553529137429046,0.6239461425684529 l -17.317417255039125 7.745860469524083" fill="#ffd113" stroke="none" /><path d="M 119.31412917781788 91.75594674310238 l 31.52721390549861 -13.457092892235613 a55.279127260671665,55.279127260671665 0 0,0 0.36503744226828155,0.8759569742290457 l -31.753577192303375 12.91390340856529" fill="#72ff27" stroke="none" /><path d="M 119.4528033332814 92.08871423366111 l 6.830865950399693 -2.778053714896122 a28.37416517818648,28.37416517818648 0 0,0 0.1796237674056268,0.452769232791646 l -6.877548392771445 2.660383464890911" fill="#ff2c04" stroke="none" /><path d="M 119.58574465831526 92.42381321644754 l 10.990373013359415 -4.251312381670122 a32.783970296098026,32.783970296098026 0 0,0 0.19852928973345127,0.526622527716495 l -11.061732986907307 4.062021573759469" fill="#ff6d0a" stroke="none" /><path d="M 119.71291397450082 92.76114493625339 l 20.57320792277046 -7.554766917864052 a42.91646384380469,42.91646384380469 0 0,0 0.2480159406856855,0.6937447271768555 l -20.69986403350009 7.20048723430628" fill="#fff817" stroke="none" /><path d="M 119.83427380445688 93.10060997987247 l 6.932710916765391 -2.4115567317020834 a28.340169379902324,28.340169379902324 0 0,0 0.15589060564224702,0.46086287563596573 l -6.973086943980003 2.292192181591956" fill="#ff2b04" stroke="none" /><path d="M 119.94978838288452 93.4421083053983 l 18.312384892734745 -6.0196446444235825 a40.27639909590993,40.27639909590993 0 0,0 0.21027211725470035,0.6586744124256997 l -18.4130217257667 5.7044011983064955" fill="#ffd513" stroke="none" /><path d="M 120.16314734710363 94.1308016681162 l 25.675100335873402 -7.473647514851085 a47.740721464339856,47.740721464339856 0 0,0 0.22229332067764374,0.7888405740609176 l -25.799612148625627 7.031799016887154" fill="#caff1d" stroke="none" /><path d="M 120.35273937422433 94.82641323984039 l 9.981474103059286 -2.5372516847468174 a31.298906319692094,31.298906319692094 0 0,0 0.12789697945846015,0.5218633211417655 l -10.023558609034037 2.365532538996957" fill="#ff5708" stroke="none" /><path d="M 120.43855184770803 95.1765574152323 l 14.285030022124788 -3.3712281891013043 a35.67744058874018,35.67744058874018 0 0,0 0.13555582125729154,0.5972839601872029 l -14.340796704939747 3.125509894975075" fill="#ff960d" stroke="none" /><path d="M 120.51834098615036 95.52812308129327 l 10.212303049597969 -2.2257239181842716 a31.45203236393791,31.45203236393791 0 0,0 0.11044499360680397,0.52851927594632 l -10.249005754029138 2.0500881909525472" fill="#ff5908" stroke="none" /><path d="M 120.592083275326 95.88100663000786 l 14.417751949885291 -2.8839541826701622 a35.70335890251482,35.70335890251482 0 0,0 0.11505612737685901,0.6020222765274035 l -14.465134369544307 2.6360293411094444" fill="#ff960d" stroke="none" /><path d="M 120.65975698304385 96.23510406497455 l 8.69042858109347 -1.5836855808827288 a29.83355018903397,29.83355018903397 0 0,0 0.08749069682124973,0.5046230895170494 l -8.716334095406953 1.4342694584450868" fill="#ff4206" stroke="none" /><path d="M 120.77682067341334 96.94652285012252 l 62.330462020240034 -9.160431449632455 a84.0,84.0 0 0,0 0.19742193377914985,1.4284467671996575 l -62.478528470574396 8.089096374232712" fill="#4dd2ff" stroke="none" /><path d="M 120.86939407059847 97.66154086499901 l 7.717109104608617 -0.864718171520625 a28.76540471891782,28.76540471891782 0 0,0 0.0507745110584227,0.49119733556691214 l -7.730816008148705 0.7321163136707814" fill="#ff3204" stroke="none" /><path d="M 120.9064616781168 98.02013634271609 l 7.8740715496037765 -0.7456827623888016 a28.909301204936085,28.909301204936085 0 0,0 0.04254675098021006,0.494457739423355 l -7.885711923281727 0.6104039755897845" fill="#ff3404" stroke="none" /><path d="M 120.96210409425399 98.7389718711861 l 7.84990231518875 -0.4722306302547128 a28.86409359851194,28.86409359851194 0 0,0 0.025508176141195105,0.4948518025751639 l -7.856852080786518 0.3374070343028182" fill="#ff3304" stroke="none" /><path d="M 120.98066250479742 99.09900007780936 l 11.74590895979241 -0.504419870269178 a32.75673495054022,32.75673495054022 0 0,0 0.019303564189248553,0.5620022093339612 l -11.752837210978505 0.30271139637109695" fill="#ff6c0a" stroke="none" /><path d="M 120.99303781780057 99.45929381324524 l 9.78026409731897 -0.25190491016177713 a30.783507647928225,30.783507647928225 0 0,0 0.009071706795818632,0.5283814413802648 l -9.783147235713455 0.08397655281244594" fill="#ff5007" stroke="none" /><line stroke="#e1ed5e" stroke-width="0.3" x1="184.99686870605535" x2="189.99668451229388" y1="99.2704041080226" y2="99.22748670261217" /><path d="M 185.99683186730306 99.26182062694052 a86.0,86.0 0 0,1 -10.086455211305974,41.156179273409016" fill="none" id="id136" stroke="none" /><text fill="#e1ed5e" style="font-size:6.75px; font-family:Arial;" text-anchor="middle"><textPath startOffset="21.40746469413373" xlink:href="#id136">April</textPath></text><path d="M 120.99922638620191 99.81974689727618 l 13.277214133198392 -0.11396891480774864 a34.27770326722003,34.27770326722003 0 0,0 0.0,0.5884440350631494 l -13.277214133198392 -0.11396891480774703" fill="#ff820c" stroke="none" /><path d="M 120.99922638620191 100.18025310272382 l 19.480896776754616 0.16722006912406595 a40.48161445512374,40.48161445512374 0 0,0 -0.011929678097708044,0.6948439417571612 l -19.47515566705824 -0.5016109268502983" fill="#ffd814" stroke="none" /><path d="M 120.99303781780057 100.54070618675476 l 13.361913150876065 0.34415548479754743 a34.36634452830208,34.36634452830208 0 0,0 -0.020252108110093994,0.5896180306370805 l -13.354036355769125 -0.5734797799987387" fill="#ff830c" stroke="none" /><path d="M 120.93736805541906 101.62068470465957 l 13.345376396642969 1.0330165351593046 a34.38529769299091,34.38529769299091 0 0,0 -0.05060595162619429,0.5881178671926048 l -13.325676822319034 -1.2619554497275667" fill="#ff840c" stroke="none" /><path d="M 120.9064616781168 101.97986365728391 l 22.908789444281044 2.1694861785519954 a44.01128644994301,44.01128644994301 0 0,0 -0.07768538535730742,0.7515356328314314 l -22.86817166644207 -2.562426333666358" fill="#f8ff18" stroke="none" /><path d="M 120.82617615685814 102.69636545807757 l 24.316213127917212 3.148220616955526 a45.519166256936984,45.519166256936984 0 0,0 -0.10698192650547084,0.7740679272064938 l -24.25858668485653 -3.565176852362105" fill="#e5ff1a" stroke="none" /><path d="M 120.77682067341334 103.0534771498775 l 13.16592508767257 1.9349375943572769 a34.307350108427414,34.307350108427414 0 0,0 -0.09063431393836184,0.5819373121541512 l -13.13076928159594 -2.160663088442879" fill="#ff830c" stroke="none" /><path d="M 120.65975698304385 103.76489593502545 l 13.147447436236607 2.39590288739956 a34.36397114387988,34.36397114387988 0 0,0 -0.11073987329596385,0.5794378113008125 l -13.104381270658484 -2.6212432637336867" fill="#ff830c" stroke="none" /><path d="M 120.592083275326 104.11899336999214 l 14.417554276761035 2.88391464250915 a35.70315731360544,35.70315731360544 0 0,0 -0.12537297862395708,0.5999550882447804 l -14.365923587312713 -3.1309861820393396" fill="#ff960d" stroke="none" /><path d="M 120.51834098615036 104.47187691870673 l 30.50010168645401 6.647355204883532 a52.21607813457557,52.21607813457557 0 0,0 -0.19839408986645143,0.8741609661178282 l -30.38149673502989 -7.169950504940377" fill="#94ff23" stroke="none" /><path d="M 120.35273937422433 105.17358676015961 l 23.591757388232146 5.99693247323898 a45.34202571179716,45.34202571179716 0 0,0 -0.19823213914120794,0.7527197206839102 l -23.48533576828621 -6.401032698295693" fill="#e7ff1a" stroke="none" /><path d="M 120.26092885502905 105.52220625578681 l 17.060401898998833 4.649888401809569 a38.682725330238156,38.682725330238156 0 0,0 -0.1801169149264542,0.6391713891156676 l -16.978066491997797 -4.942067714828245" fill="#ffbf11" stroke="none" /><path d="M 120.05942366710727 106.21446072829308 l 16.906050906054027 5.237537786216322 a38.69876716893394,38.69876716893394 0 0,0 -0.20203573036361483,0.6328740477990069 l -16.813650459913156 -5.526980867706712" fill="#ffc011" stroke="none" /><path d="M 119.94978838288452 106.5578916946017 l 21.553710862532967 7.0851328716106385 a43.68835736129985,43.68835736129985 0 0,0 -0.24031629441840083,0.7104524230408754 l -21.4289091465422 -7.454086969125674" fill="#fcff18" stroke="none" /><path d="M 119.83427380445688 106.89939002012753 l 21.080884350620444 7.333025879245997 a43.31987799137633,43.31987799137633 0 0,0 -0.25034728698812175,0.7002659177102727 l -20.95189689358838 -7.693826753337191" fill="#fffd17" stroke="none" /><line stroke="#e1ed5e" stroke-width="0.3" x1="174.33088141563837" x2="178.70328620479359" y1="141.23008692659167" y2="143.65538615756765" /><path d="M 175.20536237346943 141.71514677278685 a86.0,86.0 0 0,1 -30.301960400862466,31.631185727798858" fill="none" id="id137" stroke="none" /><text fill="#e1ed5e" style="font-size:6.75px; font-family:Arial;" text-anchor="middle"><textPath startOffset="22.145653131862474" xlink:href="#id137">May</textPath></text><path d="M 117.21940702142032 112.02048342749411 l 8.506391822914631 5.938122132075761 a31.374005798166728,31.374005798166728 0 0,0 -0.3120741004700238,0.43897130442140236 l -8.403202623914646 -6.083270663206667" fill="#ff5808" stroke="none" /><path d="M 117.01052211995028 112.31430620078461 l 8.50376913421377 6.156073061195105 a31.498158172878654,31.498158172878654 0 0,0 -0.3208282104765659,0.43526508435334915 l -8.396838904153375 -6.301144454817332" fill="#ff5a08" stroke="none" /><path d="M 116.79662413953412 112.60449989151573 l 8.37431884727305 6.284244984295938 a31.470002444051353,31.470002444051353 0 0,0 -0.32795941940646883,0.42930940764186626 l -8.265207450512278 -6.427075305178683" fill="#ff5a08" stroke="none" /><path d="M 116.35404254752997 113.17365903436017 l 8.33392851883198 6.713222886924958 a31.701482424717337,31.701482424717337 0 0,0 -0.34502260204856633,0.4208714746088821 l -8.217459097544786 -6.855296643232333" fill="#ff5d08" stroke="none" /><path d="M 116.1254893667686 113.45245675266167 l 5.815178606812518 4.851228817797114 a28.573026031366535,28.573026031366535 0 0,0 -0.3174401100081214,0.37394365139776375 l -5.731043933297283 -4.950339251644435" fill="#ff2f04" stroke="none" /><path d="M 115.6541949942343 113.99807769240083 l 11.114148344059878 9.93833998249796 a35.90955717053617,35.90955717053617 0 0,0 -0.4148448157772397,0.4559871226545508 l -10.941905827440758 -10.127664680710181" fill="#ff990e" stroke="none" /><path d="M 115.41159269507618 114.26474011684316 l 35.357077197445314 32.72598280344219 a69.17792916260828,69.17792916260828 0 0,0 -0.81413912508309,0.8645875377181507 l -34.79008223862596 -33.328111801104846" fill="#39ff8e" stroke="none" /><path d="M 115.16444852881244 114.52719865689866 l 11.305405009188231 10.83032226019473 a36.65592739768066,36.65592739768066 0 0,0 -0.43919595949115237,0.45065374549017445 l -11.11782224854627 -11.022798697752643" fill="#ffa40f" stroke="none" /><path d="M 114.91283532996324 114.78537596483092 l 13.234013019947504 13.12090247722688 a39.63591109736893,39.63591109736893 0 0,0 -0.483195880663659,0.4790660261577073 l -13.006825219153882 -13.346148513613247" fill="#ffcc13" stroke="none" /><path d="M 114.65682725009322 115.03919595460226 l 15.511148518123441 15.915804837197172 a43.22405390488045,43.22405390488045 0 0,0 -0.5358290716133941,0.5133121296616621 l -15.235646960644734 -16.179729097164415" fill="#fffc17" stroke="none" /><path d="M 114.39649973595853 115.28858382429668 l 5.059079713556957 5.372567338804221 a28.379618374828702,28.379618374828702 0 0,0 -0.35754295825956034,0.3309364243586184 l -4.96610698398343 -5.458621509295219" fill="#ff2c04" stroke="none" /><path d="M 111.8722381534696 117.32195027204791 l 13.062488319437538 19.0585608352523 a44.10535310715798,44.10535310715798 0 0,0 -0.6281940394830152,0.4226769851733956 l -12.733397991857519 -19.279987494482818" fill="#f7ff18" stroke="none" /><path d="M 111.5731344415666 117.5232005979908 l 8.175393608909125 12.378587918404428 a35.83463850298551,35.83463850298551 0 0,0 -0.5162139528585371,0.3346036475228632 l -7.961694023793579 -12.517105407631185" fill="#ff980e" stroke="none" /><path d="M 111.27062007382361 117.71928675628689 l 13.796786379530005 21.690839773928086 a46.7068832124901,46.7068832124901 0 0,0 -0.6802209675623309,0.4245081926841341 l -13.422401283177958 -21.924483763453768" fill="#d6ff1c" stroke="none" /><line stroke="#e1ed5e" stroke-width="0.3" x1="143.1302829299769" x2="145.66735839644613" y1="173.24464959558577" y2="177.55315839532614" /><path d="M 143.63769802327073 174.10635135553383 a86.0,86.0 0 0,1 -40.68552437913181,11.842963189579606" fill="none" id="id138" stroke="none" /><text fill="#e1ed5e" style="font-size:6.75px; font-family:Arial;" text-anchor="middle"><textPath startOffset="21.407464694133747" xlink:href="#id138">June</textPath></text><path d="M 110.65571695917076 118.09573695890943 l 12.793814105027982 21.726693345258315 a46.21370427114796,46.21370427114796 0 0,0 -0.6870603124535459,0.39667445634456466 l -12.418961324714036 -21.943114698879054" fill="#ddff1b" stroke="none" /><path d="M 110.34350942703117 118.27599006163325 l 8.057366177765815 14.23659399419662 a37.35853777934323,37.35853777934323 0 0,0 -0.5608331503299079,0.31108469453116705 l -7.811788839279812 -14.372811604160932" fill="#ffad10" stroke="none" /><path d="M 109.71004243097381 118.62028667847754 l 13.342622722789642 25.58623836169948 a49.85621552845079,49.85621552845079 0 0,0 -0.762260649265054,0.3892157188368939 l -12.901434851811006 -25.811512032209208" fill="#b0ff20" stroke="none" /><path d="M 109.3889696526874 118.78422872680471 l 6.651108496350089 13.306672393650134 a35.87631588875925,35.87631588875925 0 0,0 -0.5532465330862407,0.2706206028697976 l -6.421701714001779 -13.418886746617156" fill="#ff990e" stroke="none" /><path d="M 109.06512990194946 118.94263497670748 l 7.014325134703462 14.657241768378688 a37.24916900496876,37.24916900496876 0 0,0 -0.579155908525237,0.27107420848597163 l -6.761680512306719 -14.775492208435193" fill="#ffac0f" stroke="none" /><path d="M 108.73861861582097 119.09545874513695 l 16.194183699978684 35.38721396929399 a59.91666093355455,59.91666093355455 0 0,0 -0.9389414313750791,0.41997655940121614 l -15.58432886574798 -35.65999427960506" fill="#3fff2d" stroke="none" /><path d="M 108.4095320186766 119.2426549942271 l 12.503392987072111 28.610210053677893 a52.22305166867479,52.22305166867479 0 0,0 -0.8245396286140403,0.3519469372982977 l -12.010418283287638 -28.820631640635597" fill="#94ff23" stroke="none" /><path d="M 108.07796709384702 119.3841803445677 l 5.734414671444159 13.7605076711041 a35.90755120704232,35.90755120704232 0 0,0 -0.5710079302460753,0.23222395423561892 l -5.497352280007643 -13.856918881919011" fill="#ff990e" stroke="none" /><path d="M 107.407793817531 119.65005319985036 l 10.751307342273808 28.519120057533677 a51.47836640018704,51.47836640018704 0 0,0 -0.8295636973784276,0.30462728033186576 l -10.260154493241254 -28.699478186874263" fill="#9dff22" stroke="none" /><path d="M 107.06938296918513 119.77432235084164 l 5.499428012628783 15.38287892182267 a37.33636043889649,37.33636043889649 0 0,0 -0.6053721534424215,0.21057985964604622 l -5.23455008714134 -15.475017214037306" fill="#ffad10" stroke="none" /><path d="M 106.72888874123015 119.89276391827305 l 4.710910938887176 13.92697111680293 a35.70214971908496,35.70214971908496 0 0,0 -0.5822464045658539,0.1913959580638925 l -4.471141796673588 -14.005787996268841" fill="#ff960d" stroke="none" /><path d="M 106.38641147887787 120.00534299687104 l 3.623026748291753 11.349079686789912 a32.9133510212679,32.9133510212679 0 0,0 -0.5397152727503758,0.16720517112697744 l -3.4276708426697526 -11.409601445723533" fill="#ff6f0a" stroke="none" /><path d="M 106.0420521117495 120.11202640906438 l 10.618425236221665 35.345284155738476 a57.90582699990784,57.90582699990784 0 0,0 -0.9544534400371866,0.2778274860413431 l -10.010111783802872 -35.522355336082335" fill="#55ff2b" stroke="none" /><path d="M 105.69591212413111 120.21278271476187 l 4.016319262689579 14.252500179194904 a35.8075852784241,35.8075852784241 0 0,0 -0.5930735308310907,0.16164482810886183 l -3.7710643309237932 -14.319345501447907" fill="#ff980e" stroke="none" /><path d="M 104.9986988182912 120.39639698878246 l 7.302476531360646 29.79659622417804 a51.67838506241445,51.67838506241445 0 0,0 -0.8634420792881219,0.2037699796811062 l -6.789902298332645 -29.91756234750537" fill="#9bff22" stroke="none" /><path d="M 104.64783097203109 120.47920084513623 l 3.5200434755921934 15.509961045068286 a36.90438925861647,36.90438925861647 0 0,0 -0.6190053756477041,0.13490934056426848 l -3.2532756833253536 -15.568101843766273" fill="#ffa70f" stroke="none" /><path d="M 104.29559338865022 120.5559693870025 l 5.11104669008525 24.45820863178724 a45.98653172699771,45.98653172699771 0 0,0 -0.7741143135112268,0.15484454303802242 l -4.690435891043065 -24.542342571488124" fill="#dfff1b" stroke="none" /><path d="M 103.94208987418118 120.62667999033965 l 2.2281031939045537 11.658377417300537 a32.869381106313455,32.869381106313455 0 0,0 -0.5551251337182147,0.10116229155461781 l -2.027643326635282 -11.694907882786518" fill="#ff6e0a" stroke="none" /><path d="M 103.2317021107853 120.74984581791261 l 2.0475821137752175 13.146946006736682 a34.30544181215723,34.30544181215723 0 0,0 -0.5826614207348986,0.085631163800044 l -1.8215955874326333 -13.180158243835608" fill="#ff830c" stroke="none" /><path d="M 102.875027216393 120.80226474461374 l 0.8468781487462773 6.127588412450127 a27.185834006115666,27.185834006115666 0 0,0 -0.4628351708372524,0.0599232791478154 l -0.7415651560182496 -6.141223287798337" fill="#ff1a02" stroke="none" /><path d="M 102.51750503828377 120.84855314841334 l 2.6967826742937864 22.33322915336182 a43.4954609023452,43.4954609023452 0 0,0 -0.7420410516493519,0.08314724758683006 l -2.313005721043635 -22.376232161455622" fill="#ffff18" stroke="none" /><path d="M 102.15924093988457 120.88869738790638 l 2.0333922261553146 19.671225243325733 a40.77604071898732,40.77604071898732 0 0,0 -0.6968828008321402,0.06599552578512029 l -1.6954098619381592 -19.703232524616038" fill="#ffdc14" stroke="none" /><path d="M 101.80034050326958 120.92268563240118 l 1.264546442227027 14.695946478034502 a35.75025154327219,35.75025154327219 0 0,0 -0.6118928023445953,0.04736437278201723 l -1.0120846451071956 -14.715488617811571" fill="#ff970d" stroke="none" /><path d="M 101.44090949804482 120.95050786540614 l 1.011168386964264 14.702166425504366 a35.73689787947327,35.73689787947327 0 0,0 -0.6123868828187518,0.036839674179598283 l -0.7586371520130472 -14.717358077508655" fill="#ff970d" stroke="none" /><path d="M 100.72087961077811 120.9876233191556 l 0.6674920878705366 19.433303840598672 a40.444763918556504,40.444763918556504 0 0,0 -0.694083544371416,0.017877130019178043 l -0.3337952294283768 -19.441898687967896" fill="#ffd714" stroke="none" /><line stroke="#e1ed5e" stroke-width="0.3" x1="101.45913802915013" x2="101.54496967792366" y1="184.9874750549273" y2="189.98673829345242" /><path d="M 101.47630435890484 185.9873277026323 a86.0,86.0 0 0,1 -42.54439059252881,-10.42667462771756" fill="none" id="id139" stroke="none" /><text fill="#e1ed5e" style="font-size:6.75px; font-family:Arial;" text-anchor="middle"><textPath startOffset="22.145653131862474" xlink:href="#id139">July</textPath></text><path d="M 100.36049292484886 120.99690560180557 l 0.2543871366572885 14.816775383167878 a35.81895899078428,35.81895899078428 0 0,0 -0.6148800615061389,0.005278005810839095 l -1.814799069475986e-15 -14.818958990784282" fill="#ff980e" stroke="none" /><path d="M 100.0 121.0 l 2.1691460482257e-15 17.712421652805887 a38.71242165280589,38.71242165280589 0 0,0 -0.6645501956953347,-0.005704364174506928 l 0.30405727084648043 -17.709811686825816" fill="#ffc011" stroke="none" /><path d="M 99.27912038922189 120.98762331915562 l -0.6064637664000841 17.656530848726185 a38.6669431399995,38.6669431399995 0 0,0 -0.663182706444759,-0.0284799189143009 l 0.9094722334456817 -17.643518361386054" fill="#ffbf11" stroke="none" /><path d="M 98.91894614982273 120.97215588758144 l -0.9110471399239302 17.674071126324424 a38.697536468942175,38.697536468942175 0 0,0 -0.6631203360433081,-0.03989167274330763 l 1.2143118280996845 -17.655827475756425" fill="#ffc011" stroke="none" /><path d="M 98.55909050195518 120.95050786540614 l -1.2134324892510924 17.643042081886243 a38.68472087167844,38.68472087167844 0 0,0 -0.6621184814165135,-0.05125215799157851 l 1.5161199654428419 -17.61961215689961" fill="#ffbf11" stroke="none" /><path d="M 98.19965949673042 120.92268563240118 l -3.167297426322626 36.808797133049104 a57.94481451257746,57.94481451257746 0 0,0 -0.9903056775303978,-0.09378297727906011 l 3.7987026672380395 -36.749002400264864" fill="#54ff2b" stroke="none" /><path d="M 97.84075906011543 120.88869738790638 l -4.314905641704971 41.74279791664356 a62.965218796124006,62.965218796124006 0 0,0 -1.074198921071513,-0.12036622967059915 l 5.030840464377283 -41.66257592646599" fill="#31ff42" stroke="none" /><path d="M 97.48249496171623 120.84855314841334 l -4.293115987448909 35.55315897109346 a56.81142216815094,56.81142216815094 0 0,0 -0.9672068283351882,-0.12522428808328984 l 4.902800637674891 -35.47422308680977" fill="#61ff29" stroke="none" /><path d="M 97.12497278360702 120.80226474461374 l -2.3002571818280995 16.64351509587474 a37.80171949084861,37.80171949084861 0 0,0 -0.6420440146307784,-0.09435836015080959 l 2.585626302066563 -16.60157566242505" fill="#ffb310" stroke="none" /><path d="M 96.76829788921471 120.74984581791261 l -5.049320359108429 32.42025884350082 a53.811108173429616,53.811108173429616 0 0,0 -0.9115153220444803,-0.14998949937015627 l 5.6051131842059725 -32.32880334563499" fill="#82ff25" stroke="none" /><path d="M 96.41257539226777 120.69131181640829 l -3.022112444059649 17.43074148220634 a38.69078608327084,38.69078608327084 0 0,0 -0.6534418073972524,-0.11907886459965178 l 3.320888985007959 -17.376294443675324" fill="#ffc011" stroke="none" /><path d="M 96.05791012581884 120.62667999033965 l -3.3095770612379685 17.31710567854673 a38.630526067200265,38.630526067200265 0 0,0 -0.6502869871687252,-0.1300756097829899 l 3.6063605339376514 -17.25774067210088" fill="#ffbf11" stroke="none" /><path d="M 95.70440661134978 120.55596938700252 l -8.577758410469 41.04767917759315 a62.93435232855023,62.93435232855023 0 0,0 -1.0556116274213503,-0.23006564102674298 l 9.281132454509487 -40.89438207843269" fill="#31ff42" stroke="none" /><path d="M 95.35216902796893 120.47920084513623 l -7.644164698243082 33.6816001035017 a55.538144702141594,55.538144702141594 0 0,0 -0.9279309150915656,-0.21898916933672213 l 8.221227767074534 -33.54541479051875" fill="#6fff28" stroke="none" /><path d="M 95.00130118170881 120.39639698878247 l -8.209430337150303 33.497277250545054 a55.48858259859931,55.48858259859931 0 0,0 -0.92321033554176,-0.23467645710878365 l 8.783245965917443 -33.35141556160101" fill="#6fff27" stroke="none" /><path d="M 94.6519064749342 120.30758222061772 l -4.31506299299783 16.384997028706593 a37.94366832372091,37.94366832372091 0 0,0 -0.6284530266550091,-0.17128766702129636 l 4.595697420587534 -16.30850886754115" fill="#ffb510" stroke="none" /><path d="M 94.30408787586889 120.21278271476187 l -8.627331088063722 30.615354466681378 a52.80771558637335,52.80771558637335 0 0,0 -0.8704220009153762,-0.253367158800306 l 9.151613101360706 -30.462743613578557" fill="#8eff24" stroke="none" /><path d="M 93.95794788825049 120.11202640906438 l -8.32919921736469 27.725195269375398 a49.94930072260027,49.94930072260027 0 0,0 -0.8190718850161467,-0.2537505637028004 l 8.803911735252472 -27.578128117865948" fill="#afff20" stroke="none" /><path d="M 93.61358852112213 120.00534299687104 l -6.746269633023847 21.132593539326844 a43.183296951983,43.183296951983 0 0,0 -0.7042522533076038,-0.2315017038893875 l 7.108044623979195 -21.013670914035437" fill="#fffb17" stroke="none" /><path d="M 93.27111125876986 119.89276391827306 l -7.103195387795359 20.999335008910727 a43.168163106889594,43.168163106889594 0 0,0 -0.6999290652054736,-0.24347166197689285 l 7.462630225045854 -20.874304914365243" fill="#fffb17" stroke="none" /><path d="M 92.59220618246901 119.65005319985036 l -6.830262564057888 18.118082935172406 a40.362784302360964,40.362784302360964 0 0,0 -0.6462422688306935,-0.2499803924488194 l 7.1402770953821095 -17.998162654585546" fill="#ffd614" stroke="none" /><path d="M 92.25597844496254 119.51999308798841 l -4.349917133132745 10.964632751679213 a32.79597178889125,32.79597178889125 0 0,0 -0.5215270699916376,-0.21210051913321373 l 4.537498664314824 -10.888344975966707" fill="#ff6d0a" stroke="none" /><path d="M 91.92203290615298 119.3841803445677 l -6.845923788498519 16.427724921348204 a38.79710141032564,38.79710141032564 0 0,0 -0.6125599053676085,-0.2614653985379034 l 7.126918769036559 -16.307784873150897" fill="#ffc111" stroke="none" /><path d="M 91.59046798132341 119.24265499422711 l -7.9312705309941185 18.14829911520069 a40.80570152785833,40.80570152785833 0 0,0 -0.6394575933281671,-0.2860212479234642 l 8.24164152717792 -18.00947411636737" fill="#ffdc14" stroke="none" /><path d="M 91.26138138417905 119.09545874513695 l -6.871032155433367 15.014445283496466 a37.51195476169035,37.51195476169035 0 0,0 -0.5832417425920954,-0.2729865851351166 l 7.127762611896952 -14.894282466790822" fill="#ffaf10" stroke="none" /><path d="M 90.93487009805054 118.94263497670748 l -12.085363867568496 25.25376235974385 a48.99658074004655,48.99658074004655 0 0,0 -0.7555733568508364,-0.3695887910994997 l 12.517097473681401 -25.042579818547125" fill="#baff1f" stroke="none" /><path d="M 90.6110303473126 118.78422872680471 l -7.933285840734407 15.871885978971317 a38.74411983616723,38.74411983616723 0 0,0 -0.5923658189552437,-0.302466207932112 l 8.204578881403233 -15.733361819366369" fill="#ffc011" stroke="none" /><path d="M 90.28995756902619 118.62028667847754 l -7.937108530589255 15.22045215439287 a38.16565919533868,38.16565919533868 0 0,0 -0.5783209337540578,-0.30792332316790033 l 8.197218280129874 -15.081958363502396" fill="#ffb811" stroke="none" /><path d="M 89.97174638481275 118.45085714620012 l -2.1548416779078106 3.9646659824740365 a25.51241831055537,25.51241831055537 0 0,0 -0.3829970545997736,-0.21244201001032284 l 2.2225829206636867 -3.927091057030565" fill="#ff0000" stroke="none" /><line stroke="#e1ed5e" stroke-width="0.3" x1="58.13341422392154" x2="55.67067388415222" y1="173.97424548756322" y2="178.32567169271397" /><path d="M 57.64086615596768 174.84453072859336 a86.0,86.0 0 0,1 -31.369924170532247,-30.572349798747897" fill="none" id="id140" stroke="none" /><text fill="#e1ed5e" style="font-size:6.75px; font-family:Arial;" text-anchor="middle"><textPath startOffset="22.145653131862474" xlink:href="#id140">August</textPath></text><path d="M 89.65649057296885 118.27599006163327 l -10.53686971796083 18.617639168280782 a42.392571412842884,42.392571412842884 0 0,0 -0.6302514334216879,-0.36387583474316176 l 10.854913619242916 -18.434016436261448" fill="#fff116" stroke="none" /><path d="M 89.34428304082925 118.09573695890944 l -7.491875359755796 12.722842241262601 a35.76478618545396,35.76478618545396 0 0,0 -0.5263678037452981,-0.3160687423736495 l 7.709175920058521 -12.592359498353032" fill="#ff970d" stroke="none" /><path d="M 89.03521579738668 117.91015095944536 l -10.129928259690315 16.546476518540498 a40.40106522140175,40.40106522140175 0 0,0 -0.5883854752290976,-0.3671960533445479 l 10.412477863709126 -16.370144668354403" fill="#ffd714" stroke="none" /><path d="M 88.72937992617639 117.7192867562869 l -12.809970476129347 20.139401268017348 a44.868196979108504,44.868196979108504 0 0,0 -0.6463463924239504,-0.41895392263363357 l 13.153802500810308 -19.91653350367982" fill="#edff19" stroke="none" /><line stroke="#e1ed5e" stroke-width="0.3" x1="26.387840678322732" x2="22.057713659400548" y1="142.50000000000003" y2="145.00000000000006" /><path d="M 25.521815274538298 143.00000000000003 a86.0,86.0 0 0,1 -11.493303480769221,-40.785679425670985" fill="none" id="id141" stroke="none" /><text fill="#e1ed5e" style="font-size:6.75px; font-family:Arial;" text-anchor="middle"><textPath startOffset="21.40746469413373" xlink:href="#id141">September</textPath></text><line stroke="#e1ed5e" stroke-width="0.3" x1="15.003131293944662" x2="10.003315487706104" y1="100.72959589197737" y2="100.7725132973878" /><path d="M 14.003168132696942 100.73817937305945 a86.0,86.0 0 0,1 10.791469493833604,-42.45332614584628" fill="none" id="id142" stroke="none" /><text fill="#e1ed5e" style="font-size:6.75px; font-family:Arial;" text-anchor="middle"><textPath startOffset="22.145653131862435" xlink:href="#id142">October</textPath></text><line stroke="#e1ed5e" stroke-width="0.3" x1="26.387840678322718" x2="22.05771365940052" y1="57.49999999999999" y2="54.99999999999999" /><path d="M 25.521815274538284 56.99999999999999 a86.0,86.0 0 0,1 29.574782752854787,-30.34633250058573" fill="none" id="id143" stroke="none" /><text fill="#e1ed5e" style="font-size:6.75px; font-family:Arial;" text-anchor="middle"><textPath startOffset="21.40746469413373" xlink:href="#id143">November</textPath></text><line stroke="#e1ed5e" stroke-width="0.3" x1="56.869717070023135" x2="54.33264160355391" y1="26.7553504044142" y2="22.446841604673864" /><path d="M 56.362301976729285 25.89364864446614 a86.0,86.0 0 0,1 42.16139366436587,-11.88097634709845" fill="none" id="id144" stroke="none" /><text fill="#e1ed5e" style="font-size:6.75px; font-family:Arial;" text-anchor="middle"><textPath startOffset="22.145653131862474" xlink:href="#id144">December</textPath></text></svg>