<?xml version="1.0" encoding="utf-8" ?>
<svg baseProfile="full" height="200mm" version="1.1" viewBox="0,0,200,200" width="200mm" xmlns="http://www.w3.org/2000/svg" xmlns:ev="http://www.w3.org/2001/xml-events" xmlns:xlink="http://www.w3.org/1999/xlink"><defs /><rect fill="#1a1a1a" height="200" width="200" x="0" y="0" /><text alignment-baseline="middle" fill="#e1ed5e" style="dominant-baseline: central; font-size:9.0px; font-family:Arial;" text-anchor="middle" x="100.0" y="100.0">2023</text><line stroke="#e1ed5e" stroke-width="0.3" x1="100.0" x2="100.0" y1="15.0" y2="10.0" /><path d="M 100.0 14.0 a86.0,86.0 0 0,1 42.46469731375804,11.215312516191453" fill="none" id="id121" stroke="none" /><text fill="#e1ed5e" style="font-size:6.75px; font-family:Arial;" text-anchor="middle"><textPath startOffset="22.20632615414155" xlink:href="#id121">January</textPath></text><path d="M 100.72285384407766 79.0124445844662 l 0.74206262347149 -21.54526888042816 a42.55804416145165,42.55804416145165 0 0,0 0.7319156097375212,0.03151782578068058 l -1.1128190655983428 21.529303328123284" fill="#fff417" stroke="none" /><path d="M 101.08401301168833 79.027996857942 l 1.11876832277626 -21.64440143015978 a42.67329591524903,42.67329591524903 0 0,0 0.7332449841580675,0.04423133984960932 l -1.4911753557739393 21.621936820929864" fill="#fff517" stroke="none" /><path d="M 101.80526077348638 79.07773832637324 l 1.585319765967143 -18.373231982369678 a39.44149918630094,39.44149918630094 0 0,0 0.6759049765257279,0.06418532181889886 l -1.9013498695831152 18.3432211160356" fill="#ffcb12" stroke="none" /><path d="M 102.16513564639614 79.11191278185805 l 3.3090476069708408 -31.92394672289494 a53.09498668688669,53.09498668688669 0 0,0 0.908261290220836,0.1020537387193964 l -3.8580756007014023 31.862257030704942" fill="#8aff24" stroke="none" /><path d="M 102.52436894288641 79.15227682838746 l 1.0572566023291803 -8.731446735957658 a29.795223341452694,29.795223341452694 0 0,0 0.5086261299395253,0.06603426933382202 l -1.2073974607765514 8.7119541434597" fill="#ff4306" stroke="none" /><path d="M 102.88285421437855 79.19881850522331 l 1.040166842001482 -7.5053046933161065 a28.57704068873278,28.57704068873278 0 0,0 0.48666839037349013,0.0717222700310781 l -1.169204212803628 7.486287939124059" fill="#ff3004" stroke="none" /><path d="M 103.2404852339499 79.25152402106235 l 3.4202624090738913 -21.899569759752257 a43.16504794962509,43.16504794962509 0 0,0 0.7331291390117286,0.1209725896297966 l -3.796720754224495 21.837450907182834" fill="#fffc17" stroke="none" /><path d="M 103.59715602781102 79.31037775812273 l 3.8848541363523026 -22.34436424900776 a43.679565810505935,43.679565810505935 0 0,0 0.7396507957296587,0.13516645519068887 l -4.268900053184862 22.274182312466333" fill="#fcff18" stroke="none" /><path d="M 103.95276090670814 79.375362276772 l 3.5905196050248183 -18.734542219872417 a40.07550532023332,40.07550532023332 0 0,0 0.676385963955696,0.13567666126073236 l -3.9124719784476394 18.669961602534475" fill="#ffd313" stroke="none" /><path d="M 104.307194497241 79.44645832069477 l 3.7249856795367036 -17.77529398038902 a39.16140397662052,39.16140397662052 0 0,0 0.6585778450812619,0.14393960869570488 l -4.030406248771493 17.708540873597446" fill="#ffc712" stroke="none" /><path d="M 105.01212808612495 79.60689891045804 l 7.414237641667584 -30.166686710776297 a52.064447635733806,52.064447635733806 0 0,0 0.8684625343962626,0.2213904371425667 l -7.932409064748872 30.03459327746486" fill="#95ff23" stroke="none" /><path d="M 105.36241919743992 79.69619591428918 l 5.297848769125921 -20.059320154494877 a41.74713297400519,41.74713297400519 0 0,0 0.6932053993759063,0.18947922163510164 l -5.642352057725539 19.96515439203348" fill="#ffe915" stroke="none" /><path d="M 105.71112130821622 79.79150937346287 l 6.413975991552944 -22.69550351130883 a44.58442213945572,44.58442213945572 0 0,0 0.7367252675971117,0.21507030794861035 l -6.803691476873483 22.581734874441516" fill="#f0ff19" stroke="none" /><path d="M 106.0581310904928 79.89281104454417 l 6.001379650358944 -19.91882856621693 a41.80327592371168,41.80327592371168 0 0,0 0.6871953484511968,0.21351493985933762 l -6.343360371520859 19.812573491475074" fill="#ffea16" stroke="none" /><path d="M 106.40334571778207 80.00007090966166 l 4.541380191543393 -14.184347652963352 a35.893617840681614,35.893617840681614 0 0,0 0.5868045512653345,0.19346023458328512 l -4.784867565051146 14.10407369412083" fill="#ff9a0e" stroke="none" /><path d="M 106.74666289553966 80.11325718540242 l 5.248359404330209 -15.470281424834827 a37.33630569622798,37.33630569622798 0 0,0 0.606835858853215,0.21171311561945133 l -5.5138772672466985 15.377647456043167" fill="#ffae10" stroke="none" /><path d="M 107.4271985657038 80.35727306442388 l 5.173274599412265 -13.681769703618764 a35.627152569922295,35.627152569922295 0 0,0 0.5717595332947234,0.2218338161010474 l -5.408017297706655 13.590693183627168" fill="#ff970d" stroke="none" /><path d="M 107.76421540070413 80.48803036053334 l 5.430257182069021 -13.646583434743127 a35.68730514780767,35.68730514780767 0 0,0 0.5688150801853621,0.23203395330370705 l -5.664356131842771 13.55108859525584" fill="#ff970e" stroke="none" /><path d="M 108.43124777332544 80.76684994638697 l 10.511367662073916 -23.978267149611366 a47.18102644331243,47.18102644331243 0 0,0 0.741006961433149,0.33246822376057966 l -10.922556741973846 23.793778595334256" fill="#d0ff1d" stroke="none" /><path d="M 108.76106565485865 80.91482961587045 l 6.128607344288562 -13.35060368122102 a35.69007987158341,35.69007987158341 0 0,0 0.5561224654495113,0.2611069543166857 l -6.357508021037671 13.243131744264332" fill="#ff970e" stroke="none" /><path d="M 109.41281617654863 81.2277094730956 l 7.858495413160079 -15.672457236308013 a38.53230920279931,38.53230920279931 0 0,0 0.5903507797613313,0.30240059874244046 l -8.127106680510165 15.534864112253073" fill="#ffbf11" stroke="none" /><path d="M 109.73455568895987 81.39251694778311 l 7.226515016671501 -13.81339426223711 a36.58949583309813,36.58949583309813 0 0,0 0.555559142448336,0.2967604536643826 l -7.463219205648148 13.686955082070975" fill="#ffa40f" stroke="none" /><path d="M 110.36928655335952 81.73862282372117 l 11.21225949334944 -19.74593898555443 a43.70719862438877,43.70719862438877 0 0,0 0.6510359306902721,0.3771220325174567 l -11.550492156505042 19.550012795646925" fill="#fbff18" stroke="none" /><line stroke="#e1ed5e" stroke-width="0.3" x1="143.23703022742887" x2="145.7803849466894" y1="26.81831364943548" y2="22.513508569990506" /><path d="M 143.74570117128098 25.957352633546492 a86.0,86.0 0 0,1 28.547481713284135,27.462654790039103" fill="none" id="id122" stroke="none" /><text fill="#e1ed5e" style="font-size:6.75px; font-family:Arial;" text-anchor="middle"><textPath startOffset="19.985693538727396" xlink:href="#id122">February</textPath></text><path d="M 110.68208982089419 81.91981866633111 l 9.82408384149186 -16.627946428976067 a40.31323964977288,40.31323964977288 0 0,0 0.5944051537728041,0.35812245430345446 l -10.1088510614823 16.456377365213996" fill="#ffd614" stroke="none" /><path d="M 110.99172775467656 82.1063720568725 l 10.10239324765323 -16.44586457590895 a40.30090181777438,40.30090181777438 0 0,0 0.5879725932900911,0.36818838397754566 l -10.383984993315584 16.26953185060846" fill="#ffd614" stroke="none" /><path d="M 111.60114157652 82.49532879139004 l 16.70736426810447 -25.209322405612383 a51.243114206993376,51.243114206993376 0 0,0 0.7310569743049837,0.49361293241874 l -17.138825936815998 24.91799756089497" fill="#9fff22" stroke="none" /><path d="M 111.90073688211348 82.69761687909136 l 8.316740737257366 -12.091640709204537 a35.67569254008984,35.67569254008984 0 0,0 0.5029743635670688,0.35236568465277257 l -8.523646240408086 11.94669018178783" fill="#ff970d" stroke="none" /><path d="M 112.19680574252982 82.90503203632743 l 6.8127247608203225 -9.548673151810474 a32.72989248146804,32.72989248146804 0 0,0 0.45581001673534505,0.3311653618490614 l -6.976080093909456 9.429988555144737" fill="#ff6d0a" stroke="none" /><path d="M 112.48926042617603 83.11751280151076 l 13.252512487842829 -17.914221081890666 a43.28336608798783,43.28336608798783 0 0,0 0.5951542112471647,0.4482578130705973 l -13.558912852848376 17.68344667931422" fill="#fffd17" stroke="none" /><path d="M 112.77801427241765 83.33499621200491 l 11.756285031114736 -15.332471102273123 a40.32084128175719,40.32084128175719 0 0,0 0.5471489101849766,0.42705840313157883 l -12.018466496459142 15.12783430991832" fill="#ffd714" stroke="none" /><path d="M 113.34407831869373 83.78471172551755 l 9.334640007861234 -11.343149751597402 a35.69021954783276,35.69021954783276 0 0,0 0.4710131119979156,0.394459935686308 l -9.528510656818266 11.180788658517274" fill="#ff970e" stroke="none" /><path d="M 113.6212207817346 84.01681056812373 l 17.399472455636833 -20.416603528376406 a47.82497607397585,47.82497607397585 0 0,0 0.6219665497796635,0.5393632630087684 l -17.74833280406326 20.114075271947964" fill="#c8ff1d" stroke="none" /><path d="M 113.89432698308785 84.25364557470407 l 6.811083448034999 -7.718958544992504 a31.29432750379592,31.29432750379592 0 0,0 0.4008490594806529,0.3598862434316644 l -6.942943495111642 7.600573292791542" fill="#ff5908" stroke="none" /><path d="M 114.16331599549186 84.49514656593476 l 7.831393656163502 -8.57317670960194 a32.61163578019303,32.61163578019303 0 0,0 0.4112049548166193,0.3821701907671271 l -7.977806494774968 8.437101932760172" fill="#ff6c09" stroke="none" /><path d="M 114.42810811169701 84.74124197986012 l 14.593170811251413 -15.433323650723823 a42.24024748524253,42.24024748524253 0 0,0 0.5240139173268614,0.5041009732927582 l -14.856667972190692 15.179839590668763" fill="#fff016" stroke="none" /><path d="M 114.68862486808459 84.99185889309783 l 13.366648841433312 -13.657408623357487 a40.11000030234301,40.11000030234301 0 0,0 0.48927362536848323,0.48717252893050483 l -13.599758266969118 13.425300243776864" fill="#ffd413" stroke="none" /><path d="M 114.94478906791727 85.2469230424477 l 13.733218672102128 -13.557048615651862 a40.297535134387566,40.297535134387566 0 0,0 0.48306331800023267,0.4978392116636843 l -13.964546253805468 13.318645208438063" fill="#ffd614" stroke="none" /><path d="M 115.4437574822437 85.77008943001954 l 23.89602699234738 -22.017849443045073 a53.4931654369899,53.4931654369899 0 0,0 0.61811698937448,0.6825402180462067 l -24.271487622337894 21.603256437729318" fill="#85ff25" stroke="none" /><path d="M 115.68641384162765 86.03803664274999 l 6.562003315496425 -5.840624298587781 a29.784803908445543,29.784803908445543 0 0,0 0.3375726510451594,0.3859038954777939 l -6.6615678301194325 5.726804846907039" fill="#ff4206" stroke="none" /><path d="M 115.9244219780498 86.31012108654704 l 10.453716612224213 -8.986832603039776 a34.78562117729017,34.78562117729017 0 0,0 0.38643410590093175,0.45741609379528103 l -10.606861331612262 8.805557559615389" fill="#ff8b0c" stroke="none" /><path d="M 116.15771136456269 86.58626213691792 l 17.390684809409912 -14.437322342849109 a43.60248204449172,43.60248204449172 0 0,0 0.4744396617322698,0.5816069269066986 l -17.63662296321859 14.135831246334309" fill="#fdff18" stroke="none" /><path d="M 116.38621287248628 86.86637796730983 l 14.970196913483258 -11.99867898376704 a40.185283239607294,40.185283239607294 0 0,0 0.42796545793875906,0.5434726710095218 l -15.17451645201598 11.739213918804479" fill="#ffd513" stroke="none" /><path d="M 116.60985879189232 87.15038557335679 l 17.922310565949765 -13.864945108348582 a43.65934506731988,43.65934506731988 0 0,0 0.4547309142990728,0.5983725802589507 l -18.15831742047295 13.554387752208598" fill="#fcff18" stroke="none" /><path d="M 117.04232023915458 87.72973835380427 l 29.91256717538391 -21.53668166075808 a57.859060378402056,57.859060378402056 0 0,0 0.5749740824275088,0.8132600637812866 l -30.2788538776153 21.018595096645" fill="#55ff2b" stroke="none" /><path d="M 117.2510076193507 88.02491185347247 l 12.066324565847138 -8.376049878880558 a35.68858060201397,35.68858060201397 0 0,0 0.34596770788473674,0.5076649211479544 l -12.208716739400607 8.167106934462197" fill="#ff970e" stroke="none" /><path d="M 117.65298651832404 88.62581576622439 l 18.729494462731417 -12.067800561874131 a43.280614292039985,43.280614292039985 0 0,0 0.39812477613071473,0.6297377859669983 l -18.934446835108087 11.743615128192927" fill="#fffd17" stroke="none" /><line stroke="#e1ed5e" stroke-width="0.3" x1="172.23445277983987" x2="176.4835382374775" y1="55.19839476539836" y2="52.563006222186495" /><path d="M 173.08426987136738 54.67131705675599 a86.0,86.0 0 0,1 12.851231095245387,41.99856678651699" fill="none" id="id123" stroke="none" /><text fill="#e1ed5e" style="font-size:6.75px; font-family:Arial;" text-anchor="middle"><textPath startOffset="22.20632615414155" xlink:href="#id123">March</textPath></text><path d="M 117.84615892207809 88.93136811851018 l 16.281881318760675 -10.098427983430872 a40.15927730930234,40.15927730930234 0 0,0 0.3592997027933539,0.5905942398964842 l -16.45329681984025 9.816665970327307" fill="#ffd413" stroke="none" /><path d="M 118.03404312379186 89.2402003453031 l 20.12005706108526 -12.00439532789739 a44.42908882841523,44.42908882841523 0 0,0 0.3861952541774124,0.6601328764201478 l -20.323711989732995 11.656283039123347" fill="#f2ff19" stroke="none" /><path d="M 118.3937258080291 89.86733742301442 l 35.55093109759908 -19.584155644659674 a61.58827237294651,61.58827237294651 0 0,0 0.5035336928362903,0.932971459311164 l -35.88277288965384 18.96930320201605" fill="#30ff31" stroke="none" /><path d="M 118.56541770881063 90.18545643968196 l 6.754606921914417 -3.5707994782414096 a28.640374570882194,28.640374570882194 0 0,0 0.22665524211626195,0.4378257848540169 l -6.815071597190795 3.454000971127048" fill="#ff3104" stroke="none" /><path d="M 118.73160827565052 90.50648371742162 l 6.915223739770127 -3.504759879936173 a28.752655105645456,28.752655105645456 0 0,0 0.21994410208219095,0.4433938886266664 l -6.974527854805726 3.3852064028105566" fill="#ff3304" stroke="none" /><path d="M 118.89224826269711 90.83032412892265 l 20.293783404228314 -9.849934927123162 a43.55790023309557,43.55790023309557 0 0,0 0.32158550117141554,0.6773410799947636 l -20.460327099241486 9.499151431487858" fill="#fdff18" stroke="none" /><path d="M 119.04729006885535 91.15688171328212 l 17.37405380839297 -8.06628199560219 a40.155225161023566,40.155225161023566 0 0,0 0.28567131432723963,0.6294388739523997 l -17.510327439683557 7.766021112807727" fill="#ffd413" stroke="none" /><path d="M 119.196687751892 91.48605970444005 l 20.49715758400904 -9.090712843507964 a43.42263430167874,43.42263430167874 0 0,0 0.29715409296452927,0.6858726162938078 l -20.650602386816253 8.736541082627554" fill="#ffff18" stroke="none" /><path d="M 119.47837535516314 92.15188598940014 l 34.210798875813616 -13.784016637707815 a57.88330075237269,57.88330075237269 0 0,0 0.36440693874290914,0.9273759113358278 l -34.44299936443822 13.193091721476202" fill="#55ff2b" stroke="none" /><path d="M 119.61058180528143 92.48833698450437 l 8.282529041335064 -3.1725508040668897 a29.869349802829078,29.869349802829078 0 0,0 0.17977851235797523,0.4817170328664598 l -8.335912142194664 3.0295106341710967" fill="#ff4406" stroke="none" /><path d="M 119.7369772167798 92.82701384747503 l 9.822577757102016 -3.5698077501904315 a31.451151188631563,31.451151188631563 0 0,0 0.18053997051306817,0.5104108084143352 l -9.882570808424893 3.400199315349482" fill="#ff5b08" stroke="none" /><path d="M 119.85752413597 93.16781622104841 l 21.424275716600974 -7.37124064533322 a43.65689251932733,43.65689251932733 0 0,0 0.2383722591324304,0.7127027142121443 l -21.547985269505173 7.001364828198762" fill="#fcff18" stroke="none" /><path d="M 119.97218684219823 93.5106431181261 l 18.397299443478232 -5.977644946680765 a40.34406539281706,40.34406539281706 0 0,0 0.2089140892364641,0.6623147538026354 l -18.497469016482903 5.66008002645171" fill="#ffd714" stroke="none" /><path d="M 120.08093135843002 93.85539295169968 l 20.86744172870466 -6.38527303527517 a42.82250755609668,42.82250755609668 0 0,0 0.20961434512649088,0.7067153668937041 l -20.97426197094285 6.025128281634935" fill="#fff717" stroke="none" /><path d="M 120.28053869075195 94.5502522615342 l 35.61702394411467 -9.570938851778802 a57.88055402431106,57.88055402431106 0 0,0 0.25027460089459796,0.964410130681872 l -35.77649487687957 8.95643229554808" fill="#55ff2b" stroke="none" /><path d="M 120.37134235888165 94.90015583598534 l 9.19191093820283 -2.3011401275624914 a30.47557241450516,30.47557241450516 0 0,0 0.1230156635250581,0.5099793438138249 l -9.230159401988706 2.1425755520892604" fill="#ff4d07" stroke="none" /><path d="M 120.45610955862082 95.25157060432595 l 8.59591551928787 -1.9953499866408244 a29.82446515002023,29.82446515002023 0 0,0 0.11177870533184331,0.5010820184011167 l -8.62898861162175 1.847089798689744" fill="#ff4306" stroke="none" /><path d="M 120.53481517161879 95.60439243477599 l 22.23663994310429 -4.75989396262808 a43.74037700863212,43.74037700863212 0 0,0 0.15125985596715935,0.7375967765403256 l -22.315279094986447 4.376421529924342" fill="#fbff18" stroke="none" /><path d="M 120.6074358757038 95.95851677861258 l 12.818177871554003 -2.5138717455732897 a34.06235947675566,34.06235947675566 0 0,0 0.10788729440564508,0.5763382407353388 l -12.859550889869507 2.2928554273753883" fill="#ff800b" stroke="none" /><path d="M 120.67395015179393 96.31383870115 l 23.839536915878277 -4.250584804384417 a45.21551138305336,45.21551138305336 0 0,0 0.13002288394446468,0.7674024212136773 l -23.909171661342967 3.8395965948549016" fill="#e8ff1a" stroke="none" /><path d="M 120.78858239683441 97.02765380044208 l 23.224868793794084 -3.320685806117156 a44.461063162437846,44.461063162437846 0 0,0 0.10180313347582219,0.7585515915907576 l -23.27858792632774 2.9204158724617337" fill="#f2ff19" stroke="none" /><path d="M 120.83666639777658 97.38593545837742 l 30.781259233826212 -3.861663702511633 a52.022546100720156,52.022546100720156 0 0,0 0.10382126394931923,0.8894771869403614 l -30.84317085077912 3.331242777246419" fill="#96ff23" stroke="none" /><path d="M 120.91429891909075 98.10471618934814 l 23.060900814490363 -2.0898119579258707 a44.15539808328184,44.15539808328184 0 0,0 0.06208147240783755,0.7575512099789147 l -23.093456770717694 1.692546830739187" fill="#f6ff19" stroke="none" /><path d="M 120.94382443527127 98.46500227214037 l 17.610732461902778 -1.2907114647809799 a38.657968001161215,38.657968001161215 0 0,0 0.042927665083680774,0.6640719786102437 l -17.630340717990876 0.9873804219177008" fill="#ffc011" stroke="none" /><path d="M 120.96714384426684 98.82574320788733 l 21.978719183511384 -1.2309096782503468 a43.01316050874253,43.01316050874253 0 0,0 0.0350380940370499,0.7395987870832919 l -21.99665088578193 0.8523997845440551" fill="#fffa17" stroke="none" /><line stroke="#e1ed5e" stroke-width="0.3" x1="184.98032266829074" x2="189.97916517819016" y1="98.17113171792111" y2="98.06355123074" /><path d="M 185.9800911702706 98.14961562048488 a86.0,86.0 0 0,1 -9.607161424134198,41.387399972396054" fill="none" id="id124" stroke="none" /><text fill="#e1ed5e" style="font-size:6.75px; font-family:Arial;" text-anchor="middle"><textPath startOffset="21.466115282336823" xlink:href="#id124">April</textPath></text><path d="M 120.99513854157772 99.54816195383933 l 20.77018239907167 -0.44699674712848997 a41.774991768533866,41.774991768533866 0 0,0 0.009283980440058999,0.7190545163879819 l -20.774799386629443 0.08940597268004535" fill="#ffea16" stroke="none" /><path d="M 120.99980553446 99.90962569577887 l 35.20906670650161 -0.1515249701076464 a56.2093927547671,56.2093927547671 0 0,0 -0.004164052603046708,0.9675791769892754 l -35.206458356609055 -0.4545636850853137" fill="#67ff28" stroke="none" /><path d="M 120.9904718944345 100.63252640178507 l 22.64935655982492 0.6825151944931582 a43.65963767505558,43.65963767505558 0 0,0 -0.02910199085428723,0.7509930721597424 l -22.63425243611943 -1.0722855136669067" fill="#fcff18" stroke="none" /><path d="M 120.9764740272857 100.99374915477107 l 17.786798621228773 0.8426400010286379 a38.806747242645955,38.806747242645955 0 0,0 -0.03735361771234215,0.6669739369949166 l -17.7696586526289 -1.1486856543589778" fill="#ffc212" stroke="none" /><path d="M 120.95626037817324 101.35467743843564 l 21.79666252124302 1.409003630317441 a42.842156219000174,42.842156219000174 0 0,0 -0.0539065334069539,0.7355118193976915 l -21.769179429171732 -1.7839885862119027" fill="#fff817" stroke="none" /><path d="M 120.89721153311464 102.0752229133903 l 21.810129635583085 2.165881351779995 a42.91740853182529,42.91740853182529 0 0,0 -0.0793311916545037,0.734508308643383 l -21.76961614242753 -2.540985982308169" fill="#fff917" stroke="none" /><path d="M 120.8583938346157 102.4346265915055 l 28.302531900860807 3.303518828876222 a49.49467579482145,49.49467579482145 0 0,0 -0.10605646243254871,0.845374355471613 l -28.241473929181407 -3.7902109386352296" fill="#b4ff20" stroke="none" /><path d="M 120.81339534386255 102.79330883721812 l 8.685682986067475 1.1656817468473064 a29.763555378349302,29.763555378349302 0 0,0 -0.07251812171681815,0.5071915743859113 l -8.664330813334056 -1.3150187932136272" fill="#ff4206" stroke="none" /><path d="M 120.70491114924044 103.5080841355445 l 17.310298750928006 2.9329265888636304 a38.55700718294673,38.55700718294673 0 0,0 -0.11650377516721072,0.6534150421073979 l -17.257248533421606 -3.2304603817042463" fill="#ffbf11" stroke="none" /><path d="M 120.5718875245553 104.21870165774334 l 20.354226628316095 4.174065676592158 a41.77780945887599,41.77780945887599 0 0,0 -0.1505313386996622,0.7032322999417676 l -20.279361250891988 -4.5238117959500945" fill="#ffea16" stroke="none" /><path d="M 120.49622156327973 104.57218783832717 l 14.805864310036613 3.302813278304516 a36.16977895417598,36.16977895417598 0 0,0 -0.14078558391101645,0.6065006107876004 l -14.746818160195042 -3.557182546440681" fill="#ff9e0e" stroke="none" /><path d="M 120.41448212921028 104.9243191809786 l 25.293950992338054 6.101329793523463 a47.01941932580618,47.01941932580618 0 0,0 -0.19656062024866383,0.7851619697742995 l -25.18517905779433 -6.535819602695159" fill="#d2ff1c" stroke="none" /><path d="M 120.32669344350535 105.2749913415812 l 12.321500576485704 3.1975593589235225 a33.7296410911768,33.7296410911768 0 0,0 -0.15067821500308248,0.5607296916983056 l -12.264634285140843 -3.409179983797376" fill="#ff7c0b" stroke="none" /><path d="M 120.23288151984713 105.62410040840565 l 20.6910877088147 5.7514672202944475 a42.475578822466794,42.475578822466794 0 0,0 -0.2018750247146214,0.7027534445467608 l -20.589020047213978 -6.10677814034579" fill="#fff316" stroke="none" /><path d="M 120.13307415673323 105.97154293290107 l 14.147717921047136 4.196264530215945 a35.75691561204667,35.75691561204667 0 0,0 -0.1801011604529537,0.5885810129436564 l -14.07338998808805 -4.439172515711658" fill="#ff980e" stroke="none" /><path d="M 120.02730092923936 106.31721596034902 l 8.454642854851542 2.6668498651129755 a29.865273487385785,29.865273487385785 0 0,0 -0.15886583209809646,0.4889387560679629 l -8.407484771737199 -2.8119875211587337" fill="#ff4406" stroke="none" /><path d="M 119.9155931802556 106.66101706037122 l 16.75268400378716 5.603142871328836 a38.66486997878188,38.66486997878188 0 0,0 -0.21654015380440755,0.6293670471547939 l -16.653753019039524 -5.89068262157293" fill="#ffc011" stroke="none" /><path d="M 119.79798401119884 107.00284435728193 l 8.242269801442147 2.915414647146653 a29.742691464564125,29.742691464564125 0 0,0 -0.1748809908705043,0.4811973784786953 l -8.190864549566415 -3.0568598226314796" fill="#ff4206" stroke="none" /><path d="M 119.67450827220406 107.3425965602758 l 20.714568523000985 7.730750750170854 a43.110130172736895,43.110130172736895 0 0,0 -0.2654469732763545,0.692998284622447 l -20.578427270131122 -8.086172601626444" fill="#fffb17" stroke="none" /><path d="M 119.41010516605496 108.01547362559984 l 16.142550738959766 6.666125123542401 a38.46479798115666,38.46479798115666 0 0,0 -0.25798709782295104,0.6098052910967513 l -16.025412659944507 -6.9430049403053165" fill="#ffbe11" stroke="none" /><path d="M 119.26925614724726 108.34839909993367 l 13.46695791436681 5.834555235138408 a35.67654558331789,35.67654558331789 0 0,0 -0.24898646767744603,0.5613987541048501 l -13.36453036195809 -6.065502325735945" fill="#ff970e" stroke="none" /><path d="M 119.12269723197855 108.67885076344098 l 14.715590787704768 6.67868213322868 a37.16024155970106,37.16024155970106 0 0,0 -0.26936819094047226,0.5801951191665328 l -14.598447979924465 -6.930997319674043" fill="#ffac0f" stroke="none" /><path d="M 118.81262510543309 109.33194174019688 l 10.55118000582887 5.2338786614255675 a32.77798307682299,32.77798307682299 0 0,0 -0.25507721886369406,0.5032915520000921 l -10.459524117178907 -5.414724425128354" fill="#ff6e0a" stroke="none" /><path d="M 118.64920377521936 109.65438752849418 l 27.566504969318856 14.270728390753213 a52.041357654363814,52.041357654363814 0 0,0 -0.41867889734647756,0.7919826905174737 l -27.316773563747486 -14.743126096356821" fill="#96ff23" stroke="none" /><line stroke="#e1ed5e" stroke-width="0.3" x1="174.80103733775053" x2="179.2010983576182" y1="140.37084112569926" y2="142.7455964860345" /><path d="M 175.68104954172406 140.8457921977663 a86.0,86.0 0 0,1 -30.038265399797805,32.042727171017184" fill="none" id="id125" stroke="none" /><text fill="#e1ed5e" style="font-size:6.75px; font-family:Arial;" text-anchor="middle"><textPath startOffset="22.206326154141568" xlink:href="#id125">May</textPath></text><path d="M 118.48025628344425 109.97397251340804 l 6.435408631757514 3.4732520924615438 a28.31286293837698,28.31286293837698 0 0,0 -0.23516339106757125,0.42688986261201434 l -6.3746688312384325 -3.5835124734713633" fill="#ff2c04" stroke="none" /><path d="M 118.30583269289576 110.29060199501025 l 7.67431167690706 4.314105147664691 a29.803781172849483,29.803781172849483 0 0,0 -0.255245264335632,0.4450416330565327 l -7.598914416419047 -4.445566626579539" fill="#ff4306" stroke="none" /><path d="M 117.94076556474637 110.91462005526583 l 10.260317290910463 6.242067233564302 a33.009892349996036,33.009892349996036 0 0,0 -0.2995024634965833,0.48289333481696073 l -10.151350187745916 -6.417756899746537" fill="#ff710a" stroke="none" /><path d="M 117.75023020441432 111.22182372390056 l 12.409156166270293 7.845158144800155 a35.68106478004263,35.68106478004263 0 0,0 -0.33267518826003645,0.5163192799265881 l -12.272276114633206 -8.057599024648196" fill="#ff970e" stroke="none" /><path d="M 117.55443506779139 111.5257021239791 l 14.738893714666704 9.677104272294264 a38.631827330968775,38.631827330968775 0 0,0 -0.3697560631349503,0.5527351452253012 l -14.570134546121032 -9.929376331725372" fill="#ffc011" stroke="none" /><path d="M 117.35343817320211 111.8261652097733 l 16.05773691416352 10.943159951739515 a40.43202677370133,40.43202677370133 0 0,0 -0.39688672955842924,0.5717449351399514 l -15.866989277442956 -11.217946149066487" fill="#ffd814" stroke="none" /><path d="M 117.14729908036423 112.12312394758627 l 14.537648031852596 10.27810316776658 a38.804005589340875,38.804005589340875 0 0,0 -0.39029476748756425,0.5420852958951946 l -14.358573471989429 -10.526822069112907" fill="#ffc212" stroke="none" /><path d="M 116.93607887273984 112.41649034213515 l 16.808249850072386 12.322773972642452 a41.841497580627276,41.841497580627276 0 0,0 -0.4308453541150101,0.5771877595785657 l -16.593643229262284 -12.610274611730333" fill="#ffeb16" stroke="none" /><path d="M 116.71984013943494 112.70617746262583 l 12.12738013727972 9.216155351722604 a36.23190298226626,36.23190298226626 0 0,0 -0.38163094947112536,0.49330944656112347 l -11.966942370590527 -9.423542792396981" fill="#ff9f0e" stroke="none" /><path d="M 116.498646956653 112.99209946851258 l 13.824835328393245 10.886567619404898 a38.5966879380486,38.5966879380486 0 0,0 -0.41552475222863156,0.518431018256647 l -13.63539266410976 -11.122926471239795" fill="#ffbf11" stroke="none" /><path d="M 116.27256486870786 113.27417163493432 l 9.304223862123035 7.589821609079861 a33.007246717468384,33.007246717468384 0 0,0 -0.3629288237887695,0.43717114800629914 l -9.172199038440722 -7.748854014199931" fill="#ff710a" stroke="none" /><path d="M 116.0416608686014 113.55231037782055 l 16.753636400953642 14.153801300418076 a42.93204103377238,42.93204103377238 0 0,0 -0.48177414519157846,0.5604121727187618 l -16.507519746191285 -14.440090572298367" fill="#fff917" stroke="none" /><path d="M 115.80600337817218 113.82643327865902 l 9.791704761430074 8.565375403829426 a34.00934809833062,34.00934809833062 0 0,0 -0.3892307545077562,0.4373048788963623 l -9.64281515727398 -8.732654452466656" fill="#ff800b" stroke="none" /><path d="M 115.32070863581623 114.36230785411682 l 16.570587140872117 15.533999079148693 a43.71320069000027,43.71320069000027 0 0,0 -0.5193408185910284,0.5445267719954624 l -16.300739770902123 -15.816932967726661" fill="#fbff18" stroke="none" /><path d="M 115.07121518719521 114.62390073753431 l 12.609012583088688 12.234776434621807 a38.56920466969595,38.56920466969595 0 0,0 -0.4664291004771953,0.472490216232601 l -12.396542857555957 -12.450007144835073" fill="#ffbf11" stroke="none" /><path d="M 114.81725581225074 114.88116024355365 l 14.574148162184017 14.637004109454546 a41.65545167633671,41.65545167633671 0 0,0 -0.5124613297328282,0.5015512699559768 l -14.320036880075394 -14.885705482333096" fill="#ffe815" stroke="none" /><path d="M 114.29624159901734 115.38237550388516 l 20.473161193431604 22.028576605097463 a51.07338551774444,51.07338551774444 0 0,0 -0.6491195049970732,0.592955277339912 l -20.090942138967666 -22.37772464902396" fill="#a1ff22" stroke="none" /><path d="M 114.0293411484842 115.62618273729858 l 8.714547801226255 9.706451284748889 a34.04448312211184,34.04448312211184 0 0,0 -0.43942940436147726,0.3877453577682405 l -8.546176043958189 -9.85501978428942" fill="#ff800b" stroke="none" /><path d="M 113.75828350139079 115.86535959552629 l 5.0127769346453315 5.7804818916741105 a28.65126809728195,28.65126809728195 0 0,0 -0.3753787139718533,0.31990588371409595 l -4.91253274409643 -5.865912165611154" fill="#ff3104" stroke="none" /><path d="M 113.48314897796784 116.09983520530334 l 13.871010217640851 16.562969006721985 a42.60409375038745,42.60409375038745 0 0,0 -0.5662892958102655,0.4660175376728751 l -13.583850793285896 -16.79928166325204" fill="#fff517" stroke="none" /><path d="M 113.20401910651253 116.32954008644616 l 10.825813382339206 13.388389714469671 a38.217642537111516,38.217642537111516 0 0,0 -0.5151055888636218,0.4092310330129273 l -10.593750300758233 -13.572754661487723" fill="#ffba11" stroke="none" /><path d="M 112.92097659922987 116.55440617244103 l 12.668440554540307 16.230855996115967 a41.589562220954946,41.589562220954946 0 0,0 -0.5681357426535382,0.4356222609158446 l -12.387176083393275 -16.44651759885918" fill="#ffe715" stroke="none" /><path d="M 112.34349029814194 116.9893568818739 l 16.707609858527945 22.996052143563798 a49.42468366357461,49.42468366357461 0 0,0 -0.692587320566842,0.4941426638905602 l -16.309295210112218 -23.280239069298577" fill="#b4ff20" stroke="none" /><path d="M 112.04921762599082 117.19931262002967 l 4.766583417372198 6.803923779083734 a29.30744824036531,29.30744824036531 0 0,0 -0.4156676994125715,0.28590003391640945 l -4.648758833336743 -6.884964602365237" fill="#ff3b05" stroke="none" /><path d="M 111.7513745106137 117.40417183066458 l 4.297960204110435 6.365420304334232 a28.680562321011887,28.680562321011887 0 0,0 -0.4115323372231496,0.27274119293904014 l -4.187753168147322 -6.43845951836459" fill="#ff3204" stroke="none" /><path d="M 111.45004920935366 117.60387380957326 l 9.620131431564708 14.790467416893662 a38.643833346831755,38.643833346831755 0 0,0 -0.5607371075926337,0.35788895242362456 l -9.364112521925144 -14.953870798141095" fill="#ffc011" stroke="none" /><path d="M 111.1453310114006 117.79835938074945 l 7.787400136423948 12.43596499090007 a35.67299649491091,35.67299649491091 0 0,0 -0.523239281960686,0.32141630283942796 l -7.572181654530953 -12.568169760567876" fill="#ff970d" stroke="none" /><line stroke="#e1ed5e" stroke-width="0.3" x1="143.8653032363475" x2="146.44561519142675" y1="172.8068346515853" y2="177.08958963109032" /><path d="M 144.38136562736335 173.6633856474863 a86.0,86.0 0 0,1 -40.68145358897372,12.25698825130547" fill="none" id="id126" stroke="none" /><text fill="#e1ed5e" style="font-size:6.75px; font-family:Arial;" text-anchor="middle"><textPath startOffset="21.466115282336833" xlink:href="#id126">June</textPath></text><path d="M 110.8373102113329 117.98757091392108 l 10.613643891928431 17.616333613992484 a41.566590545448975,41.566590545448975 0 0,0 -0.6160408795024576,0.36396781020849 l -10.30883514139759 -17.796419996494723" fill="#ffe715" stroke="none" /><path d="M 110.21172684928248 118.3499491758327 l 15.005488676696903 26.964093207728933 a51.858175787651035,51.858175787651035 0 0,0 -0.783742953005048,0.4273591477494352 l -14.539122911823206 -27.218393007238138" fill="#98ff23" stroke="none" /><path d="M 109.89434966115114 118.52300852407294 l 5.368114801500837 10.049537325006323 a32.393412876253876,32.393412876253876 0 0,0 -0.49409070678473693,0.258484905620836 l -5.194333192189604 -10.140451649571876" fill="#ff6909" stroke="none" /><path d="M 109.57404056367764 118.69057910512821 l 6.717711384845734 13.114412374669275 a35.734838247600976,35.734838247600976 0 0,0 -0.5498844447286136,0.27572347600074465 l -6.49097303243436 -13.22810369157932" fill="#ff980e" stroke="none" /><path d="M 109.2508944713604 118.85261126421891 l 9.70453085159671 19.7770873090359 a43.02977760847397,43.02977760847397 0 0,0 -0.6677552105413767,0.32056308047717813 l -9.3626629730551 -19.941204666012638" fill="#fffa17" stroke="none" /><path d="M 108.92500713936063 119.00905698771935 l 6.699505362099328 14.2690394785276 a36.763529418774745,36.763529418774745 0 0,0 -0.5751426667911193,0.26401978935737447 l -6.452894699540789 -14.382246338219048" fill="#ffa60f" stroke="none" /><path d="M 108.59647513512805 119.15986991738527 l 8.482798905416647 18.90650772651833 a41.722304690420785,41.722304690420785 0 0,0 -0.6577805946965785,0.288351682325195 l -8.156097636062315 -19.049723962137982" fill="#ffe915" stroke="none" /><path d="M 107.93186726928326 119.44442032107085 l 11.723834963957424 28.740165092885345 a52.03941680876778,52.03941680876778 0 0,0 -0.8323306343398924,0.33120153675046066 l -11.227383253575665 -28.937713474041875" fill="#96ff23" stroke="none" /><path d="M 107.59598834532513 119.57807347666477 l 4.303210483688597 11.09119277244013 a32.89672970115551,32.89672970115551 0 0,0 -0.529683997693363,0.20028116466961435 l -4.111656265234959 -11.163622187216374" fill="#ff700a" stroke="none" /><path d="M 107.2578585660854 119.70592522655815 l 4.592827748326046 12.470058401233043 a34.288958697202595,34.288958697202595 0 0,0 -0.5556124729063322,0.19922286503928258 l -4.37749571478998 -12.547268807312285" fill="#ff840c" stroke="none" /><path d="M 106.91757812671514 119.82793768551818 l 7.4549682698161535 21.368265539434077 a43.6313791905781,43.6313791905781 0 0,0 -0.7112543662203676,0.24129609793853005 l -7.0860441706585595 -21.49342462427073" fill="#fcff18" stroke="none" /><path d="M 106.57524785965236 119.94407469862006 l 5.729453935195194 17.37860833612393 a39.298706787527905,39.298706787527905 0 0,0 -0.6442717101178875,0.20627545614971754 l -5.429460879986366 -17.474656638933354" fill="#ffc912" stroke="none" /><path d="M 106.2309692047433 120.05430185196036 l 6.1774290696433924 19.88198355039163 a41.819555706318965,41.819555706318965 0 0,0 -0.689275942273677,0.2076731871902867 l -5.834278152929469 -19.98537210668764" fill="#ffea16" stroke="none" /><path d="M 105.53697534728816 120.25689768951611 l 9.004769446721122 32.943743101411606 a55.152248569024074,55.152248569024074 0 0,0 -0.9179160940623728,0.24242998325142637 l -8.43636290984725 -33.093864433966615" fill="#72ff27" stroke="none" /><path d="M 105.18746579009965 120.34920634021253 l 6.571919945639524 25.780093871733825 a47.604574264725656,47.604574264725656 0 0,0 -0.7957823536585622,0.19558394124080203 l -6.127184307237751 -25.889399071288658" fill="#cbff1d" stroke="none" /><path d="M 104.83641907484287 120.43548508189849 l 3.007055258867617 12.705812282205947 a34.0568007980722,34.0568007980722 0 0,0 -0.5716350503553117,0.13010227637692745 l -2.787900059119443 -12.75569129216056" fill="#ff800b" stroke="none" /><path d="M 104.48393922423573 120.51570834832081 l 5.003872607806476 22.89459912369951 a44.43504662060774,44.43504662060774 0 0,0 -0.7486428050549848,0.15688537871692293 l -4.609038341322114 -22.977340483142974" fill="#f2ff19" stroke="none" /><path d="M 104.13013068566511 120.58985236759428 l 3.0255557209395767 15.08323836829008 a36.3836948453604,36.3836948453604 0 0,0 -0.6151138081734994,0.11788802531965335 l -2.765474298194373 -15.1330835919582" fill="#ffa10e" stroke="none" /><path d="M 103.7750983002368 120.6578951692458 l 3.9093280393461396 21.392420116302624 a42.74668903883088,42.74668903883088 0 0,0 -0.7249655841592413,0.12604455946690155 l -3.5405134837148484 -21.456543254290533" fill="#fff617" stroke="none" /><path d="M 103.06178313531738 120.77559828337769 l 4.522165919289561 30.684963094292634 a52.01639799686103,52.01639799686103 0 0,0 -0.886932614862979,0.12292077867161647 l -3.993304713239752 -30.758258438456853" fill="#96ff23" stroke="none" /><path d="M 102.70371172650421 120.8252237178851 l 1.7104343190594418 13.174547049517294 a34.28511481018366,34.28511481018366 0 0,0 -0.5859041668052332,0.0709448350793891 l -1.4834027292028285 -13.202037413322033" fill="#ff840c" stroke="none" /><path d="M 102.34483914955558 120.86867818915974 l 1.6534396255707506 14.715337492458891 a35.807937740022204,35.807937740022204 0 0,0 -0.6131127235280014,0.06355164066035765 l -1.3998943054371467 -14.741618501575008" fill="#ff990e" stroke="none" /><path d="M 101.98527174616119 120.90594882070398 l 2.2128730798117764 23.30270978908215 a44.40754345892667,44.40754345892667 0 0,0 -0.7616013862796129,0.06571417225970932 l -1.8114273757906219 -23.337348213620523" fill="#f2ff19" stroke="none" /><path d="M 101.62511606390274 120.93702456842531 l 1.1649229714561453 15.008171671829679 a36.053314002588834,36.053314002588834 0 0,0 -0.619150839364951,0.04270026690088483 l -0.9064093713122642 -15.02600028324685" fill="#ff9c0e" stroke="none" /><path d="M 101.26447882468166 120.96189622390904 l 1.2824181656416145 21.25928562750185 a42.29792998728455,42.29792998728455 0 0,0 -0.7271455908009999,0.03758512129150404 l -0.916284506427135 -21.278210555555557" fill="#fff116" stroke="none" /><path d="M 100.90346689309514 120.98055641714683 l 0.3894616507759856 9.044185458116411 a30.052567093274124,30.052567093274124 0 0,0 -0.5170181367015234,0.017807150007378605 l -0.23372316239980984 -9.049549406549884" fill="#ff4606" stroke="none" /><line stroke="#e1ed5e" stroke-width="0.3" x1="102.19456741930631" x2="102.32365962044197" y1="184.97166512339345" y2="189.96999836594603" /><path d="M 102.22038585953345 185.97133177190398 a86.0,86.0 0 0,1 -42.740103519485714,-10.115201625700543" fill="none" id="id127" stroke="none" /><text fill="#e1ed5e" style="font-size:6.75px; font-family:Arial;" text-anchor="middle"><textPath startOffset="22.20632615414155" xlink:href="#id127">July</textPath></text><path d="M 100.54218724476979 120.99299961872073 l 0.6155909003928491 23.83512275859977 a44.8430708817922,44.8430708817922 0 0,0 -0.7718139736038117,0.013287477496866944 l -0.20521723689636956 -23.842187713375797" fill="#edff1a" stroke="none" /><path d="M 100.18074693466247 120.99922214144158 l 0.12849375170638383 14.928434835746984 a35.92898781864905,35.92898781864905 0 0,0 -0.6184813727376682,0.0 l 0.12849375170637353 -14.928434835746984" fill="#ff9b0e" stroke="none" /><path d="M 99.45781275523022 120.99299961872073 l -0.6075705645897086 23.524582612033814 a44.53242718168612,44.53242718168612 0 0,0 -0.7661266491082918,-0.02638695085700098 l 1.0124175653726435 -23.51063886275072" fill="#f1ff19" stroke="none" /><path d="M 99.09653310690486 120.98055641714683 l -0.769651842739021 17.873066552364147 a38.88963029087716,38.88963029087716 0 0,0 -0.6685533595235644,-0.03455657219877592 l 1.0771932706760743 -17.85717017340317" fill="#ffc312" stroke="none" /><path d="M 98.73552117531835 120.96189622390904 l -1.3607728794419043 22.558210803057552 a43.59921630200054,43.59921630200054 0 0,0 -0.7487381428264639,-0.05163736605825339 l 1.7488737830472982 -22.531445092483015" fill="#fdff18" stroke="none" /><path d="M 98.01472825383883 120.90594882070398 l -3.33575133358056 35.127204521636585 a56.28523394373871,56.28523394373871 0 0,0 -0.9637302580284213,-0.09989458169992355 l 3.939914188214575 -35.0645805714809" fill="#66ff29" stroke="none" /><path d="M 97.65516085044442 120.86867818915974 l -1.441961381857857 12.833216318863917 a33.91397280907485,33.91397280907485 0 0,0 -0.579561657931324,-0.07017684558291676 l 1.6626504628405703 -12.806493944555651" fill="#ff7e0b" stroke="none" /><path d="M 97.2962882734958 120.8252237178851 l -1.0513347308347099 8.097860713991091 a29.165822240256006,29.165822240256006 0 0,0 -0.4973070027982345,-0.06892221911610245 l 1.1905703248197754 -8.078563929382383" fill="#ff3905" stroke="none" /><path d="M 96.93821686468263 120.77559828337769 l -3.2930124185924723 22.344594678081226 a43.58594346306437,43.58594346306437 0 0,0 -0.7413017074187325,-0.11577608105919433 l 3.6771499896197217 -22.284600289674927" fill="#fdff18" stroke="none" /><path d="M 96.58105272829116 120.7198165907248 l -1.6636412407877221 10.082150627803804 a31.2184863585452,31.2184863585452 0 0,0 -0.5294521916991263,-0.09205205008303316 l 1.8369424039588984 -10.052019999199764" fill="#ff5708" stroke="none" /><path d="M 96.22490169976321 120.6578951692458 l -2.6329638248553 14.40796672098989 a35.64656968495179,35.64656968495179 0 0,0 -0.6026517460754636,-0.11549964145860399 l 2.8805831855024584 -14.36050988118282" fill="#ff970d" stroke="none" /><path d="M 95.86986931433489 120.58985236759428 l -1.5327119418824724 7.640996134805553 a28.793203951450426,28.793203951450426 0 0,0 -0.48510863861087056,-0.10165923184385577 l 1.6640120419227298 -7.613480922235156" fill="#ff3404" stroke="none" /><path d="M 95.51606077576429 120.51570834832081 l -3.830369910543821 17.52538293252517 a38.93908527721645,38.93908527721645 0 0,0 -0.653582998156754,-0.14875336249691956 l 4.131473058093437 -17.45685283645056" fill="#ffc412" stroke="none" /><path d="M 95.16358092515715 120.4354850818985 l -6.738118900727637 28.470801670624898 a50.25728617094211,50.25728617094211 0 0,0 -0.8401264394299855,-0.2064826386371709 l 7.227198624900833 -28.350597773673694" fill="#abff21" stroke="none" /><path d="M 94.46302465271185 120.25689768951611 l -6.345741340888288 23.215749582389677 a45.067394163840945,45.067394163840945 0 0,0 -0.7465496078259185,-0.21098237625408015 l 6.7444221168188205 -23.103078412797075" fill="#eaff1a" stroke="none" /><path d="M 94.11515582081647 120.15858648285463 l -4.6728226675015065 16.006795930991252 a37.67491492207124,37.67491492207124 0 0,0 -0.6209633757315939,-0.18709117126768526 l 4.947661017673346 -15.923989390617843" fill="#ffb310" stroke="none" /><path d="M 93.76903079525671 120.05430185196036 l -6.1285896677181855 19.72479450382542 a41.65495411598398,41.65495411598398 0 0,0 -0.682900551111884,-0.21864319117740255 l 6.46721156392101 -19.616378465988312" fill="#ffe815" stroke="none" /><path d="M 93.08242187328487 119.8279376855182 l -5.356825942352946 15.354334859905446 a37.2619550843917,37.2619550843917 0 0,0 -0.6037864022815334,-0.21649632216691803 l 5.620331905264205 -15.25985099669857" fill="#ffad10" stroke="none" /><path d="M 92.7421414339146 119.70592522655815 l -11.795110563308373 32.02508903737242 a55.12815496115047,55.12815496115047 0 0,0 -0.887641469852701,-0.3356300514369418 l 12.344622253921358 -31.81731073582884" fill="#73ff27" stroke="none" /><path d="M 92.40401165467489 119.57807347666478 l -2.7897096184309076 7.190261149072513 a28.712479182923445,28.712479182923445 0 0,0 -0.4592341243871846,-0.1827387356058496 l 2.9130648188599504 -7.1411755690605965" fill="#ff3204" stroke="none" /><path d="M 92.06813273071674 119.44442032107085 l -8.636191474069587 21.171022067573208 a43.864732199666456,43.864732199666456 0 0,0 -0.6966733385756868,-0.29120951202651885 l 8.999336272142736 -21.019227512526715" fill="#f9ff18" stroke="none" /><path d="M 91.7346041902142 119.30500536409082 l -6.323037051159884 14.768350723805206 a37.06502351855292,37.06502351855292 0 0,0 -0.5843553800151132,-0.25616422597699107 l 6.576313105832741 -14.657321944533763" fill="#ffaa0f" stroke="none" /><path d="M 91.40352486487194 119.15986991738527 l -8.399747981115876 18.72140338071279 a41.519422766969456,41.519422766969456 0 0,0 -0.6495456750577291,-0.2981745612154665 l 8.720761651941023 -18.574041749163246" fill="#ffe615" stroke="none" /><path d="M 91.07499286063937 119.00905698771935 l -3.239295015408844 6.899259864609262 a28.62186452754579,28.62186452754579 0 0,0 -0.44416681274954334,-0.21322706209254344 l 3.3575744961586294 -6.842478526017156" fill="#ff3104" stroke="none" /><path d="M 90.7491055286396 118.85261126421891 l -6.097555861313053 12.42634976229383 a34.841761300379844,34.841761300379844 0 0,0 -0.5361418577937033,-0.2688326576201556 l 6.3105516267895165 -12.319549263764372" fill="#ff8c0c" stroke="none" /><path d="M 90.42595943632237 118.69057910512821 l -4.129002149372058 8.060697130411844 a30.05668244876394,30.05668244876394 0 0,0 -0.4584489918195856,-0.23983884488254792 l 4.267142043718139 -7.988428866584579" fill="#ff4606" stroke="none" /><line stroke="#e1ed5e" stroke-width="0.3" x1="58.666819895761336" x2="56.23545636021788" y1="174.27360380694188" y2="178.64263932499728" /><path d="M 58.180547188652646 175.14741091055294 a86.0,86.0 0 0,1 -31.652253787137756,-30.449443065178592" fill="none" id="id128" stroke="none" /><text fill="#e1ed5e" style="font-size:6.75px; font-family:Arial;" text-anchor="middle"><textPath startOffset="22.20632615414155" xlink:href="#id128">August</textPath></text><path d="M 89.7882731507175 118.34994917583269 l -10.701794531974592 19.230575655843754 a43.007804212590855,43.007804212590855 0 0,0 -0.6437883945828207,-0.365559852289129 l 11.031231693478619 -19.043512637759996" fill="#fffa17" stroke="none" /><path d="M 89.4739219176387 118.17145234162733 l -10.375515648885367 17.91153235405553 a41.69962116200785,41.69962116200785 0 0,0 -0.6180124700743636,-0.3651326606704657 l 10.682295989988113 -17.730281121091316" fill="#ffe915" stroke="none" /><path d="M 88.8546689885994 117.79835938074946 l -11.911829509102375 19.022406985342442 a43.444234221062814,43.444234221062814 0 0,0 -0.6303927982520781,-0.40234650984742065 l 12.237504109401376 -18.814546046671218" fill="#ffff18" stroke="none" /><path d="M 88.54995079064634 117.60387380957326 l -7.995974722473355 12.293408301159964 a35.66504345105945,35.66504345105945 0 0,0 -0.5117514267782305,-0.3391609407162231 l 8.206400847991548 -12.153949339352422" fill="#ff970d" stroke="none" /><path d="M 87.65650970185807 116.9893568818739 l -11.364685594441932 15.642147784029072 a40.33475797515763,40.33475797515763 0 0,0 -0.5581850896243088,-0.4129319849832496 l 11.632255654484805 -15.444205850306055" fill="#ffd714" stroke="none" /><path d="M 87.36589467227662 116.77436683061367 l -12.42375681451371 16.495086024309924 a41.65036552547098,41.65036552547098 0 0,0 -0.5689663484287097,-0.43625913400539756 l 12.705851891435907 -16.27878754847716" fill="#ffe815" stroke="none" /><path d="M 87.07902340077011 116.55440617244103 l -11.810979370700858 15.132273346006803 a40.19596130214346,40.19596130214346 0 0,0 -0.5417697937902254,-0.4304146900387729 l 12.069706657208442 -14.9267247419629" fill="#ffd513" stroke="none" /><path d="M 86.79598089348748 116.32954008644616 l -9.184252690980609 11.358255488092103 a35.606863634078294,35.606863634078294 0 0,0 -0.4732828223384319,-0.38947954185402517 l 9.37840564186373 -11.198480827380898" fill="#ff960d" stroke="none" /><path d="M 86.51685102203217 116.09983520530335 l -9.65407894080142 11.527654278675662 a36.036224704489314,36.036224704489314 0 0,0 -0.4721337861919889,-0.4023626553165653 l 9.851078203570465 -11.359767233136147" fill="#ff9c0e" stroke="none" /><path d="M 86.24171649860922 115.8653595955263 l -11.426060421115377 13.175957402162938 a38.4402038465894,38.4402038465894 0 0,0 -0.49616720040226947,-0.43780986598381094 l 11.651169974424235 -12.977324394406839" fill="#ffbd11" stroke="none" /><path d="M 85.97065885151581 115.62618273729859 l -3.7646933428669622 4.193196637169716 a26.635229720587994,26.635229720587994 0 0,0 -0.33852165773708376,-0.30923150807178884 l 3.8363145500709006 -4.127772362511351" fill="#ff1302" stroke="none" /><path d="M 85.70375840098266 115.38237550388516 l -10.885478201010566 11.712484856076458 a36.98986982962953,36.98986982962953 0 0,0 -0.46266253784723493,-0.43747630747412725 l 11.085476573248618 -11.5233739118564" fill="#ffa90f" stroke="none" /><path d="M 85.44109423537348 115.13401014063109 l -15.150849938938634 15.749337231935803 a42.85382980434954,42.85382980434954 0 0,0 -0.5272042367063482,-0.5159803074001665 l 15.419704128020777 -15.486206821613067" fill="#fff817" stroke="none" /><path d="M 85.18274418774928 114.88116024355367 l -15.351113997419231 15.417320872855676 a42.75661931133493,42.75661931133493 0 0,0 -0.5170687769069112,-0.5237879410995618 l 15.614223399381677 -15.150792437775449" fill="#fff617" stroke="none" /><path d="M 84.9287848128048 114.62390073753433 l -3.165299548934384 3.071353293894091 a25.41047982541563,25.41047982541563 0 0,0 -0.30189277346468435,-0.31653336602631826 l 3.217698873778026 -3.0164128112852726" fill="#ff0000" stroke="none" /><path d="M 84.67929136418377 114.36230785411682 l -10.9686171983082 10.282465431643518 a36.0346153457934,36.0346153457934 0 0,0 -0.4203242126402057,-0.4561789177807335 l 11.143987818944135 -10.09213525906144" fill="#ff9c0e" stroke="none" /><path d="M 84.43433777217949 114.09645910891817 l -22.864076452537162 20.70599464764934 a51.84646181292025,51.84646181292025 0 0,0 -0.5933732511324168,-0.6666611379539226 l 23.217108553317917 -20.309359339954554" fill="#98ff23" stroke="none" /><path d="M 84.19399662182784 113.82643327865904 l -5.013340477711123 4.385461394624182 a27.66076980454931,27.66076980454931 0 0,0 -0.3104032188324034,-0.3610690694403908 l 5.088086206114305 -4.2985152260222605" fill="#ff2303" stroke="none" /><path d="M 83.95833913139862 113.55231037782056 l -16.183649784781505 13.672265404799704 a42.18587646654585,42.18587646654585 0 0,0 -0.463851791624884,-0.5587393641885348 l 16.416597576299925 -13.391664783497408" fill="#ffef16" stroke="none" /><path d="M 83.72743513129214 113.27417163493432 l -14.127838074979106 11.524633575034219 a39.23219645878234,39.23219645878234 0 0,0 -0.42236651857501917,-0.5269671737434317 l 14.324122505608987 -11.279738567712528" fill="#ffc812" stroke="none" /><path d="M 83.50135304334701 112.99209946851258 l -17.542130190854998 13.813805515565786 a43.32817848492756,43.32817848492756 0 0,0 -0.45637608110593986,-0.5899276049442618 l 17.777313089179003 -13.509799916508271" fill="#fffe18" stroke="none" /><path d="M 83.28015986056508 112.70617746262583 l -5.265947009850972 4.001835942087642 a27.613991897329697,27.613991897329697 0 0,0 -0.28434355377955994,-0.38092465704717815 l 5.334051830325617 -3.9105984055311565" fill="#ff2203" stroke="none" /><path d="M 83.06392112726016 112.41649034213515 l -12.09582821895274 8.867916557857633 a35.998300049656926,35.998300049656926 0 0,0 -0.36207468621970074,-0.5028900712121889 l 12.246682697548048 -8.658392881194306" fill="#ff9c0e" stroke="none" /><path d="M 82.85270091963577 112.12312394758628 l -27.73448372681001 19.60825330372033 a54.96594154760837,54.96594154760837 0 0,0 -0.5395537775049126,-0.777267458318106 l 28.067898411477053 -19.12794458321521" fill="#74ff27" stroke="none" /><path d="M 82.6465618267979 111.8261652097733 l -5.022207996680693 3.422576027516456 a27.07754883370375,27.07754883370375 0 0,0 -0.2591668204125597,-0.3874192323008193 l 5.080377922503984 -3.335619881009816" fill="#ff1a02" stroke="none" /><path d="M 82.44556493220864 111.52570212397912 l -17.336226930832968 11.382433372925691 a41.738962213342084,41.738962213342084 0 0,0 -0.3891564670981734,-0.6039794789680722 l 17.529588261308188 -11.08233229403617" fill="#ffe915" stroke="none" /><path d="M 82.24976979558568 111.22182372390057 l -16.154018283357033 10.21268701987974 a40.11154841620776,40.11154841620776 0 0,0 -0.3639365871884942,-0.5867816584799452 l 16.32741951021348 -9.93310903003453" fill="#ffd413" stroke="none" /><path d="M 82.05923443525364 110.91462005526583 l -20.626290121278295 12.548412107107218 a45.14345647534623,45.14345647534623 0 0,0 -0.3981634036342196,-0.667344766807141 l 20.83923440061075 -12.191505246413966" fill="#e9ff1a" stroke="none" /><line stroke="#e1ed5e" stroke-width="0.3" x1="26.63291911575756" x2="22.317208475507996" y1="142.92168965132927" y2="145.44649492493687" /><path d="M 25.769776987707644 143.4266507060508 a86.0,86.0 0 0,1 -11.730757126820373,-40.83630448921669" fill="none" id="id129" stroke="none" /><text fill="#e1ed5e" style="font-size:6.75px; font-family:Arial;" text-anchor="middle"><textPath startOffset="21.46611528233685" xlink:href="#id129">September</textPath></text><path d="M 81.87401531095188 110.60418214915194 l -5.527020025600867 3.2334534150243632 a27.403371873515212,27.403371873515212 0 0,0 -0.23468770143551437,-0.40919778933804934 l 5.5818597231887574 -3.137835779828007" fill="#ff1f03" stroke="none" /><path d="M 81.69416730710424 110.29060199501025 l -33.542928694140805 18.856117322233057 a59.479620916142515,59.479620916142515 0 0,0 -0.494030906888393,-0.8968095969796304 l 33.86253601048072 -18.275937206855605" fill="#44ff2d" stroke="none" /><path d="M 81.35079622478065 109.6543875284942 l -7.825467224990753 4.051116288513084 a29.811894261307298,29.811894261307298 0 0,0 -0.23199521030352382,-0.4577485593201635 l 7.894041105080544 -3.915813517490235" fill="#ff4306" stroke="none" /><path d="M 81.18737489456691 109.33194174019688 l -19.218272656388862 9.533161893756398 a42.452812859573285,42.452812859573285 0 0,0 -0.31909705987754394,-0.6574344567748672 l 19.379522972881126 -9.200938481016246" fill="#fff316" stroke="none" /><path d="M 81.02952815118164 109.00673069616217 l -11.755194058742404 5.581087703667905 a34.01280628130327,34.01280628130327 0 0,0 -0.2465529746916257,-0.5310531731034287 l 11.849521650273857 -5.3779144632856495" fill="#ff800b" stroke="none" /><path d="M 80.87730276802145 108.67885076344099 l -23.785455525898595 10.795047181133368 a47.120508000752885,47.120508000752885 0 0,0 -0.3288538352143519,-0.7414785835313346 l 23.967750445844228 -10.384020261109338" fill="#d0ff1d" stroke="none" /><path d="M 80.45479744820244 107.68017299344265 l -39.90443466776231 15.680214141641557 a63.87461978468668,63.87461978468668 0 0,0 -0.39330255842617184,-1.0267888722287017 l 40.16843150578199 -14.991001702579696" fill="#33ff4e" stroke="none" /><path d="M 80.32549172779594 107.34259656027581 l -7.104258976242064 2.651334752592515 a28.582880163356187,28.582880163356187 0 0,0 -0.1680615357509294,-0.4624331668290676 l 7.148844772998218 -2.5286537887573304" fill="#ff3004" stroke="none" /><path d="M 80.20201598880116 107.00284435728193 l -20.36352141495147 7.202883432697932 a42.599873475606785,42.599873475606785 0 0,0 -0.2385778914947484,-0.693419028519268 l 20.484490137389447 -6.851291701089367" fill="#fff417" stroke="none" /><path d="M 80.0844068197444 106.66101706037122 l -7.236899130905613 2.4204706402086336 a28.630949295534233,28.630949295534233 0 0,0 -0.15229994747962056,-0.4687310410706859 l 7.277491329401483 -2.2955406991601444" fill="#ff3104" stroke="none" /><path d="M 79.97269907076064 106.31721596034903 l -22.280220183701463 7.027854778927274 a44.36234051262649,44.36234051262649 0 0,0 -0.22344513977155003,-0.7302316452226922 l 22.39789209597914 -6.643296161152533" fill="#f3ff19" stroke="none" /><path d="M 79.86692584326677 105.97154293290107 l -7.790747850782516 2.310764114222253 a29.126215777719032,29.126215777719032 0 0,0 -0.13842908544097562,-0.4818898066099318 l 7.829369573109596 -2.176316832107725" fill="#ff3905" stroke="none" /><path d="M 79.76711848015287 105.62410040840567 l -9.935939157538517 2.7618764741438824 a31.31265477948024,31.31265477948024 0 0,0 -0.13988097046233133,-0.5205491280886118 l 9.982008204342623 -2.5904364128797317" fill="#ff5908" stroke="none" /><path d="M 79.67330655649465 105.27499134158121 l -46.80478355363068 12.14633499915702 a69.35515709222713,69.35515709222713 0 0,0 -0.28993324228506523,-1.1581391803078376 l 47.0069281102108 -11.33886797945179" fill="#3aff91" stroke="none" /><path d="M 79.58551787078972 104.9243191809786 l -7.133054145752892 1.7206135882639066 a28.337640803852484,28.337640803852484 0 0,0 -0.1103001296271481,-0.47517007161116204 l 7.161614841310596 -1.5975748593041703" fill="#ff2d04" stroke="none" /><path d="M 79.50377843672027 104.57218783832718 l -22.64152840815203 5.050751452372907 a44.198036530939476,44.198036530939476 0 0,0 -0.15925175812408662,-0.7439711963155553 l 22.72511420500056 -4.660266436641188" fill="#f5ff19" stroke="none" /><path d="M 79.4281124754447 104.21870165774334 l -6.004602151993129 1.2313709679029683 a27.12956127829022,27.12956127829022 0 0,0 -0.08987644745101975,-0.4582780692448668 l 6.024908532419816 -1.1278291715901467" fill="#ff1a02" stroke="none" /><path d="M 79.35854240842038 103.8639653848113 l -25.76102016379774 4.822318857508687 a47.20848944603785,47.20848944603785 0 0,0 -0.14264507653066497,-0.8000293428597071 l 25.84021168266759 -4.378170763915766" fill="#cfff1d" stroke="none" /><path d="M 79.29508885075956 103.50808413554451 l -4.340983359757975 0.7355035115708921 a25.402851569747583,25.402851569747583 0 0,0 -0.0693355660094506,-0.43175263572682204 l 4.353000680128717 -0.6606716461508564" fill="#ff0000" stroke="none" /><path d="M 79.23777060512086 103.15116336523772 l -10.429351957699168 1.5829028370324123 a31.548789676974735,31.548789676974735 0 0,0 -0.07686779824286367,-0.5376132018782573 l 10.455053806958631 -1.4031441631737545" fill="#ff5c08" stroke="none" /><path d="M 79.18660465613746 102.79330883721812 l -49.254359018128376 6.610292748675556 a70.69595408592008,70.69595408592008 0 0,0 -0.15148624934383448,-1.2074944559205745 l 49.36084677671906 -5.7614805384675725" fill="#3cffa0" stroke="none" /><path d="M 79.1416061653843 102.43462659150553 l -7.6660442210572945 0.8947934946587068 a28.718088454875954,28.718088454875954 0 0,0 -0.05308429043369036,-0.4914946009105044 l 7.680310812992037 -0.7627025718634203" fill="#ff3204" stroke="none" /><path d="M 79.10278846688536 102.07522291339032 l -22.853110340348405 2.2694558144935226 a43.96551941328734,43.96551941328734 0 0,0 -0.06830442003555148,-0.7537335833767983 l 22.888789356661032 -1.875740842568158" fill="#f8ff18" stroke="none" /><path d="M 79.04373962182676 101.35467743843564 l -16.052785809072688 1.0377016875701865 a37.086290965426166,37.086290965426166 0 0,0 -0.03569758440276335,-0.6374043497921825 l 16.068269744362983 -0.7612256214425663" fill="#ffab0f" stroke="none" /><path d="M 79.0095281055655 100.63252640178507 l -20.94331836384503 0.6311054783687169 a41.95282506523155,41.95282506523155 0 0,0 -0.01553840207353424,-0.7220084873785636 l 20.951078828603574 -0.2705071752000244" fill="#ffec16" stroke="none" /><line stroke="#e1ed5e" stroke-width="0.3" x1="15.007084014347285" x2="10.007500721073583" y1="101.09737516637583" y2="101.16192664675087" /><path d="M 14.007167355692545 101.11028546245083 a86.0,86.0 0 0,1 10.666146001902534,-42.60595125391555" fill="none" id="id130" stroke="none" /><text fill="#e1ed5e" style="font-size:6.75px; font-family:Arial;" text-anchor="middle"><textPath startOffset="22.20632615414155" xlink:href="#id130">October</textPath></text><path d="M 79.00175016825051 100.2711162175752 l -24.911315103245922 0.3216392594493381 a45.91339141880181,45.91339141880181 0 0,0 -0.0034013136894447175,-0.7903455153057884 l 24.913160714224873 0.10721573406012577" fill="#dfff1b" stroke="none" /><path d="M 79.00019446554 99.90962569577889 l -14.239513914782831 -0.061280860929103384 a35.23964577765929,35.23964577765929 0 0,0 0.007831579810407673,-0.6065644870198198 l 14.236349327854708 0.3063816060093952" fill="#ff910d" stroke="none" /><path d="M 79.00486145842228 99.54816195383935 l -19.25508094562539 -0.4143901282626505 a40.25953949088574,40.25953949088574 0 0,0 0.02087419843103751,-0.6927130223323505 l 19.245095052738705 0.7457732980199954" fill="#ffd614" stroke="none" /><path d="M 79.01574976396665 99.18683210126434 l -11.33787222733409 -0.43935778650804763 a32.346381886219014,32.346381886219014 0 0,0 0.026349041941643826,-0.5561866304783032 l 11.328629577158948 0.63445552360936" fill="#ff6809" stroke="none" /><path d="M 79.03285615573316 98.82574320788736 l -21.995695730977847 -1.2318604432337255 a43.03016365897814,43.03016365897814 0 0,0 0.04778276121479752,-0.739178166842182 l 21.971232378758636 1.6102976743289192" fill="#fffa17" stroke="none" /><path d="M 79.05617556472873 98.46500227214037 l -19.606677763350525 -1.4369966626980675 a40.65926683079685,40.65926683079685 0 0,0 0.057165992414289435,-0.697569903603405 l 19.579037287116737 1.7742804835092507" fill="#ffdb14" stroke="none" /><path d="M 79.08570108090925 98.10471618934814 l -43.59627774874098 -3.9507573140043193 a64.77492337971051,64.77492337971051 0 0,0 0.11018792603984125,-1.1095773779251217 l 43.52181269701891 4.7006102226338715" fill="#34ff59" stroke="none" /><path d="M 79.12142395522702 97.74499172005258 l -7.6077699148456945 -0.8216836298185622 a28.65201457557048,28.65201457557048 0 0,0 0.057180753171342094,-0.4898897734745671 l 7.592498808670763 0.9525171416179911" fill="#ff3104" stroke="none" /><path d="M 79.16333360222342 97.38593545837743 l -8.81947280839658 -1.1064471976522097 a29.888606528541978,29.888606528541978 0 0,0 0.06843637068944979,-0.5099304524010984 l 8.799120438649295 1.2580959921179673" fill="#ff4406" stroke="none" /><path d="M 79.21141760316559 97.0276538004421 l -23.920890778605713 -3.4202028516699303 a45.164163614504744,45.164163614504744 0 0,0 0.11666141446809451,-0.7686529601853702 l 23.858473470698318 3.8314549242473928" fill="#e9ff1a" stroke="none" /><path d="M 79.26566170972629 96.67025291283419 l -8.765336278273887 -1.4076336814810402 a29.877643417735598,29.877643417735598 0 0,0 0.0859169175314102,-0.5070865107482393 l 8.739807499222254 1.5583059805451074" fill="#ff4406" stroke="none" /><path d="M 79.32604984820605 96.31383870115002 l -19.30351536383095 -3.441813042184166 a40.607952020009805,40.607952020009805 0 0,0 0.12861945391019164,-0.6870902658122614 l 19.2414101860109 3.7735813854590003" fill="#ffda14" stroke="none" /><path d="M 79.3925641242962 95.95851677861259 l -17.353766133700425 -3.4033809485206534 a38.68434903817274,38.68434903817274 0 0,0 0.13377546020105746,-0.6523366533280397 l 17.29261137758437 3.7015932580120956" fill="#ffc111" stroke="none" /><path d="M 79.46518482838121 95.60439243477599 l -35.918953089727616 -7.688679962133137 a57.73264203160672,57.73264203160672 0 0,0 0.21637538005188273,-0.9699684018242117 l 35.781283322673694 8.305826533507307" fill="#56ff2a" stroke="none" /><path d="M 79.62865764111835 94.90015583598534 l -10.016048109236898 -2.5074579571881492 a31.325142378370103,31.325142378370103 0 0,0 0.13544942060194715,-0.5219418708753555 l 9.971402356764644 2.6794962536123683" fill="#ff5908" stroke="none" /><path d="M 79.71946130924805 94.55025226153421 l -19.699635443374735 -5.293648523995462 a41.39848894642604,41.39848894642604 0 0,0 0.1908534004083963,-0.6866012264560019 l 19.605595272399977 5.631961053870406" fill="#ffe515" stroke="none" /><path d="M 79.81627453868168 94.20196356495316 l -9.322888845729077 -2.6781205140261757 a30.699927108873936,30.699927108873936 0 0,0 0.15027483170917544,-0.5066520269028089 l 9.275408116908196 2.8382019276755237" fill="#ff5007" stroke="none" /><path d="M 79.91906864156998 93.8553929516997 l -18.79197025332554 -5.750195088514136 a40.652045429365465,40.652045429365465 0 0,0 0.2105089054309213,-0.6673707569618849 l 18.690205864126415 6.072816011902435" fill="#ffdb14" stroke="none" /><path d="M 80.02781315780177 93.51064311812611 l -16.898604861485033 -5.490689558353628 a38.76824465418065,38.76824465418065 0 0,0 0.21167961179839861,-0.6328950961876677 l 16.801587955914865 5.7807577574636175" fill="#ffc212" stroke="none" /><path d="M 80.14247586403 93.16781622104843 l -29.326809601219768 -10.090188055363397 a52.0140880307449,52.0140880307449 0 0,0 0.29857800317112654,-0.8441202219110981 l 29.14877851723883 10.593505903701107" fill="#96ff23" stroke="none" /><path d="M 80.38941819471856 92.48833698450439 l -10.731267743603293 -4.110518893289362 a32.49158270026324,32.49158270026324 0 0,0 0.20455222892986952,-0.5205631110483412 l 10.658921964791732 4.294631009233467" fill="#ff6a09" stroke="none" /><path d="M 80.52162464483688 92.15188598940014 l -25.667968126879874 -10.341988826434614 a48.673115485044676,48.673115485044676 0 0,0 0.3198016366009359,-0.7744250294674352 l 25.486144803392737 10.78228842635536" fill="#beff1f" stroke="none" /><path d="M 80.65960295795068 91.81776055985345 l -8.851376925542063 -3.744705200328151 a30.610915175745916,30.610915175745916 0 0,0 0.20947966147487415,-0.48350794041818906 l 8.785606554224508 3.8965122853329395" fill="#ff4f07" stroke="none" /><path d="M 80.803312248108 91.48605970444005 l -20.739585761253704 -9.19823238300868 a43.68783587123785,43.68783587123785 0 0,0 0.3108029264784909,-0.6848130500062567 l 20.578180517811862 9.553867441857006" fill="#fcff18" stroke="none" /><path d="M 80.95270993114464 91.15688171328213 l -15.97318540922781 -7.415898402284693 a38.61074107556456,38.61074107556456 0 0,0 0.2850609063554287,-0.6004109683792973 l 15.84316630903063 7.689751786304522" fill="#ffc011" stroke="none" /><path d="M 81.10775173730289 90.83032412892265 l -39.70025230441354 -19.26919658102631 a65.12949093194175,65.12949093194175 0 0,0 0.49820955141228296,-1.004360054488246 l 39.362682740047845 19.949716224013518" fill="#34ff5e" stroke="none" /><path d="M 81.43458229118936 90.18545643968196 l -7.815362456922125 -4.131564205890974 a29.84023263949922,29.84023263949922 0 0,0 0.24396791722088662,-0.4520354983051307 l 7.743086440482767 4.265480687528577" fill="#ff4306" stroke="none" /><path d="M 81.6062741919709 89.86733742301443 l -17.534014862569993 -9.659068427817818 a41.018473470624386,41.018473470624386 0 0,0 0.34600519719858386,-0.615504637518872 l 17.365152024078977 9.959456575271474" fill="#ffe015" stroke="none" /><line stroke="#e1ed5e" stroke-width="0.3" x1="26.266209847984243" x2="21.928928074336255" y1="57.711370442889674" y2="55.22380399835377" /><path d="M 25.398753493254645 57.213857153982495 a86.0,86.0 0 0,1 29.58750427330803,-30.492523968695096" fill="none" id="id131" stroke="none" /><text fill="#e1ed5e" style="font-size:6.75px; font-family:Arial;" text-anchor="middle"><textPath startOffset="21.46611528233685" xlink:href="#id131">November</textPath></text><path d="M 81.78341655067845 89.55222093294921 l -7.857161255907491 -4.506327167456316 a30.057702111545105,30.057702111545105 0 0,0 0.2612734632435926,-0.4466010417207605 l 7.778428118193574 4.640907621530968" fill="#ff4606" stroke="none" /><path d="M 81.96595687620814 89.24020034530311 l -20.84972875355611 -12.43974535843669 a45.27876548920088,45.27876548920088 0 0,0 0.4051030813582903,-0.6658829510697417 l 20.632509873911605 12.796796082713506" fill="#e7ff1a" stroke="none" /><path d="M 82.15384107792192 88.93136811851018 l -15.939756743404104 -9.88623380771119 a39.75669117780714,39.75669117780714 0 0,0 0.36570931429161596,-0.578464309927546 l 15.767219832866525 10.15914576535295" fill="#ffcf13" stroke="none" /><path d="M 82.34701348167596 88.62581576622439 l -37.31704720135276 -24.044145135900973 a65.39237465088188,65.39237465088188 0 0,0 0.6178127215557337,-0.9409711606238675 l 36.8976378444391 24.682934360502507" fill="#35ff61" stroke="none" /><path d="M 82.7489923806493 88.02491185347247 l -9.366687765181316 -6.502049857263287 a32.402258199003164,32.402258199003164 0 0,0 0.32199725599944173,-0.4554422833215638 l 9.253377889377996 6.662318640916637" fill="#ff6909" stroke="none" /><path d="M 82.95767976084542 87.72973835380427 l -18.47104118002312 -13.298923208579659 a43.760507920119196,43.760507920119196 0 0,0 0.4453931732344158,-0.6075157877488329 l 18.23938539427507 13.614901439999992" fill="#fbff18" stroke="none" /><path d="M 83.17141714833178 87.43820079747576 l -7.426904123514363 -5.543858274836156 a30.26786218236676,30.26786218236676 0 0,0 0.31525284272687726,-0.41483578750571853 l 7.330375340563377 5.670878838222901" fill="#ff4a06" stroke="none" /><path d="M 83.39014120810768 87.1503855733568 l -20.553438635273235 -15.900421846683507 a46.98590492240808,46.98590492240808 0 0,0 0.5003907574045817,-0.6354454464268015 l 20.27669379727468 16.251859687063355" fill="#d2ff1c" stroke="none" /><path d="M 83.6137871275137 86.86637796730984 l -14.151001580872645 -11.342090304419587 a39.13543101818837,39.13543101818837 0 0,0 0.4258335714712554,-0.5220216074954978 l 13.953669517324997 11.583996081523166" fill="#ffc712" stroke="none" /><path d="M 83.84228863543731 86.58626213691792 l -28.13741668067858 -23.358997012826677 a57.569891425971925,57.569891425971925 0 0,0 0.6395449834465646,-0.7570195375288401 l 27.731161083744894 23.839875499984633" fill="#58ff2a" stroke="none" /><path d="M 84.31358615837235 86.03803664274999 l -11.888126679784085 -10.58123231767734 a36.91508822832137,36.91508822832137 0 0,0 0.4265562340867599,-0.47101404754653026 l 11.70422680508128 10.784299152493427" fill="#ffa80f" stroke="none" /><path d="M 84.5562425177563 85.77008943001954 l -18.538984194413295 -17.081858961337165 a46.20880482164358,46.20880482164358 0 0,0 0.544015550695212,-0.5803178590943062 l 18.242201321747626 17.39844623730952" fill="#dcff1b" stroke="none" /><path d="M 84.80347519578584 85.50635884689758 l -6.774884670294867 -6.461526469372686 a30.362178518389843,30.362178518389843 0 0,0 0.3639640649954395,-0.375096962322344 l 6.662656341596309 6.577187627245154" fill="#ff4b07" stroke="none" /><path d="M 85.05521093208273 85.24692304244772 l -18.329667472423324 -18.09453406120841 a46.75633655126142,46.75633655126142 0 0,0 0.570347597131509,-0.5678983432935568 l 18.015484075124505 18.40736825515208" fill="#d5ff1c" stroke="none" /><path d="M 85.31137513191541 84.99185889309783 l -14.029362823992898 -14.334538378735898 a41.0574677309646,41.0574677309646 0 0,0 0.5093408723218249,-0.489985515623346 l 13.780538708058646 14.573906981121556" fill="#ffe015" stroke="none" /><path d="M 85.57189188830299 84.74124197986013 l -19.115153454912647 -20.215644270775176 a48.82195832229256,48.82195832229256 0 0,0 0.6156033172113896,-0.5721361924748045 l 18.764342253906403 20.541685049324627" fill="#bcff1f" stroke="none" /><path d="M 86.10567301691215 84.25364557470407 l -6.793494405300762 -7.699024992166801 a31.267743280042687,31.267743280042687 0 0,0 0.40663879010001586,-0.35263315168955467 l 6.659961816553973 7.8148231372760355" fill="#ff5808" stroke="none" /><path d="M 86.37877921826538 84.01681056812374 l -16.986367757682164 -19.931864990736536 a47.18808758974532,47.18808758974532 0 0,0 0.6227534676576788,-0.5215381197323474 l 16.640756753065375 20.221304267862696" fill="#d0ff1d" stroke="none" /><path d="M 86.65592168130627 83.78471172551755 l -6.232206165976452 -7.573173444713998 a30.8078208445585,30.8078208445585 0 0,0 0.4123797017637683,-0.33344903974033596 l 6.100923065648183 7.679328581718468" fill="#ff5107" stroke="none" /><path d="M 86.93701828274178 83.55741782278169 l -16.509369293245555 -20.78060485529106 a47.54039963174077,47.54039963174077 0 0,0 0.6451174385598547,-0.5035243934792161 l 16.149219299526276 21.061707637993496" fill="#cbff1d" stroke="none" /><path d="M 87.22198572758235 83.33499621200491 l -6.495313365785612 -8.471145792870683 a31.674708743746777,31.674708743746777 0 0,0 0.43553304658760184,-0.32803446114279927 l 6.34853416543962 8.581696843519337" fill="#ff5e08" stroke="none" /><path d="M 87.51073957382395 83.11751280151077 l -24.065329473311017 -32.530558487600885 a61.46451925050184,61.46451925050184 0 0,0 0.8559803110891624,-0.621906099141537 l 23.50180384586807 32.93998382155909" fill="#2fff30" stroke="none" /><path d="M 88.09926311788651 82.69761687909137 l -4.981988808468714 -7.243272405909725 a29.791200579779805,29.791200579779805 0 0,0 0.42501446865215275,-0.28697166645764505 l 4.856569645410022 7.327955984666035" fill="#ff4206" stroke="none" /><path d="M 88.39885842347998 82.49532879139004 l -14.477934534419097 -21.845391863652026 a47.20747477456459,47.20747477456459 0 0,0 0.6812105469595021,-0.44307828884658534 l 14.099756961675308 22.091369076658147" fill="#cfff1d" stroke="none" /><path d="M 88.70189139769569 82.29822771554957 l -5.5454740706974075 -8.68859759312179 a31.3074735412699,31.3074735412699 0 0,0 0.45676239431704146,-0.28602456941787 l 5.395092524008124 8.782766503862591" fill="#ff5908" stroke="none" /><path d="M 89.00827224532344 82.1063720568725 l -12.435848169280286 -20.24453709778701 a44.759032008755455,44.759032008755455 0 0,0 0.6599568661566259,-0.3976166275515961 l 12.08552923690601 20.455600334797225" fill="#eeff19" stroke="none" /><line stroke="#e1ed5e" stroke-width="0.3" x1="56.762969772571076" x2="54.21961505331055" y1="26.818313649435495" y2="22.513508569990535" /><path d="M 56.25429882871897 25.957352633546506 a86.0,86.0 0 0,1 42.265352541879196,-11.944610805530505" fill="none" id="id132" stroke="none" /><text fill="#e1ed5e" style="font-size:6.75px; font-family:Arial;" text-anchor="middle"><textPath startOffset="22.20632615414155" xlink:href="#id132">December</textPath></text><path d="M 89.3179101791058 81.91981866633112 l -5.4282467923121205 -9.187685927985754 a31.671430829535197,31.671430829535197 0 0,0 0.47175843099891457,-0.27327293313430795 l 5.269291628847886 9.27976301851011" fill="#ff5e08" stroke="none" /><path d="M 89.63071344664047 81.73862282372117 l -15.286081867035 -26.920358028968057 a51.95755118308813,51.95755118308813 0 0,0 0.7815304195020847,-0.4349208323078813 l 14.820427358460869 27.179494258836122" fill="#97ff23" stroke="none" /><path d="M 90.26544431104013 81.39251694778311 l -4.078062985276211 -7.795167063501394 a29.797455726502797,29.797455726502797 0 0,0 0.4565247084066862,-0.23384968716177887 l 3.9432777892807613 7.864209275975678" fill="#ff4306" stroke="none" /><path d="M 90.58718382345135 81.22770947309562 l -9.421294406947256 -18.789198942113153 a42.01891493842348,42.01891493842348 0 0,0 0.6493497726934884,-0.3186331133655934 l 9.096473367243341 18.948587215613575" fill="#ffed16" stroke="none" /><path d="M 90.91171255644093 81.06846463323043 l -3.795515184728933 -7.906322329817022 a29.77016922872479,29.77016922872479 0 0,0 0.4638784773779372,-0.21779716506024024 l 3.6588584960513875 7.97048447751727" fill="#ff4206" stroke="none" /><path d="M 91.23893434514133 80.91482961587045 l -5.5051558295258465 -11.992472278691043 a34.195686115641564,34.195686115641564 0 0,0 0.5370642262969542,-0.2409650632930076 l 5.297909484762117 12.08545767250058" fill="#ff820c" stroke="none" /><path d="M 91.56875222667455 80.76684994638697 l -3.5318249630999694 -8.05671014595338 a29.79683840626189,29.79683840626189 0 0,0 0.47152254137611294,-0.20188134445997735 l 3.392618663933548 8.116311018376145" fill="#ff4306" stroke="none" /><path d="M 92.23578459929587 80.48803036053334 l -23.29264620211241 -58.53590891839998 a84.0,84.0 0 0,0 1.3480673400012946,-0.5230291844377941 l 22.28159569711144 58.92818080672833" fill="#4dd2ff" stroke="none" /><path d="M 92.57280143429618 80.3572730644239 l -4.928795907354927 -13.035196416642936 a34.935902364641464,34.935902364641464 0 0,0 0.564327407008108,-0.20784654655598472 l 4.7036861745742495 13.118106231005244" fill="#ff8d0d" stroke="none" /><path d="M 92.91201910852362 80.23233633223022 l -5.480272468470368 -15.283927062322512 a37.23674267749134,37.23674267749134 0 0,0 0.6052176374234515,-0.21114854993722063 l 5.216372826983631 15.375996465431943" fill="#ffad10" stroke="none" /><path d="M 93.59665428221793 80.00007090966166 l -2.311868704163657 -7.220789285364509 a28.58185563097361,28.58185563097361 0 0,0 0.4698511732801102,-0.145985046656446 l 2.1872321581728182 7.25951446690348" fill="#ff3004" stroke="none" /><path d="M 93.94186890950719 79.89281104454417 l -2.186712370733548 -7.257789270782438 a28.580053831695643,28.580053831695643 0 0,0 0.4722646789328383,-0.1378670101306816 l 2.061457474077288 7.294354609831818" fill="#ff3004" stroke="none" /><path d="M 94.28887869178378 79.79150937346287 l -3.5799222862885425 -12.667359361132014 a34.163503969685436,34.163503969685436 0 0,0 0.5672802831306213,-0.15505913051644232 l 3.361344113934199 12.727105032474752" fill="#ff820c" stroke="none" /><path d="M 94.63758080256005 79.69619591428918 l -3.9953823718017603 -15.127773107200092 a36.64648840730183,36.64648840730183 0 0,0 0.6112828166660021,-0.15582960074783536 l 3.734390666450759 15.194305704116791" fill="#ffa50f" stroke="none" /><path d="M 94.98787191387505 79.60689891045804 l -3.7771399489731343 -15.368241889506299 a36.82560093546229,36.82560093546229 0 0,0 0.6168749582126658,-0.14599437217839054 l 3.5120413037979343 15.43098217382556" fill="#ffa70f" stroke="none" /><path d="M 95.33964822691252 79.52364482259891 l -3.974863235446228 -17.46449953855506 a38.91112173686204,38.91112173686204 0 0,0 0.6543688453676626,-0.14301968438258122 l 3.6736516659250444 17.53033272103351" fill="#ffc412" stroke="none" /><path d="M 95.692805502759 79.44645832069477 l -3.8321552886869905 -18.28669763997212 a39.68391620438214,39.68391620438214 0 0,0 0.6697768050821167,-0.13435092616643068 l 3.5168120741377376 18.349952522215762" fill="#ffce13" stroke="none" /><path d="M 96.04723909329186 79.375362276772 l -3.4917230350730093 -18.21904343012882 a39.55062460572634,39.55062460572634 0 0,0 0.669733098724964,-0.122389442965755 l 3.1775948152451523 18.27644835444531" fill="#ffcc13" stroke="none" /><path d="M 96.40284397218896 79.31037775812273 l -3.081167318257938 -17.721830075179493 a38.98768615627472,38.98768615627472 0 0,0 0.6621794748650706,-0.10926528712541604 l 2.7756586372539815 17.772241625244536" fill="#ffc512" stroke="none" /><path d="M 96.75951476605007 79.25152402106235 l -4.510450982933455 -28.87992912083018 a50.23002692598179,50.23002692598179 0 0,0 0.8554197972683473,-0.12606664189248995 l 4.012662205236459 28.95329024688364" fill="#abff21" stroke="none" /><path d="M 97.47563105711357 79.15227682838746 l -2.446919852993852 -20.208103043768826 a41.355707931549674,41.355707931549674 0 0,0 0.7074451089971376,-0.07948970091454334 l 2.098708040486996 20.247228698153965" fill="#ffe415" stroke="none" /><path d="M 97.83486435360386 79.11191278185805 l -1.665868836822339 -16.071424261777217 a37.15753065240902,37.15753065240902 0 0,0 0.6367648391036355,-0.06046849415269365 l 1.3889788706284674 16.09771830044509" fill="#ffac0f" stroke="none" /><path d="M 98.19473922651362 79.07773832637324 l -1.5077975851782093 -17.47478042578707 a38.53970936154132,38.53970936154132 0 0,0 0.6614328263344659,-0.0513399173677137 l 1.2067745694814092 17.498145605343247" fill="#ffbf11" stroke="none" /><path d="M 98.55514903715128 79.0497635885617 l -0.6657090560685428 -9.652734063569795 a30.675662429484213,30.675662429484213 0 0,0 0.5270925324544017,-0.0317956609849161 l 0.4994544747745181 9.662762993935019" fill="#ff5007" stroke="none" /><path d="M 99.63851952072746 79.00311137660856 l -0.33612246168723053 -19.523947478629577 a40.52684059077497,40.52684059077497 0 0,0 0.6976029409597614,-0.006004488753949111 l 4.782696565390635e-15 19.526840590774967" fill="#ffd914" stroke="none" /></svg>