<?xml version="1.0" encoding="utf-8" ?>
<svg baseProfile="full" height="200mm" version="1.1" viewBox="0,0,200,200" width="200mm" xmlns="http://www.w3.org/2000/svg" xmlns:ev="http://www.w3.org/2001/xml-events" xmlns:xlink="http://www.w3.org/1999/xlink"><defs /><rect fill="#1a1a1a" height="200" width="200" x="0" y="0" /><text alignment-baseline="middle" fill="#e1ed5e" style="dominant-baseline: central; font-size:9.0px; font-family:Arial;" text-anchor="middle" x="100.0" y="100.0">2025</text><line stroke="#e1ed5e" stroke-width="0.3" x1="100.0" x2="100.0" y1="15.0" y2="10.0" /><path d="M 100.0 14.0 a86.0,86.0 0 0,1 42.46469731375804,11.215312516191453" fill="none" id="id145" stroke="none" /><text fill="#e1ed5e" style="font-size:6.75px; font-family:Arial;" text-anchor="middle"><textPath startOffset="22.20632615414155" xlink:href="#id145">January</textPath></text><path d="M 100.0 79.0 l 0.0 -17.739012076688212 a38.73901207668821,38.73901207668821 0 0,0 0.6668284120012152,0.005739602667337487 l -0.3053479327286868 17.736383850629434" fill="#ffd313" stroke="none" /><path d="M 100.36148047927253 79.00311137660856 l 0.3063062769761809 -17.792050058298507 a38.79468653312878,38.79468653312878 0 0,0 0.6675888766208141,0.017241851104080577 l -0.6125217887918628 17.784141415052066" fill="#ffd413" stroke="none" /><path d="M 100.72285384407766 79.0124445844662 l 0.5117346920677568 -14.857858605603958 a35.86666858240895,35.86666858240895 0 0,0 0.6168369604852634,0.026562297069509314 l -0.7674124849423517 14.846848582010255" fill="#ffad10" stroke="none" /><path d="M 101.08401301168833 79.027996857942 l 1.7025538216868632 -32.93868589485693 a53.98265783704805,53.98265783704805 0 0,0 0.9275710310529851,0.055953617679725794 l -2.26928690157946 32.9044990077969" fill="#76ff27" stroke="none" /><path d="M 101.80526077348638 79.07773832637324 l 1.6621147199829693 -19.26325526694496 a40.334829423138615,40.334829423138615 0 0,0 0.6912138863089852,0.06563908726709193 l -1.9934537333821987 19.23179063516269" fill="#ffe815" stroke="none" /><path d="M 102.16513564639614 79.11191278185805 l 2.3074660409570202 -22.261215825732407 a43.38048546323356,43.38048546323356 0 0,0 0.7420816569669445,0.08338152065266115 l -2.69031440143369 22.218198351609143" fill="#f0ff19" stroke="none" /><path d="M 102.52436894288641 79.15227682838746 l 2.1446367718644983 -17.711671603901426 a38.84104195072926,38.84104195072926 0 0,0 0.6630448318450152,0.08608224868757385 l -2.4491963322173596 17.672131032049712" fill="#ffd513" stroke="none" /><path d="M 102.88285421437855 79.19881850522331 l 2.4471734372204277 -17.657534870451883 a38.826306278448754,38.826306278448754 0 0,0 0.6612138809786148,0.09744573812046911 l -2.7507562986276985 17.612794648170446" fill="#ffd413" stroke="none" /><path d="M 103.2404852339499 79.25152402106235 l 1.8376071505619307 -11.765999555468952 a32.908633237239776,32.908633237239776 0 0,0 0.5589308734100433,0.09222838321718277 l -2.039867230110849 11.732624909312145" fill="#ff850c" stroke="none" /><path d="M 103.59715602781102 79.31037775812273 l 2.555264303995879 -14.697014188177855 a35.91749314431807,35.91749314431807 0 0,0 0.6082112285653627,0.11114671443198375 l -2.8078706536641427 14.650851992395133" fill="#ffae10" stroke="none" /><path d="M 103.95276090670814 79.375362276772 l 4.217258395584959 -22.0047274922627 a43.405206992658506,43.405206992658506 0 0,0 0.7325839696300283,0.14694945251561492 l -4.595408774682112 21.928874083669875" fill="#f0ff19" stroke="none" /><path d="M 104.307194497241 79.44645832069477 l 2.6910849767022045 -12.841613553005525 a34.12055551402331,34.12055551402331 0 0,0 0.5738058302714664,0.12541172967395786 l -2.911733531127199 12.793388325235696" fill="#ff960d" stroke="none" /><path d="M 104.66035177308747 79.52364482259891 l 4.983662154086696 -21.896895625036663 a43.456868136047504,43.456868136047504 0 0,0 0.727956992812123,0.17228390085148498 l -5.359842833861342 21.80786581204431" fill="#efff19" stroke="none" /><path d="M 105.36241919743992 79.69619591428918 l 6.074191628313604 -22.998798165429303 a44.78740256925143,44.78740256925143 0 0,0 0.7436886577183509,0.2032782031562237 l -6.469178175255665 22.890833421446786" fill="#dfff1b" stroke="none" /><path d="M 105.71112130821622 79.79150937346287 l 3.33149294409759 -11.788305710879479 a33.25002027629856,33.25002027629856 0 0,0 0.5494324903223807,0.16039441035600172 l -3.5339156521433974 11.729212971604774" fill="#ff8a0c" stroke="none" /><path d="M 106.0581310904928 79.89281104454417 l 3.8510169649631076 -12.781685412304364 a34.34922520761216,34.34922520761216 0 0,0 0.5646597608438777,0.17544253631706686 l -4.070462098517703 12.713502741104778" fill="#ff990e" stroke="none" /><path d="M 106.40334571778207 80.00007090966166 l 12.127814348737676 -37.87948327106028 a60.773598451233745,60.773598451233745 0 0,0 0.9935533477357218,0.32755891771713325 l -12.778050518715816 37.66511062908391" fill="#2fff30" stroke="none" /><path d="M 106.74666289553966 80.11325718540242 l 2.865664695649108 -8.44695187496654 a29.919811103711247,29.919811103711247 0 0,0 0.48629380784400644,0.1696583609275547 l -3.010640507556388 8.39637266086678" fill="#ff5c08" stroke="none" /><path d="M 107.4271985657038 80.35727306442388 l 8.426473342556353 -22.28551094110423 a44.82539508379429,44.82539508379429 0 0,0 0.719376798989516,0.2791070218188056 l -8.808833306545536 22.137161215394876" fill="#dfff1b" stroke="none" /><path d="M 108.09893153111575 80.62456947434976 l 7.720145408509001 -18.469243805284624 a41.0178323468743,41.0178323468743 0 0,0 0.6490900909095296,0.27790650229792296 l -8.036919257208845 18.33361777502391" fill="#fff016" stroke="none" /><path d="M 108.43124777332544 80.76684994638697 l 5.965651913226712 -13.608694881168011 a35.858855242531774,35.858855242531774 0 0,0 0.5631853176332486,0.2526848355640668 l -6.199019349326742 13.503989715087414" fill="#ffad10" stroke="none" /><path d="M 108.76106565485865 80.91482961587045 l 18.91423911436759 -41.20291873211595 a66.33683881040697,66.33683881040697 0 0,0 1.0336599548700771,0.48531720867829536 l -19.620677280537265 40.871236540797646" fill="#36ff73" stroke="none" /><path d="M 109.41281617654863 81.2277094730956 l 11.11965077488954 -22.176287201274416 a45.80794927818317,45.80794927818317 0 0,0 0.7018203459676986,0.35949964005478247 l -11.499731608445993 21.981595035907134" fill="#d3ff1c" stroke="none" /><path d="M 109.73455568895987 81.39251694778311 l 6.917722218256402 -13.22314063929343 a35.92334845319547,35.92334845319547 0 0,0 0.545444647599567,0.2913576408033093 l -7.144311912384279 13.102104271988365" fill="#ffae10" stroke="none" /><path d="M 110.05341064243156 81.56283822128135 l 7.998173118933079 -14.668018344499036 a37.70693075926826,37.70693075926826 0 0,0 0.5671767191372172,0.31563323013065686 l -8.249473927142331 14.528169716808199" fill="#ffc612" stroke="none" /><line stroke="#e1ed5e" stroke-width="0.3" x1="143.23703022742887" x2="145.7803849466894" y1="26.81831364943548" y2="22.513508569990506" /><path d="M 143.74570117128098 25.957352633546492 a86.0,86.0 0 0,1 28.547481713284135,27.462654790039103" fill="none" id="id146" stroke="none" /><text fill="#e1ed5e" style="font-size:6.75px; font-family:Arial;" text-anchor="middle"><textPath startOffset="19.985693538727396" xlink:href="#id146">February</textPath></text><path d="M 110.99172775467656 82.1063720568725 l 16.435537716295386 -26.755702424989963 a52.400549553763895,52.400549553763895 0 0,0 0.7645011804019717,0.4787305690322416 l -16.89365804906962 26.46882751463478" fill="#87ff25" stroke="none" /><path d="M 111.2981086023043 82.29822771554956 l 8.890599486902108 -13.929709222063499 a37.52511900858039,37.52511900858039 0 0,0 0.5414927819509029,0.35220196798252096 l -9.129059294637292 13.774608329921449" fill="#ffc312" stroke="none" /><path d="M 111.60114157652 82.49532879139004 l 13.529676339831552 -20.414588885545122 a45.49096938110903,45.49096938110903 0 0,0 0.6489943273083814,0.43820386684687124 l -13.879075361546475 20.17867310639958" fill="#d7ff1c" stroke="none" /><path d="M 111.90073688211348 82.69761687909136 l 10.13727532530204 -14.738500919563247 a38.888201708862304,38.888201708862304 0 0,0 0.5482659792182848,0.3840953558129268 l -10.389472444103975 14.561820720986384" fill="#ffd513" stroke="none" /><path d="M 112.48926042617603 83.11751280151076 l 8.850029430349801 -11.963118989094554 a35.880834548683495,35.880834548683495 0 0,0 0.49336804677578355,0.3715945842392432 l -9.054643630883968 11.809007815349464" fill="#ffae10" stroke="none" /><path d="M 112.77801427241765 83.33499621200491 l 10.88959509270999 -14.202139675291585 a38.896481571517484,38.896481571517484 0 0,0 0.5278205222249354,0.4119722897469571 l -11.132448170094356 14.012588996321403" fill="#ffd513" stroke="none" /><path d="M 113.06298171725822 83.55741782278167 l 24.860172764239003 -31.291893570960315 a60.96511970611521,60.96511970611521 0 0,0 0.8160518074046644,0.6598571423220211 l -25.39512797020816 30.859330331374164" fill="#30ff32" stroke="none" /><path d="M 113.6212207817346 84.01681056812373 l 14.43158597308498 -16.93407486056853 a43.249349767619776,43.249349767619776 0 0,0 0.56246026790629,0.4877600017528176 l -14.720940039638034 16.68314986539604" fill="#f2ff19" stroke="none" /><path d="M 113.89432698308785 84.25364557470407 l 11.751659176250628 -13.3180823151608 a38.76155426611518,38.76155426611518 0 0,0 0.49649677148984583,0.4457597036623564 l -11.979166935336465 13.113823602729147" fill="#ffd413" stroke="none" /><path d="M 114.42810811169701 84.74124197986012 l 12.21503296530874 -12.918272498566365 a38.778886205012824,38.778886205012824 0 0,0 0.48107379287871815,0.4627926075950603 l -12.435590001799877 12.706096804209002" fill="#ffd413" stroke="none" /><path d="M 114.68862486808459 84.99185889309783 l 10.5218115512254 -10.750688636901385 a36.04279975560071,36.04279975560071 0 0,0 0.43966071233918474,0.437772669516686 l -10.705308063731907 10.567980116734581" fill="#ffb010" stroke="none" /><path d="M 114.94478906791727 85.2469230424477 l 31.599628469397977 -31.194267682230876 a65.40291494524499,65.40291494524499 0 0,0 0.7840119499859133,0.8079932310565278 l -32.131904683087 30.645710255624234" fill="#35ff68" stroke="none" /><path d="M 115.4437574822437 85.77008943001954 l 16.342872003025377 -15.058356577217005 a43.222591390607114,43.222591390607114 0 0,0 0.49943984142787634,0.5514939471476363 l -16.59965548506929 14.77480984279982" fill="#f2ff19" stroke="none" /><path d="M 115.68641384162765 86.03803664274999 l 13.270920581291838 -11.812011894093049 a38.76628712086887,38.76628712086887 0 0,0 0.4393662739830506,0.5022716033027825 l -13.472278718852738 11.581824734587318" fill="#ffd413" stroke="none" /><path d="M 116.15771136456269 86.58626213691792 l 14.945768345158042 -12.407612329552578 a40.424850968478324,40.424850968478324 0 0,0 0.439863781137321,0.5392209855954321 l -15.157130618371772 12.148507174349044" fill="#ffe915" stroke="none" /><path d="M 116.38621287248628 86.86637796730983 l 11.888643681005787 -9.528800449665408 a36.236071888234925,36.236071888234925 0 0,0 0.3859071244336911,0.49006285854872406 l -12.050904886033443 9.322745197163645" fill="#ffb210" stroke="none" /><path d="M 116.60985879189232 87.15038557335679 l 35.08520901093326 -27.142398590934572 a65.35855827920966,65.35855827920966 0 0,0 0.6807375813298864,0.8957708618677741 l -35.54722253248726 26.534442953185767" fill="#35ff67" stroke="none" /><path d="M 117.04232023915458 87.72973835380427 l 17.995038516750473 -12.956207126457084 a43.17396478582462,43.17396478582462 0 0,0 0.4290410287539597,0.6068481085897037 l -18.215392165308316 12.644532517535586" fill="#f3ff19" stroke="none" /><path d="M 117.2510076193507 88.02491185347247 l 12.508718988157877 -8.683145691461426 a36.22711626749617,36.22711626749617 0 0,0 0.3511883119731645,0.5153255134590129 l -12.656331765799775 8.466542154732005" fill="#ffb210" stroke="none" /><path d="M 117.65298651832404 88.62581576622439 l 18.358437989731527 -11.828721203791867 a42.839205359624536,42.839205359624536 0 0,0 0.3940643940110386,0.6233152365565459 l -18.559329979988522 11.510958319521116" fill="#f7ff19" stroke="none" /><line stroke="#e1ed5e" stroke-width="0.3" x1="172.23445277983987" x2="176.4835382374775" y1="55.19839476539836" y2="52.563006222186495" /><path d="M 173.08426987136738 54.67131705675599 a86.0,86.0 0 0,1 12.851231095245387,41.99856678651699" fill="none" id="id147" stroke="none" /><text fill="#e1ed5e" style="font-size:6.75px; font-family:Arial;" text-anchor="middle"><textPath startOffset="22.20632615414155" xlink:href="#id147">March</textPath></text><path d="M 117.84615892207809 88.93136811851018 l 10.056586808133076 -6.23734540578158 a32.83382507647214,32.83382507647214 0 0,0 0.2937598577953681,0.4828639672617171 l -10.162462464214668 6.063313665312782" fill="#ff840c" stroke="none" /><path d="M 118.03404312379186 89.2402003453031 l 34.29139907813781 -20.45955981292125 a60.93111116002925,60.93111116002925 0 0,0 0.5296373745731625,0.9053219576229741 l -34.6384961271813 19.86625844294438" fill="#30ff32" stroke="none" /><path d="M 118.3937258080291 89.86733742301442 l 18.246923008895152 -10.051792434388812 a41.83239617606634,41.83239617606634 0 0,0 0.34201350541500253,0.6336990826846304 l -18.417244613528617 9.736212368371723" fill="#fffb17" stroke="none" /><path d="M 118.56541770881063 90.18545643968196 l 18.748441335560873 -9.911298364625795 a42.20702449155943,42.20702449155943 0 0,0 0.3340194916608149,0.6452193416198228 l -18.916270260381804 9.587106300745628" fill="#ffff18" stroke="none" /><path d="M 118.73160827565052 90.50648371742162 l 18.211139875866714 -9.229733528038405 a41.41650304476697,41.41650304476697 0 0,0 0.3168165006012619,0.6386827328072301 l -18.367316389421383 8.914891206732227" fill="#fff517" stroke="none" /><path d="M 118.89224826269711 90.83032412892265 l 21.265440492166775 -10.321545316227724 a44.6379622015272,44.6379622015272 0 0,0 0.3295595372832474,0.6941364336790281 l -21.43995822329178 9.953966466908156" fill="#e1ff1b" stroke="none" /><path d="M 119.04729006885535 91.15688171328212 l 19.768739521375522 -9.178066871186365 a42.79541175926629,42.79541175926629 0 0,0 0.30445406483018655,0.6708241749377162 l -19.923795903169054 8.836420687406585" fill="#f7ff18" stroke="none" /><path d="M 119.196687751892 91.48605970444005 l 32.26752935380119 -14.311001041125687 a56.29869971256054,56.29869971256054 0 0,0 0.3852688653558166,0.8892536596818243 l -32.50908892899968 13.75344823685726" fill="#5dff2a" stroke="none" /><path d="M 119.47837535516314 92.15188598940014 l 19.40442704959153 -7.818319188268184 a41.92027495164827,41.92027495164827 0 0,0 0.26391098758764236,0.6716246772630659 l -19.536131587060872 7.483145506109334" fill="#fffc17" stroke="none" /><path d="M 119.61058180528143 92.48833698450437 l 19.833048687405935 -7.596877022260963 a42.238228756851896,42.238228756851896 0 0,0 0.25422468117546576,0.6811957529908573 l -19.960877957083024 7.254358132240772" fill="#feff18" stroke="none" /><path d="M 119.7369772167798 92.82701384747503 l 18.595899540408386 -6.758285649926782 a40.785901663633304,40.785901663633304 0 0,0 0.23412451390214561,0.6619015283474724 l -18.70947713512034 6.4371864951526945" fill="#ffed16" stroke="none" /><path d="M 119.85752413597 93.16781622104841 l 16.44377740273329 -5.657649386014812 a38.389847953496194,38.389847953496194 0 0,0 0.20961351704943562,0.626717735865774 l -16.538728213554496 5.373758547226725" fill="#ffcf13" stroke="none" /><path d="M 119.97218684219823 93.5106431181261 l 14.577779505216933 -4.736607688585374 a36.327984463010424,36.327984463010424 0 0,0 0.1881175760050567,0.5963841236993559 l -14.657152564990197 4.484973398459599" fill="#ffb410" stroke="none" /><path d="M 120.08093135843002 93.85539295169968 l 21.23040909660996 -6.496338194919652 a43.20208729719327,43.20208729719327 0 0,0 0.21147237174366215,0.7129797089722963 l -21.339087365465325 6.129929099200826" fill="#f2ff19" stroke="none" /><path d="M 120.28053869075195 94.5502522615342 l 20.58557207175763 -5.531715727760397 a42.31585457855911,42.31585457855911 0 0,0 0.1829730864655245,0.7050699415710894 l -20.677741490093457 5.176549360640457" fill="#fdff18" stroke="none" /><path d="M 120.37134235888165 94.90015583598534 l 23.457818532299747 -5.872525081308931 a45.18172452752094,45.18172452752094 0 0,0 0.18237753655166672,0.7560726313365381 l -23.555428869112234 5.467867218312986" fill="#daff1b" stroke="none" /><path d="M 120.45610955862082 95.25157060432595 l 19.830554165146456 -4.603220669132778 a41.357812235737384,41.357812235737384 0 0,0 0.1550043792508734,0.6948542388772269 l -19.906852931399367 4.261188260705587" fill="#fff517" stroke="none" /><path d="M 120.6074358757038 95.95851677861258 l 2.5763521422995734 -0.5052682933622706 a23.625430709313964,23.625430709313964 0 0,0 0.074829924807038,0.39974445049564034 l -2.5846677910164706 0.4608457654040675" fill="#ff0000" stroke="none" /><path d="M 120.67395015179393 96.31383870115 l 62.02185045538181 -11.058483896549978 a84.0,84.0 0 0,0 0.2415525539191079,1.4256568467366484 l -62.20301487082114 9.98924126149749" fill="#4dd2ff" stroke="none" /><path d="M 120.78858239683441 97.02765380044208 l 10.720747984436569 -1.5328498076333743 a31.82977681573182,31.82977681573182 0 0,0 0.07288109611411964,0.5430488194881955 l -10.745545079608524 1.3480826460805146" fill="#ff770a" stroke="none" /><path d="M 120.83666639777658 97.38593545837742 l 14.704850993355757 -1.8447974756497791 a35.82011877357802,35.82011877357802 0 0,0 0.07148612062715107,0.6124494256952706 l -14.734427466986496 1.591404311629656" fill="#ffad10" stroke="none" /><path d="M 120.87857604477298 97.74499172005257 l 13.269916225315159 -1.4332285352279053 a34.34709034438121,34.34709034438121 0 0,0 0.058427466264450806,0.5883566117133027 l -13.292620817261838 1.2045963928101677" fill="#ff990e" stroke="none" /><path d="M 120.91429891909075 98.10471618934814 l 15.055516558000322 -1.3643525371693221 a36.11720995005038,36.11720995005038 0 0,0 0.050779965084519894,0.6196441949661071 l -15.076771006904336 1.1049944249954464" fill="#ffb110" stroke="none" /><path d="M 120.96714384426684 98.82574320788733 l 17.704676128221735 -0.9915435478544714 a38.73241989725363,38.73241989725363 0 0,0 0.03155104518224461,0.6659926970720295 l -17.719120781637475 0.6866397441594423" fill="#ffd313" stroke="none" /><line stroke="#e1ed5e" stroke-width="0.3" x1="184.98032266829074" x2="189.97916517819016" y1="98.17113171792111" y2="98.06355123074" /><path d="M 185.9800911702706 98.14961562048488 a86.0,86.0 0 0,1 -9.607161424134198,41.387399972396054" fill="none" id="id148" stroke="none" /><text fill="#e1ed5e" style="font-size:6.75px; font-family:Arial;" text-anchor="middle"><textPath startOffset="21.466115282336823" xlink:href="#id148">April</textPath></text><path d="M 120.99513854157772 99.54816195383933 l 17.838506805822156 -0.38390392354899705 a38.84263734104013,38.84263734104013 0 0,0 0.008632300571418592,0.6685811923853697 l -17.84247211351129 0.07678647310316457" fill="#ffd513" stroke="none" /><path d="M 120.99980553446 99.90962569577887 l 17.755131416207515 -0.07641059558677214 a38.75529583493097,38.75529583493097 0 0,0 -0.0028710342274530804,0.6671272435114172 l -17.75381608469056 -0.22922612612832974" fill="#ffd313" stroke="none" /><path d="M 120.99824983174949 100.27111621757518 l 16.2634714861482 0.20998373242038004 a37.264827018712396,37.264827018712396 0 0,0 -0.013802070885980263,0.6413279998753502 l -16.257447352577213 -0.489901548085845" fill="#ffc011" stroke="none" /><path d="M 120.9904718944345 100.63252640178507 l 17.755423742643572 0.5350415344917194 a38.76348337811203,38.76348337811203 0 0,0 -0.025838385264352635,0.6667739133889733 l -17.743583224528013 -0.8405926948946989" fill="#ffd413" stroke="none" /><path d="M 120.9764740272857 100.99374915477107 l 35.468962251306976 1.680322975729586 a56.50874214172341,56.50874214172341 0 0,0 -0.05439275644951824,0.9712192053931602 l -35.43478314396993 -2.2906138974581696" fill="#5bff2a" stroke="none" /><path d="M 120.95626037817324 101.35467743843564 l 13.367294729846073 0.8641032444081816 a34.39519476571981,34.39519476571981 0 0,0 -0.04327806719622272,0.5904948423079841 l -13.350440103985513 -1.094071223212936" fill="#ff9a0e" stroke="none" /><path d="M 120.89721153311464 102.0752229133903 l 22.09735289758898 2.19440440585488 a43.20604457747979,43.20604457747979 0 0,0 -0.07986472436860584,0.7394481589502809 l -22.056305871719324 -2.5744488866899524" fill="#f2ff19" stroke="none" /><path d="M 120.8583938346157 102.4346265915055 l 17.65324087301938 2.0605157806723695 a38.77308748088643,38.77308748088643 0 0,0 -0.08308240087999127,0.6622484805169352 l -17.61515696289254 -2.3640820154766997" fill="#ffd413" stroke="none" /><path d="M 120.81339534386255 102.79330883721812 l 21.940545302472962 2.9445805489326045 a43.13725553854905,43.13725553854905 0 0,0 -0.10510279124615389,0.7350886771813306 l -21.886608460210205 -3.3218146980943444" fill="#f3ff19" stroke="none" /><path d="M 120.76222939487914 103.15116336523771 l 14.618825091496424 2.2187552788769 a35.78624097068993,35.78624097068993 0 0,0 -0.09767640716400618,0.6082310806496781 l -14.57846692997113 -2.470065589219783" fill="#ffac10" stroke="none" /><path d="M 120.64145759157962 103.86396538481128 l 35.14491415496007 6.578931315505877 a56.755381807689545,56.755381807689545 0 0,0 -0.18802265315965405,0.9587234576807405 l -35.02646156882475 -7.182918500254562" fill="#58ff2a" stroke="none" /><path d="M 120.49622156327973 104.57218783832717 l 21.678182074713998 4.835853288033496 a43.21101202304469,43.21101202304469 0 0,0 -0.16819255563484525,0.7245691276667634 l -21.5917289531486 -5.208291073048824" fill="#f2ff19" stroke="none" /><path d="M 120.41448212921028 104.9243191809786 l 17.27978623360717 4.168177387738292 a38.775396339176595,38.775396339176595 0 0,0 -0.16209719439544865,0.6474977148800648 l -17.20547772491666 -4.465002942015753" fill="#ffd413" stroke="none" /><path d="M 120.32669344350535 105.2749913415812 l 21.516215236467737 5.58368479317176 a43.22892381496468,43.22892381496468 0 0,0 -0.19311373813126642,0.7186480596603637 l -21.416913421994693 -5.953223786007673" fill="#f2ff19" stroke="none" /><path d="M 120.13307415673323 105.97154293290107 l 17.04693416605145 5.056182600552834 a38.78097148504056,38.78097148504056 0 0,0 -0.19533278663430362,0.6383588486003007 l -16.957374606911014 -5.348868421705191" fill="#ffd413" stroke="none" /><path d="M 120.02730092923936 106.31721596034902 l 30.12223007901877 9.501461694155005 a52.58522628158358,52.58522628158358 0 0,0 -0.27972272655795194,0.8608980305011898 l -29.95421510144457 -10.01855862463399" fill="#85ff25" stroke="none" /><path d="M 119.79798401119884 107.00284435728193 l 20.649256312894117 7.303952158513865 a42.902956499282396,42.902956499282396 0 0,0 -0.2522606789909288,0.6941130469324438 l -20.520471372897962 -7.65831300245244" fill="#f6ff19" stroke="none" /><path d="M 119.67450827220406 107.3425965602758 l 20.58237422321866 7.6814153666664495 a42.96902980788809,42.96902980788809 0 0,0 -0.26457815973700244,0.6907300866279611 l -20.44710178388815 -8.034569020127554" fill="#f5ff19" stroke="none" /><path d="M 119.54520255179757 107.68017299344265 l 20.711593824953766 8.138499620252539 a43.253208641423235,43.253208641423235 0 0,0 -0.2782569244017067,0.6906108666807568 l -20.568434286294668 -8.493809854776108" fill="#f2ff19" stroke="none" /><path d="M 119.26925614724726 108.34839909993367 l 20.382115298811 8.830544973561222 a43.21281496308185,43.21281496308185 0 0,0 -0.3015820612713093,0.679987932827813 l -20.227092152808417 -9.180081242881723" fill="#f2ff19" stroke="none" /><path d="M 119.12269723197855 108.67885076344098 l 28.505693264029304 12.937330688540017 a52.30413828565746,52.30413828565746 0 0,0 -0.3791436900665073,0.816641778197148 l -28.278774957122966 -13.426092534015996" fill="#88ff25" stroke="none" /><path d="M 118.81262510543309 109.33194174019688 l 19.92461752324982 9.88354197676405 a43.24128560704733,43.24128560704733 0 0,0 -0.3365023054312159,0.6639509725977769 l -19.751536548032334 -10.22504716106452" fill="#f2ff19" stroke="none" /><path d="M 118.64920377521936 109.65438752849418 l 21.675690647222165 11.221150242033765 a45.40798594289109,45.40798594289109 0 0,0 -0.36531263483860776,0.6910338334537082 l -21.479325504158666 -11.592599090573607" fill="#d8ff1c" stroke="none" /><line stroke="#e1ed5e" stroke-width="0.3" x1="174.80103733775053" x2="179.2010983576182" y1="140.37084112569926" y2="142.7455964860345" /><path d="M 175.68104954172406 140.8457921977663 a86.0,86.0 0 0,1 -30.038265399797805,32.042727171017184" fill="none" id="id149" stroke="none" /><text fill="#e1ed5e" style="font-size:6.75px; font-family:Arial;" text-anchor="middle"><textPath startOffset="22.206326154141568" xlink:href="#id149">May</textPath></text><path d="M 118.48025628344425 109.97397251340804 l 23.407819453972802 12.633425870933337 a47.59942594918461,47.59942594918461 0 0,0 -0.3953553705763698,0.7176848363263042 l -23.186887673944923 -13.034481225657446" fill="#beff1f" stroke="none" /><path d="M 118.30583269289576 110.29060199501025 l 19.362285140447906 10.884485477220405 a43.211936204748824,43.211936204748824 0 0,0 -0.3700752604197522,0.6452574102783709 l -19.172057883875773 -11.216162733357091" fill="#f2ff19" stroke="none" /><path d="M 117.94076556474637 110.91462005526583 l 30.39859326323416 18.493586267841895 a56.58211918126372,56.58211918126372 0 0,0 -0.5133759269786834,0.8277254567434067 l -30.075752696587514 -19.014108055950576" fill="#5aff2a" stroke="none" /><path d="M 117.55443506779139 111.5257021239791 l 22.318334936265508 14.653532248984892 a47.69895282027686,47.69895282027686 0 0,0 -0.456540066287437,0.682465454930096 l -22.06279176456735 -15.035534618120794" fill="#bcff1f" stroke="none" /><path d="M 117.35343817320211 111.8261652097733 l 18.447298793896845 12.571618432799594 a43.32371883919018,43.32371883919018 0 0,0 -0.425272004755873,0.6126360411357313 l -18.228165881978835 -12.887295736122345" fill="#f1ff19" stroke="none" /><path d="M 117.14729908036423 112.12312394758627 l 21.796927692118754 15.410406901383455 a47.694319577049725,47.694319577049725 0 0,0 -0.4797144801699426,0.6662814559419337 l -21.528433419573208 -15.78332196277652" fill="#bcff1f" stroke="none" /><path d="M 116.71984013943494 112.70617746262583 l 17.709835463993496 13.458520557781524 a43.24342706882079,43.24342706882079 0 0,0 -0.45548339370241925,0.5887736861397385 l -17.475545253073008 -13.761372238034514" fill="#f2ff19" stroke="none" /><path d="M 116.498646956653 112.99209946851258 l 27.985102333308618 22.037275790317754 a56.620323929805586,56.620323929805586 0 0,0 -0.6095638597229031,0.7605246397324523 l -27.60162056153086 -22.515728263628457" fill="#59ff2a" stroke="none" /><path d="M 116.0416608686014 113.55231037782055 l 20.358737213189723 17.199461319723547 a47.65144743919892,47.65144743919892 0 0,0 -0.5347343104210266,0.622016809580247 l -20.05966039319792 -17.54735522846532" fill="#bdff1f" stroke="none" /><path d="M 115.80600337817218 113.82643327865902 l 20.25573276431999 17.718871170366967 a47.911950976687066,47.911950976687066 0 0,0 -0.5483434958728282,0.6160697305626108 l -19.947730418798823 -18.064915070670445" fill="#baff1f" stroke="none" /><path d="M 115.56566222782051 114.09645910891815 l 19.78195721727883 17.914788778426708 a47.68830246235031,47.68830246235031 0 0,0 -0.5562581421304363,0.6037083509652498 l -19.47065266715267 -18.252648384193293" fill="#bdff1f" stroke="none" /><path d="M 115.32070863581623 114.36230785411682 l 17.338523270328167 16.25389626965871 a44.76580596446367,44.76580596446367 0 0,0 -0.5318464433511505,0.5576388695596215 l -17.056170275598053 -16.54994225580084" fill="#dfff1b" stroke="none" /><path d="M 114.29624159901734 115.38237550388516 l 18.12968468158138 19.50705824377564 a47.631011771609835,47.631011771609835 0 0,0 -0.605368500056751,0.5529897716532426 l -17.791216632057765 -19.816240782015463" fill="#bdff1f" stroke="none" /><path d="M 114.0293411484842 115.62618273729858 l 20.206983772413466 22.50697432298706 a51.247083931416924,51.247083931416924 0 0,0 -0.661472094802309,0.5836722156213391 l -19.81656932470457 -22.85146968038069" fill="#94ff23" stroke="none" /><path d="M 113.75828350139079 115.86535959552629 l 14.59841190768302 16.834153360453083 a43.28233267837179,43.28233267837179 0 0,0 -0.5670697130522626,0.4832691117778333 l -14.30647671805371 -17.082946862453863" fill="#f1ff19" stroke="none" /><path d="M 113.20401910651253 116.32954008644616 l 14.021386797414689 17.340386735961353 a43.2999618805822,43.2999618805822 0 0,0 -0.5836061798058623,0.46365204532446497 l -13.720823124891476 -17.579172695290943" fill="#f1ff19" stroke="none" /><path d="M 112.92097659922987 116.55440617244103 l 21.864405147530288 28.01276209668239 a56.535433763226735,56.535433763226735 0 0,0 -0.7723043699442247,0.5921700581254475 l -21.378972049092567 -28.38497149663521" fill="#5aff2a" stroke="none" /><path d="M 112.34349029814194 116.9893568818739 l 15.666354972858588 21.562887744326215 a47.65319504318431,47.65319504318431 0 0,0 -0.6677634781855303,0.47643151146538826 l -15.292864166824174 -21.829363517635823" fill="#bdff1f" stroke="none" /><path d="M 112.04921762599082 117.19931262002967 l 12.737965105957171 18.182445599439593 a43.200384749304746,43.200384749304746 0 0,0 -0.6127112942487146,0.42142841518413315 l -12.423096927085574 -18.39901480398882" fill="#f2ff19" stroke="none" /><path d="M 111.7513745106137 117.40417183066458 l 13.258783350878003 19.636693860434573 a44.693777278305554,44.693777278305554 0 0,0 -0.6413031382302079,0.42502075082768986 l -12.91880551390783 -19.86201263235358" fill="#e0ff1b" stroke="none" /><path d="M 111.1453310114006 117.79835938074945 l 12.549279369728223 20.04037241813416 a44.64531537867488,44.64531537867488 0 0,0 -0.6548421791530399,0.4022575510347458 l -12.202457990642873 -20.253418435997283" fill="#e1ff1b" stroke="none" /><line stroke="#e1ed5e" stroke-width="0.3" x1="143.8653032363475" x2="146.44561519142675" y1="172.8068346515853" y2="177.08958963109032" /><path d="M 144.38136562736335 173.6633856474863 a86.0,86.0 0 0,1 -40.68145358897372,12.25698825130547" fill="none" id="id150" stroke="none" /><text fill="#e1ed5e" style="font-size:6.75px; font-family:Arial;" text-anchor="middle"><textPath startOffset="21.466115282336833" xlink:href="#id150">June</textPath></text><path d="M 110.8373102113329 117.98757091392108 l 19.140058048365898 31.768321172676217 a58.08865125918067,58.08865125918067 0 0,0 -0.8609073619278407,0.5086392441461252 l -18.590382815409676 -32.09307898911609" fill="#4aff2c" stroke="none" /><path d="M 110.21172684928248 118.3499491758327 l 12.98062456772339 23.325516301390863 a47.69412528805982,47.69412528805982 0 0,0 -0.7208108273480381,0.393043535106642 l -12.577190928506703 -23.545500488257275" fill="#bcff1f" stroke="none" /><path d="M 109.89434966115114 118.52300852407294 l 11.199532078036938 20.966413685745074 a44.77014980198435,44.77014980198435 0 0,0 -0.6828707750870094,0.35724571505955194 l -10.836970400423432 -21.156088819749343" fill="#dfff1b" stroke="none" /><path d="M 109.57404056367764 118.69057910512821 l 12.14273696443084 23.70522500682615 a47.634259021260775,47.634259021260775 0 0,0 -0.7329916506260777,0.36753723028097324 l -11.732891406122002 -23.910730078016424" fill="#bdff1f" stroke="none" /><path d="M 108.92500713936063 119.00905698771935 l 8.192035700029392 17.447927047646683 a40.27536269880691,40.27536269880691 0 0,0 -0.630083125173007,0.28924025914118145 l -7.890484579088964 -17.58635437712194" fill="#ffe715" stroke="none" /><path d="M 108.59647513512805 119.15986991738527 l 15.329259186674552 34.16593514548597 a58.447260401500664,58.447260401500664 0 0,0 -0.9214609305634011,0.4039413927184351 l -14.738877581453398 -34.42474109149886" fill="#47ff2c" stroke="none" /><path d="M 107.93186726928326 119.44442032107085 l 8.944530327930329 21.926893298424897 a44.68107414176511,44.68107414176511 0 0,0 -0.7146395763823646,0.2843698359225382 l -8.565769675506097 -22.077609978753504" fill="#e0ff1b" stroke="none" /><path d="M 107.59598834532513 119.57807347666477 l 8.039664577378725 20.721614708707474 a43.22659494058593,43.22659494058593 0 0,0 -0.6960094764069211,0.263171228813608 l -7.681784880211529 -20.856934187627715" fill="#f2ff19" stroke="none" /><path d="M 107.2578585660854 119.70592522655815 l 8.218206467934545 22.313380824239808 a44.7786854421592,44.7786854421592 0 0,0 -0.725586226508611,0.2601694057045707 l -7.8329006807961985 -22.451537770984338" fill="#dfff1b" stroke="none" /><path d="M 106.57524785965236 119.94407469862006 l 6.035782774240877 18.307766503036234 a40.2770585937668,40.2770585937668 0 0,0 -0.660311026493115,0.21141073874814842 l -5.719750402656821 -18.40895008844409" fill="#ffe715" stroke="none" /><path d="M 106.2309692047433 120.05430185196036 l 10.572221482938584 34.02657177365471 a56.63115846772293,56.63115846772293 0 0,0 -0.9334029129580519,0.28122664085341187 l -9.984943595540287 -34.20351378361385" fill="#59ff2a" stroke="none" /><path d="M 105.53697534728816 120.25689768951611 l 7.031438716312077 25.724357749975653 a47.668027899902626,47.668027899902626 0 0,0 -0.7933538725401977,0.20953196841900595 l -6.5875944009603815 -25.841581067698243" fill="#bdff1f" stroke="none" /><path d="M 105.18746579009965 120.34920634021253 l 5.4877493670322295 21.527148078014456 a43.21561382199745,43.21561382199745 0 0,0 -0.7224142514294328,0.1775518467499407 l -5.116381830859585 -21.61842118307843" fill="#f2ff19" stroke="none" /><path d="M 104.83641907484287 120.43548508189849 l 6.136858511023702 25.93027581172155 a47.6465801943941,47.6465801943941 0 0,0 -0.7997361651838595,0.18201734747843346 l -5.68960219644698 -26.032069892777667" fill="#bdff1f" stroke="none" /><path d="M 104.13013068566511 120.58985236759428 l 3.779122472645595 18.839978613969706 a40.21526895044904,40.21526895044904 0 0,0 -0.6798915650532568,0.1303028365980196 l -3.454263293020634 -18.902238648916192" fill="#ffe615" stroke="none" /><path d="M 103.7750983002368 120.6578951692458 l 6.686787031593205 36.59108572326703 a58.1970519693881,58.1970519693881 0 0,0 -0.986997138866292,0.17160210399197084 l -6.055940921254863 -36.70076640578" fill="#49ff2c" stroke="none" /><path d="M 103.06178313531738 120.77559828337769 l 3.8760522764984207 26.30078665370776 a47.58486712124025,47.58486712124025 0 0,0 -0.8113704956328556,0.11244855746991986 l -3.4227531896787347 -26.363609776670284" fill="#beff1f" stroke="none" /><path d="M 102.70371172650421 120.8252237178851 l 2.863187632371509 22.05358004919893 a43.23866534674665,43.23866534674665 0 0,0 -0.7389129169907597,0.08947206386973175 l -2.483147292329369 -22.099597641794016" fill="#f2ff19" stroke="none" /><path d="M 102.34483914955558 120.86867818915974 l 2.971459929575132 26.445498845428002 a47.61191431101123,47.61191431101123 0 0,0 -0.8152234475927074,0.08450124359055729 l -2.5158038853768216 -26.49272945747432" fill="#bdff1f" stroke="none" /><path d="M 101.98527174616119 120.90594882070398 l 1.4130493552416146 14.880148049722665 a35.947090501566315,35.947090501566315 0 0,0 -0.6165023287999125,0.05319441503536807 l -1.1567027087001605 -14.902266717036696" fill="#ffaf10" stroke="none" /><path d="M 101.26447882468166 120.96189622390904 l 1.3160092829714813 21.81614233539578 a42.8557989291427,42.8557989291427 0 0,0 -0.7367359405282542,0.038080832827524946 l -0.9402852740297475 -21.83556297498551" fill="#f7ff19" stroke="none" /><line stroke="#e1ed5e" stroke-width="0.3" x1="102.19456741930631" x2="102.32365962044197" y1="184.97166512339345" y2="189.96999836594603" /><path d="M 102.22038585953345 185.97133177190398 a86.0,86.0 0 0,1 -42.740103519485714,-10.115201625700543" fill="none" id="id151" stroke="none" /><text fill="#e1ed5e" style="font-size:6.75px; font-family:Arial;" text-anchor="middle"><textPath startOffset="22.20632615414155" xlink:href="#id151">July</textPath></text><path d="M 100.54218724476979 120.99299961872073 l 0.6769103231841399 26.2093553354364 a47.21809517651505,47.21809517651505 0 0,0 -0.8126915696798628,0.013991222384317456 l -0.22565906361160917 -26.21712403509988" fill="#c2ff1e" stroke="none" /><path d="M 100.18074693466247 120.99922214144158 l 0.15299204215344944 17.7746520849866 a38.775310498196106,38.775310498196106 0 0,0 -0.6674779536317975,0.0 l 0.15299204215343717 -17.7746520849866" fill="#ffd413" stroke="none" /><path d="M 99.81925306533755 120.99922214144158 l -0.2259938488883448 26.25601946870357 a47.256992050893345,47.256992050893345 0 0,0 -0.8133610410292674,-0.014002747940726437 l 0.6779145798102801 -26.248239243483685" fill="#c2ff1e" stroke="none" /><path d="M 99.09653310690486 120.98055641714683 l -0.8280390442134166 19.228950186767428 a40.246770480886525,40.246770480886525 0 0,0 -0.6918840167344676,-0.035762500684316724 l 1.1589111293613732 -19.211847879320906" fill="#ffe715" stroke="none" /><path d="M 98.73552117531835 120.96189622390904 l -2.248174286595003 37.2691065828879 a58.33685301561401,58.33685301561401 0 0,0 -1.0018305531617326,-0.06909210048611727 l 2.8893676005356657 -37.2248861378855" fill="#48ff2c" stroke="none" /><path d="M 98.01472825383883 120.90594882070398 l -2.52728516696061 26.61363335168995 a47.7333621247557,47.7333621247557 0 0,0 -0.8173029083087298,-0.0847167881961674 l 2.985020671874933 -26.56618719503802" fill="#bcff1f" stroke="none" /><path d="M 97.65516085044442 120.86867818915974 l -1.9894267747110588 17.70556720285557 a38.81698428092622,38.81698428092622 0 0,0 -0.6633500561080812,-0.08032245373352874 l 2.2939042538705294 -17.668699220396693" fill="#ffd413" stroke="none" /><path d="M 97.2962882734958 120.8252237178851 l -3.3774621179315094 26.0147572372844 a47.23308682699967,47.23308682699967 0 0,0 -0.8053722829875478,-0.11161725985311323 l 3.824762992105888 -25.95276541193868" fill="#c2ff1e" stroke="none" /><path d="M 96.58105272829116 120.7198165907248 l -2.9623252883002937 17.952554332600137 a39.19531747946881,39.19531747946881 0 0,0 -0.6647358397043979,-0.11557284636424581 l 3.2709100994767417 -17.898902907714884" fill="#ffd914" stroke="none" /><path d="M 96.22490169976321 120.6578951692458 l -6.665933125626406 36.476970071416616 a58.081046506623125,58.081046506623125 0 0,0 -0.9819358328294632,-0.18819033938874072 l 7.292836573027564 -36.356822533679406" fill="#4aff2c" stroke="none" /><path d="M 95.51606077576429 120.51570834832081 l -5.784520682631883 26.466357665660205 a48.09111971872788,48.09111971872788 0 0,0 -0.8071976520946267,-0.1837155576068033 l 6.239238484119372 -26.362865374475714" fill="#b8ff1f" stroke="none" /><path d="M 95.16358092515715 120.4354850818985 l -4.120559745592171 17.410740448056888 a38.8916990687469,38.8916990687469 0 0,0 -0.6501334861351971,-0.1597869932228998 l 4.4196465164705785 -17.33723219651996" fill="#ffd513" stroke="none" /><path d="M 94.81253420990036 120.34920634021253 l -6.578464569190027 25.80576688827743 a47.63106833719226,47.63106833719226 0 0,0 -0.7927387429975125,-0.20936950711595775 l 7.0216937549990295 -25.688706031857887" fill="#bdff1f" stroke="none" /><path d="M 94.11515582081647 120.15858648285463 l -4.982921802387524 17.069043297025246 a38.78150018318003,38.78150018318003 0 0,0 -0.639202273435657,-0.19258640152996023 l 5.275999050263427 -16.980741526389558" fill="#ffd413" stroke="none" /><path d="M 93.76903079525671 120.05430185196036 l -11.656598818713865 37.51662760582096 a60.28579441648455,60.28579441648455 0 0,0 -0.9883386767538761,-0.31643483358986896 l 12.300658840558683 -37.31041992557138" fill="#34ff2f" stroke="none" /><path d="M 93.08242187328487 119.8279376855182 l -9.785882575189003 28.049393348996343 a50.70743955681991,50.70743955681991 0 0,0 -0.8216547529398218,-0.29461616132834806 l 10.267256888758551 -27.87678964662804" fill="#9aff23" stroke="none" /><path d="M 92.7421414339146 119.70592522655815 l -6.134557320368162 16.656032458126507 a38.749822837511545,38.749822837511545 0 0,0 -0.6239270972202822,-0.23591584084922848 l 6.420354638348727 -16.547968367170647" fill="#ffd313" stroke="none" /><path d="M 92.06813273071674 119.44442032107085 l -6.431734687867746 15.766949750763127 a38.02832685668826,38.02832685668826 0 0,0 -0.6039777311554616,-0.2524627406070282 l 6.70218387852067 -15.653901967136127" fill="#ffca12" stroke="none" /><path d="M 91.7346041902142 119.30500536409082 l -5.888179276889373 13.75267865460198 a35.96017464381798,35.96017464381798 0 0,0 -0.566936683822142,-0.24852838145428738 l 6.124036635369258 -13.649285719853241" fill="#ffaf10" stroke="none" /><line stroke="#e1ed5e" stroke-width="0.3" x1="58.666819895761336" x2="56.23545636021788" y1="174.27360380694188" y2="178.64263932499728" /><path d="M 58.180547188652646 175.14741091055294 a86.0,86.0 0 0,1 -31.652253787137756,-30.449443065178592" fill="none" id="id152" stroke="none" /><text fill="#e1ed5e" style="font-size:6.75px; font-family:Arial;" text-anchor="middle"><textPath startOffset="22.20632615414155" xlink:href="#id152">August</textPath></text><line stroke="#e1ed5e" stroke-width="0.3" x1="26.63291911575756" x2="22.317208475507996" y1="142.92168965132927" y2="145.44649492493687" /><path d="M 25.769776987707644 143.4266507060508 a86.0,86.0 0 0,1 -11.730757126820373,-40.83630448921669" fill="none" id="id153" stroke="none" /><text fill="#e1ed5e" style="font-size:6.75px; font-family:Arial;" text-anchor="middle"><textPath startOffset="21.46611528233685" xlink:href="#id153">September</textPath></text><line stroke="#e1ed5e" stroke-width="0.3" x1="15.007084014347285" x2="10.007500721073583" y1="101.09737516637583" y2="101.16192664675087" /><path d="M 14.007167355692545 101.11028546245083 a86.0,86.0 0 0,1 10.666146001902534,-42.60595125391555" fill="none" id="id154" stroke="none" /><text fill="#e1ed5e" style="font-size:6.75px; font-family:Arial;" text-anchor="middle"><textPath startOffset="22.20632615414155" xlink:href="#id154">October</textPath></text><line stroke="#e1ed5e" stroke-width="0.3" x1="26.266209847984243" x2="21.928928074336255" y1="57.711370442889674" y2="55.22380399835377" /><path d="M 25.398753493254645 57.213857153982495 a86.0,86.0 0 0,1 29.58750427330803,-30.492523968695096" fill="none" id="id155" stroke="none" /><text fill="#e1ed5e" style="font-size:6.75px; font-family:Arial;" text-anchor="middle"><textPath startOffset="21.46611528233685" xlink:href="#id155">November</textPath></text><line stroke="#e1ed5e" stroke-width="0.3" x1="56.762969772571076" x2="54.21961505331055" y1="26.818313649435495" y2="22.513508569990535" /><path d="M 56.25429882871897 25.957352633546506 a86.0,86.0 0 0,1 42.265352541879196,-11.944610805530505" fill="none" id="id156" stroke="none" /><text fill="#e1ed5e" style="font-size:6.75px; font-family:Arial;" text-anchor="middle"><textPath startOffset="22.20632615414155" xlink:href="#id156">December</textPath></text></svg>