<?xml version="1.0" encoding="utf-8" ?>
<svg baseProfile="full" height="200mm" version="1.1" viewBox="0,0,200,200" width="200mm" xmlns="http://www.w3.org/2000/svg" xmlns:ev="http://www.w3.org/2001/xml-events" xmlns:xlink="http://www.w3.org/1999/xlink"><defs /><rect fill="#1a1a1a" height="200" width="200" x="0" y="0" /><text alignment-baseline="middle" fill="#e1ed5e" style="dominant-baseline: central; font-size:9.0px; font-family:Arial;" text-anchor="middle" x="100.0" y="100.0">2025</text><line stroke="#e1ed5e" stroke-width="0.3" x1="100.0" x2="100.0" y1="15.0" y2="10.0" /><path d="M 100.0 14.0 a86.0,86.0 0 0,1 42.46469731375804,11.215312516191453" fill="none" id="id145" stroke="none" /><text fill="#e1ed5e" style="font-size:6.75px; font-family:Arial;" text-anchor="middle"><textPath startOffset="22.20632615414155" xlink:href="#id145">January</textPath></text><path d="M 100.0 79.0 l 0.0 -24.65010331895536 a45.65010331895536,45.65010331895536 0 0,0 0.7857914869798296,0.006763555411661585 l -0.42431100770730124 24.64645114015226" fill="#ffcd13" stroke="none" /><path d="M 100.36148047927253 79.00311137660856 l 0.42564272136834 -24.723804814893846 a45.727468456176865,45.727468456176865 0 0,0 0.7868899590490085,0.020323046090723405 l -0.8511593156122162 24.712814976660763" fill="#ffce13" stroke="none" /><path d="M 100.72285384407766 79.0124445844662 l 0.7111057243115112 -20.646456980987885 a41.658699310918195,41.658699310918195 0 0,0 0.7164486269940163,0.0308517849680828 l -1.066395183694859 20.631157469495605" fill="#ff8d0d" stroke="none" /><path d="M 101.08401301168833 79.027996857942 l 2.3658661164009276 -45.77154618243131 a66.832649524233,66.832649524233 0 0,0 1.148369348806882,0.06927277518069183 l -3.1533975140474215 45.72404013787031" fill="#33ff51" stroke="none" /><path d="M 101.80526077348638 79.07773832637324 l 2.309672004191222 -26.768189261994955 a47.86764859701955,47.86764859701955 0 0,0 0.820303045492441,0.07789765838771127 l -2.7701001767739073 26.724466059092066" fill="#ffef16" stroke="none" /><path d="M 102.16513564639614 79.11191278185805 l 3.2064511861581932 -30.93415054556495 a52.09988744649877,52.09988744649877 0 0,0 0.8912387768656207,0.10014106100318745 l -3.7384566665335393 30.874373531091162" fill="#d1ff1c" stroke="none" /><path d="M 102.52436894288641 79.15227682838746 l 2.9801838895844828 -24.612111040914748 a45.79188387166366,45.79188387166366 0 0,0 0.781700758184311,0.10148719337430241 l -3.40339937627664 24.55716552437631" fill="#ffcf13" stroke="none" /><path d="M 102.88285421437855 79.19881850522331 l 3.400588364566282 -24.536882721146284 a45.77140720460811,45.77140720460811 0 0,0 0.7794892869428176,0.11487645844748631 l -3.8224466319377552 24.474711778537827" fill="#ffcf13" stroke="none" /><path d="M 103.2404852339499 79.25152402106235 l 2.5535360100763587 -16.350014501328438 a37.54821804148129,37.54821804148129 0 0,0 0.6377310827107496,0.10523109293804672 l -2.8345962989259834 16.303637145450768" fill="#ff4906" stroke="none" /><path d="M 103.59715602781102 79.31037775812273 l 3.550791263258245 -20.422947831172202 a41.72932504231656,41.72932504231656 0 0,0 0.7066262656252699,0.1291314334015959 l -3.9018126499864154 20.358800916419867" fill="#ff8e0d" stroke="none" /><path d="M 103.95276090670814 79.375362276772 l 5.860295642422789 -30.577734760243764 a52.13424044495737,52.13424044495737 0 0,0 0.8799107633624026,0.17650182135981293 l -6.385772815252317 30.472328982806744" fill="#d1ff1d" stroke="none" /><path d="M 104.307194497241 79.44645832069477 l 3.7395274567163184 -17.844686022829602 a39.23230333372351,39.23230333372351 0 0,0 0.6597701605009647,0.14420020266532543 l -4.046140341370811 17.777672322068405" fill="#ff6509" stroke="none" /><path d="M 104.66035177308747 79.52364482259891 l 6.925289101440184 -30.42789176691885 a52.20602868866614,52.20602868866614 0 0,0 0.8745163947822713,0.2069697761534544 l -7.448029183184978 30.304176078624526" fill="#d0ff1d" stroke="none" /><path d="M 105.36241919743992 79.69619591428918 l 8.440687145922379 -31.959093806281178 a54.05493724716505,54.05493724716505 0 0,0 0.8975747959983955,0.24534109783071076 l -8.989559831144485 31.809066167624174" fill="#b6ff1f" stroke="none" /><path d="M 105.71112130821622 79.79150937346287 l 4.629437362314942 -16.381011099850447 a38.022608934737974,38.022608934737974 0 0,0 0.6282960594300333,0.18341684875998057 l -4.910723639468403 16.298895922171763" fill="#ff5107" stroke="none" /><path d="M 106.0581310904928 79.89281104454417 l 5.35136712568906 -17.76140997264089 a39.550062380761226,39.550062380761226 0 0,0 0.6501552401924919,0.20200639792134983 l -5.65630773859227 17.66666343983702" fill="#ff6b09" stroke="none" /><path d="M 106.40334571778207 80.00007090966166 l 16.852791769749217 -52.63727045585285 a76.26932993511977,76.26932993511977 0 0,0 1.246884338227963,0.41107816231427413 l -17.756358930219598 52.33937856927934" fill="#41ffd1" stroke="none" /><path d="M 106.74666289553966 80.11325718540242 l 3.982123159951152 -11.737871057757483 a33.39495549929729,33.39495549929729 0 0,0 0.5427761564483957,0.18936394329563902 l -4.183581320462822 11.667586261289637" fill="#ff0000" stroke="none" /><path d="M 107.4271985657038 80.35727306442388 l 11.709414121286077 -30.967910999725106 a54.107731585698666,54.107731585698666 0 0,0 0.8683436403837959,0.3369038419410483 l -12.24074092666954 30.761764453893512" fill="#b5ff20" stroke="none" /><path d="M 108.09893153111575 80.62456947434976 l 10.72790193356891 -25.66483218203202 a48.81674838704441,48.81674838704441 0 0,0 0.772504684803728,0.330746190658588 l -11.168090376162954 25.47636646341064" fill="#fffd17" stroke="none" /><path d="M 108.43124777332544 80.76684994638697 l 8.28986052832185 -18.910621031583315 a41.64784190609735,41.64784190609735 0 0,0 0.6541049041856896,0.29347780380781163 l -8.61414755097432 18.76512289725897" fill="#ff8d0d" stroke="none" /><path d="M 108.76106565485865 80.91482961587045 l 26.283196964575957 -57.255511152388685 a84.0,84.0 0 0,0 1.308887154801608,0.6145400694399883 l -27.264862330677165 56.79460610030869" fill="#4dd2ff" stroke="none" /><path d="M 109.41281617654863 81.2277094730956 l 15.45184925106057 -30.816133862416216 a55.47308735091559,55.47308735091559 0 0,0 0.8498992417252359,0.435351401877308 l -15.980008980374564 30.545589935226406" fill="#a2ff22" stroke="none" /><path d="M 109.73455568895987 81.39251694778311 l 9.612855928766532 -18.374855462667576 a41.73746157033561,41.73746157033561 0 0,0 0.6337236365255126,0.3385132193925552 l -9.927724611820354 18.206663516773265" fill="#ff8f0d" stroke="none" /><path d="M 110.05341064243156 81.56283822128135 l 11.114248803273826 -20.382655252340125 a44.215924741367125,44.215924741367125 0 0,0 0.6650831192953182,0.37011803581762975 l -11.46345601164118 20.188321818962315" fill="#ffb610" stroke="none" /><line stroke="#e1ed5e" stroke-width="0.3" x1="143.23703022742887" x2="145.7803849466894" y1="26.81831364943548" y2="22.513508569990506" /><path d="M 143.74570117128098 25.957352633546492 a86.0,86.0 0 0,1 28.547481713284135,27.462654790039103" fill="none" id="id146" stroke="none" /><text fill="#e1ed5e" style="font-size:6.75px; font-family:Arial;" text-anchor="middle"><textPath startOffset="19.985693538727396" xlink:href="#id146">February</textPath></text><line stroke="#e1ed5e" stroke-width="0.3" x1="172.23445277983987" x2="176.4835382374775" y1="55.19839476539836" y2="52.563006222186495" /><path d="M 173.08426987136738 54.67131705675599 a86.0,86.0 0 0,1 12.851231095245387,41.99856678651699" fill="none" id="id147" stroke="none" /><text fill="#e1ed5e" style="font-size:6.75px; font-family:Arial;" text-anchor="middle"><textPath startOffset="22.20632615414155" xlink:href="#id147">March</textPath></text><line stroke="#e1ed5e" stroke-width="0.3" x1="184.98032266829074" x2="189.97916517819016" y1="98.17113171792111" y2="98.06355123074" /><path d="M 185.9800911702706 98.14961562048488 a86.0,86.0 0 0,1 -9.607161424134198,41.387399972396054" fill="none" id="id148" stroke="none" /><text fill="#e1ed5e" style="font-size:6.75px; font-family:Arial;" text-anchor="middle"><textPath startOffset="21.466115282336823" xlink:href="#id148">April</textPath></text><line stroke="#e1ed5e" stroke-width="0.3" x1="174.80103733775053" x2="179.2010983576182" y1="140.37084112569926" y2="142.7455964860345" /><path d="M 175.68104954172406 140.8457921977663 a86.0,86.0 0 0,1 -30.038265399797805,32.042727171017184" fill="none" id="id149" stroke="none" /><text fill="#e1ed5e" style="font-size:6.75px; font-family:Arial;" text-anchor="middle"><textPath startOffset="22.206326154141568" xlink:href="#id149">May</textPath></text><line stroke="#e1ed5e" stroke-width="0.3" x1="143.8653032363475" x2="146.44561519142675" y1="172.8068346515853" y2="177.08958963109032" /><path d="M 144.38136562736335 173.6633856474863 a86.0,86.0 0 0,1 -40.68145358897372,12.25698825130547" fill="none" id="id150" stroke="none" /><text fill="#e1ed5e" style="font-size:6.75px; font-family:Arial;" text-anchor="middle"><textPath startOffset="21.466115282336833" xlink:href="#id150">June</textPath></text><line stroke="#e1ed5e" stroke-width="0.3" x1="102.19456741930631" x2="102.32365962044197" y1="184.97166512339345" y2="189.96999836594603" /><path d="M 102.22038585953345 185.97133177190398 a86.0,86.0 0 0,1 -42.740103519485714,-10.115201625700543" fill="none" id="id151" stroke="none" /><text fill="#e1ed5e" style="font-size:6.75px; font-family:Arial;" text-anchor="middle"><textPath startOffset="22.20632615414155" xlink:href="#id151">July</textPath></text><line stroke="#e1ed5e" stroke-width="0.3" x1="58.666819895761336" x2="56.23545636021788" y1="174.27360380694188" y2="178.64263932499728" /><path d="M 58.180547188652646 175.14741091055294 a86.0,86.0 0 0,1 -31.652253787137756,-30.449443065178592" fill="none" id="id152" stroke="none" /><text fill="#e1ed5e" style="font-size:6.75px; font-family:Arial;" text-anchor="middle"><textPath startOffset="22.20632615414155" xlink:href="#id152">August</textPath></text><line stroke="#e1ed5e" stroke-width="0.3" x1="26.63291911575756" x2="22.317208475507996" y1="142.92168965132927" y2="145.44649492493687" /><path d="M 25.769776987707644 143.4266507060508 a86.0,86.0 0 0,1 -11.730757126820373,-40.83630448921669" fill="none" id="id153" stroke="none" /><text fill="#e1ed5e" style="font-size:6.75px; font-family:Arial;" text-anchor="middle"><textPath startOffset="21.46611528233685" xlink:href="#id153">September</textPath></text><line stroke="#e1ed5e" stroke-width="0.3" x1="15.007084014347285" x2="10.007500721073583" y1="101.09737516637583" y2="101.16192664675087" /><path d="M 14.007167355692545 101.11028546245083 a86.0,86.0 0 0,1 10.666146001902534,-42.60595125391555" fill="none" id="id154" stroke="none" /><text fill="#e1ed5e" style="font-size:6.75px; font-family:Arial;" text-anchor="middle"><textPath startOffset="22.20632615414155" xlink:href="#id154">October</textPath></text><line stroke="#e1ed5e" stroke-width="0.3" x1="26.266209847984243" x2="21.928928074336255" y1="57.711370442889674" y2="55.22380399835377" /><path d="M 25.398753493254645 57.213857153982495 a86.0,86.0 0 0,1 29.58750427330803,-30.492523968695096" fill="none" id="id155" stroke="none" /><text fill="#e1ed5e" style="font-size:6.75px; font-family:Arial;" text-anchor="middle"><textPath startOffset="21.46611528233685" xlink:href="#id155">November</textPath></text><line stroke="#e1ed5e" stroke-width="0.3" x1="56.762969772571076" x2="54.21961505331055" y1="26.818313649435495" y2="22.513508569990535" /><path d="M 56.25429882871897 25.957352633546506 a86.0,86.0 0 0,1 42.265352541879196,-11.944610805530505" fill="none" id="id156" stroke="none" /><text fill="#e1ed5e" style="font-size:6.75px; font-family:Arial;" text-anchor="middle"><textPath startOffset="22.20632615414155" xlink:href="#id156">December</textPath></text></svg>