<?xml version="1.0" encoding="utf-8" ?>
<svg baseProfile="full" height="200mm" version="1.1" viewBox="0,0,200,200" width="200mm" xmlns="http://www.w3.org/2000/svg" xmlns:ev="http://www.w3.org/2001/xml-events" xmlns:xlink="http://www.w3.org/1999/xlink"><defs /><rect fill="#1a1a1a" height="200" width="200" x="0" y="0" /><text alignment-baseline="middle" fill="#e1ed5e" style="dominant-baseline: central; font-size:9.0px; font-family:Arial;" text-anchor="middle" x="100.0" y="100.0">2024</text><line stroke="#e1ed5e" stroke-width="0.3" x1="100.0" x2="100.0" y1="15.0" y2="10.0" /><path d="M 100.0 14.0 a86.0,86.0 0 0,1 42.35913384403234,11.155469271406648" fill="none" id="id133" stroke="none" /><text fill="#e1ed5e" style="font-size:6.75px; font-family:Arial;" text-anchor="middle"><textPath startOffset="22.145653131862478" xlink:href="#id133">January</textPath></text><path d="M 100.0 79.0 l 0.0 -22.465100116338746 a43.465100116338746,43.465100116338746 0 0,0 0.7461362414184406,0.006404682253377678 l -0.38564331656958584 22.461789832279802" fill="#ff9d0e" stroke="none" /><path d="M 100.36049292484886 79.00309439819443 l 0.5173592263495911 -30.133581241407356 a51.138022148136834,51.138022148136834 0 0,0 0.8775934441401934,0.022603694082793325 l -1.0345659845605257 30.12025982997452" fill="#e9ff1a" stroke="none" /><path d="M 100.72087961077811 79.0123766808444 l 1.0400697365089229 -30.28049556283197 a51.2983523741389,51.2983523741389 0 0,0 0.879825954704084,0.037783512153076536 l -1.5597214518138431 30.258179482253063" fill="#e7ff1a" stroke="none" /><path d="M 101.08105385017728 79.02784411241856 l 1.5567442228211288 -30.200422035167524 a51.24051824419547,51.24051824419547 0 0,0 0.8780566614206354,0.05282170834403004 l -2.0749452363742265 30.169248348998803" fill="#e7ff1a" stroke="none" /><path d="M 101.44090949804482 79.04949213459386 l 1.2110157460390656 -17.60790316598567 a38.649498945859136,38.649498945859136 0 0,0 0.6615156313116048,0.05120549358076768 l -1.513100372125904 17.58451990540985" fill="#ff4b07" stroke="none" /><path d="M 101.80034050326958 79.07731436759882 l 5.141857904166107 -59.7561829553726 a80.97699645783038,80.97699645783038 0 0,0 1.3839371135469327,0.1310602835268863 l -6.166894581098052 59.65911091634053" fill="#48f5ff" stroke="none" /><path d="M 102.15924093988457 79.11130261209362 l 1.437194648732356 -13.90355450860129 a34.9776377271695,34.9776377271695 0 0,0 0.5967253259265877,0.06686431741999543 l -1.6756558762597402 13.876834430674323" fill="#ff0a01" stroke="none" /><path d="M 102.51750503828377 79.15144685158666 l 2.6741894576141796 -22.146124908653086 a43.306997505824924,43.306997505824924 0 0,0 0.7372958131263132,0.09545770418562013 l -3.053963092631285 22.096955608267066" fill="#ff9a0e" stroke="none" /><path d="M 102.87502721639298 79.19773525538626 l 4.6551000915736305 -33.68198532711002 a55.0021483503355,55.0021483503355 0 0,0 0.9341850216288821,0.13729302775143962 l -5.232610218810194 33.597111226059695" fill="#b1ff20" stroke="none" /><path d="M 103.23170211078529 79.25015418208739 l 3.871506068474918 -24.857846190670955 a46.15752524548654,46.15752524548654 0 0,0 0.7818700063435907,0.1286564120074064 l -4.2976535778715785 24.78772378016788" fill="#ffc812" stroke="none" /><path d="M 103.58742460773223 79.30868818359171 l 5.650941065252804 -32.59312638522764 a54.07937457822295,54.07937457822295 0 0,0 0.913336942579896,0.1664404157923912 l -6.209612741383753 32.49131779550388" fill="#beff1f" stroke="none" /><path d="M 103.94208987418118 79.37332000966035 l 2.9790129862948995 -15.58745475536232 a36.86957038243257,36.86957038243257 0 0,0 0.6206439384358883,0.12414616983442792 l -3.246153410261745 15.534019188865033" fill="#ff2c04" stroke="none" /><path d="M 104.29559338865022 79.4440306129975 l 12.641195701056454 -60.49269759391176 a82.79940364551155,82.79940364551155 0 0,0 1.3888124688319925,0.30268521358397965 l -13.67777058650758 60.26678092219406" fill="#4be0ff" stroke="none" /><path d="M 104.9986988182912 79.60360301121754 l 6.0180571762301085 -24.555726946065803 a46.28241954453958,46.28241954453958 0 0,0 0.7700396383611277,0.1957410648548171 l -6.43870210781663 24.44880064937572" fill="#ffca12" stroke="none" /><path d="M 105.3480935250658 79.69241777938227 l 10.224254618951052 -38.823160130941126 a61.14689458807292,61.14689458807292 0 0,0 1.0127632006103588,0.27603311388426416 l -10.889199220496105 38.64192652291272" fill="#5eff29" stroke="none" /><path d="M 105.69591212413111 79.78721728523813 l 10.415878887562528 -36.9622796401012 a59.40183132603718,59.40183132603718 0 0,0 0.9791118647478348,0.28500519409888514 l -11.048850764691966 36.7780307516998" fill="#75ff27" stroke="none" /><path d="M 106.04205211174951 79.88797359093562 l 7.393483208226083 -24.61050100009165 a46.6970884231236,46.6970884231236 0 0,0 0.7657418960059224,0.23722879678445535 l -7.814865737103636 24.479955615500547" fill="#ffd113" stroke="none" /><path d="M 106.38641147887787 79.99465700312896 l 10.015292747899519 -31.372761886462257 a53.93260204130229,53.93260204130229 0 0,0 0.8795566618399518,0.2891277449619649 l -10.552372147387214 31.196213220098272" fill="#c0ff1e" stroke="none" /><path d="M 107.06938296918511 80.22567764915836 l 4.57152471908801 -12.787368264547045 a34.57997147973359,34.57997147973359 0 0,0 0.5572494040110865,0.2046296998613859 l -4.790363274753221 12.707007715676937" fill="#ff0300" stroke="none" /><path d="M 107.40779381753099 80.34994680014964 l 9.024792162248504 -23.939333420173696 a46.58395118377979,46.58395118377979 0 0,0 0.7458484052683007,0.28851018580640786 l -9.43441283001033 23.78088334622925" fill="#ffcf13" stroke="none" /><path d="M 107.74402155503746 80.48000691201159 l 10.182644255303645 -25.666915318911503 a48.612982200737434,48.612982200737434 0 0,0 0.7730518349602299,0.31439345135924374 l -10.621750551454314 25.488334610972966" fill="#ffef16" stroke="none" /><path d="M 108.07796709384702 80.6158196554323 l 14.856515754163011 -35.65022948533202 a59.62194871715473,59.62194871715473 0 0,0 0.9413593783140898,0.4018103419135484 l -15.466310207647531 35.38994449375907" fill="#72ff27" stroke="none" /><path d="M 108.4095320186766 80.7573450057729 l 10.164557789449631 -23.258497414228682 a46.38259121962814,46.38259121962814 0 0,0 0.7268518624383659,0.32511159288623176 l -10.562323054743628 23.080582070432598" fill="#ffcc13" stroke="none" /><path d="M 108.73861861582097 80.90454125486305 l 15.570907227634402 -34.025242393727474 a58.418849151777856,58.418849151777856 0 0,0 0.908305408128263,0.42513279403272525 l -16.15270134963417 33.75293336812421" fill="#82ff25" stroke="none" /><path d="M 109.06512990194946 81.05736502329252 l 27.195389705848374 -56.82790493012246 a84.0,84.0 0 0,0 1.2953590029517317,0.6336249996111154 l -28.166908958062173 56.352686180414125" fill="#4dd2ff" stroke="none" /><path d="M 109.3889696526874 81.21577127319529 l 6.007498371787533 -12.019021007194764 a34.43677426536663,34.43677426536663 0 0,0 0.5265100375525521,0.26883977670687836 l -6.212935631053664 11.914123278815053" fill="#ff0000" stroke="none" /><path d="M 110.02825361518725 81.54914285379988 l 18.336931772738307 -33.737889130169854 a59.39906548078602,59.39906548078602 0 0,0 0.8917095529006741,0.4946162574581288 l -18.91338551379508 33.418139957278576" fill="#75ff27" stroke="none" /><path d="M 110.34350942703115 81.72400993836675 l 13.600413872465259 -24.030628146158847 a48.61235858454158,48.61235858454158 0 0,0 0.7227211669126263,0.4172632602660453 l -14.010927507238282 23.79361798861663" fill="#ffef16" stroke="none" /><line stroke="#e1ed5e" stroke-width="0.3" x1="143.13028292997686" x2="145.6673583964461" y1="26.7553504044142" y2="22.446841604673864" /><path d="M 143.63769802327073 25.89364864446614 a86.0,86.0 0 0,1 29.32050498858742,28.57503671076993" fill="none" id="id134" stroke="none" /><text fill="#e1ed5e" style="font-size:6.75px; font-family:Arial;" text-anchor="middle"><textPath startOffset="20.669276256404974" xlink:href="#id134">February</textPath></text><path d="M 112.16784306229584 82.88440491214696 l 16.405494386888854 -23.076382371507655 a49.31359513439208,49.31359513439208 0 0,0 0.6857383917129709,0.49642171296338006 l -16.79921378897579 22.7913598871712" fill="#fffa17" stroke="none" /><path d="M 112.45986205192187 83.09580414077388 l 22.53991185318673 -30.579719344259548 a58.98903606993878,58.98903606993878 0 0,0 0.8099672494191353,0.6078145240748316 l -23.061532091516632 30.188285792920702" fill="#7aff26" stroke="none" /><path d="M 112.7482090630111 83.31218511350987 l 17.549748894815124 -22.973184657820855 a49.90952956368194,49.90952956368194 0 0,0 0.6763693229408604,0.5259488765020888 l -17.94152816239121 22.668534729697978" fill="#fbff18" stroke="none" /><path d="M 113.03279911837588 83.53348406188908 l 31.54786149907365 -39.85969241675453 a71.83367628573613,71.83367628573613 0 0,0 0.9603452037985752,0.7735861169100579 l -32.22745747322749 39.31225800605106" fill="#3aff94" stroke="none" /><path d="M 113.59037401385872 83.9905735841838 l 21.440212882254187 -25.256516864646972 a54.12966001290347,54.12966001290347 0 0,0 0.703222952618087,0.6074272376062154 l -21.870615314635135 24.884745494576038" fill="#bdff1f" stroke="none" /><line stroke="#e1ed5e" stroke-width="0.3" x1="172.87174338648825" x2="177.1583165268699" y1="56.24261187166439" y2="53.66864786411523" /><path d="M 173.72905801456457 55.72781907015455 a86.0,86.0 0 0,1 12.242430191666344,42.057860355516425" fill="none" id="id135" stroke="none" /><text fill="#e1ed5e" style="font-size:6.75px; font-family:Arial;" text-anchor="middle"><textPath startOffset="22.145653131862474" xlink:href="#id135">March</textPath></text><line stroke="#e1ed5e" stroke-width="0.3" x1="184.99686870605535" x2="189.99668451229388" y1="99.2704041080226" y2="99.22748670261217" /><path d="M 185.99683186730306 99.26182062694052 a86.0,86.0 0 0,1 -10.086455211305974,41.156179273409016" fill="none" id="id136" stroke="none" /><text fill="#e1ed5e" style="font-size:6.75px; font-family:Arial;" text-anchor="middle"><textPath startOffset="21.40746469413373" xlink:href="#id136">April</textPath></text><line stroke="#e1ed5e" stroke-width="0.3" x1="174.33088141563837" x2="178.70328620479359" y1="141.23008692659167" y2="143.65538615756765" /><path d="M 175.20536237346943 141.71514677278685 a86.0,86.0 0 0,1 -30.301960400862466,31.631185727798858" fill="none" id="id137" stroke="none" /><text fill="#e1ed5e" style="font-size:6.75px; font-family:Arial;" text-anchor="middle"><textPath startOffset="22.145653131862474" xlink:href="#id137">May</textPath></text><line stroke="#e1ed5e" stroke-width="0.3" x1="143.1302829299769" x2="145.66735839644613" y1="173.24464959558577" y2="177.55315839532614" /><path d="M 143.63769802327073 174.10635135553383 a86.0,86.0 0 0,1 -40.68552437913181,11.842963189579606" fill="none" id="id138" stroke="none" /><text fill="#e1ed5e" style="font-size:6.75px; font-family:Arial;" text-anchor="middle"><textPath startOffset="21.407464694133747" xlink:href="#id138">June</textPath></text><line stroke="#e1ed5e" stroke-width="0.3" x1="101.45913802915013" x2="101.54496967792366" y1="184.9874750549273" y2="189.98673829345242" /><path d="M 101.47630435890484 185.9873277026323 a86.0,86.0 0 0,1 -42.54439059252881,-10.42667462771756" fill="none" id="id139" stroke="none" /><text fill="#e1ed5e" style="font-size:6.75px; font-family:Arial;" text-anchor="middle"><textPath startOffset="22.145653131862474" xlink:href="#id139">July</textPath></text><line stroke="#e1ed5e" stroke-width="0.3" x1="58.13341422392154" x2="55.67067388415222" y1="173.97424548756322" y2="178.32567169271397" /><path d="M 57.64086615596768 174.84453072859336 a86.0,86.0 0 0,1 -31.369924170532247,-30.572349798747897" fill="none" id="id140" stroke="none" /><text fill="#e1ed5e" style="font-size:6.75px; font-family:Arial;" text-anchor="middle"><textPath startOffset="22.145653131862474" xlink:href="#id140">August</textPath></text><line stroke="#e1ed5e" stroke-width="0.3" x1="26.387840678322732" x2="22.057713659400548" y1="142.50000000000003" y2="145.00000000000006" /><path d="M 25.521815274538298 143.00000000000003 a86.0,86.0 0 0,1 -11.493303480769221,-40.785679425670985" fill="none" id="id141" stroke="none" /><text fill="#e1ed5e" style="font-size:6.75px; font-family:Arial;" text-anchor="middle"><textPath startOffset="21.40746469413373" xlink:href="#id141">September</textPath></text><line stroke="#e1ed5e" stroke-width="0.3" x1="15.003131293944662" x2="10.003315487706104" y1="100.72959589197737" y2="100.7725132973878" /><path d="M 14.003168132696942 100.73817937305945 a86.0,86.0 0 0,1 10.791469493833604,-42.45332614584628" fill="none" id="id142" stroke="none" /><text fill="#e1ed5e" style="font-size:6.75px; font-family:Arial;" text-anchor="middle"><textPath startOffset="22.145653131862435" xlink:href="#id142">October</textPath></text><line stroke="#e1ed5e" stroke-width="0.3" x1="26.387840678322718" x2="22.05771365940052" y1="57.49999999999999" y2="54.99999999999999" /><path d="M 25.521815274538284 56.99999999999999 a86.0,86.0 0 0,1 29.574782752854787,-30.34633250058573" fill="none" id="id143" stroke="none" /><text fill="#e1ed5e" style="font-size:6.75px; font-family:Arial;" text-anchor="middle"><textPath startOffset="21.40746469413373" xlink:href="#id143">November</textPath></text><line stroke="#e1ed5e" stroke-width="0.3" x1="56.869717070023135" x2="54.33264160355391" y1="26.7553504044142" y2="22.446841604673864" /><path d="M 56.362301976729285 25.89364864446614 a86.0,86.0 0 0,1 42.16139366436587,-11.88097634709845" fill="none" id="id144" stroke="none" /><text fill="#e1ed5e" style="font-size:6.75px; font-family:Arial;" text-anchor="middle"><textPath startOffset="22.145653131862474" xlink:href="#id144">December</textPath></text></svg>