<?xml version="1.0" encoding="utf-8" ?>
<svg baseProfile="full" height="200mm" version="1.1" viewBox="0,0,200,200" width="200mm" xmlns="http://www.w3.org/2000/svg" xmlns:ev="http://www.w3.org/2001/xml-events" xmlns:xlink="http://www.w3.org/1999/xlink"><defs /><rect fill="#1a1a1a" height="200" width="200" x="0" y="0" /><text alignment-baseline="middle" fill="#e1ed5e" style="dominant-baseline: central; font-size:9.0px; font-family:Arial;" text-anchor="middle" x="100.0" y="100.0">2017</text><line stroke="#e1ed5e" stroke-width="0.3" x1="100.0" x2="100.0" y1="15.0" y2="10.0" /><path d="M 100.0 14.0 a86.0,86.0 0 0,1 42.46469731375804,11.215312516191453" fill="none" id="id49" stroke="none" /><text fill="#e1ed5e" style="font-size:6.75px; font-family:Arial;" text-anchor="middle"><textPath startOffset="22.20632615414155" xlink:href="#id49">January</textPath></text><line stroke="#e1ed5e" stroke-width="0.3" x1="143.23703022742887" x2="145.7803849466894" y1="26.81831364943548" y2="22.513508569990506" /><path d="M 143.74570117128098 25.957352633546492 a86.0,86.0 0 0,1 28.547481713284135,27.462654790039103" fill="none" id="id50" stroke="none" /><text fill="#e1ed5e" style="font-size:6.75px; font-family:Arial;" text-anchor="middle"><textPath startOffset="19.985693538727396" xlink:href="#id50">February</textPath></text><line stroke="#e1ed5e" stroke-width="0.3" x1="172.23445277983987" x2="176.4835382374775" y1="55.19839476539836" y2="52.563006222186495" /><path d="M 173.08426987136738 54.67131705675599 a86.0,86.0 0 0,1 12.851231095245387,41.99856678651699" fill="none" id="id51" stroke="none" /><text fill="#e1ed5e" style="font-size:6.75px; font-family:Arial;" text-anchor="middle"><textPath startOffset="22.20632615414155" xlink:href="#id51">March</textPath></text><path d="M 118.03404312379186 89.2402003453031 l 4.968785858197952 -2.96456762326184 a26.78597391089178,26.78597391089178 0 0,0 0.23283430463445265,0.3979893009690325 l -5.0190798373027325 2.878598909938912" fill="#ff4606" stroke="none" /><path d="M 118.3937258080291 89.86733742301442 l 5.7507827183264055 -3.1679683304252304 a27.565632126153496,27.565632126153496 0 0,0 0.22537122742780213,0.41757865646624454 l -5.804462044972673 3.0685086906265275" fill="#ff5107" stroke="none" /><path d="M 118.56541770881063 90.18545643968196 l 8.908899571023866 -4.709658801418586 a31.077171110602855,31.077171110602855 0 0,0 0.24593965155481642,0.47507712578506145 l -8.988648655738798 4.55560895337318" fill="#ff810b" stroke="none" /><path d="M 118.89224826269711 90.83032412892265 l 4.346320278058283 -2.1095608964856716 a25.83122625587356,25.83122625587356 0 0,0 0.1907104749520422,0.40168489748384373 l -4.381988946852081 2.0344335833612877" fill="#ff3905" stroke="none" /><path d="M 119.04729006885535 91.15688171328212 l 4.451630329546916 -2.0667661084918834 a25.90800720640798,25.90800720640798 0 0,0 0.1843141070825839,0.4061117031957495 l -4.4865467535928465 1.9898323964540712" fill="#ff3a05" stroke="none" /><path d="M 119.196687751892 91.48605970444005 l 3.323357782646189 -1.4739454070374938 a24.63554975408148,24.63554975408148 0 0,0 0.1685884460854462,0.3891253774765778 l -3.3482369385743156 1.416520884974313" fill="#ff2803" stroke="none" /><path d="M 119.47837535516314 92.15188598940014 l 4.471612017727638 -1.8016759758658547 a25.82092837108149,25.82092837108149 0 0,0 0.16255682279521766,0.41368938309357334 l -4.5019623904045565 1.724437587876497" fill="#ff3805" stroke="none" /><path d="M 119.61058180528143 92.48833698450437 l 6.931177500289242 -2.654927334625859 a28.42225442117551,28.42225442117551 0 0,0 0.1710686925369514,0.45837904599608975 l -6.975850781327819 2.535225151600436" fill="#ff5d08" stroke="none" /><path d="M 119.85752413597 93.16781622104841 l 4.250948716899657 -1.4625822771202277 a25.495521316939453,25.495521316939453 0 0,0 0.13920883194760963,0.4162166886887786 l -4.275494842619037 1.389192485509135" fill="#ff3404" stroke="none" /><path d="M 119.97218684219823 93.5106431181261 l 3.388400665592403 -1.1009581149796612 a24.562775300454213,24.562775300454213 0 0,0 0.12719367225514988,0.40323869985413585 l -3.4068498216157588 1.0424692486991063" fill="#ff2703" stroke="none" /><path d="M 120.08093135843002 93.85539295169968 l 3.1198383867689436 -0.9546460071360512 a24.262627860865816,24.262627860865816 0 0,0 0.11876452688906282,0.4004149436609998 l -3.1358088107697086 0.9008016767285215" fill="#ff2203" stroke="none" /><path d="M 120.53481517161879 95.60439243477599 l 4.199374670946274 -0.8989028105952233 a25.294505080900606,25.294505080900606 0 0,0 0.08747165564079477,0.42654285783072254 l -4.214225622502066 0.8264842966010889" fill="#ff3104" stroke="none" /><path d="M 120.6074358757038 95.95851677861258 l 3.0440184405088595 -0.596985938819054 a24.102005879637506,24.102005879637506 0 0,0 0.0763394034954478,0.4078081460076864 l -3.053843567914167 0.5444997153488049" fill="#ff2003" stroke="none" /><path d="M 120.67395015179393 96.31383870115 l 3.604613923983081 -0.6427019629206794 a24.661462461109604,24.661462461109604 0 0,0 0.07091713381977659,0.4185569381930922 l -3.6151429193230804 0.5805592364117493" fill="#ff2803" stroke="none" /><path d="M 120.78858239683441 97.02765380044208 l 1.7685048065158189 -0.25286036537766265 a22.786490306452425,22.786490306452425 0 0,0 0.0521745533982888,0.38876102502491566 l -1.7725953589719439 0.2223809982880826" fill="#ff0d01" stroke="none" /><path d="M 120.83666639777658 97.38593545837742 l 18.453162830485923 -2.3150420376797065 a39.59781272313095,39.59781272313095 0 0,0 0.07902525490744827,0.677040124137142 l -18.49027843839696 1.9970581752177117" fill="#ffee16" stroke="none" /><path d="M 120.91429891909075 98.10471618934814 l 2.1926577705125543 -0.19870179683427433 a23.20164268278353,23.20164268278353 0 0,0 0.03262097506880125,0.39805852173929107 l -2.19575322940085 0.1609293578872145" fill="#ff1302" stroke="none" /><path d="M 120.94382443527127 98.46500227214037 l 2.195600987417744 -0.16091819989174544 a23.201490032456693,23.201490032456693 0 0,0 0.02576404930351593,0.39855843928725254 l -2.198045627725675 0.12310069635145766" fill="#ff1302" stroke="none" /><path d="M 120.98425023603335 99.18683210126433 l 3.321539369596173 -0.12871411460316629 a24.324032356502478,24.324032356502478 0 0,0 0.012611785541351181,0.4185237631145044 l -3.323262849593169 0.07152020406366279" fill="#ff2303" stroke="none" /><line stroke="#e1ed5e" stroke-width="0.3" x1="184.98032266829074" x2="189.97916517819016" y1="98.17113171792111" y2="98.06355123074" /><path d="M 185.9800911702706 98.14961562048488 a86.0,86.0 0 0,1 -9.607161424134198,41.387399972396054" fill="none" id="id52" stroke="none" /><text fill="#e1ed5e" style="font-size:6.75px; font-family:Arial;" text-anchor="middle"><textPath startOffset="21.466115282336823" xlink:href="#id52">April</textPath></text><path d="M 120.99513854157772 99.54816195383933 l 3.3452964463420143 -0.07199439085148392 a24.34607105516643,24.34607105516643 0 0,0 0.005410616206002532,0.4190581878631579 l -3.3460400696657326 0.014399944927863267" fill="#ff2403" stroke="none" /><path d="M 120.99980553446 99.90962569577887 l 4.416476373698645 -0.019006651215274617 a25.416517271813703,25.416517271813703 0 0,0 -0.0018828830862454313,0.437515718611095 l -4.416149193322896 -0.05701854559950511" fill="#ff3304" stroke="none" /><path d="M 120.9764740272857 100.99374915477107 l 4.843029850195689 0.22943592969450816 a25.84846150605749,25.84846150605749 0 0,0 -0.024880558618126287,0.44425908794053376 l -4.8383629406900335 -0.3127667339704652" fill="#ff3905" stroke="none" /><path d="M 120.92983693683757 101.71520430193887 l 6.084645386662498 0.4986379002603412 a27.105042934903018,27.105042934903018 0 0,0 -0.04211014136563894,0.46468190098834106 l -6.075160649019783 -0.6033011897972528" fill="#ff4a06" stroke="none" /><path d="M 120.8583938346157 102.4346265915055 l 12.389245274020325 1.4460934160115577 a33.47335498683762,33.47335498683762 0 0,0 -0.07172621213581823,0.5717284827721022 l -12.362517552637659 -1.659139653071055" fill="#ffa00e" stroke="none" /><path d="M 120.70491114924044 103.5080841355445 l 6.018670892671328 1.0197582459279622 a27.104449704471907,27.104449704471907 0 0,0 -0.08189875058034608,0.45933168673886254 l -6.000225699751794 -1.123208683400043" fill="#ff4a06" stroke="none" /><path d="M 120.5718875245553 104.21870165774334 l 11.480633534973688 2.3543472940013674 a32.71955193448683,32.71955193448683 0 0,0 -0.11789315950611685,0.5507575925588594 l -11.438406336743128 -2.5516187059763955" fill="#ff970d" stroke="none" /><path d="M 120.41448212921028 104.9243191809786 l 9.22512748268451 2.225257144532497 a30.489717932113365,30.489717932113365 0 0,0 -0.12745963165593083,0.5091378696865788 l -9.185456536733517 -2.383722853616472" fill="#ff790b" stroke="none" /><path d="M 120.23288151984713 105.62410040840565 l 5.944396759678572 1.652354075767164 a27.169775265613932,27.169775265613932 0 0,0 -0.1291306488408669,0.44952072896467005 l -5.9150734739516055 -1.754432280236416" fill="#ff4b07" stroke="none" /><path d="M 120.02730092923936 106.31721596034902 l 4.865453031013559 1.5347109253735438 a26.10176154102286,26.10176154102286 0 0,0 -0.13884614410754095,0.4273244919200447 l -4.8383146358897715 -1.6182343172713836" fill="#ff3c05" stroke="none" /><path d="M 119.79798401119884 107.00284435728193 l 4.218990150340477 1.4923201953808818 a25.475142171396524,25.475142171396524 0 0,0 -0.1497886669338142,0.41215407972923723 l -4.192677222401436 -1.5647220721162503" fill="#ff3404" stroke="none" /><path d="M 119.67450827220406 107.3425965602758 l 8.778758937879784 3.276264102205457 a30.370192898590954,30.370192898590954 0 0,0 -0.1870018891255461,0.4882029234902723 l -8.721062769160731 -3.426890592528873" fill="#ff770b" stroke="none" /><path d="M 119.54520255179757 107.68017299344265 l 3.763681014187891 1.478916435094208 a25.043821039382202,25.043821039382202 0 0,0 -0.16111213102029753,0.39986709648268093 l -3.7376662689102007 -1.5434828994197023" fill="#ff2e04" stroke="none" /><path d="M 118.97047184881838 109.00673069616215 l 1.7490755786601069 0.8304196558614756 a22.93619786817006,22.93619786817006 0 0,0 -0.17240019710148458,0.3551954692806956 l -1.734522124943908 -0.8604040811074467" fill="#ff0f01" stroke="none" /><path d="M 118.81262510543309 109.33194174019688 l 4.964725445194495 2.462735973899133 a26.541982246750578,26.541982246750578 0 0,0 -0.20654885929872432,0.40754049469174203 l -4.921597916109502 -2.5478306802935693" fill="#ff4306" stroke="none" /><line stroke="#e1ed5e" stroke-width="0.3" x1="174.80103733775053" x2="179.2010983576182" y1="140.37084112569926" y2="142.7455964860345" /><path d="M 175.68104954172406 140.8457921977663 a86.0,86.0 0 0,1 -30.038265399797805,32.042727171017184" fill="none" id="id53" stroke="none" /><text fill="#e1ed5e" style="font-size:6.75px; font-family:Arial;" text-anchor="middle"><textPath startOffset="22.206326154141568" xlink:href="#id53">May</textPath></text><path d="M 118.12598468904814 110.60418214915192 l 4.989272950412308 2.918857102973042 a26.780360833139408,26.780360833139408 0 0,0 -0.23620166580950358,0.3958875781911612 l -4.938290408904577 -3.004306775050307" fill="#ff4606" stroke="none" /><path d="M 117.35343817320211 111.8261652097733 l 15.397599144385714 10.493283780303969 a39.63317106413125,39.63317106413125 0 0,0 -0.38904504425942327,0.5604484026062073 l -15.214693192964155 -10.756773445097195" fill="#ffef16" stroke="none" /><path d="M 116.93607887273984 112.41649034213515 l 2.056129767696786 1.5074277579018858 a23.549511338845534,23.549511338845534 0 0,0 -0.24249126199340595,0.32485667279585234 l -2.029877239008288 -1.5425973102070532" fill="#ff1802" stroke="none" /><path d="M 116.498646956653 112.99209946851258 l 2.649329678037184 2.0862531813896195 a24.37215066089683,24.37215066089683 0 0,0 -0.2623860337680584,0.327366920822688 l -2.6130257322142714 -2.1315479357905573" fill="#ff2403" stroke="none" /><path d="M 116.27256486870786 113.27417163493432 l 2.7847959337379455 2.2716676498730712 a24.593822798086077,24.593822798086077 0 0,0 -0.270419621999402,0.32573785503935015 l -2.7452803118449998 -2.3192667620261918" fill="#ff2703" stroke="none" /><path d="M 115.80600337817218 113.82643327865902 l 4.240150881986201 3.7091073472874974 a26.633503067870866,26.633503067870866 0 0,0 -0.30481556024888545,0.34246351326719093 l -4.175676472088977 -3.781545030295555" fill="#ff4406" stroke="none" /><path d="M 114.55890576462653 115.13401014063108 l 3.976219764638464 4.133287982784048 a26.735363385639012,26.735363385639012 0 0,0 -0.334401043616544,0.3161970590001916 l -3.9044828866311128 -4.201119678530161" fill="#ff4506" stroke="none" /><path d="M 114.0293411484842 115.62618273729858 l 6.61308000020783 7.365791126320077 a30.898873976656354,30.898873976656354 0 0,0 -0.39882743228325424,0.3519188381195548 l -6.485310215017988 -7.478533106211921" fill="#ff7e0b" stroke="none" /><path d="M 113.20401910651253 116.32954008644616 l 2.4895952018508347 3.0789068328139386 a24.95951405531374,24.95951405531374 0 0,0 -0.336409687560596,0.26726420161678316 l -2.4362280215728873 -3.121304948435848" fill="#ff2c04" stroke="none" /><path d="M 112.92097659922987 116.55440617244103 l 2.1404250917942833 2.742321068312968 a24.478756159217795,24.478756159217795 0 0,0 -0.33439294782345386,0.25639825314423004 l -2.0929034154773354 -2.7787586632845698" fill="#ff2503" stroke="none" /><path d="M 112.63410532772338 116.77436683061366 l 1.1379308036339613 1.5108365992584833 a22.891431665040525,22.891431665040525 0 0,0 -0.31679019478557935,0.23435381271843508 l -1.1117556384298175 -1.5302003607166874" fill="#ff0f01" stroke="none" /><path d="M 112.34349029814194 116.9893568818739 l 2.5619107842981768 3.526167685368134 a25.358582959178104,25.358582959178104 0 0,0 -0.35534942711252765,0.2535323811323258 l -2.5008340293367644 -3.5697443283446786" fill="#ff3204" stroke="none" /><path d="M 112.04921762599082 117.19931262002967 l 3.0912160536025377 4.4124683387974315 a26.387531302084454,26.387531302084454 0 0,0 -0.3742545014344771,0.2574156587213758 l -3.0148046675451776 -4.465024786883902" fill="#ff4006" stroke="none" /><path d="M 111.45004920935366 117.60387380957326 l 0.4801285629258858 0.7381734767754901 a21.88058135271654,21.88058135271654 0 0,0 -0.31749577714120575,0.20264082676429493 l -0.4673509837377496 -0.7463287323635938" fill="#ff0000" stroke="none" /><path d="M 111.1453310114006 117.79835938074945 l 2.0375839010340533 3.253887255742987 a24.839209609651416,24.839209609651416 0 0,0 -0.36433301033399595,0.22380309204825846 l -1.9812716907677488 -3.2884788146196233" fill="#ff2b04" stroke="none" /><line stroke="#e1ed5e" stroke-width="0.3" x1="143.8653032363475" x2="146.44561519142675" y1="172.8068346515853" y2="177.08958963109032" /><path d="M 144.38136562736335 173.6633856474863 a86.0,86.0 0 0,1 -40.68145358897372,12.25698825130547" fill="none" id="id54" stroke="none" /><text fill="#e1ed5e" style="font-size:6.75px; font-family:Arial;" text-anchor="middle"><textPath startOffset="21.466115282336833" xlink:href="#id54">June</textPath></text><path d="M 110.8373102113329 117.98757091392108 l 1.7518115685371365 2.907625065852337 a24.394573212531046,24.394573212531046 0 0,0 -0.3615416645852399,0.21360518812404106 l -1.7015020329235147 -2.9373488262701275" fill="#ff2403" stroke="none" /><path d="M 110.5260780823613 118.17145234162733 l 1.5733189966374408 2.7160629953412583 a24.13884228017949,24.13884228017949 0 0,0 -0.3613368969461484,0.2051765203997529 l -1.5263333327700934 -2.7427426815356397" fill="#ff2103" stroke="none" /><path d="M 109.89434966115114 118.52300852407294 l 3.3194252962976623 6.2142278334634335 a28.04522617549589,28.04522617549589 0 0,0 -0.42776862308159,0.22378832600260404 l -3.211965770689577 -6.2704455784107545" fill="#ff5708" stroke="none" /><path d="M 109.2508944713604 118.85261126421891 l 2.379003712662892 4.848226550396649 a26.40045917944343,26.40045917944343 0 0,0 -0.40969405740750403,0.19667804462246946 l -2.295196987255155 -4.888458871518678" fill="#ff4106" stroke="none" /><path d="M 108.59647513512805 119.15986991738527 l 2.387129362802318 5.320446735239924 a26.831426931487538,26.831426931487538 0 0,0 -0.4230157488784128,0.18543767302136413 l -2.295192939266151 -5.360748961555743" fill="#ff4706" stroke="none" /><path d="M 107.93186726928326 119.44442032107085 l 2.1641695340112532 5.305310923234012 a26.729742905587354,26.729742905587354 0 0,0 -0.4275217754669638,0.17011973750220202 l -2.072526682502423 -5.341777505142284" fill="#ff4506" stroke="none" /><path d="M 107.59598834532513 119.57807347666477 l 3.3716325165428733 8.690122488907418 a30.321273233782158,30.321273233782158 0 0,0 -0.4882154964193405,0.18460132580638208 l -3.2215467993632583 -8.746872064820431" fill="#ff770a" stroke="none" /><path d="M 106.91757812671514 119.82793768551818 l 1.9447573675925534 5.574281517567518 a26.90378655236623,26.90378655236623 0 0,0 -0.4385704969272083,0.14878692434867896 l -1.848517137728118 -5.60693142881432" fill="#ff4806" stroke="none" /><path d="M 106.2309692047433 120.05430185196036 l 1.8041481292838213 5.806629752360954 a27.08045224908491,27.08045224908491 0 0,0 -0.4463439155659151,0.13447976034504017 l -1.7039292392776604 -5.83682488181172" fill="#ff4a06" stroke="none" /><path d="M 105.53697534728816 120.25689768951611 l 1.4819961455223176 5.421849008377113 a26.620743655868225,26.620743655868225 0 0,0 -0.44305734891386395,0.11701547273373204 l -1.3884483537969563 -5.44655583041443" fill="#ff4406" stroke="none" /><path d="M 105.18746579009965 120.34920634021253 l 2.2031024205484173 8.642251835168281 a29.918642108409543,29.918642108409543 0 0,0 -0.5001352874809818,0.12292108543173587 l -2.054013848324224 -8.678894178914046" fill="#ff710a" stroke="none" /><path d="M 104.48393922423573 120.51570834832081 l 0.9842418629767717 4.503276693827427 a25.609580569423347,25.609580569423347 0 0,0 -0.43147087022258435,0.09041891596783433 l -0.9065795313248094 -4.519551590521803" fill="#ff3605" stroke="none" /><path d="M 103.7750983002368 120.6578951692458 l 0.47871306584279577 2.619588562689452 a23.662970228369442,23.662970228369442 0 0,0 -0.4013138659457161,0.06977355966455938 l -0.4335502284250297 -2.6274407008750176" fill="#ff1a02" stroke="none" /><path d="M 103.06178313531738 120.77559828337769 l 3.8967457998023645 26.441201669477937 a47.726798789871566,47.726798789871566 0 0,0 -0.8137905752777137,0.11278395845688124 l -3.4410266333378203 -26.50436019342742" fill="#b0ff20" stroke="none" /><path d="M 102.70371172650421 120.8252237178851 l 0.6339645282169947 4.8830846128675995 a25.924066039307526,25.924066039307526 0 0,0 -0.4430207802148804,0.05364364681081879 l -0.549816324950734 -4.893273788403769" fill="#ff3a05" stroke="none" /><path d="M 101.98527174616119 120.90594882070398 l 0.464831910053233 4.89492289435622 a25.916944055640293,25.916944055640293 0 0,0 -0.44448260325778216,0.038351829294336746 l -0.3805049890539091 -4.902198975929221" fill="#ff3a05" stroke="none" /><path d="M 101.26447882468166 120.96189622390904 l 0.3472640545216786 5.756769454015893 a26.767233901122207,26.767233901122207 0 0,0 -0.46015670542249143,0.02378484557315623 l -0.24811928068570754 -5.761894106351251" fill="#ff4606" stroke="none" /><line stroke="#e1ed5e" stroke-width="0.3" x1="102.19456741930631" x2="102.32365962044197" y1="184.97166512339345" y2="189.96999836594603" /><path d="M 102.22038585953345 185.97133177190398 a86.0,86.0 0 0,1 -42.740103519485714,-10.115201625700543" fill="none" id="id55" stroke="none" /><text fill="#e1ed5e" style="font-size:6.75px; font-family:Arial;" text-anchor="middle"><textPath startOffset="22.20632615414155" xlink:href="#id55">July</textPath></text><path d="M 100.18074693466247 120.99922214144158 l 0.09041045651568466 10.503908483026104 a31.50429757149116,31.50429757149116 0 0,0 -0.542314782356273,0.0 l 0.09041045651567743 -10.503908483026104" fill="#ff860c" stroke="none" /><path d="M 99.45781275523022 120.99299961872073 l -0.16195976077645372 6.270935417656104 a27.27302654039695,27.27302654039695 0 0,0 -0.46919949701346364,-0.016160179370126346 l 0.26987960946456035 -6.267218439859884" fill="#ff4d07" stroke="none" /><path d="M 98.73552117531835 120.96189622390904 l -0.33657138649994384 5.579511762504404 a26.58965399699619,26.58965399699619 0 0,0 -0.45662949568191397,-0.031491843506879544 l 0.43256364296078786 -5.572891574481239" fill="#ff4306" stroke="none" /><path d="M 98.01472825383883 120.90594882070398 l -3.711669631170924 39.08582061809126 a60.26165896699431,60.26165896699431 0 0,0 -1.0318156304286383,-0.10695190893349747 l 4.383917858205156 -39.016139340702004" fill="#30ff32" stroke="none" /><path d="M 97.65516085044442 120.86867818915974 l -0.43285956787952634 3.8523781150995555 a24.876620247999906,24.876620247999906 0 0,0 -0.4251208006748434,-0.051476208570339216 l 0.49910779160575913 -3.8443563778038676" fill="#ff2b04" stroke="none" /><path d="M 96.93821686468263 120.77559828337769 l -0.6951255472642694 4.71674461848475 a25.76769119411737,25.76769119411737 0 0,0 -0.43825215105473087,-0.06844597288404497 l 0.7762135619275174 -4.7040803382536" fill="#ff3805" stroke="none" /><path d="M 96.22490169976321 120.6578951692458 l -0.4751606868333539 2.600149420356698 a23.643209164347994,23.643209164347994 0 0,0 -0.3997192832761347,-0.07660715197978148 l 0.5198475846811836 -2.5915850700284486" fill="#ff1a02" stroke="none" /><path d="M 95.51606077576429 120.51570834832081 l -0.7340997749755501 3.3587825634575585 a24.438069631087433,24.438069631087433 0 0,0 -0.41018700631869137,-0.0933572271838938 l 0.7918069306871042 -3.3456486026959777" fill="#ff2503" stroke="none" /><path d="M 95.16358092515715 120.4354850818985 l -1.415219997562253 5.979776917641813 a27.14496376118378,27.14496376118378 0 0,0 -0.4537690649584834,-0.11152539602029493 l 1.5179423472639468 -5.954530263307489" fill="#ff4b07" stroke="none" /><path d="M 94.46302465271185 120.25689768951611 l -1.609592972422055 5.888659081728954 a27.10467815021393,27.10467815021393 0 0,0 -0.4489939393816816,-0.12689017214850218 l 1.7107180799083506 -5.86008011624193" fill="#ff4a06" stroke="none" /><path d="M 94.11515582081647 120.15858648285463 l -0.9685330452646937 3.317718627713892 a24.45619923506291,24.45619923506291 0 0,0 -0.4030905993014567,-0.12144789096692249 l 1.0254986190063962 -3.300555367641244" fill="#ff2503" stroke="none" /><path d="M 93.76903079525671 120.05430185196036 l -1.5967164990784135 5.139013465216302 a26.381353266057125,26.381353266057125 0 0,0 -0.4325017531961369,-0.13847340341819664 l 1.6849395973654906 -5.110767215138399" fill="#ff4006" stroke="none" /><path d="M 93.08242187328487 119.8279376855182 l -12.381626648833569 35.48960592007109 a58.587455445042444,58.587455445042444 0 0,0 -0.9493411943059694,-0.3403999763362639 l 12.990687403769265 -35.27121840269487" fill="#3eff2d" stroke="none" /><path d="M 92.7421414339146 119.70592522655815 l -4.341119268439468 11.786640773516613 a33.56066149638389,33.56066149638389 0 0,0 -0.5403742410910074,-0.20432329999483892 l 4.543363730290759 -11.71016922341514" fill="#ffa20e" stroke="none" /><path d="M 92.06813273071674 119.44442032107085 l -2.5411165355750236 6.229370251049221 a27.727728217758937,27.727728217758937 0 0,0 -0.44038041542476997,-0.1840790493634637 l 2.647968410497256 -6.184706158665784" fill="#ff5307" stroke="none" /><path d="M 91.7346041902142 119.30500536409082 l -1.3713936596047316 3.203084590771171 a24.484317934006565,24.484317934006565 0 0,0 -0.38601197443124813,-0.16921630574441418 l 1.426326308693723 -3.1790037317323048" fill="#ff2603" stroke="none" /><path d="M 91.40352486487194 119.15986991738527 l -1.8741944310500438 4.177214606492529 a25.578397823919797,25.578397823919797 0 0,0 -0.4001582048643166,-0.18369300533266103 l 1.9458206316817797 -4.144334530825794" fill="#ff3505" stroke="none" /><path d="M 90.7491055286396 118.85261126421891 l -2.806788709191502 5.720019463956192 a27.371552834755636,27.371552834755636 0 0,0 -0.42119096853362586,-0.2111938954038366 l 2.9048335854078884 -5.670857727643054" fill="#ff4e07" stroke="none" /><path d="M 90.42595943632237 118.69057910512821 l -4.302407475364665 8.399221491276927 a30.437035114038835,30.437035114038835 0 0,0 -0.4642504403403401,-0.2428738885552165 l 4.446348818231501 -8.323918183776994" fill="#ff780b" stroke="none" /><line stroke="#e1ed5e" stroke-width="0.3" x1="58.666819895761336" x2="56.23545636021788" y1="174.27360380694188" y2="178.64263932499728" /><path d="M 58.180547188652646 175.14741091055294 a86.0,86.0 0 0,1 -31.652253787137756,-30.449443065178592" fill="none" id="id56" stroke="none" /><text fill="#e1ed5e" style="font-size:6.75px; font-family:Arial;" text-anchor="middle"><textPath startOffset="22.20632615414155" xlink:href="#id56">August</textPath></text><path d="M 89.7882731507175 118.34994917583269 l -3.0838023648952775 5.541434617213349 a27.34171385688318,27.34171385688318 0 0,0 -0.40928102216184487,-0.2324004459620314 l 3.1787321539783298 -5.487531005456684" fill="#ff4e07" stroke="none" /><path d="M 89.4739219176387 118.17145234162733 l -1.6524608521724418 2.8526877139524687 a24.29673384750693,24.29673384750693 0 0,0 -0.36009162868649286,-0.21274848135611213 l 1.7013203518873166 -2.8238206603026073" fill="#ff2303" stroke="none" /><path d="M 89.1626897886671 117.98757091392108 l -2.6240733281409945 4.355389312737936 a26.084798609283634,26.084798609283634 0 0,0 -0.3826028827255308,-0.23502593987312126 l 2.698655410798834 -4.309574906036437" fill="#ff3c05" stroke="none" /><path d="M 88.54995079064634 117.60387380957326 l -2.604598703205064 4.004439287330214 a25.776972724503587,25.776972724503587 0 0,0 -0.3698692415134681,-0.24512916492183218 l 2.6731426434584944 -3.959012101317064" fill="#ff3805" stroke="none" /><path d="M 88.24862548938628 117.40417183066458 l -5.319219162742593 7.877938383269267 a30.505577608534644,30.505577608534644 0 0,0 -0.43266077482400755,-0.2975880261355263 l 5.45403682218949 -7.78520956776864" fill="#ff790b" stroke="none" /><path d="M 87.65650970185807 116.9893568818739 l -3.987746098480963 5.488661633378659 a27.78435888435105,27.78435888435105 0 0,0 -0.38450248947985266,-0.28444574956092145 l 4.08163355837938 -5.419205935077971" fill="#ff5407" stroke="none" /><path d="M 87.36589467227662 116.77436683061367 l -2.545258395334607 3.3793527040141695 a25.230645931432832,25.230645931432832 0 0,0 -0.34466416568003677,-0.26427378500945886 l 2.60305128950813 -3.335039577177344" fill="#ff3004" stroke="none" /><path d="M 87.07902340077011 116.55440617244103 l -3.1268141463130203 4.006086614759859 a26.081898923684072,26.081898923684072 0 0,0 -0.3515374317167609,-0.2792825964896492 l 3.195309070747139 -3.9516701042650793" fill="#ff3c05" stroke="none" /><path d="M 86.51685102203217 116.09983520530335 l -4.6238549062434675 5.52121037343705 a28.201652461882667,28.201652461882667 0 0,0 -0.3694880099923603,-0.3148856979866828 l 4.718208392812884 -5.440800285227415" fill="#ff5a08" stroke="none" /><path d="M 86.24171649860922 115.8653595955263 l -8.160211088135421 9.409944436424952 a33.455364278074455,33.455364278074455 0 0,0 -0.4318253487556123,-0.38103566280444984 l 8.320978789797621 -9.268085631848214" fill="#ffa00e" stroke="none" /><path d="M 85.70375840098266 115.38237550388516 l -4.559500581783506 4.9059012869506615 a27.697530365185983,27.697530365185983 0 0,0 -0.3464356525145994,-0.3275765328757157 l 4.643272068688923 -4.826690117329015" fill="#ff5307" stroke="none" /><path d="M 85.44109423537348 115.13401014063109 l -3.7553963152943033 3.9037415885911937 a26.416844088158946,26.416844088158946 0 0,0 -0.32499013944081345,-0.3180712528000721 l 3.822036407110911 -3.838520232868552" fill="#ff4106" stroke="none" /><path d="M 85.18274418774928 114.88116024355367 l -3.0921876334636047 3.1055237393324853 a25.382453885222624,25.382453885222624 0 0,0 -0.3069577201546614,-0.3109465499081396 l 3.1451859786737995 -3.051836695443681" fill="#ff3204" stroke="none" /><path d="M 84.67929136418377 114.36230785411682 l -5.371610036855057 5.035584113989381 a28.362832454776097,28.362832454776097 0 0,0 -0.3308370328196534,-0.3590582580181875 l 5.45749347767044 -4.942374601169849" fill="#ff5c08" stroke="none" /><path d="M 84.43433777217949 114.09645910891817 l -6.817382498320135 6.17390716892616 a30.197490628368126,30.197490628368126 0 0,0 -0.345604744540739,-0.3882905942222656 l 6.922646092509212 -6.05564240496303" fill="#ff750a" stroke="none" /><path d="M 83.95833913139862 113.55231037782056 l -5.54672221574402 4.685979940795832 a28.261166252343294,28.261166252343294 0 0,0 -0.3107436350161839,-0.37431072637741725 l 5.62656185065374 -4.589807957304654" fill="#ff5a08" stroke="none" /><path d="M 83.50135304334701 112.99209946851258 l -4.889736348689679 3.850493994076317 a27.223811176290205,27.223811176290205 0 0,0 -0.28674864007323575,-0.3706612714003307 l 4.955291805980983 -3.7657547285627335" fill="#ff4c07" stroke="none" /><path d="M 83.06392112726016 112.41649034213515 l -5.78613980911788 4.242041478313767 a28.174561296301896,28.174561296301896 0 0,0 -0.28338269936814575,-0.39359378407104734 l 5.8583023008616335 -4.141814088791581" fill="#ff5908" stroke="none" /><path d="M 82.6465618267979 111.8261652097733 l -5.042070677395472 3.4361122121789682 a27.101585355506934,27.101585355506934 0 0,0 -0.2593968807096629,-0.38776314122999755 l 5.100470663515866 -3.3488121567431497" fill="#ff4a06" stroke="none" /><path d="M 82.44556493220864 111.52570212397912 l -5.025987960430665 3.299909104845804 a27.012483270549552,27.012483270549552 0 0,0 -0.251852992975358,-0.390881438019202 l 5.0820458167830695 -3.2129060669051537" fill="#ff4906" stroke="none" /><path d="M 82.24976979558568 111.22182372390057 l -2.890504440649111 1.827397782032675 a24.41970738151529,24.41970738151529 0 0,0 -0.22156274976857587,-0.3572296997422969 l 2.9215318300856428 -1.777371750925114" fill="#ff2503" stroke="none" /><path d="M 82.05923443525364 110.91462005526583 l -3.2077316537771194 1.9514870819684411 a24.75470960178459,24.75470960178459 0 0,0 -0.21833550641843394,-0.36594286739216136 l 3.2408480358937855 -1.8959821206901688" fill="#ff2904" stroke="none" /><line stroke="#e1ed5e" stroke-width="0.3" x1="26.63291911575756" x2="22.317208475507996" y1="142.92168965132927" y2="145.44649492493687" /><path d="M 25.769776987707644 143.4266507060508 a86.0,86.0 0 0,1 -11.730757126820373,-40.83630448921669" fill="none" id="id57" stroke="none" /><text fill="#e1ed5e" style="font-size:6.75px; font-family:Arial;" text-anchor="middle"><textPath startOffset="21.46611528233685" xlink:href="#id57">September</textPath></text><path d="M 81.69416730710424 110.29060199501025 l -4.582933696621705 2.576290706500208 a26.257428560810887,26.257428560810887 0 0,0 -0.21809118895937776,-0.3958988568293219 l 4.626601295032599 -2.4970213312730634" fill="#ff3f05" stroke="none" /><path d="M 81.51974371655577 109.97397251340807 l -6.577308006145756 3.549836553094064 a28.474109991255936,28.474109991255936 0 0,0 -0.2290775935024477,-0.4333284767615006 l 6.63743810787309 -3.436093061246437" fill="#ff5d08" stroke="none" /><path d="M 81.18737489456691 109.33194174019688 l -4.129114643423888 2.0482339426355396 a25.609213601288392,25.609213601288392 0 0,0 -0.19249195083911513,-0.39659043296109653 l 4.163759850877722 -1.9768545537091582" fill="#ff3605" stroke="none" /><path d="M 81.02952815118164 109.00673069616217 l -2.8809392968081258 1.3678017397315203 a24.189152368750335,24.189152368750335 0 0,0 -0.1753429994120397,-0.37767322148800286 l 2.9040569130599923 -1.3180084509646903" fill="#ff2103" stroke="none" /><path d="M 80.87730276802145 108.67885076344099 l -3.1127021218383835 1.4127022385370038 a24.418280578604488,24.418280578604488 0 0,0 -0.17041508163464425,-0.38424102081847383 l 3.1365582882043075 -1.3589128812258342" fill="#ff2503" stroke="none" /><path d="M 80.58989483394504 108.01547362559985 l -3.0405707739864143 1.255614775765343 a24.289625981284285,24.289625981284285 0 0,0 -0.15626023670177802,-0.38782509268506854 l 3.06173362494558 -1.2030903152374692" fill="#ff2303" stroke="none" /><path d="M 80.45479744820244 107.68017299344265 l -4.897513052375112 1.9244491010109745 a26.262046981980163,26.262046981980163 0 0,0 -0.16170632877876454,-0.4221641975160426 l 4.929913660747386 -1.839861336661774" fill="#ff3f05" stroke="none" /><path d="M 80.20201598880116 107.00284435728193 l -3.890901851942205 1.3762704355755946 a25.127134300369534,25.127134300369534 0 0,0 -0.14072292313544588,-0.4090066855717871 l 3.9140156060208793 -1.3090910469145105" fill="#ff2f04" stroke="none" /><path d="M 80.0844068197444 106.66101706037122 l -2.7874686383640763 0.9323034462162356 a23.939246693574724,23.939246693574724 0 0,0 -0.12734282669075853,-0.39192092128351064 l 2.803103716071084 -0.8841836249549216" fill="#ff1e03" stroke="none" /><path d="M 79.97269907076064 106.31721596034903 l -3.3825202193170085 1.0669491006886402 a24.546804677107083,24.546804677107083 0 0,0 -0.1236378454932967,-0.4040556327099599 l 3.4003848373164356 -1.0085664954266327" fill="#ff2603" stroke="none" /><path d="M 79.76711848015287 105.62410040840567 l -1.874429909727733 0.5210321629416236 a22.945497880055783,22.945497880055783 0 0,0 -0.10250291882970282,-0.38145149298709163 l 1.8831209048992106 -0.488689736778993" fill="#ff0f01" stroke="none" /><path d="M 79.67330655649465 105.27499134158121 l -18.421071740026548 4.78046241024675 a40.0312559991974,40.0312559991974 0 0,0 -0.1673472072041711,-0.6684689063273652 l 18.500630261525778 -4.462665664521993" fill="#fff316" stroke="none" /><path d="M 79.50377843672027 104.57218783832718 l -1.7058118560773023 0.3805234149499961 a22.747739156069663,22.747739156069663 0 0,0 -0.08196331190903285,-0.3829053062474497 l 1.712109206710776 -0.35110428928638265" fill="#ff0d01" stroke="none" /><path d="M 79.4281124754447 104.21870165774334 l -2.5842589843070782 0.5299570906228777 a23.638038857915728,23.638038857915728 0 0,0 -0.07830952131757134,-0.3992985620895182 l 2.592998438600316 -0.48539480146540454" fill="#ff1902" stroke="none" /><path d="M 79.35854240842038 103.8639653848113 l -2.6295913561466304 0.4922447909150785 a23.675267394954027,23.675267394954027 0 0,0 -0.07153714022765909,-0.40121827320197395 l 2.637674938713478 -0.4469077669798909" fill="#ff1a02" stroke="none" /><path d="M 79.29508885075956 103.50808413554451 l -2.6002012191939694 0.4405585023055019 a23.637259595536904,23.637259595536904 0 0,0 -0.06451648817728196,-0.40174423346573845 l 2.607399461732542 -0.3957350391465498" fill="#ff1902" stroke="none" /><path d="M 79.23777060512086 103.15116336523772 l -5.404465166487653 0.8202564530733727 a26.466357506108334,26.466357506108334 0 0,0 -0.06448458561590432,-0.45100504160697047 l 5.417783803120156 -0.7271059394860016" fill="#ff4206" stroke="none" /><path d="M 79.18660465613746 102.79330883721812 l -3.4157552416715973 0.45841916442282576 a24.446379549805435,24.446379549805435 0 0,0 -0.052383342100950525,-0.41754677697459913 l 3.423140093019396 -0.39955463316081796" fill="#ff2503" stroke="none" /><path d="M 79.10278846688536 102.07522291339032 l -3.032483973019066 0.30114449553835293 a24.047400048206757,24.047400048206757 0 0,0 -0.03735981595521064,-0.4122624559225019 l 3.0372183852513515 -0.24890065106728487" fill="#ff1f03" stroke="none" /><path d="M 79.04373962182676 101.35467743843564 l -62.86878113451971 4.064032315306924 a84.0,84.0 0 0,0 -0.08085459644987347,-1.4437131346582497 l 62.92942208185711 -2.9812474643132365" fill="#4dd2ff" stroke="none" /><line stroke="#e1ed5e" stroke-width="0.3" x1="15.007084014347285" x2="10.007500721073583" y1="101.09737516637583" y2="101.16192664675087" /><path d="M 14.007167355692545 101.11028546245083 a86.0,86.0 0 0,1 10.666146001902534,-42.60595125391555" fill="none" id="id58" stroke="none" /><text fill="#e1ed5e" style="font-size:6.75px; font-family:Arial;" text-anchor="middle"><textPath startOffset="22.20632615414155" xlink:href="#id58">October</textPath></text><path d="M 79.00175016825051 100.2711162175752 l -23.54051406212823 0.30394033709657853 a44.54247612375919,44.54247612375919 0 0,0 -0.003299754801808547,-0.7667468064799066 l 23.542258114219543 0.10131594758700345" fill="#d5ff1c" stroke="none" /><path d="M 79.32604984820605 96.31383870115002 l -4.6592444304321265 -0.8307423774962975 a25.73272559528661,25.73272559528661 0 0,0 0.08150445784746019,-0.4354000728878715 l 4.644254248674805 0.9108205278467417" fill="#ff3705" stroke="none" /><path d="M 79.3925641242962 95.95851677861259 l -4.922610905934384 -0.9654111992267954 a26.016384845166552,26.016384845166552 0 0,0 0.08996800881916475,-0.43871596249023836 l 4.905263601200224 1.0500028178804361" fill="#ff3b05" stroke="none" /><path d="M 79.46518482838121 95.60439243477599 l -3.397535221904219 -0.7272639855633004 a24.474501185605952,24.474501185605952 0 0,0 0.09172764850630831,-0.4111970622693898 l 3.384513186395873 0.7856392173826493" fill="#ff2503" stroke="none" /><path d="M 79.62865764111835 94.90015583598534 l -6.343494226854594 -1.5880559779694874 a27.53925384086764,27.53925384086764 0 0,0 0.11907929839550042,-0.4588611122207985 l 6.315218596588786 1.6970135157391497" fill="#ff5007" stroke="none" /><path d="M 79.91906864156998 93.8553929516997 l -4.099744860387146 -1.2544896805691452 a25.287382917226463,25.287382917226463 0 0,0 0.13094591533818942,-0.4151343358202549 l 4.077543461280753 1.3248741828158146" fill="#ff3104" stroke="none" /><path d="M 80.02781315780177 93.51064311812611 l -3.445247210815385 -1.1194286771854018 a24.62254729533463,24.62254729533463 0 0,0 0.1344422812912188,-0.40196530892418764 l 3.4254676357523937 1.1785670890319115" fill="#ff2803" stroke="none" /><path d="M 80.2630227832202 92.82701384747504 l -9.819664009349898 -3.5687488103108116 a31.448050982246237,31.448050982246237 0 0,0 0.18928044498680038,-0.5071774882480236 l 9.75677897586147 3.737249435588177" fill="#ff860c" stroke="none" /><path d="M 80.52162464483688 92.15188598940014 l -4.723552511755521 -1.9031863782975227 a26.092550119718915,26.092550119718915 0 0,0 0.17143838335029063,-0.41515164365331364 l 4.690092441519031 1.9842125924041478" fill="#ff3c05" stroke="none" /><path d="M 81.6062741919709 89.86733742301443 l -2.9146066632299323 -1.6055869360763921 a24.32758792680877,24.32758792680877 0 0,0 0.20521172890574726,-0.36504876758328053 l 2.886537293031754 1.6555192135944574" fill="#ff2303" stroke="none" /><line stroke="#e1ed5e" stroke-width="0.3" x1="26.266209847984243" x2="21.928928074336255" y1="57.711370442889674" y2="55.22380399835377" /><path d="M 25.398753493254645 57.213857153982495 a86.0,86.0 0 0,1 29.58750427330803,-30.492523968695096" fill="none" id="id59" stroke="none" /><text fill="#e1ed5e" style="font-size:6.75px; font-family:Arial;" text-anchor="middle"><textPath startOffset="21.46611528233685" xlink:href="#id59">November</textPath></text><path d="M 81.96595687620814 89.24020034530311 l -2.000660747226062 -1.1936706965488486 a23.32969808286193,23.32969808286193 0 0,0 0.20872770002486138,-0.34309345758747123 l 1.9798172489149837 1.2279319273433944" fill="#ff1502" stroke="none" /><path d="M 82.54541684631803 88.32363383020206 l -15.773577577078498 -10.551845665751758 a39.977544533842035,39.977544533842035 0 0,0 0.38754523760612475,-0.5686748156163942 l 15.589607873803633 10.821798504638567" fill="#fff316" stroke="none" /><path d="M 83.17141714833178 87.43820079747576 l -2.1374794916417876 -1.5955347167486544 a23.667311307204212,23.667311307204212 0 0,0 0.2465052577662647,-0.32437202419888067 l 2.109698293651414 1.6320915168285617" fill="#ff1a02" stroke="none" /><path d="M 83.39014120810768 87.1503855733568 l -1.8985398461615557 -1.4687364475791052 a23.40034170482255,23.40034170482255 0 0,0 0.24920909214239442,-0.31647023944130054 l 1.8729766734251903 1.5011990809734534" fill="#ff1602" stroke="none" /><path d="M 83.84228863543731 86.58626213691792 l -2.33715610437124 -1.9402499909668611 a24.0375761198111,24.0375761198111 0 0,0 0.267033875535585,-0.3160838818140342 l 2.3034116153485305 1.9801928224100112" fill="#ff1f03" stroke="none" /><path d="M 84.07557802195018 86.31012108654704 l -2.8389141810530134 -2.4405527207123012 a24.74375898128607,24.74375898128607 0 0,0 0.28043885539118546,-0.32059009047007864 l 2.7964834620839847 2.4890583673853226" fill="#ff2904" stroke="none" /><path d="M 85.57189188830299 84.74124197986013 l -3.633098840096003 -3.8422623143038916 a26.287947321392945,26.287947321392945 0 0,0 0.3314686286629039,-0.3080639655860028 l 3.566422327638243 3.904230865964542" fill="#ff3f05" stroke="none" /><path d="M 86.10567301691215 84.25364557470407 l -1.683339833838198 -1.9077185727742463 a23.544213660267985,23.544213660267985 0 0,0 0.3061938455525969,-0.2655282855789531 l 1.6502521896388276 1.9364118517728799" fill="#ff1802" stroke="none" /><path d="M 86.37877921826538 84.01681056812374 l -2.482752215800896 -2.9132703752051534 a24.827688969092478,24.827688969092478 0 0,0 0.3276574701194007,-0.27440370830060834 l 2.432237208722385 2.955575240899574" fill="#ff2a04" stroke="none" /><path d="M 86.93701828274178 83.55741782278169 l -3.921721365955678 -4.936332855054579 a27.304544434618933,27.304544434618933 0 0,0 0.3705193457175849,-0.28919622641305043 l 3.8361694650786675 5.003107470690852" fill="#ff4d07" stroke="none" /><path d="M 87.22198572758235 83.33499621200491 l -2.363845640725318 -3.0829122363681387 a24.884857020576753,24.884857020576753 0 0,0 0.342171341803051,-0.25771636069020076 l 2.310428145163877 3.123145186564194" fill="#ff2b04" stroke="none" /><path d="M 87.51073957382395 83.11751280151077 l -3.525286104373922 -4.765342021643405 a26.927573424339197,26.927573424339197 0 0,0 0.3750045222464493,-0.2724567336063787 l 3.442736265773691 4.825317990066451" fill="#ff4806" stroke="none" /><path d="M 87.80319425747018 82.90503203632743 l -3.4233639585311617 -4.798165883303065 a26.894218916554053,26.894218916554053 0 0,0 0.3791686069719869,-0.2656318402532385 l 3.340264211975515 4.856382566320246" fill="#ff4806" stroke="none" /><path d="M 88.39885842347998 82.49532879139004 l -2.313258635829765 -3.4904178673788935 a25.187383718404465,25.187383718404465 0 0,0 0.36345751432859646,-0.2364028775478158 l 2.2528340957168815 3.5297196690862442" fill="#ff3004" stroke="none" /><path d="M 89.00827224532344 82.1063720568725 l -3.5728299854547956 -5.816273100157308 a27.825990542080937,27.825990542080937 0 0,0 0.41028486747129417,-0.2471920419427425 l 3.4721830517658523 5.876911751558669" fill="#ff5407" stroke="none" /><line stroke="#e1ed5e" stroke-width="0.3" x1="56.762969772571076" x2="54.21961505331055" y1="26.818313649435495" y2="22.513508569990535" /><path d="M 56.25429882871897 25.957352633546506 a86.0,86.0 0 0,1 42.265352541879196,-11.944610805530505" fill="none" id="id60" stroke="none" /><text fill="#e1ed5e" style="font-size:6.75px; font-family:Arial;" text-anchor="middle"><textPath startOffset="22.20632615414155" xlink:href="#id60">December</textPath></text><path d="M 89.63071344664047 81.73862282372117 l -2.5067954710132976 -4.414723941169317 a26.07679140897342,26.07679140897342 0 0,0 0.3922395352565588,-0.21828087670154223 l 2.430431846684693 4.457220215431044" fill="#ff3c05" stroke="none" /><path d="M 89.94658935756843 81.56283822128135 l -4.252827178104394 -7.799349443531487 a29.88348978437744,29.88348978437744 0 0,0 0.4537380354652158,-0.2423711446022441 l 4.117944096110873 7.8713993146354815" fill="#ff710a" stroke="none" /><path d="M 90.58718382345135 81.22770947309562 l -1.1332977188304878 -2.260173112098806 a23.528388066765224,23.528388066765224 0 0,0 0.3636018080283015,-0.17841782809417206 l 1.0942246437917602 2.2793461003278073" fill="#ff1802" stroke="none" /><path d="M 91.23893434514133 80.91482961587045 l -1.7717987186376734 -3.8596994662206865 a25.246946040263563,25.246946040263563 0 0,0 0.3965187741992089,-0.17790641573834431 l 1.70509782597169 3.8896262124755596" fill="#ff3004" stroke="none" /><path d="M 91.90106846888425 80.62456947434976 l -1.3474360316226228 -3.2235305506855307 a24.493813542608976,24.493813542608976 0 0,0 0.39040354704789515,-0.1592554092901205 l 1.291748614986347 3.246246846159228" fill="#ff2603" stroke="none" /><path d="M 92.23578459929587 80.48803036053334 l -2.1200759362904216 -5.327886356490186 a26.7342039555035,26.7342039555035 0 0,0 0.42904175253985344,-0.16646153442191244 l 2.0280510187508916 5.36359059480265" fill="#ff4506" stroke="none" /><path d="M 92.91201910852362 80.23233633223022 l -1.8780197798597476 -5.237607710586509 a26.564125521907258,26.564125521907258 0 0,0 0.4317530517594629,-0.15063016206547825 l 1.7875847240369993 5.269158725824197" fill="#ff4306" stroke="none" /><path d="M 93.59665428221793 80.00007090966166 l -1.1381517803627783 -3.5548533383236247 a24.732609239142718,24.732609239142718 0 0,0 0.4065742133515162,-0.1263245871901742 l 1.0767921943005332 3.573918060396324" fill="#ff2904" stroke="none" /><path d="M 93.94186890950719 79.89281104454417 l -1.6431723251333186 -5.453757261819779 a26.69591814907272,26.69591814907272 0 0,0 0.4411307021230043,-0.12877814855003347 l 1.549051405286893 5.481233739288512" fill="#ff4506" stroke="none" /><path d="M 94.28887869178378 79.79150937346287 l -0.7115241588853227 -2.5176893501986806 a23.616300115197284,23.616300115197284 0 0,0 0.39214541423311133,-0.1071881550887523 l 0.6680808554284888 2.5295640461137285" fill="#ff1902" stroke="none" /><path d="M 94.63758080256005 79.69619591428918 l -2.6989188643009805 -10.218954887032572 a31.5693520151089,31.5693520151089 0 0,0 0.5265934952793786,-0.13424040703998505 l 2.5226164803366027 10.263898290241421" fill="#ff870c" stroke="none" /><path d="M 95.33964822691252 79.52364482259891 l -1.8028961871810327 -7.9214498119835435 a29.124026205369233,29.124026205369233 0 0,0 0.48977913125569844,-0.10704674781698649 l 1.6662743317718134 7.951310057896398" fill="#ff6609" stroke="none" /><path d="M 96.04723909329186 79.375362276772 l -0.7253945041499795 -3.784949104592684 a24.85383405338216,24.85383405338216 0 0,0 0.4208640308896071,-0.07691021154989146 l 0.6601353521574791 3.7968747974933117" fill="#ff2b04" stroke="none" /><path d="M 96.40284397218896 79.31037775812273 l -0.3983422211957258 -2.2911294410949115 a23.32550008407633,23.32550008407633 0 0,0 0.3961678396283331,-0.06537108803571128 l 0.35884517542850713 2.2976467920702497" fill="#ff1502" stroke="none" /><path d="M 96.75951476605007 79.25152402106235 l -0.6729570553715875 -4.308871138170347 a25.361105557508534,25.361105557508534 0 0,0 0.4319008589518304,-0.0636509595550764 l 0.5986872159911083 4.319816581886393" fill="#ff3204" stroke="none" /><path d="M 97.11714578562143 79.19881850522333 l -0.7534228945971663 -5.436309021340487 a26.488269475309238,26.488269475309238 0 0,0 0.4521740225815836,-0.058705165612433566 l 0.6597341435077249 5.448472510117058" fill="#ff4206" stroke="none" /><path d="M 97.83486435360386 79.11191278185805 l -0.23561000595942638 -2.273041119681879 a23.285219465756594,23.285219465756594 0 0,0 0.399036447424529,-0.03789331886127382 l 0.19644843144466106 2.2767599830583336" fill="#ff1402" stroke="none" /><path d="M 98.55514903715128 79.0497635885617 l -0.21142780047188228 -3.0656881005242704 a24.072970101466737,24.072970101466737 0 0,0 0.4136400576075367,-0.02495189787688401 l 0.1586256940247226 3.068873267781461" fill="#ff2003" stroke="none" /><path d="M 99.63851952072746 79.00311137660856 l -0.0458187546776294 -2.6614197556801797 a23.661814132167187,23.661814132167187 0 0,0 0.4072992339501645,-0.0035057530955663174 l 6.519564313767471e-16 2.661814132167187" fill="#ff1a02" stroke="none" /></svg>