<?xml version="1.0" encoding="utf-8" ?>
<svg baseProfile="full" height="200mm" version="1.1" viewBox="0,0,200,200" width="200mm" xmlns="http://www.w3.org/2000/svg" xmlns:ev="http://www.w3.org/2001/xml-events" xmlns:xlink="http://www.w3.org/1999/xlink"><defs /><rect fill="#1a1a1a" height="200" width="200" x="0" y="0" /><text alignment-baseline="middle" fill="#e1ed5e" style="dominant-baseline: central; font-size:9.0px; font-family:Arial;" text-anchor="middle" x="100.0" y="100.0">2025</text><line stroke="#e1ed5e" stroke-width="0.3" x1="100.0" x2="100.0" y1="15.0" y2="10.0" /><path d="M 100.0 14.0 a86.0,86.0 0 0,1 42.46469731375804,11.215312516191453" fill="none" id="id145" stroke="none" /><text fill="#e1ed5e" style="font-size:6.75px; font-family:Arial;" text-anchor="middle"><textPath startOffset="22.20632615414155" xlink:href="#id145">January</textPath></text><path d="M 100.0 79.0 l 0.0 -17.68636937012277 a38.68636937012277,38.68636937012277 0 0,0 0.6659222543440971,0.00573180308229849 l -0.3044417750715688 17.68374894364903" fill="#ffd313" stroke="none" /><path d="M 100.36148047927253 79.00311137660856 l 0.30539727531429023 -17.739249954980046 a38.74187860574604,38.74187860574604 0 0,0 0.6666801443157337,0.017218381229661798 l -0.6107040548248919 17.731364781608026" fill="#ffd313" stroke="none" /><path d="M 100.72285384407766 79.0124445844662 l 0.5102160562430887 -14.81376607737385 a35.8225499094859,35.8225499094859 0 0,0 0.6160782050953121,0.026529623466333654 l -0.7651350937277324 14.802788727383321" fill="#ffad10" stroke="none" /><path d="M 101.08401301168833 79.027996857942 l 1.6975012831994065 -32.840936281252866 a53.8847777312813,53.8847777312813 0 0,0 0.9258891807280213,0.055852163875189965 l -2.26255251276704 32.80685084799737" fill="#77ff27" stroke="none" /><path d="M 101.80526077348638 79.07773832637324 l 1.6571821895182568 -19.206089180686657 a40.27745093174265,40.27745093174265 0 0,0 0.6902305969138005,0.06554571209090157 l -1.9875379135223015 19.174717924080575" fill="#ffe715" stroke="none" /><path d="M 102.16513564639614 79.11191278185805 l 2.3006183508388403 -22.19515292169707 a43.31406861183622,43.31406861183622 0 0,0 0.7409455072302792,0.08325386099170218 l -2.6823305615788446 22.152263107234766" fill="#f1ff19" stroke="none" /><path d="M 102.52436894288641 79.15227682838746 l 2.1382722976884487 -17.659110033561614 a38.78809645792653,38.78809645792653 0 0,0 0.6621410137801735,0.08596490716300526 l -2.4419280399764682 17.619686803234472" fill="#ffd413" stroke="none" /><path d="M 102.88285421437855 79.19881850522331 l 2.439911148169978 -17.60513395754672 a38.77340451557126,38.77340451557126 0 0,0 0.6603129613883767,0.09731296599183804 l -2.7425930899870106 17.560526507393913" fill="#ffd413" stroke="none" /><path d="M 103.2404852339499 79.25152402106235 l 1.8321538246612896 -11.731082500371974 a32.87329289909731,32.87329289909731 0 0,0 0.5583306416738245,0.09212933983772269 l -2.0338136724739893 11.697806897594626" fill="#ff850c" stroke="none" /><path d="M 103.59715602781102 79.31037775812273 l 2.547681241964529 -14.653398985597713 a35.873223643238006,35.873223643238006 0 0,0 0.6074615880620098,0.11100972242157751 l -2.79953795112944 14.607373781825398" fill="#ffae10" stroke="none" /><path d="M 103.95276090670814 79.375362276772 l 4.204743161068537 -21.93942574899652 a43.33871677707303,43.33871677707303 0 0,0 0.7314617617326347,0.14672434816858154 l -4.581771332268297 21.86379744475073" fill="#f1ff19" stroke="none" /><path d="M 104.307194497241 79.44645832069477 l 2.683098850070193 -12.803504480686547 a34.08161864702562,34.08161864702562 0 0,0 0.5731510284677092,0.12526861536164083 l -2.90309260269143 12.755422367229034" fill="#ff960d" stroke="none" /><path d="M 104.66035177308747 79.52364482259891 l 4.968872521875797 -21.831913886138256 a43.39022460964625,43.39022460964625 0 0,0 0.7268406302404445,0.1720196938989968 l -5.343936839078765 21.743148280098392" fill="#f0ff19" stroke="none" /><path d="M 105.36241919743992 79.69619591428918 l 6.056165715363705 -22.93054639481511 a44.71681051778917,44.71681051778917 0 0,0 0.7425164864160215,0.20295780446026962 l -6.449980091003438 22.822902049528544" fill="#e0ff1b" stroke="none" /><path d="M 105.71112130821622 79.79150937346287 l 3.321606327823653 -11.75332245951471 a33.21366683000527,33.21366683000527 0 0,0 0.5488317759660362,0.16021904536271248 l -3.5234283215131166 11.694405085233294" fill="#ff8a0c" stroke="none" /><path d="M 106.0581310904928 79.89281104454417 l 3.839588597070428 -12.743754184135467 a34.30960973509079,34.30960973509079 0 0,0 0.5640085303400038,0.17524019582948558 l -4.058382500121151 12.675773853423461" fill="#ff990e" stroke="none" /><path d="M 106.40334571778207 80.00007090966166 l 12.091823563609356 -37.76707123176134 a60.655565391485645,60.655565391485645 0 0,0 0.9916236916902547,0.32692274045774394 l -12.740130077542029 37.55333476704436" fill="#30ff2f" stroke="none" /><path d="M 106.74666289553966 80.11325718540242 l 2.8571604821655257 -8.421884503288576 a29.893340463941577,29.893340463941577 0 0,0 0.4858635742384185,0.16950826087042337 l -3.001706060467218 8.371455389245945" fill="#ff5c08" stroke="none" /><path d="M 107.4271985657038 80.35727306442388 l 8.40146674344948 -22.219375938317057 a44.7546902848585,44.7546902848585 0 0,0 0.7182420986296744,0.2786667757078148 l -8.782692007078822 22.071466458718696" fill="#dfff1b" stroke="none" /><path d="M 108.09893153111575 80.62456947434976 l 7.6972349246767715 -18.414434045985516 a40.95842696004909,40.95842696004909 0 0,0 0.6481500254373026,0.2775040153227304 l -8.01306870790439 18.279210502699993" fill="#fff016" stroke="none" /><path d="M 108.43124777332544 80.76684994638697 l 5.947948105270447 -13.568309400383011 a35.81475975665864,35.81475975665864 0 0,0 0.5624927709791603,0.2523741100676278 l -6.180622994716387 13.463914959798853" fill="#ffad10" stroke="none" /><path d="M 108.76106565485865 80.91482961587045 l 18.858108776595582 -41.08064398811795 a66.20229614862947,66.20229614862947 0 0,0 1.031563512468013,0.4843329008603027 l -19.562450500363195 40.74994610461764" fill="#36ff71" stroke="none" /><path d="M 109.41281617654863 81.2277094730956 l 11.08665183953045 -22.110476333408677 a45.73432862847078,45.73432862847078 0 0,0 0.7006924092085621,0.3589218670374514 l -11.465604736327768 21.916361941058724" fill="#d4ff1c" stroke="none" /><path d="M 109.73455568895987 81.39251694778311 l 6.89719302422561 -13.183899338281934 a35.87906157576402,35.87906157576402 0 0,0 0.5447722147308617,0.2909984504526718 l -7.123110285484783 13.06322216132751" fill="#ffae10" stroke="none" /><path d="M 110.05341064243156 81.56283822128135 l 7.9744375535735585 -14.624489190661848 a37.65735088132652,37.65735088132652 0 0,0 0.5664309529891913,0.31521821207670436 l -8.224992595634784 14.485055581024962" fill="#ffc512" stroke="none" /><line stroke="#e1ed5e" stroke-width="0.3" x1="143.23703022742887" x2="145.7803849466894" y1="26.81831364943548" y2="22.513508569990506" /><path d="M 143.74570117128098 25.957352633546492 a86.0,86.0 0 0,1 28.547481713284135,27.462654790039103" fill="none" id="id146" stroke="none" /><text fill="#e1ed5e" style="font-size:6.75px; font-family:Arial;" text-anchor="middle"><textPath startOffset="19.985693538727396" xlink:href="#id146">February</textPath></text><path d="M 110.99172775467656 82.1063720568725 l 16.386763230686842 -26.676301577545814 a52.3073645494916,52.3073645494916 0 0,0 0.7631416518022032,0.47787923234778995 l -16.84352403486131 26.39027800387508" fill="#88ff25" stroke="none" /><path d="M 111.2981086023043 82.29822771554956 l 8.86421553620877 -13.888371091622586 a37.476078679436526,37.476078679436526 0 0,0 0.5407851230558084,0.35174168695233876 l -9.101967685048859 13.733730480510719" fill="#ffc312" stroke="none" /><path d="M 111.60114157652 82.49532879139004 l 13.489525356315443 -20.35400607474879 a45.41828940834284,45.41828940834284 0 0,0 0.647957442610695,0.4375037576704399 l -13.837887493332682 20.11879040477968" fill="#d7ff1c" stroke="none" /><path d="M 111.90073688211348 82.69761687909136 l 10.1071917102723 -14.694762599990044 a38.83511626365983,38.83511626365983 0 0,0 0.547517553158009,0.383571035528945 l -10.35864040301396 14.518606721697164" fill="#ffd513" stroke="none" /><path d="M 112.48926042617603 83.11751280151076 l 8.823765876303879 -11.927616957762272 a35.83667383650806,35.83667383650806 0 0,0 0.4927608288951443,0.37113724032049256 l -9.027772858957405 11.773963127935932" fill="#ffad10" stroke="none" /><path d="M 112.77801427241765 83.33499621200491 l 10.85727887596671 -14.159993073874576 a38.84337155480121,38.84337155480121 0 0,0 0.5270998257602175,0.4114097747247468 l -11.099411256886357 13.971004909926604" fill="#ffd513" stroke="none" /><path d="M 113.06298171725822 83.55741782278167 l 24.78639713488962 -31.19903101672045 a60.8465182834178,60.8465182834178 0 0,0 0.8144642618405855,0.6585734575489297 l -25.319764795294695 30.76775146190739" fill="#2fff31" stroke="none" /><path d="M 113.6212207817346 84.01681056812373 l 14.388758461475502 -16.88382090448641 a43.183322077575646,43.183322077575646 0 0,0 0.5616015740200004,0.4870153508763373 l -14.677253834142267 16.6336405601904" fill="#f3ff19" stroke="none" /><path d="M 113.89432698308785 84.25364557470407 l 11.716784677997968 -13.278559263014468 a38.70884466282189,38.70884466282189 0 0,0 0.4958216141501282,0.4451535407365132 l -11.943617279744087 13.074906713508657" fill="#ffd313" stroke="none" /><path d="M 114.42810811169701 84.74124197986012 l 12.178783348176733 -12.879935931370031 a38.72612516705283,38.72612516705283 0 0,0 0.4804192626657191,0.4621629500487388 l -12.39868585445487 12.668389894558992" fill="#ffd313" stroke="none" /><path d="M 114.68862486808459 84.99185889309783 l 10.490586777510075 -10.718784642200772 a35.99815839169424,35.99815839169424 0 0,0 0.439116163802778,0.4372304594447516 l -10.673538741480176 10.5366183321059" fill="#ffaf10" stroke="none" /><path d="M 114.94478906791727 85.2469230424477 l 31.505852673885812 -31.10169484485864 a65.27114381774322,65.27114381774322 0 0,0 0.7824323546618976,0.8063653192247807 l -32.03654929225082 30.554765330083743" fill="#35ff66" stroke="none" /><path d="M 115.4437574822437 85.77008943001954 l 16.294372514351913 -15.013669046523347 a43.1566431093476,43.1566431093476 0 0,0 0.49867780476892093,0.5506524872358339 l -16.55039395973687 14.730963772017963" fill="#f3ff19" stroke="none" /><path d="M 115.68641384162765 86.03803664274999 l 13.231537487408485 -11.776958291705272 a38.71356347224526,38.71356347224526 0 0,0 0.43876871887094204,0.5015884945117967 l -13.432298069857275 11.547454240990527" fill="#ffd313" stroke="none" /><path d="M 116.15771136456269 86.58626213691792 l 14.901414933931546 -12.37079120940121 a40.3672053270418,40.3672053270418 0 0,0 0.43923653751858444,0.5384520590849814 l -15.112149963526539 12.112454980708128" fill="#ffe815" stroke="none" /><path d="M 116.38621287248628 86.86637796730983 l 11.853362664337293 -9.500522558888639 a36.190856965433426,36.190856965433426 0 0,0 0.38542559429174755,0.4894513641686073 l -12.015142339223004 9.295078800766992" fill="#ffb210" stroke="none" /><path d="M 116.60985879189232 87.15038557335679 l 34.98108932519399 -27.061850174916376 a65.22691878558604,65.22691878558604 0 0,0 0.6793664992121625,0.8939666785172888 l -35.44173176463027 26.455698720518054" fill="#35ff66" stroke="none" /><path d="M 117.04232023915458 87.72973835380427 l 17.94163602014154 -12.917757983572994 a43.10816081001322,43.10816081001322 0 0,0 0.42838710211974207,0.6059231757405449 l -18.161335742065166 12.607008307500655" fill="#f4ff19" stroke="none" /><path d="M 117.2510076193507 88.02491185347247 l 12.471597821524899 -8.657377385496895 a36.18192792160395,36.18192792160395 0 0,0 0.35075025284647143,0.514682715744248 l -12.618772540040103 8.441416646482242" fill="#ffb210" stroke="none" /><path d="M 117.65298651832404 88.62581576622439 l 18.30395706035873 -11.79361801446635 a42.77439482370524,42.77439482370524 0 0,0 0.3934682222485567,0.622372235999258 l -18.50425287885324 11.476798130752886" fill="#f8ff18" stroke="none" /><line stroke="#e1ed5e" stroke-width="0.3" x1="172.23445277983987" x2="176.4835382374775" y1="55.19839476539836" y2="52.563006222186495" /><path d="M 173.08426987136738 54.67131705675599 a86.0,86.0 0 0,1 12.851231095245387,41.99856678651699" fill="none" id="id147" stroke="none" /><text fill="#e1ed5e" style="font-size:6.75px; font-family:Arial;" text-anchor="middle"><textPath startOffset="22.20632615414155" xlink:href="#id147">March</textPath></text><path d="M 117.84615892207809 88.93136811851018 l 10.026742646231517 -6.218835313870918 a32.79870674077485,32.79870674077485 0 0,0 0.29344565872546324,0.4823475066038764 l -10.132304103243206 6.04532003405996" fill="#ff840c" stroke="none" /><path d="M 118.03404312379186 89.2402003453031 l 34.18963512129598 -20.39884354535046 a60.81261066188754,60.81261066188754 0 0,0 0.5286073212633426,0.9035612626198057 l -34.53570211702964 19.807302870376756" fill="#2fff30" stroke="none" /><path d="M 118.3937258080291 89.86733742301442 l 18.192773013984116 -10.021962500382756 a41.77057347059601,41.77057347059601 0 0,0 0.34150805504292364,0.6327625599097757 l -18.362589168245503 9.707318957140522" fill="#fffa17" stroke="none" /><path d="M 118.56541770881063 90.18545643968196 l 18.69280302314976 -9.881885364102661 a42.14409003034993,42.14409003034993 0 0,0 0.33352143862356876,0.6442572616789609 l -18.860133894933444 9.558655380163357" fill="#ffff18" stroke="none" /><path d="M 118.73160827565052 90.50648371742162 l 18.157096071817033 -9.202343155243506 a41.355914553467024,41.355914553467024 0 0,0 0.3163530275318525,0.637748399380811 l -18.312809112302297 8.888435167363745" fill="#fff517" stroke="none" /><path d="M 118.89224826269711 90.83032412892265 l 21.20233267426946 -10.290914857268959 a44.56781363279066,44.56781363279066 0 0,0 0.32904163438818407,0.6930455981003196 l -21.376332502499398 9.9244268435281" fill="#e2ff1b" stroke="none" /><path d="M 119.04729006885535 91.15688171328212 l 19.710073348237284 -9.15082982556911 a42.730731186258296,42.730731186258296 0 0,0 0.30399391588995434,0.6698102977429679 l -19.864669581090585 8.81019751898408" fill="#f8ff18" stroke="none" /><path d="M 119.196687751892 91.48605970444005 l 32.171771480024425 -14.26853138017677 a56.19394646682867,56.19394646682867 0 0,0 0.38455200751839747,0.8875990529572247 l -32.4126141973855 13.712633182632942" fill="#5eff2a" stroke="none" /><path d="M 119.47837535516314 92.15188598940014 l 19.346842018653724 -7.795117361634115 a41.85819145507095,41.85819145507095 0 0,0 0.263520138126051,0.6706300080153046 l -19.478155706661475 7.460938348723026" fill="#fffb17" stroke="none" /><path d="M 119.61058180528143 92.48833698450437 l 19.77419166888452 -7.574332352570919 a42.175201693135875,42.175201693135875 0 0,0 0.2538453320490886,0.6801792859326862 l -19.901641589435233 7.2328299296089" fill="#ffff18" stroke="none" /><path d="M 119.7369772167798 92.82701384747503 l 18.540713914591453 -6.738229603580092 a40.72718455972084,40.72718455972084 0 0,0 0.2337874583792686,0.6609486269959142 l -18.653954453780532 6.418083350157564" fill="#ffed16" stroke="none" /><path d="M 119.85752413597 93.16781622104841 l 16.394978464838818 -5.640859613552255 a38.33824143453809,38.33824143453809 0 0,0 0.20933173880549494,0.6258752547818032 l -16.489647497416083 5.357811255848138" fill="#ffce13" stroke="none" /><path d="M 119.97218684219823 93.5106431181261 l 14.53451814626688 -4.7225512209767 a36.28249677830523,36.28249677830523 0 0,0 0.18788202665897238,0.5956373679026054 l -14.613655656694059 4.471663686647675" fill="#ffb310" stroke="none" /><path d="M 120.08093135843002 93.85539295169968 l 21.167405238700315 -6.477059509958698 a43.13619986436028,43.13619986436028 0 0,0 0.21114985557462973,0.711892344781695 l -21.275760991386647 6.111737778430474" fill="#f3ff19" stroke="none" /><path d="M 120.28053869075195 94.5502522615342 l 20.524481847264276 -5.515299678963486 a42.252597150641506,42.252597150641506 0 0,0 0.1826995623468879,0.7040159415644724 l -20.616377741481465 5.1611873118501626" fill="#feff18" stroke="none" /><path d="M 120.37134235888165 94.90015583598534 l 23.38820456212358 -5.855097638714209 a45.10996227700522,45.10996227700522 0 0,0 0.1820878658362763,0.7548717592107962 l -23.485525228220677 5.451640647844007" fill="#dbff1b" stroke="none" /><path d="M 120.45610955862082 95.25157060432595 l 19.77170454942756 -4.589560043958527 a41.29739791665314,41.29739791665314 0 0,0 0.15477795325004579,0.6938392155131937 l -19.847776889679647 4.248542658895369" fill="#fff417" stroke="none" /><path d="M 120.6074358757038 95.95851677861258 l 2.56870649950673 -0.5037688473734356 a23.61763941981933,23.61763941981933 0 0,0 0.07480524709367874,0.39961262116410323 l -2.576997470510268 0.4594781487467696" fill="#ff0000" stroke="none" /><path d="M 120.67395015179393 96.31383870115 l 61.8377929633381 -11.025666481447715 a83.81303972852123,83.81303972852123 0 0,0 0.24101492616842807,1.4224837373187742 l -62.01841975102675 9.959596955813103" fill="#4dd4ff" stroke="none" /><path d="M 120.78858239683441 97.02765380044208 l 10.688932842315529 -1.5283008867417667 a31.797638117104462,31.797638117104462 0 0,0 0.07280750767530642,0.5425005001440005 l -10.713656349048671 1.3440820445331019" fill="#ff760a" stroke="none" /><path d="M 120.83666639777658 97.38593545837742 l 14.661212534089529 -1.8393228115724651 a35.776138242954914,35.776138242954914 0 0,0 0.07139834879319254,0.6116974502232697 l -14.69070123588631 1.5866816230243426" fill="#ffac10" stroke="none" /><path d="M 120.87857604477298 97.74499172005257 l 13.230536111982062 -1.4289752527511228 a34.30748120732983,34.30748120732983 0 0,0 0.0583600875870831,0.5876781176273473 l -13.253173325251373 1.2010216044193407" fill="#ff990e" stroke="none" /><path d="M 120.91429891909075 98.10471618934814 l 15.010837455414023 -1.3603036527131012 a36.07234776471287,36.07234776471287 0 0,0 0.0507168898855163,0.6188745177746429 l -15.032028829119033 1.1017152177306897" fill="#ffb010" stroke="none" /><path d="M 120.96714384426684 98.82574320788733 l 17.652135317818942 -0.9886010200625684 a38.67979675379385,38.67979675379385 0 0,0 0.031508178891387094,0.6650878574226051 l -17.666537104943828 0.6846020560169636" fill="#ffd313" stroke="none" /><line stroke="#e1ed5e" stroke-width="0.3" x1="184.98032266829074" x2="189.97916517819016" y1="98.17113171792111" y2="98.06355123074" /><path d="M 185.9800911702706 98.14961562048488 a86.0,86.0 0 0,1 -9.607161424134198,41.387399972396054" fill="none" id="id148" stroke="none" /><text fill="#e1ed5e" style="font-size:6.75px; font-family:Arial;" text-anchor="middle"><textPath startOffset="21.466115282336823" xlink:href="#id148">April</textPath></text><path d="M 120.99513854157772 99.54816195383933 l 17.78556883637466 -0.38276464129870374 a38.78968711371985,38.78968711371985 0 0,0 0.008620533031703397,0.6676697834661441 l -17.789522376524083 0.0765585997720969" fill="#ffd413" stroke="none" /><path d="M 120.99980553446 99.90962569577887 l 17.70244087351362 -0.07618383771860138 a38.70260480430423,38.70260480430423 0 0,0 -0.0028671308189214184,0.6662202288373579 l -17.701129445405194 -0.22854586932244117" fill="#ffd313" stroke="none" /><path d="M 120.99824983174949 100.27111621757518 l 16.21520762830317 0.20936057979150016 a37.216559138157265,37.216559138157265 0 0,0 -0.013784193526490485,0.6404973092275953 l -16.20920137209167 -0.48844770480921035" fill="#ffbf11" stroke="none" /><path d="M 120.9904718944345 100.63252640178507 l 17.702732332434916 0.5334537327371005 a38.71076804994091,38.71076804994091 0 0,0 -0.02580324706623623,0.6658671526286623 l -17.690926952517476 -0.8380981323797689" fill="#ffd313" stroke="none" /><path d="M 120.9764740272857 100.99374915477107 l 35.36370373048833 1.6753364100198334 a56.403365569172834,56.403365569172834 0 0,0 -0.054291325732270045,0.9694080917993919 l -35.32962605386853 -2.2838162181546484" fill="#5cff2a" stroke="none" /><path d="M 120.95626037817324 101.35467743843564 l 13.327625633788475 0.8615389114373843 a34.355442872864096,34.355442872864096 0 0,0 -0.0432280490148487,0.5898123839627658 l -13.31082102610929 -1.0908244318969202" fill="#ff990e" stroke="none" /><path d="M 120.89721153311464 102.0752229133903 l 22.031776277006514 2.187892240085787 a43.140145400929384,43.140145400929384 0 0,0 -0.07974291225590763,0.7383203300723296 l -21.990851063249554 -2.566808892042908" fill="#f3ff19" stroke="none" /><path d="M 120.8583938346157 102.4346265915055 l 17.600852703081284 2.0544009459145784 a38.72034365135559,38.72034365135559 0 0,0 -0.08296938217878036,0.6613476102681921 l -17.562881811655654 -2.3570663104701652" fill="#ffd313" stroke="none" /><path d="M 120.81339534386255 102.79330883721812 l 21.87543402777228 2.935842142919595 a43.071560501957265,43.071560501957265 0 0,0 -0.10494272701326257,0.7339691883092934 l -21.821657249742415 -3.3119568032092976" fill="#f4ff19" stroke="none" /><path d="M 120.76222939487914 103.15116336523771 l 14.575441924705833 2.212170848888268 a35.742360976625946,35.742360976625946 0 0,0 -0.09755663934122595,0.6074852863028983 l -14.535203531003319 -2.462735364884371" fill="#ffac0f" stroke="none" /><path d="M 120.64145759157962 103.86396538481128 l 35.04061728684087 6.559407525271159 a56.64927330150553,56.64927330150553 0 0,0 -0.1876711304983648,0.9569310512040688 l -34.92251622336684 -7.161602303543173" fill="#59ff2a" stroke="none" /><path d="M 120.49622156327973 104.57218783832717 l 21.61384939525599 4.821502296865842 a43.14509810498681,43.14509810498681 0 0,0 -0.167935995332019,0.7234638725969949 l -21.527652833993418 -5.192834826811402" fill="#f3ff19" stroke="none" /><path d="M 120.41448212921028 104.9243191809786 l 17.228506336379706 4.155807807167131 a38.722645657823975,38.722645657823975 0 0,0 -0.1618766747294493,0.6466168484322942 l -17.154418347355197 -4.45175249499682" fill="#ffd313" stroke="none" /><path d="M 120.32669344350535 105.2749913415812 l 21.452363213581933 5.5671145197625025 a43.162956741454735,43.162956741454735 0 0,0 -0.19281904774726302,0.7175514071139734 l -21.353356089492895 -5.935556860052024" fill="#f3ff19" stroke="none" /><path d="M 120.13307415673323 105.97154293290107 l 16.996345286058347 5.041177754971159 a38.72820425875486,38.72820425875486 0 0,0 -0.19506700759477325,0.6374902673212431 l -16.907051505957444 -5.332994994844459" fill="#ffd313" stroke="none" /><path d="M 120.02730092923936 106.31721596034902 l 30.032838645477195 9.473264934507633 a52.49149322634035,52.49149322634035 0 0,0 -0.2792241213862095,0.8593634815725678 l -29.86532227307474 -9.988827316057996" fill="#86ff25" stroke="none" /><path d="M 119.79798401119884 107.00284435728193 l 20.5879770975593 7.282276779491265 a42.83795677399202,42.83795677399202 0 0,0 -0.25187849379499133,0.6930614374152342 l -20.45957434275908 -7.63558601391263" fill="#f7ff19" stroke="none" /><path d="M 119.67450827220406 107.3425965602758 l 20.521293488735317 7.658619819011003 a42.90383400190384,42.90383400190384 0 0,0 -0.2641767220865131,0.6896820595974087 l -20.3864224870553 -8.010725445441556" fill="#f6ff19" stroke="none" /><path d="M 119.54520255179757 107.68017299344265 l 20.650129615362157 8.114347618690122 a43.187169499695074,43.187169499695074 0 0,0 -0.2778320808110324,0.6895564397298725 l -20.507394920293734 -8.468603426262806" fill="#f3ff19" stroke="none" /><path d="M 119.26925614724726 108.34839909993367 l 20.32162885738914 8.804339242044357 a43.146895694577,43.146895694577 0 0,0 -0.3011220109623865,0.6789506408309267 l -20.16706576169548 -9.152838219367972" fill="#f3ff19" stroke="none" /><path d="M 119.12269723197855 108.67885076344098 l 28.42109910289703 12.898937563813986 a52.21123939371626,52.21123939371626 0 0,0 -0.3784702819988452,0.8151913171285979 l -28.194854204058352 -13.386248948221414" fill="#89ff24" stroke="none" /><path d="M 118.81262510543309 109.33194174019688 l 19.865488762912403 9.854211346745835 a43.17528184839447,43.17528184839447 0 0,0 -0.3359886662865417,0.6629375138363766 l -19.692921426839593 -10.194703072284906" fill="#f3ff19" stroke="none" /><path d="M 118.64920377521936 109.65438752849418 l 21.611365361382575 11.187850094485281 a45.33555223371438,45.33555223371438 0 0,0 -0.36472989705359005,0.6899315131749229 l -21.415582956104092 -11.558196622746337" fill="#d8ff1c" stroke="none" /><line stroke="#e1ed5e" stroke-width="0.3" x1="174.80103733775053" x2="179.2010983576182" y1="140.37084112569926" y2="142.7455964860345" /><path d="M 175.68104954172406 140.8457921977663 a86.0,86.0 0 0,1 -30.038265399797805,32.042727171017184" fill="none" id="id149" stroke="none" /><text fill="#e1ed5e" style="font-size:6.75px; font-family:Arial;" text-anchor="middle"><textPath startOffset="22.206326154141568" xlink:href="#id149">May</textPath></text><path d="M 118.48025628344425 109.97397251340804 l 23.338353862229294 12.595934621242277 a47.520488871460174,47.520488871460174 0 0,0 -0.3946997282656984,0.7164946550882528 l -23.118077724512087 -12.995799794728335" fill="#beff1e" stroke="none" /><path d="M 118.30583269289576 110.29060199501025 l 19.304825170823975 10.85218442389139 a43.14601954406773,43.14601954406773 0 0,0 -0.3695107375700476,0.6442731171061384 l -19.115162437101546 -11.182877386855845" fill="#f3ff19" stroke="none" /><path d="M 117.94076556474637 110.91462005526583 l 30.308381687852144 18.438704269282344 a56.47652485329675,56.47652485329675 0 0,0 -0.5124178577725784,0.826180744127289 l -29.986499190411603 -18.957681344774905" fill="#5bff2a" stroke="none" /><path d="M 117.55443506779139 111.5257021239791 l 22.252102524223627 14.610046084423095 a47.619720384285145,47.619720384285145 0 0,0 -0.45578171040243326,0.6813318157770931 l -21.997317708410474 -14.990914814405995" fill="#bdff1f" stroke="none" /><path d="M 117.35343817320211 111.8261652097733 l 18.392554159126103 12.534310604305569 a43.25747044975223,43.25747044975223 0 0,0 -0.42462170080822026,0.6116992297971773 l -18.174071551155745 -12.849051096289767" fill="#f2ff19" stroke="none" /><path d="M 117.14729908036423 112.12312394758627 l 21.732242620393013 15.364674617925028 a47.615100890778834,47.615100890778834 0 0,0 -0.47891769029556785,0.6651747844956389 l -21.464545137721842 -15.736483007871799" fill="#bdff1f" stroke="none" /><path d="M 116.71984013943494 112.70617746262583 l 17.65727934262536 13.418580737826199 a43.17741695511595,43.17741695511595 0 0,0 -0.4547881086002207,0.5878749364197717 l -17.42368441680707 -13.720533668359224" fill="#f3ff19" stroke="none" /><path d="M 116.498646956653 112.99209946851258 l 27.902053089981692 21.971877455962037 a56.51461622453451,56.51461622453451 0 0,0 -0.6084258302600661,0.759104772997534 l -27.519709347666772 -22.44891006253782" fill="#5aff2a" stroke="none" /><path d="M 116.0416608686014 113.55231037782055 l 20.29832014912079 17.148419796586655 a47.57235598128567,47.57235598128567 0 0,0 -0.5338467630645397,0.6209843914909744 l -20.00013087648547 -17.49528128723916" fill="#beff1f" stroke="none" /><path d="M 115.80600337817218 113.82643327865902 l 20.19562137865937 17.666288234425547 a47.83208644239143,47.83208644239143 0 0,0 -0.5474294609183085,0.6150428026015899 l -19.888533068092723 -18.011305206768004" fill="#bbff1f" stroke="none" /><path d="M 115.56566222782051 114.09645910891815 l 19.7232518189975 17.861624432815606 a47.60910163260954,47.60910163260954 0 0,0 -0.555334307476402,0.6027057109078556 l -19.412871103525376 -18.198481398524798" fill="#bdff1f" stroke="none" /><path d="M 115.32070863581623 114.36230785411682 l 17.287069063698617 16.20566082744977 a44.695278003590204,44.695278003590204 0 0,0 -0.5310085260091253,0.5567603165764574 l -17.005553986310527 -16.500828260608735" fill="#e0ff1b" stroke="none" /><path d="M 114.29624159901734 115.38237550388516 l 18.07588260586879 19.449168642108837 a47.551980959061034,47.551980959061034 0 0,0 -0.6043640543674522,0.5520722343312455 l -17.738419002034476 -19.757433643026665" fill="#beff1f" stroke="none" /><path d="M 114.0293411484842 115.62618273729858 l 20.147017055399857 22.440182100295136 a51.157321978666786,51.157321978666786 0 0,0 -0.6603134917684537,0.5826498831524266 l -19.757761210724816 -22.783655125219852" fill="#95ff23" stroke="none" /><path d="M 113.75828350139079 115.86535959552629 l 14.555089319533508 16.784195933748553 a43.216207107471334,43.216207107471334 0 0,0 -0.5662033593648452,0.4825307863702743 l -14.264020483591615 -17.03225111034177" fill="#f2ff19" stroke="none" /><path d="M 113.20401910651253 116.32954008644616 l 13.979776602459875 17.28892699926767 a43.23378399284951,43.23378399284951 0 0,0 -0.5827142200310751,0.4629434185342812 l -13.680104889711448 -17.527004331807078" fill="#f2ff19" stroke="none" /><path d="M 112.92097659922987 116.55440617244103 l 21.79951982813181 27.92963076959563 a56.42997797999676,56.42997797999676 0 0,0 -0.7708637873431342,0.5910654808165249 l -21.315527312295185 -28.300735592239526" fill="#5bff2a" stroke="none" /><path d="M 112.34349029814194 116.9893568818739 l 15.619863131925118 21.498897215015965 a47.57409839904065,47.57409839904065 0 0,0 -0.6666550981459902,0.4756407117364917 l -15.247480705930244 -21.764582188596677" fill="#beff1f" stroke="none" /><path d="M 112.04921762599082 117.19931262002967 l 12.700163623190557 18.128486949194844 a43.134502368992635,43.134502368992635 0 0,0 -0.6117768840867803,0.420785719354348 l -12.386229854480893 -18.34441345791429" fill="#f3ff19" stroke="none" /><path d="M 111.7513745106137 117.40417183066458 l 13.219436275723108 19.578419549083897 a44.623463071443496,44.623463071443496 0 0,0 -0.6402942120604189,0.4243520895774162 l -12.880467364922724 -19.803069659752634" fill="#e1ff1b" stroke="none" /><path d="M 111.1453310114006 117.79835938074945 l 12.512037835159537 19.98090014086702 a44.57514498847809,44.57514498847809 0 0,0 -0.6538129439278266,0.4016253106960608 l -12.166245691299402 -20.19331391839146" fill="#e2ff1b" stroke="none" /><line stroke="#e1ed5e" stroke-width="0.3" x1="143.8653032363475" x2="146.44561519142675" y1="172.8068346515853" y2="177.08958963109032" /><path d="M 144.38136562736335 173.6633856474863 a86.0,86.0 0 0,1 -40.68145358897372,12.25698825130547" fill="none" id="id150" stroke="none" /><text fill="#e1ed5e" style="font-size:6.75px; font-family:Arial;" text-anchor="middle"><textPath startOffset="21.466115282336833" xlink:href="#id150">June</textPath></text><path d="M 110.8373102113329 117.98757091392108 l 19.083257565050946 31.674044760757667 a57.9785861114315,57.9785861114315 0 0,0 -0.859276132867862,0.5076754852647528 l -18.535213561154702 -31.997838818316172" fill="#4bff2c" stroke="none" /><path d="M 110.21172684928248 118.3499491758327 l 12.942102963070283 23.256294954405295 a47.61490717836547,47.61490717836547 0 0,0 -0.7196135882573775,0.3923907048955692 l -12.539866562944258 -23.475626311060637" fill="#bdff1f" stroke="none" /><path d="M 109.89434966115114 118.52300852407294 l 11.16629608505686 20.904193266782805 a44.69960895023721,44.69960895023721 0 0,0 -0.681794828584241,0.3566828307016756 l -10.804810353946124 -21.093305516429197" fill="#e0ff1b" stroke="none" /><path d="M 109.57404056367764 118.69057910512821 l 12.106701894599645 23.634876827417553 a47.55521857209806,47.55521857209806 0 0,0 -0.7317753833745573,0.3669273686317669 l -11.698072603542327 -23.839772036958625" fill="#beff1f" stroke="none" /><path d="M 108.92500713936063 119.00905698771935 l 8.167724823546196 17.396148171812243 a40.218160682251025,40.218160682251025 0 0,0 -0.6291882350232333,0.28882945896501044 l -7.867068592755543 -17.534164701111326" fill="#ffe615" stroke="none" /><path d="M 108.59647513512805 119.15986991738527 l 15.28376771906965 34.06454351834112 a58.33613103688479,58.33613103688479 0 0,0 -0.9197089003223183,0.4031733541481671 l -14.695138144089578 -34.32258142578374" fill="#48ff2c" stroke="none" /><path d="M 107.93186726928326 119.44442032107085 l 8.917986330813505 21.861822537730305 a44.61079763302776,44.61079763302776 0 0,0 -0.7135155574235915,0.28392256558173484 l -8.540349697348047 -22.01209194771811" fill="#e1ff1b" stroke="none" /><path d="M 107.59598834532513 119.57807347666477 l 8.015805880998013 20.660120760907184 a43.16063477829799,43.16063477829799 0 0,0 -0.6949474242586812,0.2627696515673335 l -7.658988235979056 -20.79503866258115" fill="#f3ff19" stroke="none" /><path d="M 107.2578585660854 119.70592522655815 l 8.193817926469249 22.247163114136487 a44.70811925984691,44.70811925984691 0 0,0 -0.7244427840551868,0.2597594079225066 l -7.809655581784328 -22.384910063098957" fill="#e0ff1b" stroke="none" /><path d="M 106.57524785965236 119.94407469862006 l 6.017870844303433 18.253435947550877 a40.219851544433425,40.219851544433425 0 0,0 -0.6593731614456955,0.2111104639767667 l -5.702776337766797 -18.35431925818735" fill="#ffe615" stroke="none" /><path d="M 106.2309692047433 120.05430185196036 l 10.540847111532491 33.92559372450719 a56.52541860962407,56.52541860962407 0 0,0 -0.931660093382473,0.28070154361185695 l -9.955312043709773 -34.102010637224765" fill="#5aff2a" stroke="none" /><path d="M 105.53697534728816 120.25689768951611 l 7.010572054545602 25.648017545078 a47.58888723742693,47.58888723742693 0 0,0 -0.7920367097831746,0.20918409376337016 l -6.5680449019509295 -25.764892988144954" fill="#beff1f" stroke="none" /><path d="M 105.18746579009965 120.34920634021253 l 5.471463793834327 21.46326361057272 a43.14968624753351,43.14968624753351 0 0,0 -0.7213121724551274,0.17728098255150468 l -5.1011983366359885 -21.554265851438256" fill="#f3ff19" stroke="none" /><path d="M 104.83641907484287 120.43548508189849 l 6.1186466263689745 25.853324519574265 a47.56750318063021,47.56750318063021 0 0,0 -0.7984088768982427,0.18171526098590673 l -5.67271760007787 -25.954816514137857" fill="#beff1f" stroke="none" /><path d="M 104.13013068566511 120.58985236759428 l 3.767907460527542 18.784068653393163 a40.15824526950438,40.15824526950438 0 0,0 -0.6789275053641289,0.13011807226411687 l -3.444012340591709 -18.84614392400575" fill="#ffe615" stroke="none" /><path d="M 103.7750983002368 120.6578951692458 l 6.666943166216264 36.48249716262378 a58.08666512915943,58.08666512915943 0 0,0 -0.9851250252147019,0.17127661303675495 l -6.037969169529512 -36.59185235418154" fill="#4aff2c" stroke="none" /><path d="M 103.06178313531738 120.77559828337769 l 3.864549613230484 26.222735824931853 a47.50597324863368,47.50597324863368 0 0,0 -0.8100252746751908,0.1122621221028688 l -3.4125957473684627 -26.285372512527324" fill="#bfff1e" stroke="none" /><path d="M 102.70371172650421 120.8252237178851 l 2.8546907698787654 21.988133329943743 a43.17266936403946,43.17266936403946 0 0,0 -0.7377851004011222,0.0893355009871226 l -2.475778246426263 -22.034014359656215" fill="#f3ff19" stroke="none" /><path d="M 102.34483914955558 120.86867818915974 l 2.962641755684312 26.36701856537193 a47.53294017253256,47.53294017253256 0 0,0 -0.8138712320732748,0.08436108092309241 l -2.5083379270054347 -26.41410901475078" fill="#beff1e" stroke="none" /><path d="M 101.98527174616119 120.90594882070398 l 1.4088559569706804 14.835989374817581 a35.90273316667758,35.90273316667758 0 0,0 -0.6157415885041972,0.053128775161625535 l -1.1532700507249414 -14.85804240225787" fill="#ffae10" stroke="none" /><path d="M 101.26447882468166 120.96189622390904 l 1.312103863085562 21.751400241845865 a42.79093914975893,42.79093914975893 0 0,0 -0.7356209331836061,0.03802319968387437 l -0.9374948614884763 -21.77076324829194" fill="#f7ff18" stroke="none" /><line stroke="#e1ed5e" stroke-width="0.3" x1="102.19456741930631" x2="102.32365962044197" y1="184.97166512339345" y2="189.96999836594603" /><path d="M 102.22038585953345 185.97133177190398 a86.0,86.0 0 0,1 -42.740103519485714,-10.115201625700543" fill="none" id="id151" stroke="none" /><text fill="#e1ed5e" style="font-size:6.75px; font-family:Arial;" text-anchor="middle"><textPath startOffset="22.20632615414155" xlink:href="#id151">July</textPath></text><path d="M 100.54218724476979 120.99299961872073 l 0.6749015082985959 26.13157584037614 a47.14028974489827,47.14028974489827 0 0,0 -0.8113524259021674,0.013968167809744112 l -0.22498939250376046 -26.139321485465043" fill="#c3ff1e" stroke="none" /><path d="M 100.18074693466247 120.99922214144158 l 0.15253801939574943 17.721903612300093 a38.72256007158718,38.72256007158718 0 0,0 -0.6665699081163975,0.0 l 0.15253801939573722 -17.721903612300093" fill="#ffd313" stroke="none" /><path d="M 99.81925306533755 120.99922214144158 l -0.22532318426388928 26.178101492071495 a47.17907118800365,47.17907118800365 0 0,0 -0.8120199105127587,-0.013979659162642693 l 0.6759027846693159 -26.170344355629695" fill="#c2ff1e" stroke="none" /><path d="M 99.09653310690486 120.98055641714683 l -0.8255817362054617 19.17188590506632 a40.189653315264366,40.189653315264366 0 0,0 -0.6909021130064675,-0.03571174747728316 l 1.155471917625418 -19.154834350826835" fill="#ffe615" stroke="none" /><path d="M 98.73552117531835 120.96189622390904 l -2.241502552071933 37.158505911705234 a58.226051298535246,58.226051298535246 0 0,0 -0.9999277329070546,-0.0689608708606798 l 2.8807930457579176 -37.11441669632827" fill="#49ff2c" stroke="none" /><path d="M 98.01472825383883 120.90594882070398 l -2.5197851364698285 26.534654111746004 a47.654027574908326,47.654027574908326 0 0,0 -0.8159445217331067,-0.08457598587349648 l 2.976162254808529 -26.487348757416747" fill="#bdff1f" stroke="none" /><path d="M 97.65516085044442 120.86867818915974 l -1.9835229053477714 17.653023748078883 a38.764110182226304,38.764110182226304 0 0,0 -0.6624464816293063,-0.08021304344766547 l 2.287096810028467 -17.61626517590587" fill="#ffd413" stroke="none" /><path d="M 97.2962882734958 120.8252237178851 l -3.3674390824636085 25.937555236085398 a47.155236905810746,47.155236905810746 0 0,0 -0.8040448624658282,-0.11143329146428625 l 3.813412536116268 -25.87574737912851" fill="#c3ff1e" stroke="none" /><path d="M 96.58105272829116 120.7198165907248 l -2.9535342225842776 17.899277913048387 a39.141320630332245,39.141320630332245 0 0,0 -0.6638200762111952,-0.11541362914263043 l 3.2612032702675227 -17.845785705384753" fill="#ffd814" stroke="none" /><path d="M 96.22490169976321 120.6578951692458 l -6.646151146787892 36.36872016304717 a57.971003926915266,57.971003926915266 0 0,0 -0.9800754195164934,-0.18783378674948908 l 7.27119418087608 -36.248929177949215" fill="#4bff2c" stroke="none" /><path d="M 95.51606077576429 120.51570834832081 l -5.76735440394618 26.38781548448202 a48.01072347908857,48.01072347908857 0 0,0 -0.8058482209261771,-0.1834084314662349 l 6.220722774265219 -26.284630319438097" fill="#b9ff1f" stroke="none" /><path d="M 95.16358092515715 120.4354850818985 l -4.108331476248039 17.359071928043953 a38.83860324469755,38.83860324469755 0 0,0 -0.6492459092482267,-0.15956884841872088 l 4.406530670239476 -17.285781821311204" fill="#ffd513" stroke="none" /><path d="M 94.81253420990036 120.34920634021253 l -6.558942164082579 25.729185091719486 a47.552037356778115,47.552037356778115 0 0,0 -0.7914234057132876,-0.20902211458427944 l 7.000856012607356 -25.612471627831624" fill="#beff1f" stroke="none" /><path d="M 94.11515582081647 120.15858648285463 l -4.968134367261622 17.018388805458663 a38.72873138791738,38.72873138791738 0 0,0 -0.6383325305495122,-0.19232435513297447 l 5.26034187225138 -16.930349081219966" fill="#ffd313" stroke="none" /><path d="M 93.76903079525671 120.05430185196036 l -11.622006423798533 37.40529238546933 a60.16920897538351,60.16920897538351 0 0,0 -0.9864273491898644,-0.31582288686160753 l 12.264155118079339 -37.19969665194802" fill="#35ff2f" stroke="none" /><path d="M 93.08242187328487 119.8279376855182 l -9.756841761491916 27.966153314149636 a50.6192790653202,50.6192790653202 0 0,0 -0.8202262152835066,-0.29410393854972877 l 10.23678753740515 -27.79406183455995" fill="#9bff22" stroke="none" /><path d="M 92.7421414339146 119.70592522655815 l -6.116352264780573 16.606603627172056 a38.69714804867978,38.69714804867978 0 0,0 -0.6230789584241305,-0.23559514732887588 l 6.401301443964987 -16.498860229736547" fill="#ffd313" stroke="none" /><path d="M 92.06813273071674 119.44442032107085 l -6.412647721783251 15.720159382417178 a37.977793196181025,37.977793196181025 0 0,0 -0.6031751398204507,-0.25212725736390157 l 6.682294321101163 -15.607447082033302" fill="#ffc912" stroke="none" /><path d="M 91.7346041902142 119.30500536409082 l -5.870705378538215 13.711865884207935 a35.91577848012309,35.91577848012309 0 0,0 -0.5662367480162426,-0.24822155016619832 l 6.105862801212201 -13.608779780747286" fill="#ffae10" stroke="none" /><path d="M 91.07499286063937 119.00905698771935 l -7.180715807350017 15.29395258324825 a37.89578838422677,37.89578838422677 0 0,0 -0.5880836843125276,-0.28231590625665887 l 7.442912159662787 -15.168082400492029" fill="#ffc812" stroke="none" /><path d="M 90.7491055286396 118.85261126421891 l -10.456755448654327 21.31006316943674 a44.73736562465065,44.73736562465065 0 0,0 -0.688414518198736,-0.3451853306758149 l 10.822023874535825 -21.126909997851627" fill="#e0ff1b" stroke="none" /><path d="M 90.42595943632237 118.69057910512821 l -8.594875367893104 16.779038786589066 a39.85226843622475,39.85226843622475 0 0,0 -0.6078592445275702,-0.31800322753472876 l 8.882425514947169 -16.62860614010962" fill="#ffe215" stroke="none" /><line stroke="#e1ed5e" stroke-width="0.3" x1="58.666819895761336" x2="56.23545636021788" y1="174.27360380694188" y2="178.64263932499728" /><path d="M 58.180547188652646 175.14741091055294 a86.0,86.0 0 0,1 -31.652253787137756,-30.449443065178592" fill="none" id="id152" stroke="none" /><text fill="#e1ed5e" style="font-size:6.75px; font-family:Arial;" text-anchor="middle"><textPath startOffset="22.20632615414155" xlink:href="#id152">August</textPath></text><path d="M 89.7882731507175 118.34994917583269 l -11.419162423077264 20.519648947402985 a44.483042038229975,44.483042038229975 0 0,0 -0.6658713864673032,-0.3780991514118239 l 11.770682576465774 -20.320046630196526" fill="#e3ff1b" stroke="none" /><path d="M 88.8546689885994 117.79835938074946 l -8.86810393999619 14.161777769403143 a37.70925543166233,37.70925543166233 0 0,0 -0.5471760172042098,-0.3492336229169482 l 9.110561759247323 -14.00702971766239" fill="#ffc612" stroke="none" /><path d="M 88.54995079064634 117.60387380957326 l -13.55075680450366 20.83360590414126 a45.8528095985921,45.8528095985921 0 0,0 -0.6579338888530922,-0.43604270549342056 l 13.907365392096715 -20.59726517755652" fill="#d2ff1c" stroke="none" /><path d="M 88.24862548938628 117.40417183066458 l -11.74229133101054 17.390719343175597 a41.983768130996566,41.983768130996566 0 0,0 -0.5954560140669635,-0.4095600761330752 l 12.039904229700394 -17.186018477677422" fill="#fffd17" stroke="none" /><path d="M 87.95078237400918 117.19931262002967 l -17.05792517523808 24.34884959710145 a50.72943470680679,50.72943470680679 0 0,0 -0.7108707765660691,-0.5071874242901477 l 17.474523279653035 -24.05161791096708" fill="#99ff23" stroke="none" /><path d="M 87.65650970185807 116.9893568818739 l -15.6883197428239 21.593119656593792 a47.69056374183684,47.69056374183684 0 0,0 -0.6599806948852027,-0.48823794016604405 l 16.057685408127668 -21.31987176768798" fill="#bcff1f" stroke="none" /><path d="M 87.36589467227662 116.77436683061367 l -24.753342625709088 32.8651407216289 a62.14420306432264,62.14420306432264 0 0,0 -0.8489231690391045,-0.6509180860781989 l 25.31539452324168 -32.43418329372333" fill="#31ff41" stroke="none" /><path d="M 86.79598089348748 116.32954008644616 l -20.052264695868924 24.79883265343942 a52.89161990878614,52.89161990878614 0 0,0 -0.703030050771555,-0.5785458697428045 l 20.47616487518517 -24.449991664839434" fill="#81ff25" stroke="none" /><path d="M 86.51685102203217 116.09983520530335 l -12.423644312407758 14.834711565221882 a40.34982183960745,40.34982183960745 0 0,0 -0.5286490000971938,-0.45052614667796315 l 12.677158789082007 -14.618661028320968" fill="#ffe815" stroke="none" /><path d="M 86.24171649860922 115.8653595955263 l -13.756408975658534 15.863197986862675 a41.99713881165676,41.99713881165676 0 0,0 -0.5420783633782432,-0.47832112931072074 l 14.027429691943365 -15.624053715779667" fill="#fffd17" stroke="none" /><path d="M 85.44109423537348 115.13401014063109 l -12.280867103065503 12.765984633619471 a38.71412036960811,38.71412036960811 0 0,0 -0.4762759448198805,-0.4661362548046981 l 12.498793000261179 -12.552698275892205" fill="#ffd313" stroke="none" /><path d="M 85.18274418774928 114.88116024355367 l -25.038191680081283 25.146177357081378 a56.485789807784805,56.485789807784805 0 0,0 -0.6830998034680742,-0.6919764944315584 l 25.46733210860489 -24.711460368669155" fill="#5bff2a" stroke="none" /><path d="M 84.67929136418377 114.36230785411682 l -16.1397219025276 15.130087005377202 a43.12261638869176,43.12261638869176 0 0,0 -0.5030018943348711,-0.5459092122198428 l 16.3977702048582 -14.850026538356015" fill="#f3ff19" stroke="none" /><path d="M 84.43433777217949 114.09645910891817 l -16.446501077963735 14.89415782875793 a43.18836035256804,43.18836035256804 0 0,0 -0.4942828670923,-0.5553320410349014 l 16.700442794704372 -14.608851617982163" fill="#f3ff19" stroke="none" /><path d="M 84.19399662182784 113.82643327865904 l -16.693189589119484 14.602506815904345 a43.178723677588394,43.178723677588394 0 0,0 -0.4845423648474893,-0.5636322375715832 l 16.942074463537754 -14.312997479171232" fill="#f3ff19" stroke="none" /><path d="M 83.72743513129214 113.27417163493432 l -13.719913774312511 11.191873667496735 a38.705763755449155,38.705763755449155 0 0,0 -0.4166990421592015,-0.5198961255003629 l 13.910530728526574 -10.954049708418111" fill="#ffd313" stroke="none" /><path d="M 83.50135304334701 112.99209946851258 l -30.90762148277855 24.33865599369471 a60.34019879591517,60.34019879591517 0 0,0 -0.6355638391125215,-0.8215519369206267 l 31.32199213910914 -23.80302606266083" fill="#33ff2f" stroke="none" /><path d="M 83.06392112726016 112.41649034213515 l -17.581453913818482 12.889639589066569 a42.80023693586277,42.80023693586277 0 0,0 -0.4304892824745775,-0.597911961700528 l 17.800722988668667 -12.585094021914903" fill="#f7ff18" stroke="none" /><path d="M 82.6465618267979 111.8261652097733 l -21.887877433884125 14.916332546947894 a47.487282895983704,47.487282895983704 0 0,0 -0.4545141140273744,-0.6794369311861146 l 22.141394653322227 -14.537358701555958" fill="#bfff1e" stroke="none" /><path d="M 82.24976979558568 111.22182372390057 l -12.573624010628714 7.949135903757972 a35.87564393151009,35.87564393151009 0 0,0 -0.32550374969687557,-0.5248156871615903 l 12.708592399993545 -7.731523885231117" fill="#ffae10" stroke="none" /><path d="M 82.05923443525364 110.91462005526583 l -37.827698935575 23.013229839984355 a65.27802563832819,65.27802563832819 0 0,0 -0.5757494640418817,-0.9649892187814932 l 38.21822927531512 -22.358678527316748" fill="#35ff66" stroke="none" /><line stroke="#e1ed5e" stroke-width="0.3" x1="26.63291911575756" x2="22.317208475507996" y1="142.92168965132927" y2="145.44649492493687" /><path d="M 25.769776987707644 143.4266507060508 a86.0,86.0 0 0,1 -11.730757126820373,-40.83630448921669" fill="none" id="id153" stroke="none" /><text fill="#e1ed5e" style="font-size:6.75px; font-family:Arial;" text-anchor="middle"><textPath startOffset="21.46611528233685" xlink:href="#id153">September</textPath></text><path d="M 81.69416730710424 110.29060199501025 l -19.299410272630503 10.849140445336182 a43.139807706345266,43.139807706345266 0 0,0 -0.35831429312913704,-0.6504445214513201 l 19.483300975211158 -10.51532540548704" fill="#f3ff19" stroke="none" /><path d="M 81.51974371655577 109.97397251340807 l -9.20623929473448 4.968696119209102 a31.461490480660814,31.461490480660814 0 0,0 -0.25311142401020326,-0.4787914266966653 l 9.29040322696957 -4.80948967742631" fill="#ff720a" stroke="none" /><path d="M 81.35079622478065 109.6543875284942 l -23.5766474919505 12.205244484080586 a47.548564930629965,47.548564930629965 0 0,0 -0.370021415748458,-0.730087357212526 l 23.783247577485223 -11.797602915165376" fill="#beff1f" stroke="none" /><path d="M 81.02952815118164 109.00673069616217 l -13.534292425381652 6.425761468137278 a35.982238881460304,35.982238881460304 0 0,0 -0.2608290524138657,-0.5618025744576369 l 13.642896094635343 -6.191838826400814" fill="#ffaf10" stroke="none" /><path d="M 80.87730276802145 108.67885076344099 l -40.37219590717194 18.32295198842595 a65.33559260839121,65.33559260839121 0 0,0 -0.4559768371964202,-1.0281073935084952 l 40.681613829099646 -17.625296258424758" fill="#35ff67" stroke="none" /><path d="M 80.58989483394504 108.01547362559985 l -20.497074551379427 8.464341592329859 a43.1760037823872,43.1760037823872 0 0,0 -0.27776024941969746,-0.6893781601074216 l 20.639737415056512 -8.110264064379633" fill="#f3ff19" stroke="none" /><path d="M 80.45479744820244 107.68017299344265 l -9.654046156717527 3.793500956246254 a31.37262053200992,31.37262053200992 0 0,0 -0.19317425233004812,-0.5043170161091785 l 9.717914688641086 -3.626760373303918" fill="#ff700a" stroke="none" /><path d="M 80.32549172779594 107.34259656027581 l -24.983832760571403 9.324055369121911 a47.66701910477907,47.66701910477907 0 0,0 -0.28027240045908014,-0.771189273857152 l 25.14062942203571 -8.892618298258643" fill="#bdff1f" stroke="none" /><path d="M 80.0844068197444 106.66101706037122 l -14.194569011074083 4.747549595515873 a35.967465268776394,35.967465268776394 0 0,0 -0.1913259324679164,-0.5888406725912131 l 14.27418719455825 -4.502510022946857" fill="#ffaf10" stroke="none" /><path d="M 79.97269907076064 106.31721596034903 l -42.30667974774437 13.344805347266352 a65.36145828345403,65.36145828345403 0 0,0 -0.3292139236355644,-1.0758901506311709 l 42.53012044388606 -12.614588224083134" fill="#35ff67" stroke="none" /><path d="M 79.76711848015287 105.62410040840567 l -17.075189624827704 4.746362046770064 a38.72258596827345,38.72258596827345 0 0,0 -0.17298287041451083,-0.6437336120197102 l 17.15436057158399 -4.451737501574815" fill="#ffd313" stroke="none" /><path d="M 79.67330655649465 105.27499134158121 l -14.325224508783627 3.7175468533562586 a35.79973688394338,35.79973688394338 0 0,0 -0.14965770712495743,-0.5978081467665385 l 14.387093530203643 -3.4704108671923284" fill="#ffad10" stroke="none" /><path d="M 79.58551787078972 104.9243191809786 l -25.990871145441517 6.269438749499742 a47.73632819092168,47.73632819092168 0 0,0 -0.1858066881371059,-0.8004503494818266 l 26.09493839950918 -5.8211197426693415" fill="#bcff1f" stroke="none" /><path d="M 79.4281124754447 104.21870165774334 l -14.591657219444903 2.9923286537230624 a35.89531776034572,35.89531776034572 0 0,0 -0.1189161744022382,-0.6063510113341184 l 14.641003326822808 -2.740713915320989" fill="#ffae10" stroke="none" /><path d="M 79.35854240842038 103.8639653848113 l -43.6439994924551 8.169912543499933 a65.40209637692638,65.40209637692638 0 0,0 -0.19761884255196357,-1.1083514172993962 l 43.778164777346255 -7.417442375467322" fill="#35ff68" stroke="none" /><path d="M 79.23777060512086 103.15116336523772 l -19.136262036374468 2.904384049021517 a40.35541194159911,40.35541194159911 0 0,0 -0.09832490231466624,-0.6876841377808312 l 19.183420989705734 -2.574554439260285" fill="#ffe815" stroke="none" /><path d="M 79.18660465613746 102.79330883721812 l -13.189583481124599 1.7701379082253228 a34.307836060745984,34.307836060745984 0 0,0 -0.07351432589238707,-0.5859815087527521 l 13.218099316263833 -1.5428386451851621" fill="#ff990e" stroke="none" /><path d="M 79.1416061653843 102.43462659150553 l -26.408460712721723 3.0824396740088704 a47.587745890903776,47.587745890903776 0 0,0 -0.08796413201131714,-0.8144386145906268 l 26.457607146234093 -2.6274047375334617" fill="#beff1f" stroke="none" /><path d="M 79.07016306316243 101.71520430193888 l -14.876377194034946 1.2191220713986881 a35.926247252547256,35.926247252547256 0 0,0 -0.04520452793753647,-0.6167798685429873 l 14.895158280636817 -0.9628690663589402" fill="#ffae10" stroke="none" /><path d="M 79.04373962182676 101.35467743843564 l -44.42069664848308 2.8714911183280147 a65.5134109227679,65.5134109227679 0 0,0 -0.06306024288351347,-1.125982998160277 l 44.463543242254126 -2.1064364038323005" fill="#35ff69" stroke="none" /><line stroke="#e1ed5e" stroke-width="0.3" x1="15.007084014347285" x2="10.007500721073583" y1="101.09737516637583" y2="101.16192664675087" /><path d="M 14.007167355692545 101.11028546245083 a86.0,86.0 0 0,1 10.666146001902534,-42.60595125391555" fill="none" id="id154" stroke="none" /><text fill="#e1ed5e" style="font-size:6.75px; font-family:Arial;" text-anchor="middle"><textPath startOffset="22.20632615414155" xlink:href="#id154">October</textPath></text><path d="M 79.00175016825051 100.2711162175752 l -17.08937450943078 0.22064727369409362 a38.09079887960101,38.09079887960101 0 0,0 -0.002821807574380518,-0.6556887029821822 l 17.090640614294664 0.07355090749176393" fill="#ffcb12" stroke="none" /><path d="M 79.00486145842228 99.54816195383935 l -21.12591216284882 -0.45465243566360275 a42.130803902115474,42.130803902115474 0 0,0 0.021844431700739738,-0.7249103410865645 l 21.114956036692437 0.8182329241751617" fill="#fffe18" stroke="none" /><path d="M 79.01574976396665 99.18683210126434 l -22.16703619403216 -0.8590024442305582 a43.18367369996967,43.18367369996967 0 0,0 0.03517699239183025,-0.7425307118226244 l 22.14896559340683 1.2404442626761918" fill="#f3ff19" stroke="none" /><path d="M 79.03285615573316 98.82574320788736 l -22.074587401047722 -1.2362787407428537 a43.1091789547081,43.1091789547081 0 0,0 0.04787050359565629,-0.7405355026383701 l 22.05003630644765 1.6160733076342355" fill="#f3ff19" stroke="none" /><path d="M 79.08570108090925 98.10471618934814 l -21.668384428369635 -1.9636201227181802 a42.75717554559772,42.75717554559772 0 0,0 0.07273377181896537,-0.7324191562722691 l 21.63137353086844 2.33631480969488" fill="#f8ff18" stroke="none" /><path d="M 79.12142395522702 97.74499172005258 l -17.658173204144624 -1.907185944994594 a38.76086819770802,38.76086819770802 0 0,0 0.07735496683049334,-0.6627301159215141 l 17.622727884310542 2.21085979924097" fill="#ffd413" stroke="none" /><path d="M 79.21141760316559 97.0276538004421 l -21.953240842726203 -3.1388687665779904 a43.17650289456254,43.17650289456254 0 0,0 0.11152718209194888,-0.7348247837296218 l 21.89595776719495 3.5162926626997044" fill="#f3ff19" stroke="none" /><path d="M 79.26566170972629 96.67025291283419 l -14.915834359747494 -2.3953480123990634 a36.10694564589176,36.10694564589176 0 0,0 0.10383005874980439,-0.6128108842239886 l 14.872392439477466 2.6517446849388797" fill="#ffb110" stroke="none" /><path d="M 79.32604984820605 96.31383870115002 l -34.96243877458245 -6.2337960466202835 a56.51383305442099,56.51383305442099 0 0,0 0.17899889022351173,-0.9562192290883845 l 34.84995416044908 6.83469335317124" fill="#5aff2a" stroke="none" /><path d="M 79.46518482838121 95.60439243477599 l -21.130310333709655 -4.523077085532066 a42.60898519413955,42.60898519413955 0 0,0 0.1596936332821837,-0.7158752452292858 l 21.04932231342543 4.886130500311311" fill="#faff18" stroke="none" /><path d="M 79.54389044137918 95.25157060432595 l -14.55340207363656 -3.3782475604896334 a35.94035034719344,35.94035034719344 0 0,0 0.14507442174175433,-0.6014271376828143 l 14.493094851633991 3.6282599298318443" fill="#ffaf10" stroke="none" /><path d="M 79.62865764111835 94.90015583598534 l -23.077070365295942 -5.777207046628367 a44.789226509166554,44.789226509166554 0 0,0 0.19366790760590438,-0.7462814501170933 l 22.97420612581973 6.1735849222943235" fill="#dfff1b" stroke="none" /><path d="M 79.81627453868168 94.20196356495316 l -14.258044481520315 -4.095807860387625 a35.834671363607114,35.834671363607114 0 0,0 0.17540918548184753,-0.5913925728676928 l 14.185429398926761 4.3406298200018565" fill="#ffad10" stroke="none" /><path d="M 79.91906864156998 93.8553929516997 l -35.25648491705117 -10.788207073306946 a57.87011175142823,57.87011175142823 0 0,0 0.2996693955566212,-0.9500338759614133 l 35.06556003772634 11.393491115694774" fill="#4cff2c" stroke="none" /><path d="M 80.14247586403 93.16781622104843 l -16.741462656849407 -5.760071034880941 a38.70466012714047,38.70466012714047 0 0,0 0.2221775017442947,-0.6281257161752751 l 16.639832074295303 6.047394377482827" fill="#ffd313" stroke="none" /><path d="M 80.2630227832202 92.82701384747504 l -8.345491079216762 -3.0329918958587734 a29.879541722050273,29.879541722050273 0 0,0 0.17983985577815864,-0.48188140273451885 l 8.292046634936975 3.1761964356226335" fill="#ff5b08" stroke="none" /><path d="M 80.38941819471856 92.48833698450439 l -20.702770862413875 -7.930016546658127 a43.16957112376973,43.16957112376973 0 0,0 0.27177598816206905,-0.6916402458483544 l 20.563201324370112 8.285205797402245" fill="#f3ff19" stroke="none" /><path d="M 80.65960295795068 91.81776055985345 l -8.17576964483171 -3.458879602939451 a29.877333912441404,29.877333912441404 0 0,0 0.20445954515953127,-0.4719208198204105 l 8.115019389829499 3.5990995673464607" fill="#ff5b08" stroke="none" /><path d="M 80.803312248108 91.48605970444005 l -28.585029548979897 -12.677772231975027 a52.270270594957935,52.270270594957935 0 0,0 0.37185987231358886,-0.8193439367490296 l 28.362567359702954 13.167938177566127" fill="#88ff25" stroke="none" /><path d="M 81.10775173730289 90.83032412892265 l -11.978717089487782 -5.814075251108133 a34.31514679361571,34.31514679361571 0 0,0 0.2624945112584841,-0.5291729170649073 l 11.876862565275884 6.019407756672002" fill="#ff990e" stroke="none" /><path d="M 81.26839172434947 90.50648371742162 l -11.924378970043959 -6.043489926004023 a34.36841741968505,34.36841741968505 0 0,0 0.2719860367793938,-0.5253904516410456 l 11.81858350010445 6.247853099905404" fill="#ff990e" stroke="none" /><path d="M 81.6062741919709 89.86733742301443 l -11.634755254369516 -6.409307738341689 a34.283326221765606,34.283326221765606 0 0,0 0.28919187006022,-0.514440067941121 l 11.522705743016864 6.608631316217595" fill="#ff980e" stroke="none" /><line stroke="#e1ed5e" stroke-width="0.3" x1="26.266209847984243" x2="21.928928074336255" y1="57.711370442889674" y2="55.22380399835377" /><path d="M 25.398753493254645 57.213857153982495 a86.0,86.0 0 0,1 29.58750427330803,-30.492523968695096" fill="none" id="id155" stroke="none" /><text fill="#e1ed5e" style="font-size:6.75px; font-family:Arial;" text-anchor="middle"><textPath startOffset="21.46611528233685" xlink:href="#id155">November</textPath></text><path d="M 81.78341655067845 89.55222093294921 l -7.743185664431722 -4.440958609071696 a29.92631153396233,29.92631153396233 0 0,0 0.2601313642529501,-0.44464882432892533 l 7.665594625708446 4.573586845754513" fill="#ff5c08" stroke="none" /><path d="M 81.96595687620814 89.24020034530311 l -54.1021293713756 -32.27939896409068 a84.0,84.0 0 0,0 0.7515368068551322,-1.2353289071717022 l 53.53847676623425 33.20589564446946" fill="#4dd2ff" stroke="none" /><path d="M 82.34701348167596 88.62581576622439 l -7.463635457552505 -4.808974654788435 a29.878743800427657,29.878743800427657 0 0,0 0.28228777625159657,-0.42994364988231 l 7.379751045942989 4.936736368648412" fill="#ff5b08" stroke="none" /><path d="M 82.54541684631803 88.32363383020206 l -7.396743530476214 -4.948103610695823 a29.89918783922571,29.89918783922571 0 0,0 0.28984491144957497,-0.42531164256869763 l 7.310474153357899 5.074693276534937" fill="#ff5c08" stroke="none" /><path d="M 82.95767976084542 87.72973835380427 l -8.58560161244358 -6.181527907957485 a31.579406520426893,31.579406520426893 0 0,0 0.3214142784783798,-0.4384087146318826 l 8.477924721451569 6.328399066260868" fill="#ff730a" stroke="none" /><path d="M 83.17141714833178 87.43820079747576 l -7.217468162095475 -5.387523512941996 a30.00651188159793,30.00651188159793 0 0,0 0.3125307665931721,-0.41125385439194034 l 7.123661455278194 5.510962143214964" fill="#ff5d08" stroke="none" /><path d="M 83.39014120810768 87.1503855733568 l -18.856311766533594 -14.587501239131717 a44.84021153090682,44.84021153090682 0 0,0 0.47753953972335605,-0.6064267205491329 l 18.602418146216266 14.909920353633897" fill="#deff1b" stroke="none" /><path d="M 83.84228863543731 86.58626213691792 l -13.776613149510851 -11.43700820364479 a38.90531280155456,38.90531280155456 0 0,0 0.43219983597934264,-0.5115882829537657 l 13.577702700044386 11.672455436227672" fill="#ffd513" stroke="none" /><path d="M 84.07557802195018 86.31012108654704 l -13.520651879680985 -11.62341008790893 a38.830078219773014,38.830078219773014 0 0,0 0.4400892644864163,-0.5030981064296739 l 13.318570751616726 11.854423750541546" fill="#ffd413" stroke="none" /><path d="M 84.5562425177563 85.77008943001954 l -12.120226402972861 -11.167602055426931 a37.480753129869285,37.480753129869285 0 0,0 0.44126033194579994,-0.4707057561328702 l 11.926198749056605 11.37457722843785" fill="#ffc312" stroke="none" /><path d="M 84.80347519578584 85.50635884689758 l -10.890806102678303 -10.387074515646127 a36.04994932083561,36.04994932083561 0 0,0 0.43214573979742,-0.4453641715442028 l 10.710396099177764 10.573002882740454" fill="#ffb010" stroke="none" /><path d="M 85.05521093208273 85.24692304244772 l -22.18043219615168 -21.895901083279682 a52.16732354015741,52.16732354015741 0 0,0 0.6363524139084433,-0.6336197144109893 l 21.800243982075923 22.27445664834078" fill="#89ff24" stroke="none" /><path d="M 85.57189188830299 84.74124197986013 l -13.217534551458733 -13.97848974946619 a40.23801952631655,40.23801952631655 0 0,0 0.50736715915606,-0.4715424795650137 l 12.974959508507817 14.203936815105852" fill="#ffe715" stroke="none" /><path d="M 85.83668400450813 84.49514656593479 l -13.043577992096864 -14.279054784037323 a40.33976040082847,40.33976040082847 0 0,0 0.5167120148016187,-0.4639091487052319 l 12.795854989699274 14.501462941511834" fill="#ffe815" stroke="none" /><path d="M 86.10567301691215 84.25364557470407 l -11.8038331514176 -13.377210756988582 a38.840410441001524,38.840410441001524 0 0,0 0.5051217597401011,-0.4380366124941382 l 11.571817593030724 13.578412362902402" fill="#ffd513" stroke="none" /><path d="M 86.65592168130627 83.78471172551755 l -9.738744894943054 -11.834204815923517 a36.3261722473032,36.3261722473032 0 0,0 0.48624588389892814,-0.39317702197832555 l 9.533595612479626 12.000087935165975" fill="#ffb410" stroke="none" /><path d="M 86.93701828274178 83.55741782278169 l -22.99052256429887 -28.938535224408085 a57.959477116347884,57.959477116347884 0 0,0 0.7865030522924474,-0.6138781076189483 l 22.488986956846997 29.329991721250256" fill="#4bff2c" stroke="none" /><path d="M 87.51073957382395 83.11751280151077 l -13.224701666565188 -17.87662751604464 a43.2366037316191,43.2366037316191 0 0,0 0.6021308222032173,-0.4374736497534733 l 12.91502552800819 18.10162040061478" fill="#f2ff19" stroke="none" /><path d="M 87.80319425747018 82.90503203632743 l -10.346306641995955 -14.50131979806114 a38.813880459233175,38.813880459233175 0 0,0 0.5472181598048192,-0.383361291352066 l 10.095157342607475 14.677265932177148" fill="#ffd413" stroke="none" /><path d="M 88.09926311788651 82.69761687909137 l -10.037806869255261 -14.59388455235714 a38.712680008174836,38.712680008174836 0 0,0 0.552292247494809,-0.3729101908879701 l 9.785109927353913 14.764506655543775" fill="#ffd313" stroke="none" /><path d="M 88.70189139769569 82.29822771554957 l -8.095341511746378 -12.683706366264332 a36.04695854242373,36.04695854242373 0 0,0 0.5259094148871631,-0.3293244273553206 l 7.875812944486972 12.821175134942584" fill="#ffb010" stroke="none" /><path d="M 89.00827224532344 82.1063720568725 l -20.868881942680346 -33.9728218716569 a60.870576362285746,60.870576362285746 0 0,0 0.8975161663313792,-0.5407434478377349 l 20.281003710131316 34.32701192895325" fill="#30ff31" stroke="none" /><line stroke="#e1ed5e" stroke-width="0.3" x1="56.762969772571076" x2="54.21961505331055" y1="26.818313649435495" y2="22.513508569990535" /><path d="M 56.25429882871897 25.957352633546506 a86.0,86.0 0 0,1 42.265352541879196,-11.944610805530505" fill="none" id="id156" stroke="none" /><text fill="#e1ed5e" style="font-size:6.75px; font-family:Arial;" text-anchor="middle"><textPath startOffset="22.20632615414155" xlink:href="#id156">December</textPath></text><path d="M 89.63071344664047 81.73862282372117 l -10.257115712791727 -18.063832820912822 a41.772830306135134,41.772830306135134 0 0,0 0.6283348011899665,-0.3496676365785637 l 9.944656822529716 18.237715855051572" fill="#fffa17" stroke="none" /><path d="M 89.94658935756843 81.56283822128135 l -8.539072311423942 -15.65998477983406 a38.836784442392116,38.836784442392116 0 0,0 0.5896810045890083,-0.3149871707050128 l 8.268246260306627 15.804650677040822" fill="#ffd513" stroke="none" /><path d="M 90.26544431104013 81.39251694778311 l -8.9993185069963 -17.20208625344336 a40.41389979013158,40.41389979013158 0 0,0 0.6191784958625476,-0.31716727460405053 l 8.701879523544989 17.354446053359915" fill="#ffe915" stroke="none" /><path d="M 90.91171255644093 81.06846463323043 l -15.357767446898267 -31.991298622671824 a56.48667649298779,56.48667649298779 0 0,0 0.8801748247512298,-0.4132538820765931 l 14.804814410847428 32.25091748738843" fill="#5bff2a" stroke="none" /><path d="M 91.23893434514133 80.91482961587045 l -7.4108440943668965 -16.14383772512592 a38.76356120506841,38.76356120506841 0 0,0 0.6088055065399616,-0.27315328452992027 l 7.1318564693601605 16.26901134017237" fill="#ffd413" stroke="none" /><path d="M 91.90106846888425 80.62456947434976 l -8.563469957879144 -20.486766259218157 a43.20451777182603,43.20451777182603 0 0,0 0.688630904994555,-0.2809098366395727 l 8.20955518329621 20.63113698204131" fill="#f2ff19" stroke="none" /><path d="M 92.23578459929587 80.48803036053334 l -6.580008729498846 -16.535982572786875 a38.79705690634809,38.79705690634809 0 0,0 0.6226314917097563,-0.24157134562278487 l 6.294394072789413 16.64679662230021" fill="#ffd413" stroke="none" /><path d="M 92.57280143429618 80.3572730644239 l -6.388582733460394 -16.89589756199111 a39.06337022173784,39.06337022173784 0 0,0 0.6309993140049037,-0.23240237257027344 l 6.09680109368292 17.003363202367705" fill="#ffd714" stroke="none" /><path d="M 93.25333710446033 80.11325718540243 l -4.911213301815718 -14.476495617620046 a36.28688789331903,36.28688789331903 0 0,0 0.5932339019590656,-0.19557989042226076 l 4.661296577614244 14.55888923230154" fill="#ffb310" stroke="none" /><path d="M 93.59665428221793 80.00007090966166 l -12.194697473033258 -38.08838308721998 a60.99294403588749,60.99294403588749 0 0,0 1.0026503067916324,-0.3115283309717609 l 11.537261793530897 38.292651553074265" fill="#30ff32" stroke="none" /><path d="M 94.28887869178378 79.79150937346287 l -6.046106853397818 -21.39381867062693 a43.23175398825674,43.23175398825674 0 0,0 0.7178573270602799,-0.196217524703206 l 5.676951637113816 21.494722736156433" fill="#f2ff19" stroke="none" /><path d="M 94.63758080256005 79.69619591428918 l -4.552418630618646 -17.236887417594694 a38.82792201113854,38.82792201113854 0 0,0 0.647670283396852,-0.16510557621827235 l 4.255039458536793 17.31269598998183" fill="#ffd413" stroke="none" /><path d="M 94.98787191387505 79.60689891045804 l -4.653040589371755 -18.932063483270394 a40.495481898658504,40.495481898658504 0 0,0 0.6783500627135968,-0.1605435432327945 l 4.326466839695624 19.00935293864406" fill="#ffea16" stroke="none" /><path d="M 95.692805502759 79.44645832069477 l -2.7377412271351904 -13.064252950527212 a34.34803102266827,34.34803102266827 0 0,0 0.5797188553856429,-0.11628614867852165 l 2.512455962282411 13.109443055282943" fill="#ff990e" stroke="none" /></svg>