<?xml version="1.0" encoding="utf-8" ?>
<svg baseProfile="full" height="200mm" version="1.1" viewBox="0,0,200,200" width="200mm" xmlns="http://www.w3.org/2000/svg" xmlns:ev="http://www.w3.org/2001/xml-events" xmlns:xlink="http://www.w3.org/1999/xlink"><defs /><rect fill="#1a1a1a" height="200" width="200" x="0" y="0" /><text alignment-baseline="middle" fill="#e1ed5e" style="dominant-baseline: central; font-size:9.0px; font-family:Arial;" text-anchor="middle" x="100.0" y="100.0">2024</text><line stroke="#e1ed5e" stroke-width="0.3" x1="100.0" x2="100.0" y1="15.0" y2="10.0" /><path d="M 100.0 14.0 a86.0,86.0 0 0,1 42.35913384403234,11.155469271406648" fill="none" id="id133" stroke="none" /><text fill="#e1ed5e" style="font-size:6.75px; font-family:Arial;" text-anchor="middle"><textPath startOffset="22.145653131862478" xlink:href="#id133">January</textPath></text><path d="M 100.0 79.0 l 0.0 -17.12330207020318 a38.12330207020318,38.12330207020318 0 0,0 0.654437174675426,0.00561755605199683 l -0.2939442498265712 17.120778912345617" fill="#ff720a" stroke="none" /><path d="M 100.36049292484886 79.00309439819443 l 0.3943404777060237 -22.968355866722902 a43.97174080545011,43.97174080545011 0 0,0 0.7546109496865008,0.019436101274606828 l -0.7885647414632658 22.958202048098247" fill="#ffcc13" stroke="none" /><path d="M 100.72087961077811 79.0123766808444 l 0.7927597998713668 -23.080336596439885 a44.09394737816068,44.09394737816068 0 0,0 0.7562620932874177,0.03247714828127201 l -1.1888476537596209 23.063326879732784" fill="#ffce13" stroke="none" /><path d="M 101.08105385017728 79.02784411241856 l 1.1865783564446561 -23.019303118070123 a44.049865167448935,44.049865167448935 0 0,0 0.7548377508719055,0.0454091646649654 l -1.581560459449024 22.995541975580466" fill="#ffcd13" stroke="none" /><path d="M 101.44090949804482 79.04949213459386 l 0.9230579131102012 -13.421059473257202 a34.45276452241926,34.45276452241926 0 0,0 0.5896853230983489,0.04564537343844275 l -1.1533122309837835 13.403236332823706" fill="#ff3605" stroke="none" /><path d="M 101.80034050326958 79.07731436759882 l 3.9192162794352754 -45.547233976624355 a66.71554198701307,66.71554198701307 0 0,0 1.1402017689592616,0.10797829298375156 l -4.70051761177955 45.473243928135425" fill="#34ff5a" stroke="none" /><path d="M 102.15924093988457 79.11130261209362 l 1.0954555277510347 -10.597538513846409 a31.654006071226835,31.654006071226835 0 0,0 0.5400235212300472,0.06051076193510136 l -1.2772149505818786 10.577171991404336" fill="#ff0701" stroke="none" /><path d="M 102.51750503828377 79.15144685158666 l 2.0383151483209687 -16.88017344821521 a38.002793425955176,38.002793425955176 0 0,0 0.6469924514229427,0.08376612607683383 l -2.327785421634703 16.84269572593798" fill="#ff700a" stroke="none" /><path d="M 102.87502721639298 79.19773525538626 l 3.548200747926898 -25.673013077773533 a46.9170470740615,46.9170470740615 0 0,0 0.7968634671590618,0.11711148817181491 l -3.988389320693642 25.608320516302836" fill="#fff717" stroke="none" /><path d="M 103.23170211078529 79.25015418208739 l 2.950931334995754 -18.947096025979274 a40.175516774302054,40.175516774302054 0 0,0 0.6805397687184751,0.1119825599668713 l -3.2757486067672996 18.893647467516736" fill="#ff920d" stroke="none" /><path d="M 103.58742460773223 79.30868818359171 l 4.307248591821964 -24.84306527085797 a46.21369236117276,46.21369236117276 0 0,0 0.7804948340411892,0.1422321584131752 l -4.733078159414207 24.76546493851343" fill="#ffed16" stroke="none" /><path d="M 103.94208987418118 79.37332000966035 l 2.270657106855533 -11.881037471432093 a33.096071060244604,33.096071060244604 0 0,0 0.5571227349958884,0.11144015013137061 l -2.4742763273823782 11.840307924637862" fill="#ff2003" stroke="none" /><path d="M 104.29559338865022 79.4440306129975 l 9.635345998761613 -46.10861863858989 a68.104613418165,68.104613418165 0 0,0 1.1423335451191683,0.2489662793561571 l -10.425441960499915 45.936420901100014" fill="#36ff6d" stroke="none" /><path d="M 104.9986988182912 79.60360301121754 l 4.587071073384408 -18.71681532125038 a40.27071344818538,40.27071344818538 0 0,0 0.6700178150872809,0.17031590851090253 l -4.907694181697083 18.63531418090421" fill="#ff940d" stroke="none" /><path d="M 105.3480935250658 79.69241777938227 l 7.793110174284931 -29.591708685886633 a51.60068282144896,51.60068282144896 0 0,0 0.8546512957033163,0.23293901110943901 l -8.29994287092294 29.453569180633053" fill="#c6ff1e" stroke="none" /><path d="M 105.69591212413111 79.78721728523813 l 7.939169627322026 -28.17331221330536 a50.270564317070715,50.270564317070715 0 0,0 0.8286025004895531,0.24119411171027672 l -8.421632140193184 28.032874407292567" fill="#d8ff1c" stroke="none" /><path d="M 106.04205211174951 79.88797359093562 l 5.635445454051375 -18.75856508723571 a40.586781501758956,40.586781501758956 0 0,0 0.6655446853201497,0.20618744478827228 l -5.956630772243154 18.65906105464079" fill="#ff990e" stroke="none" /><path d="M 106.38641147887787 79.99465700312896 l 7.633835689833918 -23.912881570812335 a46.10181970214666,46.10181970214666 0 0,0 0.751848809573741,0.2471476373218 l -8.043207237055402 23.778313012088514" fill="#ffeb16" stroke="none" /><path d="M 107.06938296918511 80.22567764915836 l 3.4844981006522393 -9.746761347282805 a31.350897727942982,31.350897727942982 0 0,0 0.5052135188818075,0.18552140206980305 l -3.6513007711881715 9.68550909620428" fill="#ff0200" stroke="none" /><path d="M 107.40779381753099 80.34994680014964 l 6.878858385438103 -18.246989124914318 a40.500546269570336,40.500546269570336 0 0,0 0.648447954285424,0.2508335989662322 l -7.191078602217052 18.12621563781005" fill="#ff970e" stroke="none" /><path d="M 107.74402155503746 80.48000691201159 l 7.761394009108912 -19.56378302077539 a42.04711008781517,42.04711008781517 0 0,0 0.6686402301743016,0.2719301606637446 l -8.096088700473652 19.42766560353235" fill="#ffaf10" stroke="none" /><path d="M 108.07796709384702 80.6158196554323 l 11.32390266020882 -27.173244062483736 a50.438341738915796,50.438341738915796 0 0,0 0.7963611898662752,0.3399192373904232 l -11.788698925245525 26.97485017543391" fill="#d5ff1c" stroke="none" /><path d="M 108.4095320186766 80.7573450057729 l 7.747608180575015 -17.72804371493646 a40.34706609484785,40.34706609484785 0 0,0 0.6322704136148761,0.28280651385494593 l -8.050791997045524 17.592433450171665" fill="#ff950d" stroke="none" /><path d="M 108.73861861582097 80.90454125486305 l 11.868424649128482 -25.934649767972285 a49.52131768063014,49.52131768063014 0 0,0 0.7699651965085869,0.3603825897879363 l -12.311878559508575 25.727090946613817" fill="#e2ff1b" stroke="none" /><path d="M 109.06512990194946 81.05736502329252 l 20.728813601478368 -43.315247966669816 a69.01972948423312,69.01972948423312 0 0,0 1.0643491424844578,0.5206265008048393 l -21.469322993224893 42.95302771576775" fill="#37ff79" stroke="none" /><path d="M 109.3889696526874 81.21577127319529 l 4.57902296333664 -9.161113292552505 a31.24175024386684,31.24175024386684 0 0,0 0.4776607404442287,0.2438969775383462 l -4.735610925494448 9.081158363341325" fill="#ff0000" stroke="none" /><path d="M 110.02825361518725 81.54914285379988 l 13.97673814758306 -25.71562395872707 a50.26845614023331,50.26845614023331 0 0,0 0.754639188125177,0.4185856367104461 l -14.416121523864337 25.471905406583474" fill="#d8ff1c" stroke="none" /><path d="M 110.34350942703115 81.72400993836675 l 10.366479286180844 -18.31657560182137 a42.0466347563703,42.0466347563703 0 0,0 0.6251083843838864,0.36090649399672886 l -10.679380138425127 18.135922210548472" fill="#ffaf10" stroke="none" /><line stroke="#e1ed5e" stroke-width="0.3" x1="143.13028292997686" x2="145.6673583964461" y1="26.7553504044142" y2="22.446841604673864" /><path d="M 143.63769802327073 25.89364864446614 a86.0,86.0 0 0,1 29.32050498858742,28.57503671076993" fill="none" id="id134" stroke="none" /><text fill="#e1ed5e" style="font-size:6.75px; font-family:Arial;" text-anchor="middle"><textPath startOffset="20.669276256404974" xlink:href="#id134">February</textPath></text><path d="M 112.16784306229584 82.88440491214696 l 12.504561944658853 -17.58923236435752 a42.58112982666043,42.58112982666043 0 0,0 0.5921189766245847,0.4286484761628084 l -12.804661931657407 17.37198311682164" fill="#ffb711" stroke="none" /><path d="M 112.45986205192187 83.09580414077388 l 17.180324917277563 -23.30841032722404 a49.95592437214658,49.95592437214658 0 0,0 0.6859353085194414,0.5147386433128754 l -17.577913214707774 23.010052656647147" fill="#dcff1b" stroke="none" /><path d="M 112.7482090630111 83.31218511350987 l 13.376733245162567 -17.51057321682369 a43.035361732769005,43.035361732769005 0 0,0 0.5832112370558004,0.453508585456221 l -13.675354426853593 17.278363579746678" fill="#ffbe11" stroke="none" /><path d="M 113.03279911837588 83.53348406188908 l 24.04634563478683 -30.38177217741732 a59.74633942746232,59.74633942746232 0 0,0 0.7987494651596776,0.6434160286247032 l -24.564345870301768 29.96450785499921" fill="#5dff2a" stroke="none" /><path d="M 113.59037401385872 83.9905735841838 l 16.34211464587645 -19.250969961179674 a46.252020821019684,46.252020821019684 0 0,0 0.6008809705909338,0.519026671039868 l -16.670175096230242 18.967599157675085" fill="#ffee16" stroke="none" /><path d="M 113.86319453409587 84.22622945171908 l 16.730807362651763 -19.036587546751147 a46.3438667221733,46.3438667221733 0 0,0 0.5930579895468714,0.5303161112298472 l -17.05513037902201 18.74657590563791" fill="#ffef16" stroke="none" /><path d="M 114.13192950727249 84.46653392183569 l 14.940042758032213 -16.42172410135437 a43.20085358883378,43.20085358883378 0 0,0 0.5442695101633177,0.5037677331351855 l -15.219742039509496 16.16283862208681" fill="#ffc111" stroke="none" /><path d="M 114.65682725009322 84.96080404539774 l 17.58293773860769 -18.041643092082595 a46.192470799464,46.192470799464 0 0,0 0.5631259882773121,0.5583129745634714 l -17.890055647014965 17.737150107290464" fill="#ffed16" stroke="none" /><path d="M 114.91283532996326 85.21462403516908 l 13.7155871749091 -13.598360638502667 a40.3140555970855,40.3140555970855 0 0,0 0.48302611844603344,0.4956273498041387 l -13.947000094505945 13.360910596630786" fill="#ff940d" stroke="none" /><path d="M 115.16444852881244 85.47280134310134 l 34.61670107639608 -33.16201656972919 a68.93782782295789,68.93782782295789 0 0,0 0.8113134276827708,0.8615867450005387 l -35.180870337815115 32.56288836478416" fill="#37ff78" stroke="none" /><path d="M 115.41159269507618 85.73525988315684 l 9.794184113739089 -9.065350596998197 a34.34565936551337,34.34565936551337 0 0,0 0.3967779013416784,0.436128418832293 l -9.948359715922644 8.895884602608232" fill="#ff3405" stroke="none" /><path d="M 115.6541949942343 86.00192230759917 l 17.20284470162072 -15.382889810193745 a44.07750343387782,44.07750343387782 0 0,0 0.49952181645667476,0.568364131172594 l -17.464377582035986 15.085313401209854" fill="#ffce13" stroke="none" /><path d="M 115.8921839302757 86.27271002978787 l 22.026239301131994 -19.025740902979578 a50.105567073294445,50.105567073294445 0 0,0 0.5566619617504108,0.655746391235395 l -22.349595826389518 18.64482772929463" fill="#daff1c" stroke="none" /><path d="M 116.1254893667686 86.54754324733833 l 9.52441429717561 -7.9456051542368105 a33.40351196118574,33.40351196118574 0 0,0 0.36354661463474053,0.44346775800169563 l -9.65940773104898 7.78093511453662" fill="#ff2503" stroke="none" /><path d="M 116.35404254752997 86.82634096563983 l 20.79713582379722 -16.752700467650516 a47.70531466641589,47.70531466641589 0 0,0 0.5082514441754665,0.6421590964509698 l -21.081653698614247 16.39322142728487" fill="#fcff18" stroke="none" /><path d="M 116.7966241395341 87.39550010848427 l 50.389872418602316 -37.813499674547195 a84.0,84.0 0 0,0 0.855591921664697,1.1607747629245 l -51.03156635985084 36.94291860235382" fill="#4dd2ff" stroke="none" /><path d="M 117.01052211995028 87.68569379921539 l 9.25401240621704 -6.699191333014138 a32.42435600507751,32.42435600507751 0 0,0 0.3225218290166712,0.45366734302715345 l -9.367649333763673 6.53934676327748" fill="#ff1402" stroke="none" /><path d="M 117.21940702142032 87.97951657250589 l 18.87371682105439 -13.175320147812382 a44.01752044940337,44.01752044940337 0 0,0 0.42720106797760543,0.623299125237923 l -19.097107625847322 12.84938628750441" fill="#ffcd13" stroke="none" /><path d="M 117.42321728460499 88.27688183743584 l 27.58019440706434 -18.557185662041558 a54.242085723175435,54.242085723175435 0 0,0 0.513170324531526,0.7770052774470877 l -27.894689170516592 18.08100050625541" fill="#a2ff22" stroke="none" /><path d="M 117.62189284568427 88.57770195909679 l 14.10116528700332 -9.140204973589835 a37.804350907149725,37.804350907149725 0 0,0 0.34830824190953386,0.5475984087430423 l -14.255991220538744 8.896792890168122" fill="#ff6d0a" stroke="none" /><line stroke="#e1ed5e" stroke-width="0.3" x1="172.87174338648825" x2="177.1583165268699" y1="56.24261187166439" y2="53.66864786411523" /><path d="M 173.72905801456457 55.72781907015455 a86.0,86.0 0 0,1 12.242430191666344,42.057860355516425" fill="none" id="id135" stroke="none" /><text fill="#e1ed5e" style="font-size:6.75px; font-family:Arial;" text-anchor="middle"><textPath startOffset="22.145653131862474" xlink:href="#id135">March</textPath></text><line stroke="#e1ed5e" stroke-width="0.3" x1="184.99686870605535" x2="189.99668451229388" y1="99.2704041080226" y2="99.22748670261217" /><path d="M 185.99683186730306 99.26182062694052 a86.0,86.0 0 0,1 -10.086455211305974,41.156179273409016" fill="none" id="id136" stroke="none" /><text fill="#e1ed5e" style="font-size:6.75px; font-family:Arial;" text-anchor="middle"><textPath startOffset="21.40746469413373" xlink:href="#id136">April</textPath></text><line stroke="#e1ed5e" stroke-width="0.3" x1="174.33088141563837" x2="178.70328620479359" y1="141.23008692659167" y2="143.65538615756765" /><path d="M 175.20536237346943 141.71514677278685 a86.0,86.0 0 0,1 -30.301960400862466,31.631185727798858" fill="none" id="id137" stroke="none" /><text fill="#e1ed5e" style="font-size:6.75px; font-family:Arial;" text-anchor="middle"><textPath startOffset="22.145653131862474" xlink:href="#id137">May</textPath></text><line stroke="#e1ed5e" stroke-width="0.3" x1="143.1302829299769" x2="145.66735839644613" y1="173.24464959558577" y2="177.55315839532614" /><path d="M 143.63769802327073 174.10635135553383 a86.0,86.0 0 0,1 -40.68552437913181,11.842963189579606" fill="none" id="id138" stroke="none" /><text fill="#e1ed5e" style="font-size:6.75px; font-family:Arial;" text-anchor="middle"><textPath startOffset="21.407464694133747" xlink:href="#id138">June</textPath></text><line stroke="#e1ed5e" stroke-width="0.3" x1="101.45913802915013" x2="101.54496967792366" y1="184.9874750549273" y2="189.98673829345242" /><path d="M 101.47630435890484 185.9873277026323 a86.0,86.0 0 0,1 -42.54439059252881,-10.42667462771756" fill="none" id="id139" stroke="none" /><text fill="#e1ed5e" style="font-size:6.75px; font-family:Arial;" text-anchor="middle"><textPath startOffset="22.145653131862474" xlink:href="#id139">July</textPath></text><line stroke="#e1ed5e" stroke-width="0.3" x1="58.13341422392154" x2="55.67067388415222" y1="173.97424548756322" y2="178.32567169271397" /><path d="M 57.64086615596768 174.84453072859336 a86.0,86.0 0 0,1 -31.369924170532247,-30.572349798747897" fill="none" id="id140" stroke="none" /><text fill="#e1ed5e" style="font-size:6.75px; font-family:Arial;" text-anchor="middle"><textPath startOffset="22.145653131862474" xlink:href="#id140">August</textPath></text><line stroke="#e1ed5e" stroke-width="0.3" x1="26.387840678322732" x2="22.057713659400548" y1="142.50000000000003" y2="145.00000000000006" /><path d="M 25.521815274538298 143.00000000000003 a86.0,86.0 0 0,1 -11.493303480769221,-40.785679425670985" fill="none" id="id141" stroke="none" /><text fill="#e1ed5e" style="font-size:6.75px; font-family:Arial;" text-anchor="middle"><textPath startOffset="21.40746469413373" xlink:href="#id141">September</textPath></text><line stroke="#e1ed5e" stroke-width="0.3" x1="15.003131293944662" x2="10.003315487706104" y1="100.72959589197737" y2="100.7725132973878" /><path d="M 14.003168132696942 100.73817937305945 a86.0,86.0 0 0,1 10.791469493833604,-42.45332614584628" fill="none" id="id142" stroke="none" /><text fill="#e1ed5e" style="font-size:6.75px; font-family:Arial;" text-anchor="middle"><textPath startOffset="22.145653131862435" xlink:href="#id142">October</textPath></text><line stroke="#e1ed5e" stroke-width="0.3" x1="26.387840678322718" x2="22.05771365940052" y1="57.49999999999999" y2="54.99999999999999" /><path d="M 25.521815274538284 56.99999999999999 a86.0,86.0 0 0,1 29.574782752854787,-30.34633250058573" fill="none" id="id143" stroke="none" /><text fill="#e1ed5e" style="font-size:6.75px; font-family:Arial;" text-anchor="middle"><textPath startOffset="21.40746469413373" xlink:href="#id143">November</textPath></text><line stroke="#e1ed5e" stroke-width="0.3" x1="56.869717070023135" x2="54.33264160355391" y1="26.7553504044142" y2="22.446841604673864" /><path d="M 56.362301976729285 25.89364864446614 a86.0,86.0 0 0,1 42.16139366436587,-11.88097634709845" fill="none" id="id144" stroke="none" /><text fill="#e1ed5e" style="font-size:6.75px; font-family:Arial;" text-anchor="middle"><textPath startOffset="22.145653131862474" xlink:href="#id144">December</textPath></text></svg>