<?xml version="1.0" encoding="utf-8" ?>
<svg baseProfile="full" height="200mm" version="1.1" viewBox="0,0,200,200" width="200mm" xmlns="http://www.w3.org/2000/svg" xmlns:ev="http://www.w3.org/2001/xml-events" xmlns:xlink="http://www.w3.org/1999/xlink"><defs /><rect fill="#1a1a1a" height="200" width="200" x="0" y="0" /><text alignment-baseline="middle" fill="#e1ed5e" style="dominant-baseline: central; font-size:9.0px; font-family:Arial;" text-anchor="middle" x="100.0" y="100.0">2025</text><line stroke="#e1ed5e" stroke-width="0.3" x1="100.0" x2="100.0" y1="15.0" y2="10.0" /><path d="M 100.0 14.0 a86.0,86.0 0 0,1 42.46469731375804,11.215312516191453" fill="none" id="id145" stroke="none" /><text fill="#e1ed5e" style="font-size:6.75px; font-family:Arial;" text-anchor="middle"><textPath startOffset="22.20632615414155" xlink:href="#id145">January</textPath></text><path d="M 100.0 79.0 l 0.0 -28.097979673666956 a49.097979673666956,49.097979673666956 0 0,0 0.8451410106547613,0.007274395499245056 l -0.4836605313822329 28.09381665477627" fill="#ffef16" stroke="none" /><path d="M 100.36148047927253 79.00311137660856 l 0.48517851542046775 -28.18198999638256 a49.18616608104111,49.18616608104111 0 0,0 0.8464081113604709,0.021860224369275073 l -0.9702132619758064 28.169462979870925" fill="#fff016" stroke="none" /><path d="M 100.72285384407766 79.0124445844662 l 0.8105699975775925 -23.534332537216375 a44.548287234812946,44.548287234812946 0 0,0 0.7661439207717148,0.03299176885497782 l -1.2155547507386388 23.516893041837204" fill="#ffa50f" stroke="none" /><path d="M 101.08401301168833 79.027996857942 l 2.6967861833719815 -52.17373564829204 a73.2433856791143,73.2433856791143 0 0,0 1.258523486881034,0.07591757360722737 l -3.594471719092627 52.119584805304505" fill="#3cffa5" stroke="none" /><path d="M 101.80526077348638 79.07773832637324 l 2.6327320493094324 -30.51232800334887 a51.62569898349111,51.62569898349111 0 0,0 0.8847043743124369,0.08401334056114887 l -3.1575615507121135 30.462489118272543" fill="#e9ff1a" stroke="none" /><path d="M 102.16513564639614 79.11191278185805 l 3.654946151239756 -35.26099351409424 a56.44991248183073,56.44991248183073 0 0,0 0.9656518165445505,0.10850223304748224 l -4.261364671294031 35.192855327576154" fill="#a2ff22" stroke="none" /><path d="M 102.52436894288641 79.15227682838746 l 3.3970302383658817 -28.054673313351607 a49.25959145421701,49.25959145421701 0 0,0 0.8408970483836937,0.10917257078708674 l -3.8794420152574216 27.992042419400384" fill="#fff116" stroke="none" /><path d="M 102.88285421437855 79.19881850522331 l 3.8762378197667133 -27.968922605843897 a49.236250660579486,49.236250660579486 0 0,0 0.8384957392196816,0.12357247566884166 l -4.357102539415051 27.898055646014086" fill="#fff116" stroke="none" /><path d="M 103.2404852339499 79.25152402106235 l 2.91070597062888 -18.63693507398878 a39.86286187723188,39.86286187723188 0 0,0 0.677043742444222,0.11171801863793641 l -3.2310789192119773 18.584070792411218" fill="#ff5507" stroke="none" /><path d="M 103.59715602781102 79.31037775812273 l 4.047450002521632 -23.2795605605176 a44.62879157751659,44.62879157751659 0 0,0 0.7557245725831745,0.13810383516967284 l -4.447569696207707 23.206441243997187" fill="#ffa70f" stroke="none" /><path d="M 103.95276090670814 79.375362276772 l 6.679990980640352 -34.85472489275228 a56.48907052672529,56.48907052672529 0 0,0 0.9534106710786681,0.19124521139646372 l -7.278968061186145 34.73457572527861" fill="#a2ff22" stroke="none" /><path d="M 104.307194497241 79.44645832069477 l 4.262585235784214 -20.34067032761157 a41.78250471596009,41.78250471596009 0 0,0 0.7026569306443256,0.153573589515131 l -4.612084890582067 20.264283240000566" fill="#ff770a" stroke="none" /><path d="M 104.66035177308747 79.52364482259891 l 7.893947943694863 -34.68392295629762 a56.570899985467804,56.570899985467804 0 0,0 0.9476334581952236,0.22427422274572711 l -8.489805088852611 34.542902821411026" fill="#a1ff22" stroke="none" /><path d="M 105.36241919743992 79.69619591428918 l 9.62130879490203 -36.42929834972227 a58.67842036471191,58.67842036471191 0 0,0 0.9743470970568302,0.26632586780045475 l -10.24695378118257 36.25828594109552" fill="#83ff25" stroke="none" /><path d="M 105.71112130821622 79.79150937346287 l 5.2769692371558055 -18.672267250246016 a40.403607102662605,40.403607102662605 0 0,0 0.6676403287563402,0.19490251986723156 l -5.597599783635572 18.578666401460083" fill="#ff5f08" stroke="none" /><path d="M 106.0581310904928 79.89281104454417 l 6.0998772612979435 -20.24574623195043 a42.14470957689972,42.14470957689972 0 0,0 0.6928081051811648,0.21525885069683845 l -6.447470739189827 20.137747246371074" fill="#ff7d0b" stroke="none" /><path d="M 106.40334571778207 80.00007090966166 l 19.21003715334621 -59.99978727101504 a84.0,84.0 0 0,0 1.37326871103033,0.45274510296305515 l -20.239988686618958 59.66022844379275" fill="#4dd2ff" stroke="none" /><path d="M 106.74666289553966 80.11325718540242 l 4.539113453545056 -13.379678702578778 a35.128671315038574,35.128671315038574 0 0,0 0.5709546520556634,0.19919486711374962 l -4.768750109663993 13.29956298229282" fill="#ff0000" stroke="none" /><path d="M 107.4271985657038 80.35727306442388 l 13.347241417744618 -35.29947613392311 a58.738599189595845,58.738599189595845 0 0,0 0.9426617519633674,0.36573811463278433 l -13.952886334707651 35.064495315399775" fill="#83ff25" stroke="none" /><line stroke="#e1ed5e" stroke-width="0.3" x1="143.23703022742887" x2="145.7803849466894" y1="26.81831364943548" y2="22.513508569990506" /><path d="M 143.74570117128098 25.957352633546492 a86.0,86.0 0 0,1 28.547481713284135,27.462654790039103" fill="none" id="id146" stroke="none" /><text fill="#e1ed5e" style="font-size:6.75px; font-family:Arial;" text-anchor="middle"><textPath startOffset="19.985693538727396" xlink:href="#id146">February</textPath></text><line stroke="#e1ed5e" stroke-width="0.3" x1="172.23445277983987" x2="176.4835382374775" y1="55.19839476539836" y2="52.563006222186495" /><path d="M 173.08426987136738 54.67131705675599 a86.0,86.0 0 0,1 12.851231095245387,41.99856678651699" fill="none" id="id147" stroke="none" /><text fill="#e1ed5e" style="font-size:6.75px; font-family:Arial;" text-anchor="middle"><textPath startOffset="22.20632615414155" xlink:href="#id147">March</textPath></text><line stroke="#e1ed5e" stroke-width="0.3" x1="184.98032266829074" x2="189.97916517819016" y1="98.17113171792111" y2="98.06355123074" /><path d="M 185.9800911702706 98.14961562048488 a86.0,86.0 0 0,1 -9.607161424134198,41.387399972396054" fill="none" id="id148" stroke="none" /><text fill="#e1ed5e" style="font-size:6.75px; font-family:Arial;" text-anchor="middle"><textPath startOffset="21.466115282336823" xlink:href="#id148">April</textPath></text><line stroke="#e1ed5e" stroke-width="0.3" x1="174.80103733775053" x2="179.2010983576182" y1="140.37084112569926" y2="142.7455964860345" /><path d="M 175.68104954172406 140.8457921977663 a86.0,86.0 0 0,1 -30.038265399797805,32.042727171017184" fill="none" id="id149" stroke="none" /><text fill="#e1ed5e" style="font-size:6.75px; font-family:Arial;" text-anchor="middle"><textPath startOffset="22.206326154141568" xlink:href="#id149">May</textPath></text><line stroke="#e1ed5e" stroke-width="0.3" x1="143.8653032363475" x2="146.44561519142675" y1="172.8068346515853" y2="177.08958963109032" /><path d="M 144.38136562736335 173.6633856474863 a86.0,86.0 0 0,1 -40.68145358897372,12.25698825130547" fill="none" id="id150" stroke="none" /><text fill="#e1ed5e" style="font-size:6.75px; font-family:Arial;" text-anchor="middle"><textPath startOffset="21.466115282336833" xlink:href="#id150">June</textPath></text><line stroke="#e1ed5e" stroke-width="0.3" x1="102.19456741930631" x2="102.32365962044197" y1="184.97166512339345" y2="189.96999836594603" /><path d="M 102.22038585953345 185.97133177190398 a86.0,86.0 0 0,1 -42.740103519485714,-10.115201625700543" fill="none" id="id151" stroke="none" /><text fill="#e1ed5e" style="font-size:6.75px; font-family:Arial;" text-anchor="middle"><textPath startOffset="22.20632615414155" xlink:href="#id151">July</textPath></text><line stroke="#e1ed5e" stroke-width="0.3" x1="58.666819895761336" x2="56.23545636021788" y1="174.27360380694188" y2="178.64263932499728" /><path d="M 58.180547188652646 175.14741091055294 a86.0,86.0 0 0,1 -31.652253787137756,-30.449443065178592" fill="none" id="id152" stroke="none" /><text fill="#e1ed5e" style="font-size:6.75px; font-family:Arial;" text-anchor="middle"><textPath startOffset="22.20632615414155" xlink:href="#id152">August</textPath></text><line stroke="#e1ed5e" stroke-width="0.3" x1="26.63291911575756" x2="22.317208475507996" y1="142.92168965132927" y2="145.44649492493687" /><path d="M 25.769776987707644 143.4266507060508 a86.0,86.0 0 0,1 -11.730757126820373,-40.83630448921669" fill="none" id="id153" stroke="none" /><text fill="#e1ed5e" style="font-size:6.75px; font-family:Arial;" text-anchor="middle"><textPath startOffset="21.46611528233685" xlink:href="#id153">September</textPath></text><line stroke="#e1ed5e" stroke-width="0.3" x1="15.007084014347285" x2="10.007500721073583" y1="101.09737516637583" y2="101.16192664675087" /><path d="M 14.007167355692545 101.11028546245083 a86.0,86.0 0 0,1 10.666146001902534,-42.60595125391555" fill="none" id="id154" stroke="none" /><text fill="#e1ed5e" style="font-size:6.75px; font-family:Arial;" text-anchor="middle"><textPath startOffset="22.20632615414155" xlink:href="#id154">October</textPath></text><line stroke="#e1ed5e" stroke-width="0.3" x1="26.266209847984243" x2="21.928928074336255" y1="57.711370442889674" y2="55.22380399835377" /><path d="M 25.398753493254645 57.213857153982495 a86.0,86.0 0 0,1 29.58750427330803,-30.492523968695096" fill="none" id="id155" stroke="none" /><text fill="#e1ed5e" style="font-size:6.75px; font-family:Arial;" text-anchor="middle"><textPath startOffset="21.46611528233685" xlink:href="#id155">November</textPath></text><line stroke="#e1ed5e" stroke-width="0.3" x1="56.762969772571076" x2="54.21961505331055" y1="26.818313649435495" y2="22.513508569990535" /><path d="M 56.25429882871897 25.957352633546506 a86.0,86.0 0 0,1 42.265352541879196,-11.944610805530505" fill="none" id="id156" stroke="none" /><text fill="#e1ed5e" style="font-size:6.75px; font-family:Arial;" text-anchor="middle"><textPath startOffset="22.20632615414155" xlink:href="#id156">December</textPath></text></svg>