<?xml version="1.0" encoding="utf-8" ?>
<svg baseProfile="full" height="200mm" version="1.1" viewBox="0,0,200,200" width="200mm" xmlns="http://www.w3.org/2000/svg" xmlns:ev="http://www.w3.org/2001/xml-events" xmlns:xlink="http://www.w3.org/1999/xlink"><defs /><rect fill="#1a1a1a" height="200" width="200" x="0" y="0" /><text alignment-baseline="middle" fill="#e1ed5e" style="dominant-baseline: central; font-size:9.0px; font-family:Arial;" text-anchor="middle" x="100.0" y="100.0">2019</text><line stroke="#e1ed5e" stroke-width="0.3" x1="100.0" x2="100.0" y1="15.0" y2="10.0" /><path d="M 100.0 14.0 a86.0,86.0 0 0,1 42.46469731375804,11.215312516191453" fill="none" id="id73" stroke="none" /><text fill="#e1ed5e" style="font-size:6.75px; font-family:Arial;" text-anchor="middle"><textPath startOffset="22.20632615414155" xlink:href="#id73">January</textPath></text><path d="M 100.0 79.0 l 0.0 -20.808410108702304 a41.808410108702304,41.808410108702304 0 0,0 0.7196630535102919,0.0061943671072977385 l -0.3581825742377635 20.805327118203564" fill="#faff18" stroke="none" /><path d="M 100.72285384407766 79.0124445844662 l 0.6643892744164842 -19.290077556541537 a40.30151562042077,40.30151562042077 0 0,0 0.693107706424739,0.029846675829439062 l -0.9963378132305547 19.275783154187902" fill="#fff116" stroke="none" /><path d="M 101.08401301168833 79.027996857942 l 1.0169036153522817 -19.673662203669096 a40.69992582389575,40.69992582389575 0 0,0 0.6993370403178244,0.04218592007858782 l -1.355402704509718 19.653243014210204" fill="#fff617" stroke="none" /><path d="M 101.44485096284872 79.0497635885617 l 2.296556867467862 -33.299911577663245 a54.37900963967781,54.37900963967781 0 0,0 0.9332727888999859,0.07243993033909271 l -2.8694198457301887 33.255446385135684" fill="#6bff28" stroke="none" /><path d="M 102.16513564639614 79.11191278185805 l 1.9620519004241446 -18.928842306392088 a40.0302579782886,40.0302579782886 0 0,0 0.6847715015665112,0.07694205693426161 l -2.287590105500381 18.89226429598723" fill="#ffee16" stroke="none" /><path d="M 103.2404852339499 79.25152402106235 l 3.7968857899469755 -24.31104847574269 a45.60575988852635,45.60575988852635 0 0,0 0.7745829801943113,0.1278128286151401 l -4.214797976280162 24.242089384187924" fill="#cdff1d" stroke="none" /><path d="M 104.307194497241 79.44645832069477 l 5.938435270376841 -28.337674771299536 a49.953217867870954,49.953217867870954 0 0,0 0.8400639210467914,0.18360543552741976 l -6.42534191557716 28.231255837676247" fill="#9bff22" stroke="none" /><path d="M 105.01212808612495 79.60689891045804 l 5.049425364544619 -20.544854427865985 a42.15626951932479,42.15626951932479 0 0,0 0.7031888808960898,0.17925850289397072 l -5.402323134125734 20.454892928803147" fill="#f6ff19" stroke="none" /><path d="M 105.71112130821622 79.79150937346287 l 6.4392244973354265 -22.78484396914595 a44.67726181012938,44.67726181012938 0 0,0 0.7382593758784018,0.2155181562239379 l -6.830474090937256 22.670627484003308" fill="#d8ff1c" stroke="none" /><path d="M 106.0581310904928 79.89281104454417 l 9.304651180272936 -30.882524107139194 a53.253787821193775,53.253787821193775 0 0,0 0.8754279292588525,0.27199971898552916 l -9.834864482242507 30.717784253271144" fill="#77ff27" stroke="none" /><path d="M 106.40334571778207 80.00007090966166 l 5.6929340101478605 -17.781060329563132 a39.670179540847,39.670179540847 0 0,0 0.6485454324333421,0.21381523239028166 l -5.99816226482362 17.680431372913613" fill="#ffea16" stroke="none" /><path d="M 107.4271985657038 80.35727306442388 l 4.518626633213052 -11.950420915078213 a33.77617104996333,33.77617104996333 0 0,0 0.5420542031280245,0.2103086094963617 l -4.723664001340744 11.870869601691304" fill="#ff9e0e" stroke="none" /><path d="M 108.09893153111575 80.62456947434976 l 4.335677297661687 -10.372431713953503 a32.24212779193011,32.24212779193011 0 0,0 0.5102182261266026,0.21844881722475412 l -4.513579281578605 10.296263368765958" fill="#ff890c" stroke="none" /><path d="M 108.43124777332544 80.76684994638697 l 2.339278215985223 -5.336302544391536 a26.82652103892731,26.82652103892731 0 0,0 0.42132696847454076,0.18903712936818018 l -2.430787302926544 5.295245084506824" fill="#ff3f05" stroke="none" /><path d="M 108.76106565485865 80.91482961587045 l 7.460345982809669 -16.25167300595651 a38.882215681390264,38.882215681390264 0 0,0 0.6058622935190163,0.2844604705335973 l -7.738986487628284 16.12084755278291" fill="#ffe015" stroke="none" /><path d="M 109.08828744355905 81.06846463323043 l 7.905308489308849 -16.467307859704547 a39.26653033439645,39.26653033439645 0 0,0 0.6068151113484822,0.29776153976960595 l -8.187594867667764 16.328791159800108" fill="#ffe515" stroke="none" /><path d="M 109.73455568895987 81.39251694778311 l 11.994461219712239 -22.927264581719776 a46.87521132573342,46.87521132573342 0 0,0 0.7117330155353482,0.3801831280237293 l -12.3873392817759 22.71740272719429" fill="#beff1f" stroke="none" /><path d="M 110.36928655335952 81.73862282372117 l 11.231481415430757 -19.779790761891565 a43.746127085052905,43.746127085052905 0 0,0 0.6516157854376929,0.377457921814197 l -11.570293933333778 19.58352868268732" fill="#e3ff1b" stroke="none" /><line stroke="#e1ed5e" stroke-width="0.3" x1="143.23703022742887" x2="145.7803849466894" y1="26.81831364943548" y2="22.513508569990506" /><path d="M 143.74570117128098 25.957352633546492 a86.0,86.0 0 0,1 28.547481713284135,27.462654790039103" fill="none" id="id74" stroke="none" /><text fill="#e1ed5e" style="font-size:6.75px; font-family:Arial;" text-anchor="middle"><textPath startOffset="19.985693538727396" xlink:href="#id74">February</textPath></text><path d="M 110.99172775467656 82.1063720568725 l 12.835930199771749 -20.895837708584924 a45.52339979768164,45.52339979768164 0 0,0 0.664166562710002,0.4159010406382457 l -13.193715914854014 20.671792326623734" fill="#ceff1d" stroke="none" /><path d="M 111.2981086023043 82.29822771554956 l 18.869550151173037 -29.564637024108347 a56.07317615037042,56.07317615037042 0 0,0 0.8091438734556532,0.5262896830966812 l -19.375661050412972 29.235448416852137" fill="#5aff2a" stroke="none" /><path d="M 111.90073688211348 82.69761687909136 l 16.456207230579455 -23.925543858422547 a50.03856754967566,50.03856754967566 0 0,0 0.7054696033951894,0.49422654077063843 l -16.865607973558294 23.638732474887973" fill="#9aff22" stroke="none" /><path d="M 112.48926042617603 83.11751280151076 l 14.047934698958684 -18.98944129816644 a44.620824501331796,44.620824501331796 0 0,0 0.6135445093919876,0.4621090043624137 l -14.372725362109055 18.74481570429818" fill="#d8ff1c" stroke="none" /><path d="M 113.34407831869373 83.78471172551755 l 11.937363086703915 -14.505893855321608 a39.786207547178286,39.786207547178286 0 0,0 0.5250689311752735,0.439730129685208 l -12.185289554838306 14.29826256824258" fill="#ffeb16" stroke="none" /><path d="M 113.6212207817346 84.01681056812373 l 12.467695898961397 -14.62963918765218 a40.2215968064536,40.2215968064536 0 0,0 0.5230841674367611,0.45361343544417937 l -12.717673865044922 14.412860758788328" fill="#fff016" stroke="none" /><path d="M 113.89432698308785 84.25364557470407 l 9.811523748184438 -11.119338891273555 a35.829217634122706,35.829217634122706 0 0,0 0.4589364698386193,0.41203769398386675 l -10.001471205619048 10.948802188520391" fill="#ffb911" stroke="none" /><path d="M 114.42810811169701 84.74124197986012 l 9.216657989976989 -9.747276145611474 a34.41477456996625,34.41477456996625 0 0,0 0.4269345448941638,0.410710693928389 l -9.38307577848357 9.587182364920784" fill="#ffa60f" stroke="none" /><path d="M 114.94478906791727 85.2469230424477 l 10.542374888553327 -10.407137052210624 a35.813850610637836,35.813850610637836 0 0,0 0.42931552633789394,0.4424473877913741 l -10.71995467859433 10.224125468869135" fill="#ffb911" stroke="none" /><path d="M 115.19652480421416 85.50635884689758 l 14.105136439540455 -13.45273268751261 a40.49181599389144,40.49181599389144 0 0,0 0.4767095288785249,0.5085204877969284 l -14.334613290389443 13.207942782837627" fill="#fff417" stroke="none" /><path d="M 115.68641384162765 86.03803664274999 l 20.343611379409897 -18.107182400077694 a48.23476782398079,48.23476782398079 0 0,0 0.5466793905019447,0.6249490464317983 l -20.65228263348969 17.754317797442948" fill="#aeff20" stroke="none" /><path d="M 116.15771136456269 86.58626213691792 l 12.882470985739758 -10.694713188803794 a37.743206051685576,37.743206051685576 0 0,0 0.4106847379371888,0.5034509288009742 l -13.064654215753354 10.471378090394719" fill="#ffd113" stroke="none" /><path d="M 116.38621287248628 86.86637796730983 l 15.934142748865227 -12.771285830779862 a41.42064266649541,41.42064266649541 0 0,0 0.44112179578748795,0.5601798840303809 l -16.15161862524668 12.495113552796443" fill="#ffff18" stroke="none" /><path d="M 116.60985879189232 87.15038557335679 l 25.224704673570496 -19.51417728123857 a52.891830314869935,52.891830314869935 0 0,0 0.5508912312116979,0.7249082855303158 l -25.55687184500631 19.07708421982722" fill="#7bff26" stroke="none" /><path d="M 116.82858285166822 87.43820079747576 l 6.9914186720231655 -5.218787480374658 a29.724429941997897,29.724429941997897 0 0,0 0.30253438096782714,0.41265655564514053 l -7.0802156655046184 5.097668481058024" fill="#ff6709" stroke="none" /><path d="M 117.2510076193507 88.02491185347247 l 21.615704034032838 -15.00491837163403 a47.31323310097609,47.31323310097609 0 0,0 0.4586579385462371,0.6730239293996008 l -21.870786438247805 14.630616418964024" fill="#b9ff1f" stroke="none" /><path d="M 117.65298651832404 88.62581576622439 l 17.21801294926548 -11.093921769055578 a41.48255526390687,41.48255526390687 0 0,0 0.3815849959137559,0.6035758257005801 l -17.40642554142519 10.795898295640791" fill="#feff18" stroke="none" /><line stroke="#e1ed5e" stroke-width="0.3" x1="172.23445277983987" x2="176.4835382374775" y1="55.19839476539836" y2="52.563006222186495" /><path d="M 173.08426987136738 54.67131705675599 a86.0,86.0 0 0,1 12.851231095245387,41.99856678651699" fill="none" id="id75" stroke="none" /><text fill="#e1ed5e" style="font-size:6.75px; font-family:Arial;" text-anchor="middle"><textPath startOffset="22.20632615414155" xlink:href="#id75">March</textPath></text><path d="M 118.03404312379186 89.2402003453031 l 19.310760831142808 -11.52153825387863 a43.48669223370098,43.48669223370098 0 0,0 0.3780035693594508,0.6461306316926037 l -19.506224074972586 11.187428209832131" fill="#e6ff1a" stroke="none" /><path d="M 118.21658344932153 89.55222093294921 l 27.67327729419161 -15.871488088602884 a52.90163648385274,52.90163648385274 0 0,0 0.4462438412495217,0.793818000357006 l -27.942378776733566 15.392786578311084" fill="#7bff26" stroke="none" /><path d="M 118.56541770881063 90.18545643968196 l 17.94762953262115 -9.487951987676851 a41.30119796368372,41.30119796368372 0 0,0 0.3268509286071831,0.6313719595079987 l -18.10828989438845 9.177607305908507" fill="#fffe18" stroke="none" /><path d="M 118.73160827565052 90.50648371742162 l 18.147691436250078 -9.197576716634885 a41.34537101956434,41.34537101956434 0 0,0 0.316272374524731,0.6375858078399671 l -18.303323823728217 8.883831320295968" fill="#fffe18" stroke="none" /><path d="M 118.89224826269711 90.83032412892265 l 13.164072389283838 -6.389407722927018 a35.632748645422176,35.632748645422176 0 0,0 0.2630745575413795,0.5541021105588987 l -13.272105140666973 6.1618631967275785" fill="#ffb610" stroke="none" /><path d="M 119.196687751892 91.48605970444005 l 13.962271087697836 -6.192419440659292 a36.273868941935376,36.273868941935376 0 0,0 0.24823295032881726,0.572955874152068 l -14.066794747869334 5.9511644219206215" fill="#ffbf11" stroke="none" /><path d="M 119.34039704204932 91.81776055985345 l 22.44635255096707 -9.496259602667179 a45.37247811125398,45.37247811125398 0 0,0 0.2981151424563694,0.7219094637390876 l -22.60648938030964 9.10847556847479" fill="#cfff1d" stroke="none" /><path d="M 119.61058180528143 92.48833698450437 l 13.983751653810303 -5.356354602774384 a35.97450650092031,35.97450650092031 0 0,0 0.21652440726832287,0.5801777623166452 l -14.073880649580252 5.114853703428405" fill="#ffbb11" stroke="none" /><path d="M 119.7369772167798 92.82701384747503 l 11.597022223610209 -4.2146919919306916 a33.339147176436214,33.339147176436214 0 0,0 0.19137768954989154,0.5410504995543759 l -11.66785299396991 4.014443865949701" fill="#ff980e" stroke="none" /><path d="M 119.85752413597 93.16781622104841 l 10.692803788272794 -3.6789682386142464 a32.30799982999794,32.30799982999794 0 0,0 0.1764058425394646,0.5274310158335523 l -10.754546924584028 3.49436411985838" fill="#ff8a0c" stroke="none" /><path d="M 120.08093135843002 93.85539295169968 l 10.54863773191304 -3.227800175227884 a32.03143018698576,32.03143018698576 0 0,0 0.15679248239525426,0.5286263049185413 l -10.602636111419997 3.0457444835628125" fill="#ff870c" stroke="none" /><path d="M 120.18372546131832 94.20196356495316 l 16.757938850015623 -4.8139348810946085 a38.43566699441929,38.43566699441929 0 0,0 0.17719433557931336,0.6374623028433098 l -16.8383199561613 4.524761274832347" fill="#ffda14" stroke="none" /><path d="M 120.37134235888165 94.90015583598534 l 14.746385194082524 -3.691669657673082 a36.201457204940596,36.201457204940596 0 0,0 0.14612838827336175,0.6057965093936248 l -14.807746382616704 3.437287916620051" fill="#ffbe11" stroke="none" /><path d="M 120.45610955862082 95.25157060432595 l 10.83759539276332 -2.5157059505350357 a32.12574718060779,32.12574718060779 0 0,0 0.1204036488032047,0.539745948801768 l -10.879293428568563 2.328781832183304" fill="#ff880c" stroke="none" /><path d="M 120.53481517161879 95.60439243477599 l 12.792723513765166 -2.7383636904920095 a34.08252309766909,34.08252309766909 0 0,0 0.11786175354029095,0.5747357680122585 l -12.837964563220455 2.5177522663163394" fill="#ffa20f" stroke="none" /><path d="M 120.67395015179393 96.31383870115 l 6.415389877826982 -1.1438627698648962 a27.516567295809036,27.516567295809036 0 0,0 0.0791273464927342,0.4670140781423797 l -6.434129085839939 1.0332629034066785" fill="#ff4806" stroke="none" /><path d="M 120.73433829027371 96.67025291283417 l 61.236550659887214 -9.834035855559032 a83.02115282651036,83.02115282651036 0 0,0 0.21444801241492367,1.4129444624013048 l -61.39675456574144 8.778492280765645" fill="#4cdbff" stroke="none" /><path d="M 120.87857604477298 97.74499172005257 l 9.320561368003368 -1.0066751206372446 a30.374767144480273,30.374767144480273 0 0,0 0.05167018995875422,0.5203117614773587 l -9.33650868364435 0.8460878284554509" fill="#ff700a" stroke="none" /><path d="M 120.91429891909075 98.10471618934814 l 11.958353760866606 -1.0836831955351838 a33.00735582625575,33.00735582625575 0 0,0 0.04640758183446706,0.5662900444748102 l -11.975235826520567 0.8776792338526048" fill="#ff940d" stroke="none" /><path d="M 120.94382443527127 98.46500227214037 l 8.292443884485786 -0.6077630453993218 a29.31468589284639,29.31468589284639 0 0,0 0.03255243571011314,0.5035717723863693 l -8.301676911200316 0.46493220875991725" fill="#ff6109" stroke="none" /><path d="M 120.96714384426684 98.82574320788733 l 8.586170509286147 -0.4808651628306361 a29.599625301102325,29.599625301102325 0 0,0 0.024111561263922204,0.5089569497308998 l -8.593175678783565 0.33299710647673647" fill="#ff6509" stroke="none" /><path d="M 120.98425023603335 99.18683210126433 l 13.577283582791395 -0.5261379862216019 a34.587474035599186,34.587474035599186 0 0,0 0.017933285014621287,0.5951184235345107 l -13.58432856226166 0.29234941526209207" fill="#ffa90f" stroke="none" /><line stroke="#e1ed5e" stroke-width="0.3" x1="184.98032266829074" x2="189.97916517819016" y1="98.17113171792111" y2="98.06355123074" /><path d="M 185.9800911702706 98.14961562048488 a86.0,86.0 0 0,1 -9.607161424134198,41.387399972396054" fill="none" id="id76" stroke="none" /><text fill="#e1ed5e" style="font-size:6.75px; font-family:Arial;" text-anchor="middle"><textPath startOffset="21.466115282336823" xlink:href="#id76">April</textPath></text><path d="M 120.99980553446 99.90962569577887 l 15.811327432621377 -0.06804528323801778 a36.81147385104046,36.81147385104046 0 0,0 -0.0027270337927358377,0.6336666138335253 l -15.810156101539139 -0.20413080879919226" fill="#ffc512" stroke="none" /><path d="M 120.99824983174949 100.27111621757518 l 13.086851645593756 0.16896921155573072 a34.08794241232111,34.08794241232111 0 0,0 -0.01262542282286235,0.5866537879320443 l -13.082004160085887 -0.39421281527788987" fill="#ffa20f" stroke="none" /><path d="M 120.9904718944345 100.63252640178507 l 18.75396067661737 0.5651314237077598 a39.762473573230494,39.762473573230494 0 0,0 -0.026504277265982108,0.6839576271264355 l -18.741454266500185 -0.8878662978482016" fill="#ffeb16" stroke="none" /><path d="M 120.9764740272857 100.99374915477107 l 12.353168196397062 0.5852246873304876 a33.36702277927622,33.36702277927622 0 0,0 -0.03211758525657649,0.5734810601295713 l -12.341264260252956 -0.7977774637954823" fill="#ff980e" stroke="none" /><path d="M 120.95626037817324 101.35467743843564 l 17.26382388000525 1.1159869313194803 a38.29985669856012,38.29985669856012 0 0,0 -0.04819114364946081,0.657529867055002 l -17.242056177691452 -1.4129899348712527" fill="#ffd814" stroke="none" /><path d="M 120.92983693683757 101.71520430193887 l 8.739222618416687 0.7161810326542684 a29.7685191022076,29.7685191022076 0 0,0 -0.046248093044910364,0.5103438529591492 l -8.7255999290947 -0.8665062741619881" fill="#ff6809" stroke="none" /><path d="M 120.8583938346157 102.4346265915055 l 9.523774462590938 1.1116308734973206 a30.588430696063444,30.588430696063444 0 0,0 -0.06554443884905894,0.522453667375639 l -9.50322851449503 -1.2754022951603547" fill="#ff730a" stroke="none" /><path d="M 120.81339534386255 102.79330883721812 l 11.137347329355533 1.4947129098487093 a32.23720037276061,32.23720037276061 0 0,0 -0.07854509284001283,0.5493441963841533 l -11.10996818549892 -1.6862025782132721" fill="#ff890c" stroke="none" /><path d="M 120.76222939487914 103.15116336523771 l 2.4465205928767024 0.3713178348021796 a23.47453832983285,23.47453832983285 0 0,0 -0.06407235020212902,0.3989785858704918 l -2.439766488313285 -0.4133756503658763" fill="#ff0e01" stroke="none" /><path d="M 120.64145759157962 103.86396538481128 l 8.054337106055735 1.5077268471629663 a29.194241054767808,29.194241054767808 0 0,0 -0.09671644318594355,0.4931550601356343 l -8.027190729894127 -1.6461456343665455" fill="#ff6008" stroke="none" /><path d="M 120.5718875245553 104.21870165774334 l 30.00354792820841 6.15286357325399 a51.62793852728869,51.62793852728869 0 0,0 -0.18602274273060282,0.8690363238775283 l -29.893191146753363 -6.668413716547688" fill="#89ff24" stroke="none" /><path d="M 120.41448212921028 104.9243191809786 l 17.59195812614947 4.243478540541423 a39.09652178835016,39.09652178835016 0 0,0 -0.16343963159208463,0.6528600841698826 l -17.516307180262327 -4.5456664641087015" fill="#ffe215" stroke="none" /><path d="M 120.32669344350535 105.2749913415812 l 13.406353661231071 3.4790901767530165 a34.85042912504819,34.85042912504819 0 0,0 -0.1556850379302535,0.5793619423941556 l -13.34448054695904 -3.7093430523227204" fill="#ffac0f" stroke="none" /><path d="M 120.23288151984713 105.62410040840565 l 10.201954463530706 2.8358203060990643 a31.5887559082471,31.5887559082471 0 0,0 -0.1501328776786091,0.5226322427824249 l -10.151628948965998 -3.011010024386071" fill="#ff810b" stroke="none" /><path d="M 120.13307415673323 105.97154293290107 l 17.967009437967853 5.329080268587893 a39.740665000289574,39.740665000289574 0 0,0 -0.20016659046824758,0.6541559992116477 l -17.87261607499347 -5.637563240351597" fill="#ffeb16" stroke="none" /><path d="M 120.02730092923936 106.31721596034902 l 9.56129300193402 3.0159207656987563 a31.025672143742057,31.025672143742057 0 0,0 -0.16503847599454077,0.507936200568895 l -9.507962274923234 -3.180055866245447" fill="#ff790b" stroke="none" /><path d="M 119.9155931802556 106.66101706037122 l 11.491066421773452 3.8433296354524904 a33.116756587319756,33.116756587319756 0 0,0 -0.1854682963852364,0.5390576850806247 l -11.423207294444985 -4.040560023622415" fill="#ff950d" stroke="none" /><path d="M 119.67450827220406 107.3425965602758 l 16.308140604062423 6.086256156808551 a38.40683670194443,38.40683670194443 0 0,0 -0.23648684229902234,0.6173925210983 l -16.200959482169896 -6.366072244739995" fill="#ffda14" stroke="none" /><path d="M 119.54520255179757 107.68017299344265 l 14.373580026516677 5.648014178731924 a36.44344090356278,36.44344090356278 0 0,0 -0.234448266358883,0.5818813701403651 l -14.274229145900401 -5.894594916715103" fill="#ffc111" stroke="none" /><path d="M 119.41010516605496 108.01547362559984 l 18.378033180003406 7.589275739851953 a40.88339029996674,40.88339029996674 0 0,0 -0.2742088290134376,0.6481486718091333 l -18.24467336979766 -7.904498937327249" fill="#fff917" stroke="none" /><path d="M 119.26925614724726 108.34839909993367 l 6.96208879759436 3.016322758250228 a28.587416121943434,28.587416121943434 0 0,0 -0.1995114617698929,0.44984567680342696 l -6.909136251093194 -3.1357167715463428" fill="#ff5708" stroke="none" /><path d="M 118.97047184881838 109.00673069616215 l 16.391131663880227 7.78212107102128 a39.14471288245395,39.14471288245395 0 0,0 -0.2942316880593998,0.6062044259496372 l -16.254746719206114 -8.063114452936192" fill="#ffe315" stroke="none" /><path d="M 118.64920377521936 109.65438752849418 l 18.019376375703448 9.328336193312245 a41.290780692342,41.290780692342 0 0,0 -0.33218923006700923,0.6283768345068501 l -17.856134637411547 -9.63712804290523" fill="#fffe18" stroke="none" /><line stroke="#e1ed5e" stroke-width="0.3" x1="174.80103733775053" x2="179.2010983576182" y1="140.37084112569926" y2="142.7455964860345" /><path d="M 175.68104954172406 140.8457921977663 a86.0,86.0 0 0,1 -30.038265399797805,32.042727171017184" fill="none" id="id77" stroke="none" /><text fill="#e1ed5e" style="font-size:6.75px; font-family:Arial;" text-anchor="middle"><textPath startOffset="22.206326154141568" xlink:href="#id77">May</textPath></text><path d="M 118.48025628344425 109.97397251340804 l 14.945939606490528 8.066467722947092 a37.98378674637107,37.98378674637107 0 0,0 -0.31548897461572406,0.5727041288948473 l -14.804874222423294 -8.322542370239745" fill="#ffd413" stroke="none" /><path d="M 118.30583269289576 110.29060199501025 l 10.070577246409345 5.661162976925001 a32.55271796276547,32.55271796276547 0 0,0 -0.27878768311514035,0.48608982459499 l -9.971637567141826 -5.8336726473783065" fill="#ff8e0d" stroke="none" /><path d="M 117.94076556474637 110.91462005526583 l 18.17143665235794 11.054953379946378 a42.2700048012088,42.2700048012088 0 0,0 -0.3835205045731075,0.6183571689589926 l -17.97845150811687 -11.366106880270644" fill="#f4ff19" stroke="none" /><path d="M 117.75023020441432 111.22182372390056 l 10.450965032483913 6.607175568349351 a33.364361653607276,33.364361653607276 0 0,0 -0.3110752261097876,0.48279565899715265 l -10.335684942997075 -6.786092827267956" fill="#ff980e" stroke="none" /><path d="M 117.14729908036423 112.12312394758627 l 17.654093477756295 12.481427098813265 a42.62066231511763,42.62066231511763 0 0,0 -0.42868310206135557,0.5954033350795668 l -17.43663058331934 -12.783464039343963" fill="#f0ff19" stroke="none" /><path d="M 116.93607887273984 112.41649034213515 l 5.888763170425307 4.317278608710109 a28.301809793645916,28.301809793645916 0 0,0 -0.29142607142925864,0.3904128468474454 l -5.813575832300956 -4.41800433506687" fill="#ff5307" stroke="none" /><path d="M 116.498646956653 112.99209946851258 l 12.483672662901716 9.830449575343408 a36.88961365193783,36.88961365193783 0 0,0 -0.3971467084723747,0.4955015829173075 l -12.312608042374487 -10.043878991838966" fill="#ffc612" stroke="none" /><path d="M 116.27256486870786 113.27417163493432 l 7.197003286099154 5.870878847168027 a30.287845538026943,30.287845538026943 0 0,0 -0.3330278423493769,0.4011534896513862 l -7.094879443856234 -5.993893593933183" fill="#ff6f0a" stroke="none" /><path d="M 115.80600337817218 113.82643327865902 l 12.038565755474643 10.530835797408772 a36.99454807241745,36.99454807241745 0 0,0 -0.42339582097450756,0.4756896932531405 l -11.855511084851798 -10.736499660402778" fill="#ffc812" stroke="none" /><path d="M 115.56566222782051 114.09645910891815 l 10.737848536301932 9.72433042644347 a35.48668331369247,35.48668331369247 0 0,0 -0.41393288314320215,0.4492423919146454 l -10.568869245163008 -9.90772407315945" fill="#ffb410" stroke="none" /><path d="M 115.07121518719521 114.62390073753431 l 11.51611165115555 11.174312859121407 a37.04637327982266,37.04637327982266 0 0,0 -0.4480130381953843,0.45383484237024196 l -11.32205798790463 -11.370888195472313" fill="#ffc812" stroke="none" /><path d="M 114.81725581225074 114.88116024355365 l 11.373031256845044 11.422081303889387 a37.118615985308224,37.118615985308224 0 0,0 -0.45664743845471356,0.44692563007341707 l -11.174733866014536 -11.616157036885376" fill="#ffc912" stroke="none" /><path d="M 114.55890576462653 115.13401014063108 l 13.119638123486006 13.637888699346261 a39.92397718945423,39.92397718945423 0 0,0 -0.499361816965163,0.47217776653363547 l -12.882940472130036 -13.861701102625819" fill="#ffed16" stroke="none" /><path d="M 114.0293411484842 115.62618273729858 l 14.1587044235023 15.770270342948296 a42.193639084446495,42.193639084446495 0 0,0 -0.5446146920256526,0.4805591444481844 l -13.885147378570059 -16.01165262916877" fill="#f5ff19" stroke="none" /><path d="M 113.75828350139079 115.86535959552629 l 8.493343361051608 9.794095795288566 a33.9638417876804,33.9638417876804 0 0,0 -0.4449821630412388,0.3792234530256058 l -8.323495721433321 -9.938843638537119" fill="#ffa00e" stroke="none" /><path d="M 113.20401910651253 116.32954008644616 l 11.946336530302572 14.774151694580244 a39.99975038756325,39.99975038756325 0 0,0 -0.5391252209702863,0.4283136814487283 l -11.690253816614936 -14.977599290034098" fill="#ffee16" stroke="none" /><path d="M 112.92097659922987 116.55440617244103 l 7.517102115982872 9.63094087447797 a33.21727655207185,33.21727655207185 0 0,0 -0.4537658266893385,0.3479282863379022 l -7.3502075608000395 -9.758908502643244" fill="#ff960d" stroke="none" /><path d="M 112.63410532772338 116.77436683061366 l 9.071185264423997 12.043859479310253 a36.077829859063755,36.077829859063755 0 0,0 -0.499274266272658,0.3693511662265718 l -8.862526027732775 -12.198220594276595" fill="#ffbc11" stroke="none" /><path d="M 112.04921762599082 117.19931262002967 l 13.246685159424716 18.908603554856803 a44.08700838367038,44.08700838367038 0 0,0 -0.6252862821261642,0.4300776065111043 l -12.91924199267567 -19.133821950733" fill="#dfff1b" stroke="none" /><path d="M 111.7513745106137 117.40417183066458 l 7.247111798465257 10.733210732294065 a33.95076994017293,33.95076994017293 0 0,0 -0.4871536181063228,0.322858854405996 l -7.06128348161897 -10.85636760779138" fill="#ffa00e" stroke="none" /><path d="M 111.1453310114006 117.79835938074945 l 7.048392402176592 11.255818324476845 a34.28056028971253,34.28056028971253 0 0,0 -0.5028155051050467,0.30887035097136795 l -6.853597697139237 -11.37547714227659" fill="#ffa50f" stroke="none" /><line stroke="#e1ed5e" stroke-width="0.3" x1="143.8653032363475" x2="146.44561519142675" y1="172.8068346515853" y2="177.08958963109032" /><path d="M 144.38136562736335 173.6633856474863 a86.0,86.0 0 0,1 -40.68145358897372,12.25698825130547" fill="none" id="id78" stroke="none" /><text fill="#e1ed5e" style="font-size:6.75px; font-family:Arial;" text-anchor="middle"><textPath startOffset="21.466115282336833" xlink:href="#id78">June</textPath></text><path d="M 110.8373102113329 117.98757091392108 l 12.40531605157658 20.590118565951094 a45.0384036262691,45.0384036262691 0 0,0 -0.6674951545755604,0.3943679028766063 l -12.049053025972636 -20.80060504112145" fill="#d3ff1c" stroke="none" /><path d="M 110.5260780823613 118.17145234162733 l 8.172727939160882 14.108800550929706 a37.30496044010703,37.30496044010703 0 0,0 -0.5584219197287397,0.3170865399388442 l -7.928657252510944 -14.247390256663179" fill="#ffcc13" stroke="none" /><path d="M 109.89434966115114 118.52300852407294 l 11.067472298307388 20.719187287912977 a44.48986302525871,44.48986302525871 0 0,0 -0.6785956129685928,0.3550091522958363 l -10.7091857828123 -20.90662585915353" fill="#daff1c" stroke="none" /><path d="M 109.57404056367764 118.69057910512821 l 5.027666312785419 9.815082180642845 a32.0278405304706,32.0278405304706 0 0,0 -0.49284150060863224,0.24712095962689115 l -4.857970904494026 -9.90017098117904" fill="#ff870c" stroke="none" /><path d="M 108.92500713936063 119.00905698771935 l 4.649078331874955 9.90190747985365 a31.938999089290157,31.938999089290157 0 0,0 -0.49966587542795526,0.2293720963453895 l -4.477944460679581 -9.980466646533113" fill="#ff850c" stroke="none" /><path d="M 108.59647513512805 119.15986991738527 l 9.077896816315945 20.23286514414709 a43.17604659421786,43.17604659421786 0 0,0 -0.6806998274932874,0.2983988004491073 l -8.728276314164903 -20.386128497890653" fill="#e9ff1a" stroke="none" /><path d="M 108.2653958097858 119.30500536409082 l 5.851555218385588 13.66713796639521 a35.86712341599063,35.86712341599063 0 0,0 -0.5696528249980853,0.23811492704941176 l -5.615430933890042 -13.765837936464594" fill="#ffb911" stroke="none" /><path d="M 107.59598834532513 119.57807347666477 l 8.51538015382905 21.94773487718698 a44.5417664036392,44.5417664036392 0 0,0 -0.7171856019528539,0.27117822752604526 l -8.13632433111592 -22.091061354819654" fill="#d9ff1c" stroke="none" /><path d="M 107.2578585660854 119.70592522655815 l 3.204490884335662 8.700563283360443 a30.271923385983634,30.271923385983634 0 0,0 -0.49052111382692937,0.17588341951303807 l -3.0542502098789974 -8.754434243913442" fill="#ff6f0a" stroke="none" /><path d="M 106.57524785965236 119.94407469862006 l 2.5406073087169143 7.70618279743285 a29.114181339146654,29.114181339146654 0 0,0 -0.4773043423914216,0.1528177776593918 l -2.407581621234552 -7.748773421751948" fill="#ff5f08" stroke="none" /><path d="M 105.88484417918355 120.15858648285463 l 2.877068548716686 9.85542410138255 a31.266786627378927,31.266786627378927 0 0,0 -0.5179400257708972,0.1463750248459371 l -2.706997354841183 -9.903487919567006" fill="#ff7c0b" stroke="none" /><path d="M 105.18746579009965 120.34920634021253 l 5.487402852451735 21.525788782939813 a43.21421105492682,43.21421105492682 0 0,0 -0.7223908020593178,0.17754608346528677 l -5.116058765649207 -21.61705612471913" fill="#e9ff1a" stroke="none" /><path d="M 104.83641907484287 120.43548508189849 l 2.918780680384305 12.33282272034396 a33.67350767986578,33.67350767986578 0 0,0 -0.5652015693532096,0.12863803704646487 l -2.706058961638233 -12.38123749096811" fill="#ff9d0e" stroke="none" /><path d="M 104.48393922423573 120.51570834832081 l 3.188528890843165 14.588718872719102 a35.933098634743295,35.933098634743295 0 0,0 -0.6054017673463112,0.12686782655854778 l -2.9369356620674756 -14.641442680004193" fill="#ffba11" stroke="none" /><path d="M 104.13013068566511 120.58985236759428 l 2.880789678113371 14.361539304389296 a35.647619614157215,35.647619614157215 0 0,0 -0.6026694964978445,0.11550304336930269 l -2.633152567043822 -14.408999546107067" fill="#ffb610" stroke="none" /><path d="M 103.7750983002368 120.6578951692458 l 4.741106898733087 25.944036819934563 a47.373682737519516,47.373682737519516 0 0,0 -0.8034374205773509,0.13968789408581334 l -4.293820506683686 -26.021803292541385" fill="#b8ff1f" stroke="none" /><path d="M 103.41894727170886 120.7198165907248 l 3.0905358318706155 18.729547581298633 a39.98281760772635,39.98281760772635 0 0,0 -0.6800204057791314,0.10620520205671044 l -2.767679562482967 -18.77997109070245" fill="#ffee16" stroke="none" /><path d="M 102.70371172650421 120.8252237178851 l 2.8284170903721506 21.785761439385457 a42.96859906163621,42.96859906163621 0 0,0 -0.7342977082438776,0.08891322636360877 l -2.4529919590768925 -21.831220194474415" fill="#ecff1a" stroke="none" /><path d="M 102.34483914955558 120.86867818915974 l 2.0957157760575305 18.651521625600083 a39.768891378135365,39.768891378135365 0 0,0 -0.680933190890951,0.07058150940368807 l -1.7743499885609768 -18.68483250345953" fill="#ffeb16" stroke="none" /><path d="M 101.98527174616119 120.90594882070398 l 1.11534155780985 11.745129386072353 a32.797968091419726,32.797968091419726 0 0,0 -0.5624940273645913,0.048534351532447936 l -0.9130032127037171 -11.762587989883464" fill="#ff910d" stroke="none" /><path d="M 101.62511606390274 120.93702456842531 l 1.9413718560864732 25.011475272553056 a46.08670604111145,46.08670604111145 0 0,0 -0.7914563062599727,0.05458346071589349 l -1.5105527890475703 -25.041187077785235" fill="#c7ff1e" stroke="none" /><path d="M 101.26447882468166 120.96189622390904 l 1.1391429529401778 18.884140958027366 a39.91846786581514,39.91846786581514 0 0,0 -0.6862401519148746,0.03547077733966403 l -0.8139147326118235 -18.90095154212923" fill="#ffed16" stroke="none" /><path d="M 100.90346689309514 120.98055641714683 l 0.8728007825158923 20.26841957182397 a41.28720318687269,41.28720318687269 0 0,0 -0.7102964879852638,0.024464047222718093 l -0.5237839428559763 -20.280440417472782" fill="#fffe18" stroke="none" /><line stroke="#e1ed5e" stroke-width="0.3" x1="102.19456741930631" x2="102.32365962044197" y1="184.97166512339345" y2="189.96999836594603" /><path d="M 102.22038585953345 185.97133177190398 a86.0,86.0 0 0,1 -42.740103519485714,-10.115201625700543" fill="none" id="id79" stroke="none" /><text fill="#e1ed5e" style="font-size:6.75px; font-family:Arial;" text-anchor="middle"><textPath startOffset="22.20632615414155" xlink:href="#id79">July</textPath></text><path d="M 100.18074693466247 120.99922214144158 l 0.18766668022219365 21.803159837217187 a42.8039674754414,42.8039674754414 0 0,0 -0.7368272297692832,0.0 l 0.18766668022217864 -21.803159837217187" fill="#eeff19" stroke="none" /><path d="M 99.81925306533755 120.99922214144158 l -0.16147652765499274 18.760381641815542 a39.761076568671456,39.761076568671456 0 0,0 -0.6843455164372374,-0.01178162868350622 l 0.48438173398489803 -18.754822535852878" fill="#ffeb16" stroke="none" /><path d="M 99.45781275523022 120.99299961872073 l -0.33545808745652383 12.98863366854348 a33.99296489274335,33.99296489274335 0 0,0 -0.5848079239041202,-0.02014196734548204 l 0.558986363035287 -12.980934902771905" fill="#ffa10e" stroke="none" /><path d="M 99.09653310690486 120.98055641714683 l -0.8136709367780622 18.89529004829533 a39.91280112523171,39.91280112523171 0 0,0 -0.6861427347261034,-0.035465741983744255 l 1.1388017399176547 -18.878484499549383" fill="#ffed16" stroke="none" /><path d="M 98.73552117531835 120.96189622390904 l -1.4820060318802057 24.56795324453246 a45.61261198052865,45.61261198052865 0 0,0 -0.7833145932533214,-0.05402196051867012 l 1.9046833859124572 -24.538802939497504" fill="#cdff1d" stroke="none" /><path d="M 98.37488393609728 120.93702456842531 l -1.5298355418930654 19.709487240772695 a40.768770424065856,40.768770424065856 0 0,0 -0.6991954441389474,-0.06032952498130281 l 1.8688753037735544 -19.680233463512728" fill="#fff717" stroke="none" /><path d="M 97.65516085044442 120.86867818915974 l -2.2701263940554894 20.203747099343904 a41.330884651171345,41.330884651171345 0 0,0 -0.7063105277300781,-0.08552436856334553 l 2.617564344836957 -20.161677202055213" fill="#fffe18" stroke="none" /><path d="M 97.2962882734958 120.8252237178851 l -2.445726688952489 18.838105020941825 a39.996204352898715,39.996204352898715 0 0,0 -0.6819760590391354,-0.09451566760281742 l 2.7696313391784555 -18.793214787846402" fill="#ffee16" stroke="none" /><path d="M 96.58105272829116 120.7198165907248 l -4.010333364174149 24.303788613803714 a45.63243623104023,45.63243623104023 0 0,0 -0.7739066237105272,-0.13455358652264526 l 4.428088959356725 -24.231156448760064" fill="#ccff1d" stroke="none" /><path d="M 96.22490169976321 120.6578951692458 l -3.402470259847519 18.61881952583797 a39.92715626830592,39.92715626830592 0 0,0 -0.6750206444431119,-0.1293693130701932 l 3.722458518862326 -18.557493014419308" fill="#ffed16" stroke="none" /><path d="M 95.86986931433489 120.58985236759428 l -4.876802073532319 24.312217303079848 a45.796514042433145,45.796514042433145 0 0,0 -0.7715808430943732,-0.16169226761044717 l 5.294574378056079 -24.224669054742858" fill="#cbff1d" stroke="none" /><path d="M 95.51606077576429 120.51570834832081 l -1.8988921782809998 8.688145883859708 a29.893237341034204,29.893237341034204 0 0,0 -0.5017506586729256,-0.11419681635405858 l 2.048162986346788 -8.654172333927962" fill="#ff6909" stroke="none" /><path d="M 95.16358092515715 120.4354850818985 l -5.029651585847811 21.251956945662283 a42.83902628542089,42.83902628542089 0 0,0 -0.7161190220141079,-0.1760046325218243 l 5.394723892605129 -21.162231054826428" fill="#eeff19" stroke="none" /><path d="M 94.81253420990036 120.34920634021253 l -5.193378911690796 20.372402123325518 a42.02393761394075,42.02393761394075 0 0,0 -0.6994175155602873,-0.18472252276634923 l 5.543286870062572 -20.27998825125559" fill="#f7ff18" stroke="none" /><path d="M 94.46302465271185 120.25689768951611 l -8.586775897501655 31.414523260192112 a53.56693095732336,53.56693095732336 0 0,0 -0.8873459857307082,-0.2507728390269797 l 9.126253051336978 -31.26206162782661" fill="#74ff27" stroke="none" /><path d="M 94.11515582081647 120.15858648285463 l -2.0972683410007082 7.1842115003428155 a28.484078391881116,28.484078391881116 0 0,0 -0.46947868387789965,-0.14145007626004286 l 2.220621999318854 -7.147046054977047" fill="#ff5608" stroke="none" /><path d="M 93.76903079525671 120.05430185196036 l -5.181800509964408 16.677564620984136 a38.46402640321438,38.46402640321438 0 0,0 -0.6305877748802478,-0.20189429221105748 l 5.468109629935596 -16.58589748211337" fill="#ffda14" stroke="none" /><path d="M 93.42475214034765 119.94407469862007 l -7.228027100156524 21.924087956251398 a44.08484369611466,44.08484369611466 0 0,0 -0.7186464912338852,-0.2438039080918984 l 7.604343324327634 -21.796421061261377" fill="#dfff1b" stroke="none" /><path d="M 93.08242187328487 119.8279376855182 l -1.971916326649731 5.652127569744316 a26.986234213925442,26.986234213925442 0 0,0 -0.4372803635839835,-0.15679318069107928 l 2.0689162508634413 -5.617346848013279" fill="#ff4106" stroke="none" /><path d="M 92.7421414339146 119.70592522655815 l -4.018105847330174 10.909621985454493 a32.62604947804115,32.62604947804115 0 0,0 -0.5253256622606733,-0.19863321513691082 l 4.205301730351131 -10.83884052021095" fill="#ff8f0d" stroke="none" /><path d="M 92.40401165467489 119.57807347666478 l -9.042336866552269 23.305925118101005 a45.99859999317445,45.99859999317445 0 0,0 -0.7357123937756395,-0.2927551448567071 l 9.442170336369767 -23.146823128838232" fill="#c8ff1d" stroke="none" /><path d="M 92.06813273071674 119.44442032107085 l -14.640095241396775 35.88917410615613 a59.76035612193413,59.76035612193413 0 0,0 -0.9491325884409803,-0.3967374989452633 l 15.255699289335217 -35.631851564190896" fill="#35ff2f" stroke="none" /><path d="M 91.7346041902142 119.30500536409082 l -8.070833932236159 18.85057847683923 a41.50567407507515,41.50567407507515 0 0,0 -0.6543652652691179,-0.2868545022714717 l 8.39411987216302 -18.708859421273306" fill="#feff18" stroke="none" /><path d="M 91.40352486487194 119.15986991738527 l -8.771263508760729 19.549439182605227 a42.42698382634612,42.42698382634612 0 0,0 -0.6637439061910843,-0.30469227274952865 l 9.106475410719232 -19.395559839521624" fill="#f3ff19" stroke="none" /><path d="M 91.07499286063937 119.00905698771935 l -8.631775426099153 18.38451313459327 a41.31004357953576,41.31004357953576 0 0,0 -0.6410676136632685,-0.30775141217309904 l 8.946955707762664 -18.23320744592061" fill="#fffe18" stroke="none" /><path d="M 90.7491055286396 118.85261126421891 l -7.137596068133551 14.545871693826717 a37.202705359448615,37.202705359448615 0 0,0 -0.5724718505016878,-0.28704927016221604 l 7.386921826317999 -14.420854582755199" fill="#ffca12" stroke="none" /><path d="M 90.42595943632237 118.69057910512821 l -6.657658817155722 12.997176891968854 a35.603117067488725,35.603117067488725 0 0,0 -0.5430477283395635,-0.28409690544658844 l 6.880397448021782 -12.880650567577549" fill="#ffb610" stroke="none" /><line stroke="#e1ed5e" stroke-width="0.3" x1="58.666819895761336" x2="56.23545636021788" y1="174.27360380694188" y2="178.64263932499728" /><path d="M 58.180547188652646 175.14741091055294 a86.0,86.0 0 0,1 -31.652253787137756,-30.449443065178592" fill="none" id="id80" stroke="none" /><text fill="#e1ed5e" style="font-size:6.75px; font-family:Arial;" text-anchor="middle"><textPath startOffset="22.20632615414155" xlink:href="#id80">August</textPath></text><path d="M 89.7882731507175 118.34994917583269 l -7.132157003875262 12.816120178965216 a35.66699014691175,35.66699014691175 0 0,0 -0.5339029682328981,-0.3031640393741791 l 7.351708739029368 -12.691452973796403" fill="#ffb710" stroke="none" /><path d="M 89.4739219176387 118.17145234162733 l -9.063726780067828 15.646955868351958 a39.08254326940413,39.08254326940413 0 0,0 -0.5792258641600962,-0.3422168502271115 l 9.331720515256306 -15.488620445831096" fill="#ffe215" stroke="none" /><path d="M 89.1626897886671 117.98757091392108 l -10.834573646635508 17.983028813474096 a41.99469722121775,41.99469722121775 0 0,0 -0.615963820794283,-0.37837528791926944 l 11.1425166673621 -17.79386505872645" fill="#f8ff18" stroke="none" /><path d="M 88.8546689885994 117.79835938074946 l -17.46274617841065 27.886855216793037 a53.903255127327036,53.903255127327036 0 0,0 -0.7821572745811441,-0.49920977912830494 l 17.94018525503872 -27.58213100884093" fill="#70ff27" stroke="none" /><path d="M 88.54995079064634 117.60387380957326 l -13.652688106944728 20.990320146378064 a46.039757035421786,46.039757035421786 0 0,0 -0.6606163646970207,-0.4378205042118393 l 14.01197917038171 -20.752201621074907" fill="#c8ff1d" stroke="none" /><path d="M 88.24862548938628 117.40417183066458 l -13.806374288409586 20.447694034167995 a45.672335971824936,45.672335971824936 0 0,0 -0.6477709920189701,-0.4455427950019025 l 14.156302165051446 -20.207010449800993" fill="#ccff1d" stroke="none" /><path d="M 87.65650970185807 116.9893568818739 l -14.188260022955092 19.528464578539314 a45.13850971527137,45.13850971527137 0 0,0 -0.6246633017221672,-0.46211097702365383 l 14.522308295095824 -19.28134365277589" fill="#d2ff1c" stroke="none" /><path d="M 87.36589467227662 116.77436683061367 l -8.760775530586491 11.631726874102531 a35.56187686979402,35.56187686979402 0 0,0 -0.4857943254664702,-0.372486373434954 l 8.959698584546448 -11.47920115884021" fill="#ffb510" stroke="none" /><path d="M 87.07902340077011 116.55440617244103 l -18.092791123763867 23.18055533617905 a50.40556471727431,50.40556471727431 0 0,0 -0.679377019932133,-0.5397381928730741 l 18.48912563641336 -22.865683229300846" fill="#96ff23" stroke="none" /><path d="M 86.79598089348748 116.32954008644616 l -20.64947212974775 25.53740495122093 a53.841433447398,53.841433447398 0 0,0 -0.715654876054376,-0.5889352414568368 l 21.085997134346812 -25.17817459090691" fill="#71ff27" stroke="none" /><path d="M 86.51685102203217 116.09983520530335 l -4.096314740536539 4.891290037620953 a27.380008831159007,27.380008831159007 0 0,0 -0.3587231276703293,-0.3057116317327134 l 4.179903344783925 -4.8200540156652885" fill="#ff4606" stroke="none" /><path d="M 86.24171649860922 115.8653595955263 l -12.243558332305486 14.11865481992669 a39.68799439642484,39.68799439642484 0 0,0 -0.5122730656643547,-0.45202141948075714 l 12.48477375087643 -13.905810258673643" fill="#ffea16" stroke="none" /><path d="M 85.97065885151581 115.62618273729859 l -14.681344306097731 16.352397915782976 a42.975959324459346,42.975959324459346 0 0,0 -0.5462049002758252,-0.49894522600877506 l 14.960648755840412 -16.097259923187625" fill="#ecff1a" stroke="none" /><path d="M 85.70375840098266 115.38237550388516 l -9.850842079155855 10.599243923064623 a35.47007468567768,35.47007468567768 0 0,0 -0.4436532176861397,-0.41950180875987153 l 10.031831131232812 -10.428107477558822" fill="#ffb410" stroke="none" /><path d="M 85.44109423537348 115.13401014063109 l -5.006956952021634 5.204741242965426 a28.222115294401153,28.222115294401153 0 0,0 -0.3471992776363983,-0.33980756892841446 l 5.095806182033826 -5.117783571114441" fill="#ff5207" stroke="none" /><path d="M 85.18274418774928 114.88116024355367 l -23.456369717089494 23.557533251430495 a54.24392656105844,54.24392656105844 0 0,0 -0.6559882706657123,-0.6645126548403332 l 23.858398612810742 -23.150280102609496" fill="#6dff28" stroke="none" /><path d="M 84.9287848128048 114.62390073753433 l -5.20310045167695 5.048672159985547 a28.24992033675226,28.24992033675226 0 0,0 -0.33562714514695446,-0.35190371986693775 l 5.289234148202863 -4.958361323536109" fill="#ff5307" stroke="none" /><path d="M 84.67929136418377 114.36230785411682 l -13.06248031489212 12.24534504769834 a38.904660491451224,38.904660491451224 0 0,0 -0.4538017301470298,-0.4925121511443824 l 13.27132845303488 -12.018681641752613" fill="#ffe015" stroke="none" /><path d="M 84.43433777217949 114.09645910891817 l -18.518059322482326 16.770186979217495 a45.98314816809304,45.98314816809304 0 0,0 -0.5262687013100183,-0.5912684648580088 l 18.803986873440685 -16.44894434461862" fill="#c8ff1d" stroke="none" /><path d="M 84.19399662182784 113.82643327865904 l -10.915519594645556 9.548441801909512 a35.50245871793966,35.50245871793966 0 0,0 -0.3984009678826994,-0.4634303319361732 l 11.078263072099034 -9.359134370811809" fill="#ffb510" stroke="none" /><path d="M 83.95833913139862 113.55231037782056 l -19.161498883366477 16.188010848672516 a46.084153059132646,46.084153059132646 0 0,0 -0.5067150134701072,-0.6103708761354368 l 19.43730989673012 -15.855778715423316" fill="#c7ff1e" stroke="none" /><path d="M 83.72743513129214 113.27417163493432 l -15.693012391610283 12.801407868772406 a41.25207844508563,41.25207844508563 0 0,0 -0.444112191759125,-0.5540982445907087 l 15.91104249542427 -12.529381790603438" fill="#fffd17" stroke="none" /><path d="M 83.50135304334701 112.99209946851258 l -20.437068634540253 16.093466891095332 a47.012947755832876,47.012947755832876 0 0,0 -0.4951877879082543,-0.6400969678569806 l 20.711063239666576 -15.739291929125097" fill="#bcff1f" stroke="none" /><path d="M 83.28015986056508 112.70617746262583 l -15.3939441366244 11.698567953910395 a40.33468407432022,40.33468407432022 0 0,0 -0.415329571070711,-0.5564018326376952 l 15.593034974390196 -11.431853241763392" fill="#fff216" stroke="none" /><path d="M 83.06392112726016 112.41649034213515 l -19.06509058362485 13.977350653729802 a44.63988177337488,44.63988177337488 0 0,0 -0.44899262364288467,-0.6236114842353543 l 19.302862999643345 -13.647105564043311" fill="#d8ff1c" stroke="none" /><path d="M 82.85270091963577 112.12312394758628 l -20.05212527644505 14.176833272666494 a45.5574902981398,45.5574902981398 0 0,0 -0.44719903438230596,-0.6442235627077626 l 20.29318521798949 -13.82956844777172" fill="#cdff1d" stroke="none" /><path d="M 82.6465618267979 111.8261652097733 l -11.227524741143558 7.651426833134605 a34.586818773936855,34.586818773936855 0 0,0 -0.3310401508230075,-0.49486010936291025 l 11.357567997377297 -7.457029809565874" fill="#ffa90f" stroke="none" /><path d="M 82.44556493220864 111.52570212397912 l -24.549491464726447 16.11844099937786 a50.36803826317144,50.36803826317144 0 0,0 -0.46961033015084974,-0.7288456610718006 l 24.823306658254342 -15.693473738384611" fill="#97ff23" stroke="none" /><path d="M 82.24976979558568 111.22182372390057 l -13.312453681114313 8.416229357121468 a36.749740937662665,36.749740937662665 0 0,0 -0.3334345300793728,-0.5376026303536241 l 13.45535285086164 -8.18583039540258" fill="#ffc512" stroke="none" /><path d="M 82.05923443525364 110.91462005526583 l -40.33340251833934 24.537624241008775 a68.21099831712229,68.21099831712229 0 0,0 -0.6016181607641319,-1.0083466424526402 l 40.74980155480171 -23.83971550467002" fill="#39ff8c" stroke="none" /><line stroke="#e1ed5e" stroke-width="0.3" x1="26.63291911575756" x2="22.317208475507996" y1="142.92168965132927" y2="145.44649492493687" /><path d="M 25.769776987707644 143.4266507060508 a86.0,86.0 0 0,1 -11.730757126820373,-40.83630448921669" fill="none" id="id81" stroke="none" /><text fill="#e1ed5e" style="font-size:6.75px; font-family:Arial;" text-anchor="middle"><textPath startOffset="21.46611528233685" xlink:href="#id81">September</textPath></text><path d="M 81.87401531095188 110.60418214915194 l -5.53521641126884 3.2382485181913876 a27.412867859635703,27.412867859635703 0 0,0 -0.23476902687114937,-0.40933958709002033 l 5.590137434292366 -3.14248908524306" fill="#ff4706" stroke="none" /><path d="M 81.69416730710424 110.29060199501025 l -12.604444564741868 7.085573465022784 a35.4595080868571,35.4595080868571 0 0,0 -0.2945226056948857,-0.5346440792099897 l 12.724543579888271 -6.867558867414972" fill="#ffb410" stroke="none" /><path d="M 81.51974371655577 109.97397251340807 l -22.846740754076208 12.330606286356463 a46.96184535954831,46.96184535954831 0 0,0 -0.3778136182203076,-0.7146809828932821 l 23.055606880521403 -11.935510288377055" fill="#bdff1f" stroke="none" /><path d="M 81.35079622478065 109.6543875284942 l -12.847334157852996 6.6508545974915 a35.466784778951755,35.466784778951755 0 0,0 -0.2760013879514516,-0.5445769226866816 l 12.959914215590716 -6.428723463102133" fill="#ffb410" stroke="none" /><path d="M 81.18737489456691 109.33194174019688 l -17.570005771402773 8.715544445006845 a40.61289927012364,40.61289927012364 0 0,0 -0.3052673280582607,-0.6289411129958873 l 17.717426356075755 -8.411814376045673" fill="#fff517" stroke="none" /><path d="M 81.02952815118164 109.00673069616217 l -21.350147801016362 10.136544472877247 a44.63426209924613,44.63426209924613 0 0,0 -0.32354607857758777,-0.6968894692457152 l 21.521468496433776 -9.767534936352705" fill="#d8ff1c" stroke="none" /><path d="M 80.87730276802145 108.67885076344099 l -21.727511057904078 9.861047510453782 a44.860532156152146,44.860532156152146 0 0,0 -0.31308147291348554,-0.7059160703249232 l 21.894033615548842 -9.485583103636163" fill="#d5ff1c" stroke="none" /><path d="M 80.73074385275274 108.34839909993369 l -42.382246696561914 18.362094907607066 a67.18897449006855,67.18897449006855 0 0,0 -0.4506429110295856,-1.0651867239100203 l 42.69204058878381 -17.629833658030886" fill="#38ff80" stroke="none" /><path d="M 80.58989483394504 108.01547362559985 l -8.38943020706637 3.464445760765476 a30.076614105960633,30.076614105960633 0 0,0 -0.19348913989069788,-0.48022417727983796 l 8.447821961214455 -3.3195222156428326" fill="#ff6c09" stroke="none" /><path d="M 80.32549172779594 107.34259656027581 l -17.634565232354323 6.581282552305371 a39.82262391292561,39.82262391292561 0 0,0 -0.234148948398072,-0.6442773430196835 l 17.745238441757618 -6.27675741227957" fill="#ffec16" stroke="none" /><path d="M 80.20201598880116 107.00284435728193 l -24.610901724431564 8.7052456538538 a47.10512948796786,47.10512948796786 0 0,0 -0.2638092922567393,-0.7667532896905098 l 24.75710184763153 -8.280319661073992" fill="#bbff1f" stroke="none" /><path d="M 80.0844068197444 106.66101706037122 l -13.69551981117841 4.580636403205574 a35.4412427705081,35.4412427705081 0 0,0 -0.18852673576571843,-0.5802256309835432 l 13.772338797960378 -4.344211872244228" fill="#ffb410" stroke="none" /><path d="M 79.97269907076064 106.31721596034903 l -37.32784641122766 11.774330847058414 a60.14080970797861,60.14080970797861 0 0,0 -0.302918454614645,-0.9899550364251505 l 37.52499163834843 -11.130048838081215" fill="#31ff2f" stroke="none" /><path d="M 79.86692584326677 105.97154293290107 l -12.962965204133843 3.8448625704932238 a34.521147697942084,34.521147697942084 0 0,0 -0.16406974873318753,-0.5711483192691287 l 13.027227589753135 -3.6211567757194993" fill="#ffa80f" stroke="none" /><path d="M 79.76711848015287 105.62410040840567 l -18.065858281787797 5.021736564865204 a39.75081527786312,39.75081527786312 0 0,0 -0.1775762118190049,-0.6608271441507774 l 18.149622569948576 -4.710018487538887" fill="#ffeb16" stroke="none" /><path d="M 79.67330655649465 105.27499134158121 l -20.793330406437757 5.396088555251087 a42.48209396421589,42.48209396421589 0 0,0 -0.1775927235767781,-0.7093946513026003 l 20.883134444309594 -5.037366064551095" fill="#f2ff19" stroke="none" /><path d="M 79.58551787078972 104.9243191809786 l -13.294188317789269 3.206783601684428 a34.675485515947024,34.675485515947024 0 0,0 -0.13496926486460673,-0.5814440605628806 l 13.347418148584431 -2.9774708837729733" fill="#ffaa0f" stroke="none" /><path d="M 79.50377843672027 104.57218783832718 l -15.473690933591506 3.4517884812170054 a36.854020147185835,36.854020147185835 0 0,0 -0.13279023149074493,-0.6203517533804034 l 15.530815203806691 -3.1849229084204387" fill="#ffc612" stroke="none" /><path d="M 79.4281124754447 104.21870165774334 l -6.33546496796493 1.2992214025585038 a27.46730953435638,27.46730953435638 0 0,0 -0.09099536025158521,-0.46398338150897195 l 6.356890261192182 -1.189974293981577" fill="#ff4806" stroke="none" /><path d="M 79.35854240842038 103.8639653848113 l -23.24803252748234 4.351901630619509 a44.651851179167046,44.651851179167046 0 0,0 -0.13491994349805908,-0.7567026942722188 l 23.31949891331959 -3.9510801856140767" fill="#d8ff1c" stroke="none" /><path d="M 79.29508885075956 103.50808413554451 l -7.765261566238844 1.3156874092587132 a28.875932995587764,28.875932995587764 0 0,0 -0.07881513430895279,-0.4907819165767777 l 7.786758454909087 -1.181826262988722" fill="#ff5b08" stroke="none" /><path d="M 79.23777060512086 103.15116336523772 l -15.08164154671482 2.2889987113511308 a36.25435763459615,36.25435763459615 0 0,0 -0.0883327911027486,-0.617799335237246 l 15.118808388834168 -2.0290539041334843" fill="#ffbe11" stroke="none" /><path d="M 79.18660465613746 102.79330883721812 l -7.890454527094759 1.0589563113593974 a28.961197216092444,28.961197216092444 0 0,0 -0.06205762691088303,-0.49466034552348986 l 7.90751366325249 -0.922978211548499" fill="#ff5d08" stroke="none" /><path d="M 79.1416061653843 102.43462659150553 l -25.907582228527296 3.0239763001555593 a47.083466977988294,47.083466977988294 0 0,0 -0.08703199168746331,-0.8058081528716855 l 25.95579652171581 -2.5775718253990916" fill="#bcff1f" stroke="none" /><path d="M 79.10278846688536 102.07522291339032 l -10.276310900800935 1.0205015062737541 a31.32685765633608,31.32685765633608 0 0,0 -0.048669113257550384,-0.5370596092652778 l 10.292354610335561 -0.84346050845991" fill="#ff7d0b" stroke="none" /><path d="M 79.07016306316243 101.71520430193888 l -13.639667363232842 1.1177734546634839 a34.68539160110479,34.68539160110479 0 0,0 -0.04364321000839752,-0.5954769258727577 l 13.656887131905576 -0.8828233922939654" fill="#ffaa0f" stroke="none" /><path d="M 79.04373962182676 101.35467743843564 l -4.975964953533377 0.3216617533545706 a25.986350719951773,25.986350719951773 0 0,0 -0.025013284531744995,-0.44662899828845515 l 4.9807645889526535 -0.23596103873067784" fill="#ff3304" stroke="none" /><path d="M 79.0235259727143 100.99374915477108 l -61.67301046306648 2.9217256408364376 a82.74217926424228,82.74217926424228 0 0,0 -0.05515304918776125,-1.4232551324709994 l 61.714165645105446 -1.8596932613514416" fill="#4bdeff" stroke="none" /><line stroke="#e1ed5e" stroke-width="0.3" x1="15.007084014347285" x2="10.007500721073583" y1="101.09737516637583" y2="101.16192664675087" /><path d="M 14.007167355692545 101.11028546245083 a86.0,86.0 0 0,1 10.666146001902534,-42.60595125391555" fill="none" id="id82" stroke="none" /><text fill="#e1ed5e" style="font-size:6.75px; font-family:Arial;" text-anchor="middle"><textPath startOffset="22.20632615414155" xlink:href="#id82">October</textPath></text><path d="M 79.00175016825051 100.2711162175752 l -10.683659761530048 0.13794070685009607 a31.68455022631943,31.68455022631943 0 0,0 -0.0023472257460934788,-0.545412599723527 l 10.684451284565645 0.04598137107710625" fill="#ff820c" stroke="none" /><path d="M 79.00019446554 99.90962569577889 l -8.04391678243289 -0.034617624493333596 a29.04399127191415,29.04399127191415 0 0,0 0.006454671454245476,-0.4999214174288134 l 8.042129103860928 0.17307529998261895" fill="#ff5e08" stroke="none" /><path d="M 79.00486145842228 99.54816195383935 l -7.391806901846665 -0.1590796641571583 a28.393518486737985,28.393518486737985 0 0,0 0.014721776417280648,-0.48854408804279675 l 7.387973430973739 0.28629389962494944" fill="#ff5507" stroke="none" /><path d="M 79.03285615573316 98.82574320788736 l -5.811474486740894 -0.32546938385748736 a26.82058124501917,26.82058124501917 0 0,0 0.0297828620739032,-0.4607276940764923 l 5.805011033662578 0.4254561421869914" fill="#ff3f05" stroke="none" /><path d="M 79.12142395522702 97.74499172005258 l -8.847644245906082 -0.9555973065290684 a29.8990996687508,29.8990996687508 0 0,0 0.0596695577441837,-0.5112123311673346 l 8.82988433515831 1.1077533760212648" fill="#ff6a09" stroke="none" /><path d="M 79.16333360222342 97.38593545837743 l -18.996480990201132 -2.3832040319746497 a40.14538982285535,40.14538982285535 0 0,0 0.09192147438408588,-0.6849217535330078 l 18.952643516759213 2.709844127572317" fill="#fff016" stroke="none" /><path d="M 79.21141760316559 97.0276538004421 l -7.237290157788912 -1.034785897612595 a28.31089260500564,28.31089260500564 0 0,0 0.07312852739497128,-0.48182562600005585 l 7.218405736954639 1.159210636004743" fill="#ff5407" stroke="none" /><path d="M 79.26566170972629 96.67025291283419 l -18.552054292669972 -2.9792920264514664 a39.789755172887475,39.789755172887475 0 0,0 0.1144204402598453,-0.675315915383376 l 18.498021990889903 3.2981937301506705" fill="#ffeb16" stroke="none" /><path d="M 79.3925641242962 95.95851677861259 l -24.347321450209677 -4.77494103197774 a45.81112902829504,45.81112902829504 0 0,0 0.15842078309351507,-0.7725160003599375 l 24.26152137120117 5.19333268850108" fill="#caff1d" stroke="none" /><path d="M 79.46518482838121 95.60439243477599 l -6.422778341523734 -1.3748364829101627 a27.56827656079486,27.56827656079486 0 0,0 0.10332276695308183,-0.46317570469202846 l 6.398161187568615 1.4851903571521503" fill="#ff4906" stroke="none" /><path d="M 79.54389044137918 95.25157060432595 l -18.818438447691175 -4.368280588722271 a40.31878621734164,40.31878621734164 0 0,0 0.1627481240250908,-0.6746960437305437 l 18.740457523405272 4.691561864112212" fill="#fff216" stroke="none" /><path d="M 79.62865764111835 94.90015583598534 l -6.384249931096698 -1.5982589256578503 a27.581267262173235,27.581267262173235 0 0,0 0.11926096376527309,-0.4595611429965008 l 6.355792635461118 1.707916494203215" fill="#ff4906" stroke="none" /><path d="M 79.71946130924805 94.55025226153421 l -7.039915673832638 -1.891752734356819 a28.289659875647214,28.289659875647214 0 0,0 0.13041968248288818,-0.46918898880050514 l 7.00630922078339 2.0126530265762668" fill="#ff5307" stroke="none" /><path d="M 79.81627453868168 94.20196356495316 l -14.123759006511397 -4.057232619246368 a35.694955086719,35.694955086719 0 0,0 0.1747252802751044,-0.5890867844980449 l 14.051827829124585 4.299748790490952" fill="#ffb711" stroke="none" /><path d="M 80.02781315780177 93.51064311812611 l -59.91656052659468 -19.468070645621676 a84.0,84.0 0 0,0 0.4586508249129104,-1.3713075883107113 l 59.572572407909995 20.496551336854708" fill="#4dd2ff" stroke="none" /><path d="M 80.14247586403 93.16781622104843 l -1.4109147171437726 -0.48543960354516014 a22.49208979211808,22.49208979211808 0 0,0 0.12911200621852217,-0.36501702798950636 l 1.4023496301154408 0.5096542579612776" fill="#ff0000" stroke="none" /><path d="M 80.38941819471856 92.48833698450439 l -6.152724147146394 -2.35674753964818 a27.58864731158954,27.58864731158954 0 0,0 0.17368557736339424,-0.44201084959829157 l 6.111245019901309 2.462307394142235" fill="#ff4906" stroke="none" /><path d="M 80.52162464483688 92.15188598940014 l -5.563154985047726 -2.2414741365849316 a26.9977412158779,26.9977412158779 0 0,0 0.1773858471833215,-0.4295538990735974 l 5.523747450978205 2.33690260611184" fill="#ff4106" stroke="none" /><path d="M 80.95270993114464 91.15688171328213 l -6.611891044848047 -3.0697140851593923 a28.289735780778873,28.289735780778873 0 0,0 0.20886151100912306,-0.4399156085113691 l 6.558071339997173 3.1830721093112935" fill="#ff5307" stroke="none" /><path d="M 81.10775173730289 90.83032412892265 l -14.360174682845374 -6.969956432011452 a36.962296501004204,36.962296501004204 0 0,0 0.2827439443396872,-0.5699945385194569 l 14.238070725552273 7.216110559029871" fill="#ffc712" stroke="none" /><path d="M 81.43458229118936 90.18545643968196 l -7.219622590572259 -3.816628395632634 a29.166370225543943,29.166370225543943 0 0,0 0.2384585496629242,-0.4418274769481469 l 7.152855941690863 3.9403368559132534" fill="#ff5f08" stroke="none" /><line stroke="#e1ed5e" stroke-width="0.3" x1="26.266209847984243" x2="21.928928074336255" y1="57.711370442889674" y2="55.22380399835377" /><path d="M 25.398753493254645 57.213857153982495 a86.0,86.0 0 0,1 29.58750427330803,-30.492523968695096" fill="none" id="id83" stroke="none" /><text fill="#e1ed5e" style="font-size:6.75px; font-family:Arial;" text-anchor="middle"><textPath startOffset="21.46611528233685" xlink:href="#id83">November</textPath></text><path d="M 81.96595687620814 89.24020034530311 l -7.057894497666185 -4.211009714104983 a29.218666409611302,29.218666409611302 0 0,0 0.26141551492910226,-0.42969837196190064 l 6.984363184450865 4.331875859273958" fill="#ff6008" stroke="none" /><path d="M 82.7489923806493 88.02491185347247 l -6.795689808570014 -4.71734673531769 a29.272530459026115,29.272530459026115 0 0,0 0.2908956044383494,-0.4114512028445297 l 6.713481584327786 4.833624438494006" fill="#ff6108" stroke="none" /><path d="M 82.95767976084542 87.72973835380427 l -7.698405285904244 -5.542757429207145 a30.48617962433083,30.48617962433083 0 0,0 0.31028744701640826,-0.42323172902233797 l 7.6018552263742025 5.6744516019009845" fill="#ff720a" stroke="none" /><path d="M 83.39014120810768 87.1503855733568 l -4.8700672174968265 -3.767550751678602 a27.157271584834575,27.157271584834575 0 0,0 0.28921966534045496,-0.3672796042655138 l 4.804493471562401 3.8508227498971634" fill="#ff4306" stroke="none" /><path d="M 83.84228863543731 86.58626213691792 l -5.582850482981253 -4.634746296541392 a28.2559694561532,28.2559694561532 0 0,0 0.31389608475012076,-0.37155395642236966 l 5.5022437847440075 4.730159202592878" fill="#ff5307" stroke="none" /><path d="M 84.07557802195018 86.31012108654704 l -3.611877846215125 -3.1050527568928294 a25.763088724668833,25.763088724668833 0 0,0 0.29199165408748096,-0.3337969364831308 l 3.5578943285498004 3.1667652495789036" fill="#ff2f04" stroke="none" /><path d="M 84.31358615837235 86.03803664274999 l -7.048223916826143 -6.273393336039187 a30.435725956723253,30.435725956723253 0 0,0 0.35168678361267647,-0.3883413303586486 l 6.939193492597422 6.393787453667392" fill="#ff710a" stroke="none" /><path d="M 84.80347519578584 85.50635884689758 l -9.534779093505758 -9.093767715698592 a34.176062523722194,34.176062523722194 0 0,0 0.40968267919702234,-0.4222140130367209 l 9.376832150605617 9.256545924285437" fill="#ffa30f" stroke="none" /><path d="M 85.05521093208273 85.24692304244772 l -4.487964769251083 -4.430393050222683 a27.30636268775436,27.30636268775436 0 0,0 0.33309107372617763,-0.3316606747996028 l 4.411037895357592 4.506989575672395" fill="#ff4506" stroke="none" /><path d="M 85.31137513191541 84.99185889309783 l -8.154466570171824 -8.331847673676364 a32.65825933411142,32.65825933411142 0 0,0 0.40514399004699375,-0.3897481974300412 l 8.009839336512403 8.470978957868718" fill="#ff8f0d" stroke="none" /><path d="M 85.83668400450813 84.49514656593479 l -8.48989985647749 -9.29405606614112 a33.58800531194641,33.58800531194641 0 0,0 0.43022877988008246,-0.38626364649037087 l 8.328660089001435 9.43881872140077" fill="#ff9b0e" stroke="none" /><path d="M 86.10567301691215 84.25364557470407 l -1.28532081906013 -1.4566460967679475 a22.942644450005893,22.942644450005893 0 0,0 0.2983704035589902,-0.258743873775575 l 1.2600566168543663 1.478554963963203" fill="#ff0701" stroke="none" /><path d="M 87.51073957382395 83.11751280151077 l -4.420547024591067 -5.975520247505039 a28.432905099956788,28.432905099956788 0 0,0 0.395968393626229,-0.2876878777154231 l 4.317033314611056 6.05072736003713" fill="#ff5507" stroke="none" /><path d="M 87.80319425747018 82.90503203632743 l -6.100772804988649 -8.550805666377183 a31.504080462479198,31.504080462479198 0 0,0 0.44416081909480426,-0.3111630382239299 l 5.952680846310185 8.654553547365055" fill="#ff7f0b" stroke="none" /><path d="M 88.39885842347998 82.49532879139004 l -5.179996739674414 -7.815967005625626 a30.376657531128348,30.376657531128348 0 0,0 0.4383394703995217,-0.2851081847534648 l 5.044690243490606 7.903974114538626" fill="#ff700a" stroke="none" /><path d="M 88.70189139769569 82.29822771554957 l -5.698151567126701 -8.927811285420704 a31.59125798146914,31.59125798146914 0 0,0 0.4609026856185563,-0.2886172194510476 l 5.543629729135902 9.024572846194683" fill="#ff810b" stroke="none" /><line stroke="#e1ed5e" stroke-width="0.3" x1="56.762969772571076" x2="54.21961505331055" y1="26.818313649435495" y2="22.513508569990535" /><path d="M 56.25429882871897 25.957352633546506 a86.0,86.0 0 0,1 42.265352541879196,-11.944610805530505" fill="none" id="id84" stroke="none" /><text fill="#e1ed5e" style="font-size:6.75px; font-family:Arial;" text-anchor="middle"><textPath startOffset="22.20632615414155" xlink:href="#id84">December</textPath></text><path d="M 89.3179101791058 81.91981866633112 l -7.989196380130869 -13.522271548449254 a36.7060207127807,36.7060207127807 0 0,0 0.5467506293882591,-0.3167132548528895 l 7.75524901827729 13.65778896069219" fill="#ffc412" stroke="none" /><path d="M 89.94658935756843 81.56283822128135 l -7.5624500070838945 -13.86893654135612 a36.79677343313521,36.79677343313521 0 0,0 0.5587063562348008,-0.2984415862741991 l 7.322598604320789 13.99705685413207" fill="#ffc512" stroke="none" /><path d="M 90.58718382345135 81.22770947309562 l -7.045769094841478 -14.051610267645273 a36.71911617272477,36.71911617272477 0 0,0 0.5674480118110165,-0.27844427499600677 l 6.802849816020035 14.17080970277611" fill="#ffc412" stroke="none" /><path d="M 91.23893434514133 80.91482961587045 l -7.349520655725768 -16.010250291688802 a38.616570843142576,38.616570843142576 0 0,0 0.6064969327410958,-0.2721174947596802 l 7.0728416045178975 16.134388116965013" fill="#ffdc14" stroke="none" /><path d="M 91.56875222667455 80.76684994638697 l -6.4179355290364795 -14.640432873399815 a36.985373663927746,36.985373663927746 0 0,0 0.5852781139389412,-0.25058554397030364 l 6.16497365730723 14.748737945332905" fill="#ffc812" stroke="none" /><path d="M 92.57280143429618 80.3572730644239 l -7.507652790172083 -19.855504384309096 a42.2274799440041,42.2274799440041 0 0,0 0.682109882623359,-0.25122682633228255 l 7.164760581776154 19.9817944784477" fill="#f5ff19" stroke="none" /><path d="M 92.91201910852362 80.23233633223022 l -4.54179927250523 -12.666619992354988 a34.4562700129886,34.4562700129886 0 0,0 0.5600259537279803,-0.19538205885784063 l 4.323091314713965 12.742922904385038" fill="#ffa70f" stroke="none" /><path d="M 93.25333710446033 80.11325718540243 l -5.382204359762205 -15.864808355692276 a37.752918191559544,37.752918191559544 0 0,0 0.6172012059828299,-0.20348153373564018 l 5.108320331536966 15.95510361368715" fill="#ffd113" stroke="none" /><path d="M 93.94186890950719 79.89281104454417 l -6.966180050573992 -23.12104120599738 a45.147675062962975,45.147675062962975 0 0,0 0.7460326139948811,-0.21778737758636849 l 6.567157218855689 23.23752691250245" fill="#d2ff1c" stroke="none" /><path d="M 94.63758080256005 79.69619591428918 l -3.814799057374669 -14.44402793505346 a35.939298338166736,35.939298338166736 0 0,0 0.5994865121313229,-0.15282246006626876 l 3.5656036565583467 14.507553391288592" fill="#ffba11" stroke="none" /><path d="M 94.98787191387505 79.60689891045804 l -3.426952771559137 -13.943417466316772 a35.35837372192563,35.35837372192563 0 0,0 0.5922970639476106,-0.14017757868576738 l 3.1864320206489922 14.000340957143411" fill="#ffb310" stroke="none" /><path d="M 95.692805502759 79.44645832069477 l -3.4242683729949452 -16.3402982545973 a37.695237672446865,37.695237672446865 0 0,0 0.6362123063921431,-0.1276182034876317 l 3.1424896571356657 16.396820414162143" fill="#ffd113" stroke="none" /><path d="M 96.04723909329186 79.375362276772 l -3.3449730951569583 -17.453334494499156 a38.770979995042424,38.770979995042424 0 0,0 0.6565309355171052,-0.11997683202562229 l 3.04404703853696 17.508326807875516" fill="#ffde14" stroke="none" /><path d="M 96.40284397218896 79.31037775812273 l -3.7795296426710427 -21.738573460330624 a43.06468718133162,43.06468718133162 0 0,0 0.7314245792545764,-0.12069132266463367 l 3.404775857277581 21.800411045934883" fill="#ebff1a" stroke="none" /><path d="M 97.47563105711357 79.15227682838746 l -2.2177659516749055 -18.31561537398713 a39.44939707264826,39.44939707264826 0 0,0 0.6748350930934055,-0.07582558566653382 l 1.902164155071782 18.35107691312426" fill="#ffe715" stroke="none" /><path d="M 97.83486435360386 79.11191278185805 l -1.3321471605668773 -12.851853473308841 a33.92071026518306,33.92071026518306 0 0,0 0.5812957759853176,-0.055201038236712234 l 1.1107262574913233 12.872880056060735" fill="#ffa00e" stroke="none" /><path d="M 98.19473922651362 79.07773832637324 l -1.0934776823770105 -12.672975860866865 a33.72006331006143,33.72006331006143 0 0,0 0.578716268203302,-0.04491952048035353 l 0.8751712248113744 12.68992064353568" fill="#ff9d0e" stroke="none" /><path d="M 98.55514903715128 79.0497635885617 l -0.9952188409430887 -14.430602556935455 a35.46487990608979,35.46487990608979 0 0,0 0.6093845049267745,-0.03675973749407812 l 0.7466722871766912 14.44559556380984" fill="#ffb410" stroke="none" /><path d="M 98.91598698831166 79.02799685794201 l -1.1365831529835593 -21.98905843247806 a43.0184130220727,43.0184130220727 0 0,0 0.7398330589992399,-0.03185876780069124 l 0.7579092615949952 22.005364926802944" fill="#ebff1a" stroke="none" /><path d="M 99.63851952072746 79.00311137660856 l -0.2505980504591653 -14.556192260559008 a35.55834923709594,35.55834923709594 0 0,0 0.6120785297316974,-0.005268353145488925 l 3.565767158815771e-15 14.558349237095939" fill="#ffb510" stroke="none" /></svg>