<?xml version="1.0" encoding="utf-8" ?>
<svg baseProfile="full" height="200mm" version="1.1" viewBox="0,0,200,200" width="200mm" xmlns="http://www.w3.org/2000/svg" xmlns:ev="http://www.w3.org/2001/xml-events" xmlns:xlink="http://www.w3.org/1999/xlink"><defs /><rect fill="#1a1a1a" height="200" width="200" x="0" y="0" /><text alignment-baseline="middle" fill="#e1ed5e" style="dominant-baseline: central; font-size:9.0px; font-family:Arial;" text-anchor="middle" x="100.0" y="100.0">2026</text><line stroke="#e1ed5e" stroke-width="0.3" x1="100.0" x2="100.0" y1="15.0" y2="10.0" /><path d="M 100.0 14.0 a86.0,86.0 0 0,1 42.46469731375804,11.215312516191453" fill="none" id="id157" stroke="none" /><text fill="#e1ed5e" style="font-size:6.75px; font-family:Arial;" text-anchor="middle"><textPath startOffset="22.20632615414155" xlink:href="#id157">January</textPath></text><path d="M 100.0 79.0 l 0.0 -34.079508059669884 a55.079508059669884,55.079508059669884 0 0,0 0.9481031891192647,0.008160623475608884 l -0.5866227098467364 34.07445881280283" fill="#72ff27" stroke="none" /><path d="M 100.72285384407766 79.0124445844662 l 1.182456028457466 -34.33178314953645 a55.352140202409956,55.352140202409956 0 0,0 0.9519491848081618,0.04099293437614252 l -1.773246045654959 34.30634248863611" fill="#6fff27" stroke="none" /><path d="M 101.08401301168833 79.027996857942 l 3.2520390350649873 -62.916009426173986 a84.0,84.0 0 0,0 1.4433518046415523,0.08706692247878367 l -4.334552888546152 62.8507092343149" fill="#4dd2ff" stroke="none" /><path d="M 101.80526077348638 79.07773832637324 l 3.2496450429312764 -37.66210673447913 a58.802043285837684,58.802043285837684 0 0,0 1.0076846597297522,0.09569180050897255 l -3.8974548297512728 37.60058938945498" fill="#4aff2c" stroke="none" /><path d="M 102.16513564639614 79.11191278185805 l 3.0352883748529966 -29.28286198219187 a50.43975172087251,50.43975172087251 0 0,0 0.8628399183257162,0.09695011835203049 l -3.538894996688438 29.22627591036924" fill="#a7ff21" stroke="none" /><path d="M 102.52436894288641 79.15227682838746 l 4.157058693601454 -34.33143522723502 a55.58220036006791,55.58220036006791 0 0,0 0.9488285802957256,0.12318518128497549 l -4.747402002405026 34.2547917227859" fill="#6cff28" stroke="none" /><path d="M 103.2404852339499 79.25152402106235 l 4.505169190197242 -28.846110374006575 a50.19579821038761,50.19579821038761 0 0,0 0.8525416760091322,0.14067668140046719 l -5.0010400723452495 28.76428742966648" fill="#aaff21" stroke="none" /><path d="M 103.59715602781102 79.31037775812273 l 10.620812497114686 -61.08731363560853 a83.0037220279079,83.0037220279079 0 0,0 1.4055489771306031,0.2568550915276522 l -11.67075659534819 60.89544306273014" fill="#4cdcff" stroke="none" /><path d="M 104.307194497241 79.44645832069477 l 8.8523427644565 -42.242577177626835 a64.16015870020851,64.16015870020851 0 0,0 1.078982231640141,0.23582372436585203 l -9.57816772025017 42.08393995516511" fill="#33ff53" stroke="none" /><path d="M 104.66035177308747 79.52364482259891 l 6.4877068819201575 -28.50527103301843 a50.23424049383794,50.23424049383794 0 0,0 0.841486471864772,0.19915266055289133 l -6.9774170407474525 28.389372460324672" fill="#a9ff21" stroke="none" /><path d="M 105.01212808612495 79.60689891045804 l 9.795881196275564 -39.857001270539875 a62.043146062300856,62.043146062300856 0 0,0 1.0349125039828895,0.26382224055337006 l -10.480502588943478 39.682476033817636" fill="#30ff38" stroke="none" /><path d="M 105.71112130821622 79.79150937346287 l 7.851326731393179 -27.78149055054752 a49.86961289406649,49.86961289406649 0 0,0 0.8240592148850945,0.2405654820164908 l -8.3283761640017 27.642226739612326" fill="#aeff20" stroke="none" /><path d="M 106.0581310904928 79.89281104454417 l 15.7281915905917 -52.20252178694829 a75.52044838065045,75.52044838065045 0 0,0 1.2414649257355088,0.38572919556762547 l -16.62444188903793 51.924052456498146" fill="#42ffd6" stroke="none" /><path d="M 107.76421540070413 80.48803036053334 l 10.74220337225292 -26.99584378369598 a50.05461262664775,50.05461262664775 0 0,0 0.7978136308401799,0.32544821192698603 l -11.205300872681487 26.806934685585418" fill="#abff21" stroke="none" /><path d="M 108.43124777332544 80.76684994638697 l 24.40029548509075 -55.661339464128794 a81.77465862265885,81.77465862265885 0 0,0 1.2843211747632184,0.5762374740525973 l -25.35479877832075 55.233081659559666" fill="#4ae8ff" stroke="none" /><path d="M 108.76106565485865 80.91482961587045 l 12.065109286709898 -26.28272353059056 a49.91968911115249,49.91968911115249 0 0,0 0.7778480934437763,0.36521010967607476 l -12.515735591453273 26.07114843827448" fill="#adff20" stroke="none" /><path d="M 109.08828744355905 81.06846463323043 l 12.39818284783763 -25.826277890655792 a49.64806394180576,49.64806394180576 0 0,0 0.7672487279247281,0.3764856186680229 l -12.840902842772788 25.60903711185294" fill="#b0ff20" stroke="none" /><path d="M 109.41281617654863 81.2277094730956 l 13.052530398665276 -26.031092943837656 a50.12020517885813,50.12020517885813 0 0,0 0.7678881131522544,0.39334211649271145 l -13.498678999406286 25.802558302032445" fill="#abff21" stroke="none" /><path d="M 109.73455568895987 81.39251694778311 l 13.302277512356975 -25.4271392835923 a49.6965154533257,49.6965154533257 0 0,0 0.7545704820273921,0.4030654190683662 l -13.737993040912677 25.19439513802218" fill="#b0ff20" stroke="none" /><path d="M 110.36928655335952 81.73862282372117 l 14.497949717946222 -25.532376477373433 a50.36141676769752,50.36141676769752 0 0,0 0.7501531296481518,0.4345371117263734 l -14.935299580059702 25.27903520825701" fill="#a8ff21" stroke="none" /><line stroke="#e1ed5e" stroke-width="0.3" x1="143.23703022742887" x2="145.7803849466894" y1="26.81831364943548" y2="22.513508569990506" /><path d="M 143.74570117128098 25.957352633546492 a86.0,86.0 0 0,1 28.547481713284135,27.462654790039103" fill="none" id="id158" stroke="none" /><text fill="#e1ed5e" style="font-size:6.75px; font-family:Arial;" text-anchor="middle"><textPath startOffset="19.985693538727396" xlink:href="#id158">February</textPath></text><path d="M 110.99172775467656 82.1063720568725 l 15.066516379315196 -24.527048386528712 a49.784996410687526,49.784996410687526 0 0,0 0.7263413999738227,0.4548349180289197 l -15.486476931661281 24.26406912717685" fill="#afff20" stroke="none" /><path d="M 111.2981086023043 82.29822771554956 l 15.440694185874795 -24.1923371436213 a49.69989918819135,49.69989918819135 0 0,0 0.7171765842485269,0.4664715999597865 l -15.854837795907603 23.922966619501988" fill="#b0ff20" stroke="none" /><path d="M 111.60114157652 82.49532879139004 l 15.8709467898647 -23.947273075970998 a49.72905915239554,49.72905915239554 0 0,0 0.709456793982719,0.4790283942440196 l -16.28080827825396 23.670532769428306" fill="#afff20" stroke="none" /><path d="M 111.90073688211348 82.69761687909136 l 16.27796129488491 -23.666393563807837 a49.7240353751839,49.7240353751839 0 0,0 0.7010351661349012,0.4911199340835904 l -16.682927600603463 23.38268878696031" fill="#afff20" stroke="none" /><path d="M 113.6212207817346 84.01681056812373 l 20.726610633154067 -24.320679426521675 a52.95446504177483,52.95446504177483 0 0,0 0.6886758472500878,0.5972129084107872 l -21.14218027905092 23.960301524691214" fill="#8aff24" stroke="none" /><path d="M 113.89432698308785 84.25364557470407 l 18.92164627400969 -21.443784136021666 a49.59833169594057,49.59833169594057 0 0,0 0.6353050599894076,0.5703831556170867 l -19.287962321595085 21.11490197163528" fill="#b1ff20" stroke="none" /><path d="M 114.16331599549186 84.49514656593476 l 19.485943152857995 -21.331635381555873 a49.891878592574415,49.891878592574415 0 0,0 0.6290941006656362,0.5846744054168278 l -19.850245137318478 20.993056390064403" fill="#adff20" stroke="none" /><path d="M 114.68862486808459 84.99185889309783 l 22.644601261190505 -23.137180919904544 a53.3744823464207,53.3744823464207 0 0,0 0.6510776934168679,0.6482817588895263 l -23.039514754774697 22.743963310364897" fill="#85ff25" stroke="none" /><path d="M 114.94478906791727 85.2469230424477 l 21.130078289759165 -20.85902114183307 a50.6913955806525,50.6913955806525 0 0,0 0.607658847162501,0.6262458567216171 l -21.486001400624776 20.49221108956134" fill="#a4ff21" stroke="none" /><path d="M 115.19652480421416 85.50635884689758 l 21.447545018635804 -20.455533427544808 a50.638252902824966,50.638252902824966 0 0,0 0.5961633750429712,0.6359455222065982 l -21.796475715649237 20.083318488460154" fill="#a5ff21" stroke="none" /><path d="M 115.4437574822437 85.77008943001954 l 21.761554354328975 -20.051141872818487 a50.5907677886247,50.5907677886247 0 0,0 0.5845795966679621,0.64550739137407 l -22.10347759161297 19.673581694174867" fill="#a5ff21" stroke="none" /><path d="M 115.68641384162765 86.03803664274999 l 22.113825072820283 -19.682791648401174 a50.604620356046894,50.604620356046894 0 0,0 0.5735386373949147,0.6556538087207622 l -22.449355573793046 19.299222283477466" fill="#a5ff21" stroke="none" /><path d="M 116.38621287248628 86.86637796730983 l 29.20799789513444 -23.410339391502184 a58.43195334827581,58.43195334827581 0 0,0 0.6222889490126545,0.7902437708138836 l -29.606640924741058 22.904103226735263" fill="#4eff2c" stroke="none" /><path d="M 116.82858285166822 87.43820079747576 l 20.650893896010757 -15.414986797215983 a46.76977370220075,46.76977370220075 0 0,0 0.47602139259225185,0.6492926445322307 l -20.913177901116637 15.057231709012258" fill="#d3ff1c" stroke="none" /><path d="M 117.65298651832404 88.62581576622439 l 25.660290746296866 -16.533455919068896 a51.52549239262625,51.52549239262625 0 0,0 0.4739668200044922,0.7497016858690821 l -25.941085162547314 16.08930658548561" fill="#9aff22" stroke="none" /><line stroke="#e1ed5e" stroke-width="0.3" x1="172.23445277983987" x2="176.4835382374775" y1="55.19839476539836" y2="52.563006222186495" /><path d="M 173.08426987136738 54.67131705675599 a86.0,86.0 0 0,1 12.851231095245387,41.99856678651699" fill="none" id="id159" stroke="none" /><text fill="#e1ed5e" style="font-size:6.75px; font-family:Arial;" text-anchor="middle"><textPath startOffset="22.20632615414155" xlink:href="#id159">March</textPath></text><path d="M 117.84615892207809 88.93136811851018 l 51.10683893467225 -31.69773334779918 a81.13863388274389,81.13863388274389 0 0,0 0.7259365454859846,1.1932488086163402 l -51.64489127844446 30.813316765975756" fill="#49eeff" stroke="none" /><path d="M 118.21658344932153 89.55222093294921 l 25.54902991352979 -14.653165927443588 a50.45281312913308,50.45281312913308 0 0,0 0.42558715814889225,0.7570720660556268 l -25.797474712971113 14.211210351453166" fill="#a7ff21" stroke="none" /><path d="M 118.56541770881063 90.18545643968196 l 26.717179225562926 -14.123943960262784 a51.22074550310589,51.22074550310589 0 0,0 0.4053526061486947,0.7830122139360842 l -26.956341264871735 13.661959024066356" fill="#9eff22" stroke="none" /><path d="M 118.89224826269711 90.83032412892265 l 25.96571443628789 -12.602903679380415 a49.862631677284554,49.862631677284554 0 0,0 0.3681329750023552,0.7753819309685483 l -26.178805605132002 12.154079332771326" fill="#aeff20" stroke="none" /><path d="M 119.04729006885535 91.15688171328212 l 54.309920904010085 -25.214560861954418 a80.87772196786577,80.87772196786577 0 0,0 0.5753782986324647,1.267769811752963 l -54.735901519605896 24.275969041359392" fill="#49f0ff" stroke="none" /><path d="M 119.34039704204932 91.81776055985345 l 31.5939415395782 -13.366281673162032 a55.30502336061866,55.30502336061866 0 0,0 0.3633758966675052,0.8799435564979436 l -31.819339123131904 12.820463546210785" fill="#6fff27" stroke="none" /><path d="M 119.47837535516314 92.15188598940014 l 27.141415393651226 -10.935661652190227 a50.26166648265118,50.26166648265118 0 0,0 0.31642459536672535,0.8052660811278186 l -27.32563353889965 10.466846566166623" fill="#a9ff21" stroke="none" /><path d="M 119.7369772167798 92.82701384747503 l 27.553086970106744 -10.013585622820996 a50.31628384716988,50.31628384716988 0 0,0 0.2888320477559749,0.8165670935479852 l -27.72137209867253 9.537820902846397" fill="#a8ff21" stroke="none" /><path d="M 119.85752413597 93.16781622104841 l 24.402622649567345 -8.395971294741999 a46.80659462539195,46.80659462539195 0 0,0 0.25557003852738874,0.7641218856283912 l -24.543529981866502 7.974676306191294" fill="#d3ff1c" stroke="none" /><path d="M 120.45610955862082 95.25157060432595 l 27.789033970658107 -6.450604177960528 a49.52789342526209,49.52789342526209 0 0,0 0.18562491488252406,0.8321200960302515 l -27.89595327254267 5.971305912380313" fill="#b2ff20" stroke="none" /><path d="M 120.6074358757038 95.95851677861258 l 59.067653582134824 -11.584213209192873 a81.19287080190746,81.19287080190746 0 0,0 0.25716595357472366,1.3737908071270244 l -59.258305259619405 10.565744324603285" fill="#49edff" stroke="none" /><path d="M 120.73433829027371 96.67025291283417 l 28.520673659101305 -4.5801620823823335 a49.886098917469766,49.886098917469766 0 0,0 0.1288584221703265,0.8490160015428612 l -28.595287974710935 4.08854696844739" fill="#adff20" stroke="none" /><path d="M 120.78858239683441 97.02765380044208 l 28.675704315467797 -4.100044876302205 a49.967333083593154,49.967333083593154 0 0,0 0.11441091862232886,0.8524942352284239 l -28.742031233147962 3.605832299009116" fill="#adff20" stroke="none" /><path d="M 120.83666639777658 97.38593545837742 l 28.736082121356173 -3.6050859530297648 a49.961337338148915,49.961337338148915 0 0,0 0.09970771482430638,0.8542348101393668 l -28.79388018918407 3.1099074045655453" fill="#adff20" stroke="none" /><path d="M 120.91429891909075 98.10471618934814 l 4.169485258310694 -0.3778447434168841 a25.186570669342387,25.186570669342387 0 0,0 0.03541173808710037,0.4321128993060512 l -4.175371480217289 0.30601792690306423" fill="#ff0000" stroke="none" /><path d="M 120.94382443527127 98.46500227214037 l 6.231801296393336 -0.4567361066265828 a27.248516245383865,27.248516245383865 0 0,0 0.030258061659473076,0.4680788213369593 l -6.238739949057225 0.34939822103658824" fill="#ff1f03" stroke="none" /><path d="M 120.98425023603335 99.18683210126433 l 29.67464546391722 -1.1499323933996732 a50.696917818497134,50.696917818497134 0 0,0 0.026285882445945187,0.8723004686364051 l -29.690043040818807 0.6389617773382692" fill="#a4ff21" stroke="none" /><line stroke="#e1ed5e" stroke-width="0.3" x1="184.98032266829074" x2="189.97916517819016" y1="98.17113171792111" y2="98.06355123074" /><path d="M 185.9800911702706 98.14961562048488 a86.0,86.0 0 0,1 -9.607161424134198,41.387399972396054" fill="none" id="id160" stroke="none" /><text fill="#e1ed5e" style="font-size:6.75px; font-family:Arial;" text-anchor="middle"><textPath startOffset="21.466115282336823" xlink:href="#id160">April</textPath></text><path d="M 120.99513854157772 99.54816195383933 l 28.600320109080304 -0.6155097634657187 a49.60694255964424,49.60694255964424 0 0,0 0.011024535611321579,0.8538624325613664 l -28.606677651809342 0.1231110728438896" fill="#b1ff20" stroke="none" /><path d="M 120.99980553446 99.90962569577887 l 28.869435478095912 -0.12424187168344733 a49.86970281916013,49.86970281916013 0 0,0 -0.003694401516545078,0.8584488044726367 l -28.867296779289866 -0.3727164109928741" fill="#aeff20" stroke="none" /><path d="M 120.8583938346157 102.4346265915055 l 29.165578402019936 3.40425505900439 a50.3635814578387,50.3635814578387 0 0,0 -0.1079183406917222,0.8602153571155858 l -29.102658552081362 -3.9057881704073703" fill="#a8ff21" stroke="none" /><path d="M 120.76222939487914 103.15116336523771 l 17.05083723847482 2.5878711110746506 a38.24610470281606,38.24610470281606 0 0,0 -0.1043904582895187,0.650039483417307 l -17.003765025824013 -2.8809898241851624" fill="#ffbd11" stroke="none" /><path d="M 120.70491114924044 103.5080841355445 l 60.13641433198659 10.189060922114232 a81.99348564545986,81.99348564545986 0 0,0 -0.24775135091500428,1.3895211477735325 l -59.9521165387324 -11.222700820620982" fill="#4ae5ff" stroke="none" /><path d="M 120.5718875245553 104.21870165774334 l 16.855630655067262 3.4566044025840474 a38.20640574832544,38.20640574832544 0 0,0 -0.13766306751576227,0.6431160210386516 l -16.793633548827057 -3.746234243038868" fill="#ffbc11" stroke="none" /><path d="M 120.49622156327973 104.57218783832717 l 16.795225321612246 3.746589327225841 a38.20803664543424,38.20803664543424 0 0,0 -0.14871920439535682,0.6406784401919997 l -16.728245551286335 -4.035136424766406" fill="#ffbc11" stroke="none" /><line stroke="#e1ed5e" stroke-width="0.3" x1="174.80103733775053" x2="179.2010983576182" y1="140.37084112569926" y2="142.7455964860345" /><path d="M 175.68104954172406 140.8457921977663 a86.0,86.0 0 0,1 -30.038265399797805,32.042727171017184" fill="none" id="id161" stroke="none" /><text fill="#e1ed5e" style="font-size:6.75px; font-family:Arial;" text-anchor="middle"><textPath startOffset="22.206326154141568" xlink:href="#id161">May</textPath></text><line stroke="#e1ed5e" stroke-width="0.3" x1="143.8653032363475" x2="146.44561519142675" y1="172.8068346515853" y2="177.08958963109032" /><path d="M 144.38136562736335 173.6633856474863 a86.0,86.0 0 0,1 -40.68145358897372,12.25698825130547" fill="none" id="id162" stroke="none" /><text fill="#e1ed5e" style="font-size:6.75px; font-family:Arial;" text-anchor="middle"><textPath startOffset="21.466115282336833" xlink:href="#id162">June</textPath></text><line stroke="#e1ed5e" stroke-width="0.3" x1="102.19456741930631" x2="102.32365962044197" y1="184.97166512339345" y2="189.96999836594603" /><path d="M 102.22038585953345 185.97133177190398 a86.0,86.0 0 0,1 -42.740103519485714,-10.115201625700543" fill="none" id="id163" stroke="none" /><text fill="#e1ed5e" style="font-size:6.75px; font-family:Arial;" text-anchor="middle"><textPath startOffset="22.20632615414155" xlink:href="#id163">July</textPath></text><line stroke="#e1ed5e" stroke-width="0.3" x1="58.666819895761336" x2="56.23545636021788" y1="174.27360380694188" y2="178.64263932499728" /><path d="M 58.180547188652646 175.14741091055294 a86.0,86.0 0 0,1 -31.652253787137756,-30.449443065178592" fill="none" id="id164" stroke="none" /><text fill="#e1ed5e" style="font-size:6.75px; font-family:Arial;" text-anchor="middle"><textPath startOffset="22.20632615414155" xlink:href="#id164">August</textPath></text><line stroke="#e1ed5e" stroke-width="0.3" x1="26.63291911575756" x2="22.317208475507996" y1="142.92168965132927" y2="145.44649492493687" /><path d="M 25.769776987707644 143.4266507060508 a86.0,86.0 0 0,1 -11.730757126820373,-40.83630448921669" fill="none" id="id165" stroke="none" /><text fill="#e1ed5e" style="font-size:6.75px; font-family:Arial;" text-anchor="middle"><textPath startOffset="21.46611528233685" xlink:href="#id165">September</textPath></text><line stroke="#e1ed5e" stroke-width="0.3" x1="15.007084014347285" x2="10.007500721073583" y1="101.09737516637583" y2="101.16192664675087" /><path d="M 14.007167355692545 101.11028546245083 a86.0,86.0 0 0,1 10.666146001902534,-42.60595125391555" fill="none" id="id166" stroke="none" /><text fill="#e1ed5e" style="font-size:6.75px; font-family:Arial;" text-anchor="middle"><textPath startOffset="22.20632615414155" xlink:href="#id166">October</textPath></text><line stroke="#e1ed5e" stroke-width="0.3" x1="26.266209847984243" x2="21.928928074336255" y1="57.711370442889674" y2="55.22380399835377" /><path d="M 25.398753493254645 57.213857153982495 a86.0,86.0 0 0,1 29.58750427330803,-30.492523968695096" fill="none" id="id167" stroke="none" /><text fill="#e1ed5e" style="font-size:6.75px; font-family:Arial;" text-anchor="middle"><textPath startOffset="21.46611528233685" xlink:href="#id167">November</textPath></text><line stroke="#e1ed5e" stroke-width="0.3" x1="56.762969772571076" x2="54.21961505331055" y1="26.818313649435495" y2="22.513508569990535" /><path d="M 56.25429882871897 25.957352633546506 a86.0,86.0 0 0,1 42.265352541879196,-11.944610805530505" fill="none" id="id168" stroke="none" /><text fill="#e1ed5e" style="font-size:6.75px; font-family:Arial;" text-anchor="middle"><textPath startOffset="22.20632615414155" xlink:href="#id168">December</textPath></text></svg>