<?xml version="1.0" encoding="utf-8" ?>
<svg baseProfile="full" height="200mm" version="1.1" viewBox="0,0,200,200" width="200mm" xmlns="http://www.w3.org/2000/svg" xmlns:ev="http://www.w3.org/2001/xml-events" xmlns:xlink="http://www.w3.org/1999/xlink"><defs /><rect fill="#1a1a1a" height="200" width="200" x="0" y="0" /><text alignment-baseline="middle" fill="#e1ed5e" style="dominant-baseline: central; font-size:9.0px; font-family:Arial;" text-anchor="middle" x="100.0" y="100.0">2013</text><line stroke="#e1ed5e" stroke-width="0.3" x1="100.0" x2="100.0" y1="15.0" y2="10.0" /><path d="M 100.0 14.0 a86.0,86.0 0 0,1 42.46469731375804,11.215312516191453" fill="none" id="id1" stroke="none" /><text fill="#e1ed5e" style="font-size:6.75px; font-family:Arial;" text-anchor="middle"><textPath startOffset="22.20632615414155" xlink:href="#id1">January</textPath></text><line stroke="#e1ed5e" stroke-width="0.3" x1="143.23703022742887" x2="145.7803849466894" y1="26.81831364943548" y2="22.513508569990506" /><path d="M 143.74570117128098 25.957352633546492 a86.0,86.0 0 0,1 28.547481713284135,27.462654790039103" fill="none" id="id2" stroke="none" /><text fill="#e1ed5e" style="font-size:6.75px; font-family:Arial;" text-anchor="middle"><textPath startOffset="19.985693538727396" xlink:href="#id2">February</textPath></text><line stroke="#e1ed5e" stroke-width="0.3" x1="172.23445277983987" x2="176.4835382374775" y1="55.19839476539836" y2="52.563006222186495" /><path d="M 173.08426987136738 54.67131705675599 a86.0,86.0 0 0,1 12.851231095245387,41.99856678651699" fill="none" id="id3" stroke="none" /><text fill="#e1ed5e" style="font-size:6.75px; font-family:Arial;" text-anchor="middle"><textPath startOffset="22.20632615414155" xlink:href="#id3">March</textPath></text><line stroke="#e1ed5e" stroke-width="0.3" x1="184.98032266829074" x2="189.97916517819016" y1="98.17113171792111" y2="98.06355123074" /><path d="M 185.9800911702706 98.14961562048488 a86.0,86.0 0 0,1 -9.607161424134198,41.387399972396054" fill="none" id="id4" stroke="none" /><text fill="#e1ed5e" style="font-size:6.75px; font-family:Arial;" text-anchor="middle"><textPath startOffset="21.466115282336823" xlink:href="#id4">April</textPath></text><line stroke="#e1ed5e" stroke-width="0.3" x1="174.80103733775053" x2="179.2010983576182" y1="140.37084112569926" y2="142.7455964860345" /><path d="M 175.68104954172406 140.8457921977663 a86.0,86.0 0 0,1 -30.038265399797805,32.042727171017184" fill="none" id="id5" stroke="none" /><text fill="#e1ed5e" style="font-size:6.75px; font-family:Arial;" text-anchor="middle"><textPath startOffset="22.206326154141568" xlink:href="#id5">May</textPath></text><line stroke="#e1ed5e" stroke-width="0.3" x1="143.8653032363475" x2="146.44561519142675" y1="172.8068346515853" y2="177.08958963109032" /><path d="M 144.38136562736335 173.6633856474863 a86.0,86.0 0 0,1 -40.68145358897372,12.25698825130547" fill="none" id="id6" stroke="none" /><text fill="#e1ed5e" style="font-size:6.75px; font-family:Arial;" text-anchor="middle"><textPath startOffset="21.466115282336833" xlink:href="#id6">June</textPath></text><line stroke="#e1ed5e" stroke-width="0.3" x1="102.19456741930631" x2="102.32365962044197" y1="184.97166512339345" y2="189.96999836594603" /><path d="M 102.22038585953345 185.97133177190398 a86.0,86.0 0 0,1 -42.740103519485714,-10.115201625700543" fill="none" id="id7" stroke="none" /><text fill="#e1ed5e" style="font-size:6.75px; font-family:Arial;" text-anchor="middle"><textPath startOffset="22.20632615414155" xlink:href="#id7">July</textPath></text><line stroke="#e1ed5e" stroke-width="0.3" x1="58.666819895761336" x2="56.23545636021788" y1="174.27360380694188" y2="178.64263932499728" /><path d="M 58.180547188652646 175.14741091055294 a86.0,86.0 0 0,1 -31.652253787137756,-30.449443065178592" fill="none" id="id8" stroke="none" /><text fill="#e1ed5e" style="font-size:6.75px; font-family:Arial;" text-anchor="middle"><textPath startOffset="22.20632615414155" xlink:href="#id8">August</textPath></text><line stroke="#e1ed5e" stroke-width="0.3" x1="26.63291911575756" x2="22.317208475507996" y1="142.92168965132927" y2="145.44649492493687" /><path d="M 25.769776987707644 143.4266507060508 a86.0,86.0 0 0,1 -11.730757126820373,-40.83630448921669" fill="none" id="id9" stroke="none" /><text fill="#e1ed5e" style="font-size:6.75px; font-family:Arial;" text-anchor="middle"><textPath startOffset="21.46611528233685" xlink:href="#id9">September</textPath></text><path d="M 81.35079622478065 109.6543875284942 l -19.908932366972138 10.306528400141817 a43.41852170986304,43.41852170986304 0 0,0 -0.33788155113046076,-0.6666723552114703 l 20.083392587888866 -9.962301833227661" fill="red" stroke="none" /><path d="M 81.02952815118164 109.00673069616217 l -35.4008957197555 16.807506776412524 a60.18820870874499,60.18820870874499 0 0,0 -0.4362939586863422,-0.9397383724776771 l 35.684964295281674 -16.19564833665602" fill="red" stroke="none" /><path d="M 80.58989483394504 108.01547362559985 l -31.364496680593945 12.952083142917422 a54.93358380377814,54.93358380377814 0 0,0 -0.35339921720776807,-0.8771078750508114 l 31.5827985120591 -12.410275900023805" fill="red" stroke="none" /><path d="M 80.0844068197444 106.66101706037122 l -34.10981500574598 11.408450535364084 a56.96709917888934,56.96709917888934 0 0,0 -0.3030317340670381,-0.9326357791797966 l 34.301138990829266 -10.819615856206484" fill="red" stroke="none" /><path d="M 79.50377843672027 104.57218783832718 l -43.07550091081623 9.60905310211577 a65.1342574451753,65.1342574451753 0 0,0 -0.23468791435994954,-1.0963838042599672 l 43.23452286390062 -8.866155478439637" fill="red" stroke="none" /><path d="M 79.23777060512086 103.15116336523772 l -50.08520789984361 7.601624530419117 a71.65878744968168,71.65878744968168 0 0,0 -0.1745947553744185,-1.2211153124410776 l 50.20863670623463 -6.738363745997638" fill="red" stroke="none" /><path d="M 79.18660465613746 102.79330883721812 l -49.495550194643684 6.642662356502081 a70.9393076869612,70.9393076869612 0 0,0 -0.15200770385651044,-1.2116509614502733 l 49.60255940774704 -5.789693640764399" fill="red" stroke="none" /><path d="M 79.04373962182676 101.35467743843564 l -31.63205008603875 2.0447934798354623 a52.69807207103993,52.69807207103993 0 0,0 -0.050724777987979544,-0.9057249859538977 l 31.662561214914263 -1.4999967775461271" fill="red" stroke="none" /><line stroke="#e1ed5e" stroke-width="0.3" x1="15.007084014347285" x2="10.007500721073583" y1="101.09737516637583" y2="101.16192664675087" /><path d="M 14.007167355692545 101.11028546245083 a86.0,86.0 0 0,1 10.666146001902534,-42.60595125391555" fill="none" id="id10" stroke="none" /><text fill="#e1ed5e" style="font-size:6.75px; font-family:Arial;" text-anchor="middle"><textPath startOffset="22.20632615414155" xlink:href="#id10">October</textPath></text><path d="M 79.00175016825051 100.2711162175752 l -49.89029010808077 0.6441521010661082 a70.89444837852975,70.89444837852975 0 0,0 -0.005251937404841306,-1.220365292229396 l 49.893986342775115 0.2147226693669632" fill="red" stroke="none" /><path d="M 79.00019446554 99.90962569577889 l -28.736686627616628 -0.12367057663127098 a49.73695273938009,49.73695273938009 0 0,0 0.011053428781962136,-0.8561002404688469 l 28.73030019171695 0.6183070751605898" fill="red" stroke="none" /><path d="M 79.00486145842228 99.54816195383935 l -40.92470407368869 -0.8807438108464447 a61.934180255372596,61.934180255372596 0 0,0 0.03211229896474531,-1.065650867667981 l 40.903480080268295 1.5850648259394202" fill="red" stroke="none" /><path d="M 79.26566170972629 96.67025291283419 l -31.324617928344907 -5.030450156801772 a52.72596912841047,52.72596912841047 0 0,0 0.15162014881937605,-0.8948707010564957 l 31.233385918005308 5.568906646174095" fill="red" stroke="none" /><path d="M 79.32604984820605 96.31383870115002 l -62.021850455381816 -11.05848389654995 a84.0,84.0 0 0,0 0.2660571043605535,-1.4212876901497093 l 61.8223076271114 12.124449664162231" fill="red" stroke="none" /><path d="M 79.46518482838121 95.60439243477599 l -49.016585458155724 -10.49231132886469 a71.12698122766326,71.12698122766326 0 0,0 0.2665758408675144,-1.1950072243395162 l 48.82871523028617 11.334496722754166" fill="red" stroke="none" /><path d="M 79.54389044137918 95.25157060432595 l -48.013946202465334 -11.145366272934162 a70.29054898549106,70.29054898549106 0 0,0 0.28373014312524303,-1.1762446184890554 l 47.81498325907928 11.970196123082614" fill="red" stroke="none" /><path d="M 79.71946130924805 94.55025226153421 l -30.00180040957747 -8.062026676172795 a52.06612788783701,52.06612788783701 0 0,0 0.24003285642506508,-0.8635258960989237 l 29.858580782586042 8.577263875690662" fill="red" stroke="none" /><path d="M 80.14247586403 93.16781622104843 l -30.002968542750594 -10.322827437830616 a52.729148864861,52.729148864861 0 0,0 0.30268268796094866,-0.8557247185547237 l 29.820832773979834 10.837749782811951" fill="red" stroke="none" /><path d="M 80.65960295795068 91.81776055985345 l -28.636660997750738 -12.115160642279886 a52.09397804219245,52.09397804219245 0 0,0 0.35649469551973584,-0.82283890849915 l 28.423875592388324 12.606298695365636" fill="red" stroke="none" /><path d="M 81.26839172434947 90.50648371742162 l -36.81631982334456 -18.659173657922143 a62.274764286804704,62.274764286804704 0 0,0 0.4928323036497315,-0.9519951452796283 l 36.48967808653471 19.290141525462108" fill="red" stroke="none" /><path d="M 81.43458229118936 90.18545643968196 l -27.805950236176166 -14.699518971742533 a52.45229286613814,52.45229286613814 0 0,0 0.42883970773984037,-0.7945748489777629 l 27.54880242921785 15.175974804052768" fill="red" stroke="none" /><line stroke="#e1ed5e" stroke-width="0.3" x1="26.266209847984243" x2="21.928928074336255" y1="57.711370442889674" y2="55.22380399835377" /><path d="M 25.398753493254645 57.213857153982495 a86.0,86.0 0 0,1 29.58750427330803,-30.492523968695096" fill="none" id="id11" stroke="none" /><text fill="#e1ed5e" style="font-size:6.75px; font-family:Arial;" text-anchor="middle"><textPath startOffset="21.46611528233685" xlink:href="#id11">November</textPath></text><path d="M 84.07557802195018 86.31012108654704 l -25.893288405050566 -22.259896367030883 a55.14623508819209,55.14623508819209 0 0,0 0.6250120306685112,-0.7144967953082136 l 25.50628451080421 22.702308718542042" fill="red" stroke="none" /><path d="M 86.37877921826538 84.01681056812374 l -20.552735138651443 -24.11665329621156 a52.68639909944375,52.68639909944375 0 0,0 0.6953161150083405,-0.5823072500985038 l 20.13456148668399 24.466861703703874" fill="red" stroke="none" /><path d="M 87.22198572758235 83.33499621200491 l -20.45169047792453 -26.672962795261412 a54.61128661152721,54.61128661152721 0 0,0 0.7509151932038775,-0.5655737554165816 l 19.989529130962264 27.02105314018385" fill="red" stroke="none" /><path d="M 87.51073957382395 83.11751280151077 l -23.887231362345368 -32.289812520597835 a61.165057136441035,61.165057136441035 0 0,0 0.8518098778590824,-0.6188761020396772 l 23.327876168132505 32.696207857454176" fill="red" stroke="none" /><path d="M 88.70189139769569 82.29822771554957 l -16.820794401736407 -26.35466542447353 a52.265116566893326,52.265116566893326 0 0,0 0.7625252721489686,-0.4774932554654834 l 16.364649977215198 26.640303021261943" fill="red" stroke="none" /><line stroke="#e1ed5e" stroke-width="0.3" x1="56.762969772571076" x2="54.21961505331055" y1="26.818313649435495" y2="22.513508569990535" /><path d="M 56.25429882871897 25.957352633546506 a86.0,86.0 0 0,1 42.265352541879196,-11.944610805530505" fill="none" id="id12" stroke="none" /><text fill="#e1ed5e" style="font-size:6.75px; font-family:Arial;" text-anchor="middle"><textPath startOffset="22.20632615414155" xlink:href="#id12">December</textPath></text><path d="M 89.3179101791058 81.91981866633112 l -26.94063266660326 -45.59889797061971 a73.96279056669727,73.96279056669727 0 0,0 1.1017048840593382,-0.638178578976961 l 26.151731050078602 46.05588070698672" fill="red" stroke="none" /><path d="M 89.94658935756843 81.56283822128135 l -17.580091300252008 -32.24050015617341 a57.72205686566881,57.72205686566881 0 0,0 0.8764268455330163,-0.46815686829995945 l 17.022519408190686 32.538335750975115" fill="red" stroke="none" /><path d="M 90.58718382345135 81.22770947309562 l -16.5225587323647 -32.95148518299427 a57.86184101248243,57.86184101248243 0 0,0 0.8941823786773854,-0.4387714098255577 l 15.952905086676887 33.23101175295466" fill="red" stroke="none" /><path d="M 94.28887869178378 79.79150937346287 l -6.250664576507891 -22.117634994421113 a43.98392014853976,43.98392014853976 0 0,0 0.7303469426671931,-0.19963140844653823 l 5.869019744616975 22.221952943693946" fill="red" stroke="none" /><path d="M 96.75951476605007 79.25152402106235 l -5.7214974578068345 -36.634128532089015 a58.07822685168897,58.07822685168897 0 0,0 0.9890750230412263,-0.145763947868311 l 5.090053454336959 36.727186964118296" fill="red" stroke="none" /></svg>