<?xml version="1.0" encoding="utf-8" ?>
<svg baseProfile="full" height="200mm" version="1.1" viewBox="0,0,200,200" width="200mm" xmlns="http://www.w3.org/2000/svg" xmlns:ev="http://www.w3.org/2001/xml-events" xmlns:xlink="http://www.w3.org/1999/xlink"><defs /><rect fill="#1a1a1a" height="200" width="200" x="0" y="0" /><text alignment-baseline="middle" fill="#e1ed5e" style="dominant-baseline: central; font-size:9.0px; font-family:Arial;" text-anchor="middle" x="100.0" y="100.0">2024</text><line stroke="#e1ed5e" stroke-width="0.3" x1="100.0" x2="100.0" y1="15.0" y2="10.0" /><path d="M 100.0 14.0 a86.0,86.0 0 0,1 42.35913384403234,11.155469271406648" fill="none" id="id133" stroke="none" /><text fill="#e1ed5e" style="font-size:6.75px; font-family:Arial;" text-anchor="middle"><textPath startOffset="22.145653131862478" xlink:href="#id133">January</textPath></text><path d="M 100.0 79.0 l 0.0 -22.901536646658776 a43.901536646658776,43.901536646658776 0 0,0 0.7536282548149146,0.006468992177730428 l -0.3931353299660598 22.89816205267548" fill="#ff9f0e" stroke="none" /><path d="M 100.36049292484886 79.00309439819443 l 0.527410125945309 -30.718995754363466 a51.72352293597774,51.72352293597774 0 0,0 0.8876413816896674,0.022862493311579545 l -1.0546648217057177 30.705415543701843" fill="#e4ff1a" stroke="none" /><path d="M 100.72087961077811 79.0123766808444 l 1.0602754967655925 -30.86876422628662 a51.88696794745503,51.88696794745503 0 0,0 0.889921391200162,0.03821705363420785 l -1.590022648566591 30.846014604226582" fill="#e2ff1b" stroke="none" /><path d="M 101.08105385017728 79.02784411241856 l 1.586987580014524 -30.787135085141564 a51.82801025577024,51.82801025577024 0 0,0 0.8881239146797897,0.053427329300905615 l -2.115255846826776 30.755355778015968" fill="#e3ff1b" stroke="none" /><path d="M 101.44090949804482 79.04949213459386 l 1.2345425279197222 -17.94997741111155 a38.992381285217846,38.992381285217846 0 0,0 0.6673843238787249,0.05165976750166859 l -1.5424958465736807 17.92613987661483" fill="#ff4b06" stroke="none" /><path d="M 101.80034050326958 79.07731436759882 l 5.241750386793449 -60.917085022096266 a82.14218833756897,82.14218833756897 0 0,0 1.4038508218506667,0.1329461324074544 l -6.286700772029129 60.81812713418363" fill="#4ae8ff" stroke="none" /><path d="M 102.15924093988457 79.11130261209362 l 1.4651154789373853 -14.173663213099617 a35.24918566953899,35.24918566953899 0 0,0 0.6013579868192145,0.06738341673582018 l -1.7082093673573964 14.146424035856827" fill="#ff0701" stroke="none" /><path d="M 102.51750503828377 79.15144685158666 l 2.7261417730837523 -22.576364607791447 a43.740362527252955,43.740362527252955 0 0,0 0.7446737943823748,0.09641293157154796 l -3.113293389356919 22.5262400800195" fill="#ff9c0e" stroke="none" /><path d="M 102.87502721639298 79.19773525538626 l 4.745536177846901 -34.33633579669742 a55.662718727168794,55.662718727168794 0 0,0 0.9454044916001062,0.1389419034735422 l -5.334265775054689 34.249812819925" fill="#abff21" stroke="none" /><path d="M 103.23170211078529 79.25015418208739 l 3.9467190284389484 -25.340767347776996 a46.6462683613738,46.6462683613738 0 0,0 0.7901489073697354,0.1300187020207672 l -4.381145438861754 25.26928264726056" fill="#ffcb12" stroke="none" /><path d="M 103.58742460773223 79.30868818359171 l 5.760723665766042 -33.2263232513972 a54.72201794020718,54.72201794020718 0 0,0 0.9241904320660762,0.1684182831255306 l -6.330248831383172 33.1225367943403" fill="#b8ff1f" stroke="none" /><path d="M 103.94208987418118 79.37332000966035 l 3.03688720384941 -15.890277116924064 a37.177873492568324,37.177873492568324 0 0,0 0.6258337590527799,0.12518427930720963 l -3.309217448433147 15.835803440953995" fill="#ff2a04" stroke="none" /><path d="M 104.29559338865022 79.4440306129975 l 12.88678016595065 -61.66790816100754 a84.0,84.0 0 0,0 1.4089503335234634,0.30707416746512495 l -13.943492916093248 61.4376025354087" fill="#4dd2ff" stroke="none" /><path d="M 104.9986988182912 79.60360301121754 l 6.134971856318769 -25.032778738059946 a46.773589021059706,46.773589021059706 0 0,0 0.778211639086146,0.19781835548275653 l -6.563788788630309 24.92377515074192" fill="#ffcd13" stroke="none" /><path d="M 105.3480935250658 79.69241777938227 l 10.4228844130715 -39.57738981235189 a61.92684087303959,61.92684087303959 0 0,0 1.0256812874762302,0.2795539959037381 l -11.100747101482423 39.39263532230401" fill="#57ff2a" stroke="none" /><path d="M 105.69591212413111 79.78721728523813 l 10.618231426317308 -37.680357413861586 a60.14787572090197,60.14787572090197 0 0,0 0.9914088074907524,0.2885846549137847 l -11.263500246189666 37.49252906464528" fill="#6eff28" stroke="none" /><path d="M 106.04205211174951 79.88797359093562 l 7.537118720272201 -25.088616904774657 a47.19631380171688,47.19631380171688 0 0,0 0.7739282262643415,0.23976494282454344 l -7.966687579408173 24.95553537414347" fill="#ffd413" stroke="none" /><path d="M 106.38641147887787 79.99465700312896 l 10.209862974357296 -31.982250349606296 a54.57239400727991,54.57239400727991 0 0,0 0.8899906714105702,0.2925576111535911 l -10.75737638341561 31.80227181705068" fill="#bbff1f" stroke="none" /><path d="M 107.06938296918511 80.22567764915836 l 4.660337160445436 -13.03579246957627 a34.84379383546613,34.84379383546613 0 0,0 0.561500849116613,0.206190889392786 l -4.883427161216173 12.953870731174762" fill="#ff0000" stroke="none" /><path d="M 107.40779381753099 80.34994680014964 l 9.200119623855786 -24.404410342242524 a47.0809786098185,47.0809786098185 0 0,0 0.7538062341699989,0.29158844497922015 l -9.61769812051931 24.242882009125267" fill="#ffd213" stroke="none" /><line stroke="#e1ed5e" stroke-width="0.3" x1="143.13028292997686" x2="145.6673583964461" y1="26.7553504044142" y2="22.446841604673864" /><path d="M 143.63769802327073 25.89364864446614 a86.0,86.0 0 0,1 29.32050498858742,28.57503671076993" fill="none" id="id134" stroke="none" /><text fill="#e1ed5e" style="font-size:6.75px; font-family:Arial;" text-anchor="middle"><textPath startOffset="20.669276256404974" xlink:href="#id134">February</textPath></text><line stroke="#e1ed5e" stroke-width="0.3" x1="172.87174338648825" x2="177.1583165268699" y1="56.24261187166439" y2="53.66864786411523" /><path d="M 173.72905801456457 55.72781907015455 a86.0,86.0 0 0,1 12.242430191666344,42.057860355516425" fill="none" id="id135" stroke="none" /><text fill="#e1ed5e" style="font-size:6.75px; font-family:Arial;" text-anchor="middle"><textPath startOffset="22.145653131862474" xlink:href="#id135">March</textPath></text><line stroke="#e1ed5e" stroke-width="0.3" x1="184.99686870605535" x2="189.99668451229388" y1="99.2704041080226" y2="99.22748670261217" /><path d="M 185.99683186730306 99.26182062694052 a86.0,86.0 0 0,1 -10.086455211305974,41.156179273409016" fill="none" id="id136" stroke="none" /><text fill="#e1ed5e" style="font-size:6.75px; font-family:Arial;" text-anchor="middle"><textPath startOffset="21.40746469413373" xlink:href="#id136">April</textPath></text><line stroke="#e1ed5e" stroke-width="0.3" x1="174.33088141563837" x2="178.70328620479359" y1="141.23008692659167" y2="143.65538615756765" /><path d="M 175.20536237346943 141.71514677278685 a86.0,86.0 0 0,1 -30.301960400862466,31.631185727798858" fill="none" id="id137" stroke="none" /><text fill="#e1ed5e" style="font-size:6.75px; font-family:Arial;" text-anchor="middle"><textPath startOffset="22.145653131862474" xlink:href="#id137">May</textPath></text><line stroke="#e1ed5e" stroke-width="0.3" x1="143.1302829299769" x2="145.66735839644613" y1="173.24464959558577" y2="177.55315839532614" /><path d="M 143.63769802327073 174.10635135553383 a86.0,86.0 0 0,1 -40.68552437913181,11.842963189579606" fill="none" id="id138" stroke="none" /><text fill="#e1ed5e" style="font-size:6.75px; font-family:Arial;" text-anchor="middle"><textPath startOffset="21.407464694133747" xlink:href="#id138">June</textPath></text><line stroke="#e1ed5e" stroke-width="0.3" x1="101.45913802915013" x2="101.54496967792366" y1="184.9874750549273" y2="189.98673829345242" /><path d="M 101.47630435890484 185.9873277026323 a86.0,86.0 0 0,1 -42.54439059252881,-10.42667462771756" fill="none" id="id139" stroke="none" /><text fill="#e1ed5e" style="font-size:6.75px; font-family:Arial;" text-anchor="middle"><textPath startOffset="22.145653131862474" xlink:href="#id139">July</textPath></text><line stroke="#e1ed5e" stroke-width="0.3" x1="58.13341422392154" x2="55.67067388415222" y1="173.97424548756322" y2="178.32567169271397" /><path d="M 57.64086615596768 174.84453072859336 a86.0,86.0 0 0,1 -31.369924170532247,-30.572349798747897" fill="none" id="id140" stroke="none" /><text fill="#e1ed5e" style="font-size:6.75px; font-family:Arial;" text-anchor="middle"><textPath startOffset="22.145653131862474" xlink:href="#id140">August</textPath></text><line stroke="#e1ed5e" stroke-width="0.3" x1="26.387840678322732" x2="22.057713659400548" y1="142.50000000000003" y2="145.00000000000006" /><path d="M 25.521815274538298 143.00000000000003 a86.0,86.0 0 0,1 -11.493303480769221,-40.785679425670985" fill="none" id="id141" stroke="none" /><text fill="#e1ed5e" style="font-size:6.75px; font-family:Arial;" text-anchor="middle"><textPath startOffset="21.40746469413373" xlink:href="#id141">September</textPath></text><line stroke="#e1ed5e" stroke-width="0.3" x1="15.003131293944662" x2="10.003315487706104" y1="100.72959589197737" y2="100.7725132973878" /><path d="M 14.003168132696942 100.73817937305945 a86.0,86.0 0 0,1 10.791469493833604,-42.45332614584628" fill="none" id="id142" stroke="none" /><text fill="#e1ed5e" style="font-size:6.75px; font-family:Arial;" text-anchor="middle"><textPath startOffset="22.145653131862435" xlink:href="#id142">October</textPath></text><line stroke="#e1ed5e" stroke-width="0.3" x1="26.387840678322718" x2="22.05771365940052" y1="57.49999999999999" y2="54.99999999999999" /><path d="M 25.521815274538284 56.99999999999999 a86.0,86.0 0 0,1 29.574782752854787,-30.34633250058573" fill="none" id="id143" stroke="none" /><text fill="#e1ed5e" style="font-size:6.75px; font-family:Arial;" text-anchor="middle"><textPath startOffset="21.40746469413373" xlink:href="#id143">November</textPath></text><line stroke="#e1ed5e" stroke-width="0.3" x1="56.869717070023135" x2="54.33264160355391" y1="26.7553504044142" y2="22.446841604673864" /><path d="M 56.362301976729285 25.89364864446614 a86.0,86.0 0 0,1 42.16139366436587,-11.88097634709845" fill="none" id="id144" stroke="none" /><text fill="#e1ed5e" style="font-size:6.75px; font-family:Arial;" text-anchor="middle"><textPath startOffset="22.145653131862474" xlink:href="#id144">December</textPath></text></svg>