<?xml version="1.0" encoding="utf-8" ?>
<svg baseProfile="full" height="200mm" version="1.1" viewBox="0,0,200,200" width="200mm" xmlns="http://www.w3.org/2000/svg" xmlns:ev="http://www.w3.org/2001/xml-events" xmlns:xlink="http://www.w3.org/1999/xlink"><defs /><rect fill="#1a1a1a" height="200" width="200" x="0" y="0" /><text alignment-baseline="middle" fill="#e1ed5e" style="dominant-baseline: central; font-size:9.0px; font-family:Arial;" text-anchor="middle" x="100.0" y="100.0">2017</text><line stroke="#e1ed5e" stroke-width="0.3" x1="100.0" x2="100.0" y1="15.0" y2="10.0" /><path d="M 100.0 14.0 a86.0,86.0 0 0,1 42.46469731375804,11.215312516191453" fill="none" id="id49" stroke="none" /><text fill="#e1ed5e" style="font-size:6.75px; font-family:Arial;" text-anchor="middle"><textPath startOffset="22.20632615414155" xlink:href="#id49">January</textPath></text><line stroke="#e1ed5e" stroke-width="0.3" x1="143.23703022742887" x2="145.7803849466894" y1="26.81831364943548" y2="22.513508569990506" /><path d="M 143.74570117128098 25.957352633546492 a86.0,86.0 0 0,1 28.547481713284135,27.462654790039103" fill="none" id="id50" stroke="none" /><text fill="#e1ed5e" style="font-size:6.75px; font-family:Arial;" text-anchor="middle"><textPath startOffset="19.985693538727396" xlink:href="#id50">February</textPath></text><line stroke="#e1ed5e" stroke-width="0.3" x1="172.23445277983987" x2="176.4835382374775" y1="55.19839476539836" y2="52.563006222186495" /><path d="M 173.08426987136738 54.67131705675599 a86.0,86.0 0 0,1 12.851231095245387,41.99856678651699" fill="none" id="id51" stroke="none" /><text fill="#e1ed5e" style="font-size:6.75px; font-family:Arial;" text-anchor="middle"><textPath startOffset="22.20632615414155" xlink:href="#id51">March</textPath></text><path d="M 118.03404312379186 89.2402003453031 l 7.973007695105946 -4.757001236817426 a30.28428308881742,30.28428308881742 0 0,0 0.26324299492692826,0.44996760980065725 l -8.053710364503202 4.6190542146628735" fill="#ff700a" stroke="none" /><path d="M 118.3937258080291 89.86733742301442 l 9.227814636134813 -5.083381855681904 a31.53533739609415,31.53533739609415 0 0,0 0.25782676282487776,0.4777138344154577 l -9.313949498178156 4.923787037933987" fill="#ff810b" stroke="none" /><path d="M 118.56541770881063 90.18545643968196 l 14.295388624467773 -7.55720752245344 a37.170019216500314,37.170019216500314 0 0,0 0.29415745538283594,0.5682185753620841 l -14.423355513010724 7.310016224831011" fill="#ffcb12" stroke="none" /><path d="M 118.89224826269711 90.83032412892265 l 6.974187660991594 -3.385041283923404 a28.752276957423103,28.752276957423103 0 0,0 0.2122764262209968,0.44710829085953535 l -7.031422281054346 3.2644905774233286" fill="#ff5b08" stroke="none" /><path d="M 119.04729006885535 91.15688171328212 l 7.143170159906408 -3.3163719583130136 a28.875481121764068,28.875481121764068 0 0,0 0.20542523696000792,0.45262727949434456 l -7.199197713829762 3.192922669976606" fill="#ff5c08" stroke="none" /><path d="M 119.196687751892 91.48605970444005 l 5.332722707482131 -2.3651206568073087 a26.833671845086265,26.833671845086265 0 0,0 0.18363085396056145,0.4238453288046432 l -5.372644271285373 2.2729761834160627" fill="#ff4006" stroke="none" /><path d="M 119.47837535516314 92.15188598940014 l 7.175233154402996 -2.8910033214584336 a28.73575277686197,28.73575277686197 0 0,0 0.18090723171933287,0.4603891722306636 l -7.223933936004029 2.767065144331986" fill="#ff5a08" stroke="none" /><path d="M 119.61058180528143 92.48833698450437 l 11.12189841201841 -4.260146577658326 a32.909889720328714,32.909889720328714 0 0,0 0.19807900255081337,0.5307532481519772 l -11.193582003070848 4.068070192477015" fill="#ff930d" stroke="none" /><path d="M 119.85752413597 93.16781622104841 l 6.821152651491758 -2.346887163785794 a28.213598467789538,28.213598467789538 0 0,0 0.15404988346444715,0.4605895437194306 l -6.860539828727975 2.229124517144049" fill="#ff5307" stroke="none" /><path d="M 119.97218684219823 93.5106431181261 l 5.437091746728694 -1.7666181987375296 a26.716896581402878,26.716896581402878 0 0,0 0.13834838066473915,0.43860217381148636 l -5.466695611161639 1.672765858499624" fill="#ff3e05" stroke="none" /><path d="M 120.08093135843002 93.85539295169968 l 5.006151638464256 -1.531843025281503 a26.235274327234624,26.235274327234624 0 0,0 0.12842054707126055,0.4329702434506059 l -5.031778082647219 1.4454433950843673" fill="#ff3705" stroke="none" /><path d="M 120.53481517161879 95.60439243477599 l 6.738395962636745 -1.4423964385994577 a27.891044016356563,27.891044016356563 0 0,0 0.09645082162541077,0.4703284600576032 l -6.762226080177153 1.3261923223784426" fill="#ff4f07" stroke="none" /><path d="M 120.6074358757038 95.95851677861258 l 4.884489519744293 -0.9579349201015099 a25.977537260497577,25.977537260497577 0 0,0 0.08227986121365016,0.4395423086756147 l -4.900255104867803 0.8737145339633324" fill="#ff3404" stroke="none" /><path d="M 120.67395015179393 96.31383870115 l 5.784031627441929 -1.031291716380128 a26.87525186451805,26.87525186451805 0 0,0 0.07728316339397144,0.4561296051002623 l -5.800926652356124 0.9315763229640279" fill="#ff4006" stroke="none" /><path d="M 120.78858239683441 97.02765380044208 l 2.837776236204369 -0.4057445211926635 a23.866636109317696,23.866636109317696 0 0,0 0.05464777872222442,0.40718942640884254 l -2.8443400139844295 0.35683675271915666" fill="#ff1502" stroke="none" /><path d="M 120.83666639777658 97.38593545837742 l 29.610293831392127 -3.7147602065523952 a50.84240178292565,50.84240178292565 0 0,0 0.10146605291295789,0.8692991770839584 l -29.669850237308676 3.2045172911435844" fill="#91ff24" stroke="none" /><path d="M 120.91429891909075 98.10471618934814 l 3.5183800984674996 -0.31884065854381827 a24.532797458506902,24.532797458506902 0 0,0 0.03449254801496208,0.42089645220288846 l -3.523347130301956 0.25823028913316104" fill="#ff1f03" stroke="none" /><path d="M 120.94382443527127 98.46500227214037 l 3.5231028399385846 -0.2582123848027522 a24.532552512907465,24.532552512907465 0 0,0 0.02724212503591158,0.42142361665560907 l -3.5270255559789114 0.1975297038941079" fill="#ff1f03" stroke="none" /><path d="M 120.98425023603335 99.18683210126433 l 5.32980484753517 -0.2065371009110027 a26.33380514144097,26.33380514144097 0 0,0 0.013653834120262583,0.4531042823569365 l -5.332570376111078 0.11476267112906711" fill="#ff3905" stroke="none" /><line stroke="#e1ed5e" stroke-width="0.3" x1="184.98032266829074" x2="189.97916517819016" y1="98.17113171792111" y2="98.06355123074" /><path d="M 185.9800911702706 98.14961562048488 a86.0,86.0 0 0,1 -9.607161424134198,41.387399972396054" fill="none" id="id52" stroke="none" /><text fill="#e1ed5e" style="font-size:6.75px; font-family:Arial;" text-anchor="middle"><textPath startOffset="21.466115282336823" xlink:href="#id52">April</textPath></text><path d="M 120.99513854157772 99.54816195383933 l 5.3679259018759 -0.11552356021064782 a26.369168853835195,26.369168853835195 0 0,0 0.005860224921552649,0.4538808783687033 l -5.369119133915168 0.023106423781481814" fill="#ff3905" stroke="none" /><path d="M 120.99980553446 99.90962569577887 l 7.086761457963814 -0.030498431754219114 a28.086827083852185,28.086827083852185 0 0,0 -0.002080702524933763,0.48348198943545745 l -7.086236458149377 -0.09149303588492307" fill="#ff5107" stroke="none" /><path d="M 120.9764740272857 100.99374915477107 l 7.771217227953173 0.36815722898783504 a28.779932965604022,28.779932965604022 0 0,0 -0.027702260307007048,0.4946424671074776 l -7.763728616758637 -0.501871412430736" fill="#ff5b08" stroke="none" /><path d="M 120.92983693683757 101.71520430193887 l 9.763536983549006 0.8001237987118716 a30.796267274957046,30.796267274957046 0 0,0 -0.047844793000217455,0.5279633039151016 l -9.748317594271715 -0.9680684911755436" fill="#ff770a" stroke="none" /><path d="M 120.8583938346157 102.4346265915055 l 19.88001711592049 2.3204288256213386 a41.014981150729724,41.014981150729724 0 0,0 -0.08788629762151476,0.700540264143043 l -19.83712930905213 -2.662286844051777" fill="#fffb17" stroke="none" /><path d="M 120.70491114924044 103.5080841355445 l 9.65767306361282 1.6363233542288573 a30.795315366195588,30.795315366195588 0 0,0 -0.09305106282246474,0.5218797763850573 l -9.628075558451167 -1.802321881347133" fill="#ff770a" stroke="none" /><path d="M 120.5718875245553 104.21870165774334 l 18.422041547235047 3.7778301636916587 a39.805414526506794,39.805414526506794 0 0,0 -0.14342452162476924,0.6700316165490966 l -18.354282986885835 -4.094375599656924" fill="#ffec16" stroke="none" /><path d="M 120.41448212921028 104.9243191809786 l 14.802813908034327 3.5706896701283153 a36.227380743787016,36.227380743787016 0 0,0 -0.15144543533473728,0.6049492323046174 l -14.739157158404531 -3.8249667418303286" fill="#ffbf11" stroke="none" /><path d="M 120.23288151984713 105.62410040840565 l 9.538491386076542 2.6513985784666554 a30.900137996217598,30.900137996217598 0 0,0 -0.1468600615837203,0.5112391406029824 l -9.491438687606722 -2.81519519457422" fill="#ff780b" stroke="none" /><path d="M 120.02730092923936 106.31721596034902 l 7.807197887678055 2.462626155960804 a29.18638298892661,29.18638298892661 0 0,0 -0.15525453069860443,0.47782431320296825 l -7.763651105963204 -2.5966493691415677" fill="#ff6108" stroke="none" /><path d="M 119.79798401119884 107.00284435728193 l 6.769871331593356 2.394605189455472 a28.180897705697852,28.180897705697852 0 0,0 -0.16569796046415014,0.45592962275503385 l -6.727649110123979 -2.510782609216637" fill="#ff5307" stroke="none" /><path d="M 119.67450827220406 107.3425965602758 l 14.086562504945679 5.257155297804909 a36.035588616046255,36.035588616046255 0 0,0 -0.22188608315570893,0.5792745462891934 l -13.993982142196463 -5.498853410927246" fill="#ffbc11" stroke="none" /><path d="M 119.54520255179757 107.68017299344265 l 6.039273686656178 2.3730972623765307 a27.488791665559674,27.488791665559674 0 0,0 -0.17684113767810908,0.4389052010809218 l -5.997529934720676 -2.476701831300266" fill="#ff4906" stroke="none" /><path d="M 118.97047184881838 109.00673069616215 l 2.8065997299864573 1.3325070742235627 a24.106859692231996,24.106859692231996 0 0,0 -0.18119949026975388,0.37332461947187556 l -2.7832469831019893 -1.3806206496607139" fill="#ff1902" stroke="none" /><path d="M 118.81262510543309 109.33194174019688 l 7.966492279661253 3.9517526879359757 a29.89276945324186,29.89276945324186 0 0,0 -0.23262457846767468,0.4589903624161996 l -7.897289031407309 -4.08829726205487" fill="#ff6a09" stroke="none" /><line stroke="#e1ed5e" stroke-width="0.3" x1="174.80103733775053" x2="179.2010983576182" y1="140.37084112569926" y2="142.7455964860345" /><path d="M 175.68104954172406 140.8457921977663 a86.0,86.0 0 0,1 -30.038265399797805,32.042727171017184" fill="none" id="id53" stroke="none" /><text fill="#e1ed5e" style="font-size:6.75px; font-family:Arial;" text-anchor="middle"><textPath startOffset="22.206326154141568" xlink:href="#id53">May</textPath></text><path d="M 118.12598468904814 110.60418214915192 l 8.005881670466726 4.683653272060889 a30.275276238172196,30.275276238172196 0 0,0 -0.2670266739442154,0.4475520648760935 l -7.924074120824284 -4.820767430823087" fill="#ff700a" stroke="none" /><path d="M 117.35343817320211 111.8261652097733 l 24.70727859237381 16.83772147058 a50.89913844514594,50.89913844514594 0 0,0 -0.49963343930053433,0.7197592337351755 l -24.41378424591114 -17.260521966502193" fill="#90ff24" stroke="none" /><path d="M 116.93607887273984 112.41649034213515 l 3.2993046848528067 2.4188470698004516 a25.09099407853078,25.09099407853078 0 0,0 -0.2583640369953544,0.34612084880278143 l -3.25717938116236 -2.475280798112548" fill="#ff2703" stroke="none" /><path d="M 116.498646956653 112.99209946851258 l 4.2511644721038175 3.3476412837785876 a26.41101668207893,26.41101668207893 0 0,0 -0.2843360855351661,0.3547529853769036 l -4.1929104745137975 -3.420322102733741" fill="#ff3a05" stroke="none" /><path d="M 116.27256486870786 113.27417163493432 l 4.468536186231401 3.6451608441282275 a26.76671598288186,26.76671598288186 0 0,0 -0.2943115138171832,0.3545171778415004 l -4.405128672520675 -3.7215392790834985" fill="#ff3f05" stroke="none" /><path d="M 115.80600337817218 113.82643327865902 l 6.803826241517089 5.951703749338569 a30.03962549249953,30.03962549249953 0 0,0 -0.3437980070000209,0.3862607054421723 l -6.70036938486873 -6.067938624521608" fill="#ff6c0a" stroke="none" /><path d="M 114.55890576462653 115.13401014063108 l 6.3803173824827395 6.6323520138132785 a30.20307248348857,30.20307248348857 0 0,0 -0.3777745158433087,0.35720938422623344 l -6.2652070322486235 -6.741196034785434" fill="#ff6f0a" stroke="none" /><path d="M 114.0293411484842 115.62618273729858 l 10.61147315153779 11.819287650281623 a36.88392026566197,36.88392026566197 0 0,0 -0.47607945918054095,0.42008476991725885 l -10.406451339450662 -12.00019556197117" fill="#ffc712" stroke="none" /><path d="M 113.20401910651253 116.32954008644616 l 3.9948515127304063 4.940472093406491 a27.353511085572507,27.353511085572507 0 0,0 -0.36867649336400826,0.2928989036204803 l -3.909217526649047 -5.008504911032097" fill="#ff4706" stroke="none" /><path d="M 112.92097659922987 116.55440617244103 l 3.43456655503019 4.400380214421265 a26.58207787946407,26.58207787946407 0 0,0 -0.3631254514555634,0.2784291117125232 l -3.358312375081133 -4.458848667961159" fill="#ff3c05" stroke="none" /><path d="M 112.63410532772338 116.77436683061366 l 1.8259452737136284 2.4243169610662836 a24.03502699663624,24.03502699663624 0 0,0 -0.33261619436276413,0.24606150885942193 l -1.7839441089323 -2.455388418665475" fill="#ff1802" stroke="none" /><path d="M 112.34349029814194 116.9893568818739 l 4.110890463046094 5.658155310374013 a27.993864590873702,27.993864590873702 0 0,0 -0.3922775874758522,0.2798796430480886 l -4.012885547721358 -5.728079215266321" fill="#ff5007" stroke="none" /><path d="M 112.04921762599082 117.19931262002967 l 4.9602237017206905 7.080330089411895 a29.644934548401345,29.644934548401345 0 0,0 -0.42045426957364646,0.28919228051947377 l -4.83761254752416 -7.164663159296462" fill="#ff6709" stroke="none" /><path d="M 111.45004920935366 117.60387380957326 l 0.7704233662097449 1.1844871118653095 a22.41299748102287,22.41299748102287 0 0,0 -0.325221343006856,0.20757164842225076 l -0.7499202211559585 -1.197573189111369" fill="#ff0000" stroke="none" /><path d="M 111.1453310114006 117.79835938074945 l 3.2695456367001445 5.221248987062393 a27.160468298381627,27.160468298381627 0 0,0 -0.3983804369276512,0.24471780230457235 l -3.179185999840185 -5.276755256195344" fill="#ff4406" stroke="none" /><line stroke="#e1ed5e" stroke-width="0.3" x1="143.8653032363475" x2="146.44561519142675" y1="172.8068346515853" y2="177.08958963109032" /><path d="M 144.38136562736335 173.6633856474863 a86.0,86.0 0 0,1 -40.68145358897372,12.25698825130547" fill="none" id="id54" stroke="none" /><text fill="#e1ed5e" style="font-size:6.75px; font-family:Arial;" text-anchor="middle"><textPath startOffset="21.466115282336833" xlink:href="#id54">June</textPath></text><path d="M 110.8373102113329 117.98757091392108 l 2.8109899510516914 4.6656301330183085 a26.446996332203835,26.446996332203835 0 0,0 -0.39195976063696997,0.23157673543369578 l -2.7302623193863393 -4.713325440745754" fill="#ff3a05" stroke="none" /><path d="M 110.5260780823613 118.17145234162733 l 2.524577396780002 4.3582460142691914 a26.036645644992884,26.036645644992884 0 0,0 -0.38974531732091927,0.22130756290277637 l -2.4491833125378837 -4.401056742966596" fill="#ff3405" stroke="none" /><path d="M 109.89434966115114 118.52300852407294 l 5.326412565565673 9.971467426715497 a32.30490307170584,32.30490307170584 0 0,0 -0.4927406831841494,0.25777863707906434 l -5.153980979855028 -10.061675482739279" fill="#ff8b0c" stroke="none" /><path d="M 109.2508944713604 118.85261126421891 l 3.8173943190673096 7.779555951310117 a29.665678864740606,29.665678864740606 0 0,0 -0.4603651874853429,0.2210032663393359 l -3.682916463581734 -7.844113494149013" fill="#ff6709" stroke="none" /><path d="M 108.59647513512805 119.15986991738527 l 3.830432890850896 8.537289384584955 a30.35721786469992,30.35721786469992 0 0,0 -0.47860224809106827,0.20980516073956132 l -3.682909968102074 -8.60195909861897" fill="#ff710a" stroke="none" /><path d="M 107.93186726928326 119.44442032107085 l 3.4726673357671074 8.513002174582592 a30.194053754974014,30.194053754974014 0 0,0 -0.48293077548355806,0.192168122120241 l -3.325615484241683 -8.571517141108902" fill="#ff6f0a" stroke="none" /><path d="M 107.59598834532513 119.57807347666477 l 5.410185257855962 13.944334783749445 a35.95709119734204,35.95709119734204 0 0,0 -0.5789601575552348,0.21891319193598277 l -5.169354879540452 -14.03539622579206" fill="#ffbb11" stroke="none" /><path d="M 106.91757812671514 119.82793768551818 l 3.1205944267746863 8.944597473631367 a30.47332747991485,30.47332747991485 0 0,0 -0.4967591587852662,0.16852767775203134 l -2.966165535052193 -8.99698813828152" fill="#ff720a" stroke="none" /><path d="M 106.2309692047433 120.05430185196036 l 2.8949701855551044 9.317427842421745 a30.75680859574425,30.75680859574425 0 0,0 -0.506938150539926,0.15273630628062076 l -2.734157060574933 -9.365879517808091" fill="#ff760a" stroke="none" /><path d="M 105.53697534728816 120.25689768951611 l 2.3780390239341345 8.700001388502399 a30.01915149885494,30.01915149885494 0 0,0 -0.4996181117875887,0.13195368428145687 l -2.2279304693350483 -8.73964642208744" fill="#ff6c0a" stroke="none" /><path d="M 105.18746579009965 120.34920634021253 l 3.5351397813126026 13.867520628033285 a35.31102168408488,35.31102168408488 0 0,0 -0.5902770559313925,0.1450757389785165 l -3.295909440637999 -13.926317625325831" fill="#ffb310" stroke="none" /><path d="M 104.48393922423573 120.51570834832081 l 1.5793330949072626 7.226042892115902 a28.39662009997594,28.39662009997594 0 0,0 -0.4784269837103637,0.1002590260949383 l -1.4547146497675207 -7.252157898937381" fill="#ff5607" stroke="none" /><path d="M 103.7750983002368 120.6578951692458 l 0.7681520328381823 4.203441316327792 a25.273052356965096,25.273052356965096 0 0,0 -0.4286201709987548,0.07452111081220543 l -0.6956828903673775 -4.216041005661004" fill="#ff2a04" stroke="none" /><path d="M 103.06178313531738 120.77559828337769 l 6.2527919564969645 42.42805192153182 a63.88632645852793,63.88632645852793 0 0,0 -1.089326996138246,0.15097079569456615 l -5.521536369171888 -42.52939728271899" fill="#34ff5b" stroke="none" /><path d="M 102.70371172650421 120.8252237178851 l 1.0172714635223747 7.835489857147262 a28.901249428536893,28.901249428536893 0 0,0 -0.4938983742597075,0.059804214909229735 l -0.8822456662112869 -7.851839600781843" fill="#ff5d08" stroke="none" /><path d="M 101.98527174616119 120.90594882070398 l 0.7458780679128176 7.854485787360247 a28.889821358943273,28.889821358943273 0 0,0 -0.495468253421676,0.042751085726904885 l -0.6105654967495999 -7.8661611253658155" fill="#ff5d08" stroke="none" /><path d="M 101.26447882468166 120.96189622390904 l 0.5572264649656654 9.23742106536784 a30.25421251496634,30.25421251496634 0 0,0 -0.5201015094598609,0.026883307227937227 l -0.3981368870923249 -9.24564417935798" fill="#ff6f0a" stroke="none" /><line stroke="#e1ed5e" stroke-width="0.3" x1="102.19456741930631" x2="102.32365962044197" y1="184.97166512339345" y2="189.96999836594603" /><path d="M 102.22038585953345 185.97133177190398 a86.0,86.0 0 0,1 -42.740103519485714,-10.115201625700543" fill="none" id="id55" stroke="none" /><text fill="#e1ed5e" style="font-size:6.75px; font-family:Arial;" text-anchor="middle"><textPath startOffset="22.20632615414155" xlink:href="#id55">July</textPath></text><path d="M 100.18074693466247 120.99922214144158 l 0.14507432722790478 16.854770069368385 a37.855394408072954,37.855394408072954 0 0,0 -0.6516425237807089,0.0 l 0.14507432722789318 -16.854770069368385" fill="#ffd413" stroke="none" /><path d="M 99.45781275523022 120.99299961872073 l -0.25988369308322457 10.062461488050033 a31.065816943120943,31.065816943120943 0 0,0 -0.534449877150031,-0.018407534394348803 l 0.43305392190789854 -10.05649715522959" fill="#ff7a0b" stroke="none" /><path d="M 98.73552117531835 120.96189622390904 l -0.5400688077730442 8.952990023505556 a29.969264444653163,29.969264444653163 0 0,0 -0.5146682281336138,-0.03549453430322657 l 0.694099796685588 -8.942367144686044" fill="#ff6b09" stroke="none" /><path d="M 98.01472825383883 120.90594882070398 l -5.955815238483529 62.71784646211194 a84.0,84.0 0 0,0 -1.4382696135776267,-0.14908252617695705 l 7.034517448666749 -62.60603456747922" fill="#4dd2ff" stroke="none" /><path d="M 97.65516085044442 120.86867818915974 l -0.6945746434029972 6.181598731100485 a27.22049811571401,27.22049811571401 0 0,0 -0.46517572879100416,-0.056326302545285575 l 0.8008777952453907 -6.168726899829851" fill="#ff4506" stroke="none" /><path d="M 96.93821686468263 120.77559828337769 l -1.1154115905918263 7.568577558435453 a28.650327396554957,28.650327396554957 0 0,0 -0.48727949723446634,-0.07610303605902019 l 1.2455269514348097 -7.548256215029327" fill="#ff5908" stroke="none" /><path d="M 96.22490169976321 120.6578951692458 l -0.7624518183418216 4.172248901152647 a25.241343380164146,25.241343380164146 0 0,0 -0.4267378262702205,-0.08178532004927219 l 0.8341572591837372 -4.158506382754907" fill="#ff2904" stroke="none" /><path d="M 95.51606077576429 120.51570834832081 l -1.1779503729666323 5.389565980278942 a26.516791507475368,26.516791507475368 0 0,0 -0.44507784329216793,-0.10129826808424429 l 1.2705483656516627 -5.368490978617011" fill="#ff3b05" stroke="none" /><path d="M 95.16358092515715 120.4354850818985 l -2.2708887548886865 9.595263056207903 a30.86032498728658,30.86032498728658 0 0,0 -0.5158769389782847,-0.12679000037729457 l 2.435718978610182 -9.554751797516579" fill="#ff780b" stroke="none" /><path d="M 94.46302465271185 120.25689768951611 l -2.582783303880155 9.44905365463025 a30.79568193455072,30.79568193455072 0 0,0 -0.510136090571143,-0.14416955480708477 l 2.7450505625559116 -9.403195306484644" fill="#ff770a" stroke="none" /><path d="M 94.11515582081647 120.15858648285463 l -1.5541264291193284 5.323674012901157 a26.54588261265295,26.54588261265295 0 0,0 -0.4375330618005112,-0.1318251223820595 l 1.6455344653600856 -5.296133521413372" fill="#ff3c05" stroke="none" /><path d="M 93.76903079525671 120.05430185196036 l -2.5621214713954052 8.246158130526203 a29.63502115503076,29.63502115503076 0 0,0 -0.485843105783596,-0.1555516200523055 l 2.703685922269942 -8.20083366381419" fill="#ff6709" stroke="none" /><path d="M 93.08242187328487 119.8279376855182 l -19.86779212595843 56.94729239139037 a81.31354138724407,81.31354138724407 0 0,0 -1.3175908376192533,-0.47244119673365764 l 20.84510252420741 -56.59686365361676" fill="#4aebff" stroke="none" /><path d="M 92.7421414339146 119.70592522655815 l -6.965842022661317 18.913066545552375 a41.15507482598779,41.15507482598779 0 0,0 -0.6626550650240614,-0.25055944445214223 l 7.290367308445661 -18.7903588509936" fill="#fffd17" stroke="none" /><path d="M 92.06813273071674 119.44442032107085 l -4.077523618546226 9.995765236156172 a31.795439848202136,31.795439848202136 0 0,0 -0.5049850784384328,-0.21108380374276814 l 4.248980156482121 -9.92409638939343" fill="#ff840c" stroke="none" /><path d="M 91.7346041902142 119.30500536409082 l -2.2005641847108186 5.139730070709034 a26.5910024084043,26.5910024084043 0 0,0 -0.41922529226422944,-0.183776048232955 l 2.2887101516327917 -5.101089469181627" fill="#ff3c05" stroke="none" /><path d="M 91.40352486487194 119.15986991738527 l -3.007367805201839 6.70283750440248 a28.346583677205956,28.346583677205956 0 0,0 -0.44346475945804886,-0.20357292049427322 l 3.122300560427307 -6.650077513574132" fill="#ff5507" stroke="none" /><path d="M 90.7491055286396 118.85261126421891 l -4.503826209374305 9.178451336765502 a31.223914097136152,31.223914097136152 0 0,0 -0.48047075368279596,-0.24091801030578333 l 4.661150870739861 -9.099565485550416" fill="#ff7d0b" stroke="none" /><path d="M 90.42595943632237 118.69057910512821 l -6.903724347864058 13.477549545099004 a36.14284489823129,36.14284489823129 0 0,0 -0.551280096641777,-0.2884036914565522 l 7.134695347032331 -13.356716434697734" fill="#ffbe11" stroke="none" /><line stroke="#e1ed5e" stroke-width="0.3" x1="58.666819895761336" x2="56.23545636021788" y1="174.27360380694188" y2="178.64263932499728" /><path d="M 58.180547188652646 175.14741091055294 a86.0,86.0 0 0,1 -31.652253787137756,-30.449443065178592" fill="none" id="id56" stroke="none" /><text fill="#e1ed5e" style="font-size:6.75px; font-family:Arial;" text-anchor="middle"><textPath startOffset="22.20632615414155" xlink:href="#id56">August</textPath></text><path d="M 89.7882731507175 118.34994917583269 l -4.948327556706797 8.891890716536555 a31.17603390930341,31.17603390930341 0 0,0 -0.46667736675694205,-0.264991588375706 l 5.100653690384946 -8.805395962366216" fill="#ff7c0b" stroke="none" /><path d="M 89.4739219176387 118.17145234162733 l -2.6515699139045745 4.577476619877127 a26.290001437981434,26.290001437981434 0 0,0 -0.38963300562904085,-0.23020204756263832 l 2.7299707905619974 -4.531156000020739" fill="#ff3805" stroke="none" /><path d="M 89.1626897886671 117.98757091392108 l -4.210637655730686 6.988740005437824 a29.159163948068716,29.159163948068716 0 0,0 -0.42769661945662407,-0.26272619602936975 l 4.330313475119619 -6.915225342580077" fill="#ff6008" stroke="none" /><path d="M 88.54995079064634 117.60387380957326 l -4.179388304499886 6.425598961925804 a28.665220715627985,28.665220715627985 0 0,0 -0.41131220322962336,-0.27259530013166866 l 4.289375206469471 -6.352705640702817" fill="#ff5908" stroke="none" /><path d="M 88.24862548938628 117.40417183066458 l -8.53531959855536 12.641088818055081 a36.25282948031087,36.25282948031087 0 0,0 -0.5141740796976627,-0.35365362050562266 l 8.751650562875913 -12.492294408184359" fill="#ffbf11" stroke="none" /><path d="M 87.65650970185807 116.9893568818739 l -6.39881275560714 8.807210189297999 a31.886310486101117,31.886310486101117 0 0,0 -0.4412686221505295,-0.3264399774241235 l 6.549466348176233 -8.69576026313411" fill="#ff860c" stroke="none" /><path d="M 87.36589467227662 116.77436683061367 l -4.084169724995093 5.422573216579272 a27.78857441822135,27.78857441822135 0 0,0 -0.37960684174802506,-0.291066338986246 l 4.176905295236605 -5.351467535765659" fill="#ff4d07" stroke="none" /><path d="M 87.07902340077011 116.55440617244103 l -5.017345074066309 6.428242294652899 a29.15451105775336,29.15451105775336 0 0,0 -0.3929507575421914,-0.31218384717386366 l 5.127253324325858 -6.340924533473905" fill="#ff6008" stroke="none" /><path d="M 86.51685102203217 116.09983520530335 l -7.419524970613828 8.859438512747161 a32.55590764720408,32.55590764720408 0 0,0 -0.4265359111959454,-0.36350315702016445 l 7.57092635838683 -8.730410965504046" fill="#ff8e0d" stroke="none" /><path d="M 86.24171649860922 115.8653595955263 l -13.094028935066367 15.099374684934661 a40.98611291943486,40.98611291943486 0 0,0 -0.5290285395927105,-0.4668061770969825 l 13.351999827565665 -14.87174536606539" fill="#fffb17" stroke="none" /><path d="M 85.70375840098266 115.38237550388516 l -7.316260805327636 7.872101923602255 a31.746983803242458,31.746983803242458 0 0,0 -0.39708547672794897,-0.375469103072065 l 7.450682116446402 -7.744998183784259" fill="#ff840c" stroke="none" /><path d="M 85.44109423537348 115.13401014063109 l -6.0259799022357345 6.264017531403689 a29.69197039893037,29.69197039893037 0 0,0 -0.36528199841048425,-0.3575053171140787 l 6.132911853022013 -6.159362111367041" fill="#ff6809" stroke="none" /><path d="M 85.18274418774928 114.88116024355367 l -4.961782717128031 4.983182084649555 a28.03216832995078,28.03216832995078 0 0,0 -0.3390015213053512,-0.3434067512959045 l 5.046824863488915 -4.897034839372986" fill="#ff5107" stroke="none" /><path d="M 84.67929136418377 114.36230785411682 l -8.619386985311987 8.080193438795423 a32.814540110005055,32.814540110005055 0 0,0 -0.3827637842816174,-0.41541449107218126 l 8.757197177589333 -7.930627692921896" fill="#ff920d" stroke="none" /><path d="M 84.43433777217949 114.09645910891817 l -10.939300801202204 9.906768126362868 a35.758467289278464,35.758467289278464 0 0,0 -0.409249103005593,-0.4597957056467413 l 11.108208753856134 -9.716998250975264" fill="#ffb911" stroke="none" /><path d="M 83.95833913139862 113.55231037782056 l -8.900375297071275 7.519211975182048 a32.651404600151764,32.651404600151764 0 0,0 -0.3590161872033157,-0.43245812518838894 l 9.028487484168126 -7.364892592879898" fill="#ff900d" stroke="none" /><path d="M 83.50135304334701 112.99209946851258 l -7.846163358161148 6.178575434897851 a30.98684503973471,30.98684503973471 0 0,0 -0.3263847085099728,-0.4218962328506074 l 7.951354883889189 -6.042601207933991" fill="#ff790b" stroke="none" /><path d="M 83.06392112726016 112.41649034213515 l -9.28454929224639 6.806859928115422 a32.51243665090655,32.51243665090655 0 0,0 -0.3270135057037805,-0.45419315801308224 l 9.40034259032578 -6.646033164651202" fill="#ff8e0d" stroke="none" /><path d="M 82.6465618267979 111.8261652097733 l -8.09060190102896 5.513650596100814 a30.790719177711935,30.790719177711935 0 0,0 -0.2947066160423985,-0.4405464046646351 l 8.184311622482088 -5.373567277230358" fill="#ff770a" stroke="none" /><path d="M 82.44556493220864 111.52570212397912 l -8.064795269433626 5.295096515917832 a30.64774428821391,30.64774428821391 0 0,0 -0.2857466323855339,-0.44348511906281024 l 8.154746765196204 -5.155489796933574" fill="#ff750a" stroke="none" /><path d="M 82.24976979558568 111.22182372390057 l -4.638158054247773 2.9322770177602617 a26.487327094776518,26.487327094776518 0 0,0 -0.24032249582075993,-0.38747638361159925 l 4.687945189736489 -2.852004302783398" fill="#ff3b05" stroke="none" /><path d="M 82.05923443525364 110.91462005526583 l -5.147186835835055 3.131393053649759 a27.024877988759577,27.024877988759577 0 0,0 -0.23835829692572275,-0.3995022159911356 l 5.20032600845901 -3.0423287437725124" fill="#ff4206" stroke="none" /><line stroke="#e1ed5e" stroke-width="0.3" x1="26.63291911575756" x2="22.317208475507996" y1="142.92168965132927" y2="145.44649492493687" /><path d="M 25.769776987707644 143.4266507060508 a86.0,86.0 0 0,1 -11.730757126820373,-40.83630448921669" fill="none" id="id57" stroke="none" /><text fill="#e1ed5e" style="font-size:6.75px; font-family:Arial;" text-anchor="middle"><textPath startOffset="21.46611528233685" xlink:href="#id57">September</textPath></text><path d="M 81.69416730710424 110.29060199501025 l -7.3538620242686825 4.13396475798329 a29.436169230890815,29.436169230890815 0 0,0 -0.24449344424975078,-0.443826619234806 l 7.42393187796995 -4.0067676203506615" fill="#ff6409" stroke="none" /><path d="M 81.51974371655577 109.97397251340807 l -10.554072733796783 5.696134822854298 a32.99309814811861,32.99309814811861 0 0,0 -0.26543338942927597,-0.5020999416156402 l 10.650558631450945 -5.513619866152532" fill="#ff940d" stroke="none" /><path d="M 81.18737489456691 109.33194174019688 l -6.6256553946023855 3.286634894733222 a28.39603125597112,28.39603125597112 0 0,0 -0.21343909803912825,-0.4397477605331797 l 6.681247749256233 -3.1720981782347577" fill="#ff5607" stroke="none" /><path d="M 81.02952815118164 109.00673069616217 l -4.622809643665107 2.194800522197156 a26.11737416394385,26.11737416394385 0 0,0 -0.1893203471068554,-0.40777918493940996 l 4.6599046076117885 -2.114901269978919" fill="#ff3605" stroke="none" /><path d="M 80.87730276802145 108.67885076344099 l -4.9947006528855935 2.26684871117265 a26.48503761986013,26.48503761986013 0 0,0 -0.18483897068656882,-0.4167630828350624 l 5.032980708303442 -2.180537291844892" fill="#ff3b05" stroke="none" /><path d="M 80.58989483394504 108.01547362559985 l -4.878957328883563 2.014783199551396 a26.27859602150621,26.27859602150621 0 0,0 -0.16905569635674758,-0.41958237420069394 l 4.912915639497698 -1.9305014575078967" fill="#ff3805" stroke="none" /><path d="M 80.45479744820244 107.68017299344265 l -7.858642003869777 3.088007398403953 a29.443580036784393,29.443580036784393 0 0,0 -0.18129634895250382,-0.4733075584990531 l 7.91063263241579 -2.9522762730717425" fill="#ff6409" stroke="none" /><path d="M 80.20201598880116 107.00284435728193 l -6.243414647313478 2.208389551601776 a27.62247769871008,27.62247769871008 0 0,0 -0.15469793568735696,-0.44962461360601175 l 6.280503413944063 -2.100592234906468" fill="#ff4b07" stroke="none" /><path d="M 80.0844068197444 106.66101706037122 l -4.472824858586987 1.4959917297687064 a25.716370794491255,25.716370794491255 0 0,0 -0.13679609016590888,-0.42101507465356114 l 4.497913199769146 -1.418777755137342" fill="#ff3004" stroke="none" /><path d="M 79.97269907076064 106.31721596034903 l -5.427655871498321 1.7120466916563963 a26.691269817344967,26.691269817344967 0 0,0 -0.13443913116620407,-0.43935485924722784 l 5.456321775170656 -1.6183648598571208" fill="#ff3e05" stroke="none" /><path d="M 79.76711848015287 105.62410040840567 l -3.0077456587384646 0.8360580558482508 a24.121782667068423,24.121782667068423 0 0,0 -0.10775765876492002,-0.40100633509727224 l 3.0216913938451597 -0.7841607875754396" fill="#ff1902" stroke="none" /><path d="M 79.67330655649465 105.27499134158121 l -29.55879986113885 7.670820331324408 a51.53791305551711,51.53791305551711 0 0,0 -0.2154497929104472,-0.8606148249584548 l 29.68646096834436 -7.160877666968561" fill="#89ff24" stroke="none" /><path d="M 79.50377843672027 104.57218783832718 l -2.737177943071952 0.610595063290699 a23.804455281040255,23.804455281040255 0 0,0 -0.08577080911814161,-0.40069266562731665 l 2.7472827909145345 -0.5633885782472186" fill="#ff1402" stroke="none" /><path d="M 79.4281124754447 104.21870165774334 l -4.1467508071478125 0.8503791634813143 a25.23304700874727,25.23304700874727 0 0,0 -0.0835935605536527,-0.4262417643143856 l 4.160774300677132 -0.7788736720989738" fill="#ff2904" stroke="none" /><path d="M 79.35854240842038 103.8639653848113 l -4.219491987755918 0.7898652946305709 a25.29278462287572,25.29278462287572 0 0,0 -0.07642462702238693,-0.4286298947154654 l 4.232463057117493 -0.7171166491818918" fill="#ff2a04" stroke="none" /><path d="M 79.29508885075956 103.50808413554451 l -4.172332018545897 0.7069284990881122 a25.231796589606624,25.231796589606624 0 0,0 -0.0688686816585247,-0.4288453464279305 l 4.183882454565713 -0.6350039229669681" fill="#ff2904" stroke="none" /><path d="M 79.23777060512086 103.15116336523772 l -8.672106947262492 1.3161990069514007 a29.771420565145547,29.771420565145547 0 0,0 -0.07253728503807677,-0.5073256026101503 l 8.693478283317168 -1.1667279323608497" fill="#ff6909" stroke="none" /><path d="M 79.18660465613746 102.79330883721812 l -5.480985416490278 0.7355880550772601 a26.5301257601027,26.5301257601027 0 0,0 -0.056848362795044655,-0.4531373850795765 l 5.492835288532171 -0.641132915710275" fill="#ff3b05" stroke="none" /><path d="M 79.10278846688536 102.07522291339032 l -4.865981095215721 0.4832221489893056 a25.889915711366672,25.889915711366672 0 0,0 -0.04022233106837276,-0.44385007166670903 l 4.873578022561169 -0.3993906887740304" fill="#ff3204" stroke="none" /><path d="M 79.04373962182676 101.35467743843564 l -35.812428334104766 2.315026049701814 a56.8871755477662,56.8871755477662 0 0,0 -0.0547570193105684,-0.977723363475234 l 35.84697170430287 -1.6982309698911422" fill="#51ff2b" stroke="none" /><line stroke="#e1ed5e" stroke-width="0.3" x1="15.007084014347285" x2="10.007500721073583" y1="101.09737516637583" y2="101.16192664675087" /><path d="M 14.007167355692545 101.11028546245083 a86.0,86.0 0 0,1 10.666146001902534,-42.60595125391555" fill="none" id="id58" stroke="none" /><text fill="#e1ed5e" style="font-size:6.75px; font-family:Arial;" text-anchor="middle"><textPath startOffset="22.20632615414155" xlink:href="#id58">October</textPath></text><path d="M 79.00175016825051 100.2711162175752 l -37.77355376554059 0.48770840919334557 a58.7767021267154,58.7767021267154 0 0,0 -0.004354241657743102,-1.0117724152977854 l 37.77635230448784 0.16257348430811513" fill="#3eff2d" stroke="none" /><path d="M 79.32604984820605 96.31383870115002 l -7.476311669967506 -1.3330249194580428 a28.594220935842493,28.594220935842493 0 0,0 0.09056780504328775,-0.4838168360182623 l 7.452258141014356 1.4615198329388779" fill="#ff5808" stroke="none" /><path d="M 79.3925641242962 95.95851677861259 l -7.898914494025211 -1.5491170559659184 a29.04938592918777,29.04938592918777 0 0,0 0.10045651711498407,-0.4898616538585575 l 7.871078680995233 1.6848543659878785" fill="#ff5f08" stroke="none" /><path d="M 79.46518482838121 95.60439243477599 l -5.451749228424211 -1.1669815360834583 a26.575250268390082,26.575250268390082 0 0,0 0.09960101728323364,-0.4464918306838727 l 5.430853824138939 1.2606515363172903" fill="#ff3c05" stroke="none" /><path d="M 79.62865764111835 94.90015583598534 l -10.178890724607452 -2.5482246355454214 a31.493010300990857,31.493010300990857 0 0,0 0.1361752788464841,-0.5247388987877691 l 10.133519113890662 2.7230599598820544" fill="#ff800b" stroke="none" /><path d="M 79.91906864156998 93.8553929516997 l -6.578528085670525 -2.0129778505359606 a27.879615657920453,27.879615657920453 0 0,0 0.14436930083090327,-0.45769013610302883 l 6.5429033010714175 2.1259181530654034" fill="#ff4e07" stroke="none" /><path d="M 80.02781315780177 93.51064311812611 l -5.528308787558744 -1.7962564119352926 a26.812807854042475,26.812807854042475 0 0,0 0.14640138619628507,-0.43772151040673196 l 5.496570107590687 1.8911510252643469" fill="#ff3f06" stroke="none" /><path d="M 80.2630227832202 92.82701384747504 l -15.756818455101655 -5.72648178821449 a37.76514006794409,37.76514006794409 0 0,0 0.2273019247229269,-0.6090561508504204 l 15.6559119418771 5.996861076094252" fill="#ffd213" stroke="none" /><path d="M 80.52162464483688 92.15188598940014 l -7.579501632642788 -3.0538888316853754 a29.17160216821202,29.17160216821202 0 0,0 0.1916689741903225,-0.4641416240485218 l 7.525810971566266 3.1839050261872086" fill="#ff6008" stroke="none" /><path d="M 81.6062741919709 89.86733742301443 l -4.676832936118359 -2.5763551422482447 a26.33951047675257,26.33951047675257 0 0,0 0.22218300062165164,-0.39523876626048754 l 4.631792294204277 2.6564774184435165" fill="#ff3905" stroke="none" /><line stroke="#e1ed5e" stroke-width="0.3" x1="26.266209847984243" x2="21.928928074336255" y1="57.711370442889674" y2="55.22380399835377" /><path d="M 25.398753493254645 57.213857153982495 a86.0,86.0 0 0,1 29.58750427330803,-30.492523968695096" fill="none" id="id59" stroke="none" /><text fill="#e1ed5e" style="font-size:6.75px; font-family:Arial;" text-anchor="middle"><textPath startOffset="21.46611528233685" xlink:href="#id59">November</textPath></text><path d="M 81.96595687620814 89.24020034530311 l -3.2102980462746076 -1.915386559335051 a24.73827757364216,24.73827757364216 0 0,0 0.2213300730332257,-0.3638084452423524 l 3.176852174955165 1.9703627777844779" fill="#ff2203" stroke="none" /><path d="M 82.54541684631803 88.32363383020206 l -25.310580691237178 -16.931690978753668 a51.45172662309375,51.45172662309375 0 0,0 0.49877679712200984,-0.7318934039524162 l 25.015379428446426 17.3648624059765" fill="#8aff24" stroke="none" /><path d="M 83.17141714833178 87.43820079747576 l -3.429839989355435 -2.560225161134101 a25.280018134107124,25.280018134107124 0 0,0 0.2633022951190504,-0.34647495642855974 l 3.385261754012276 2.6188848934436875" fill="#ff2a04" stroke="none" /><path d="M 83.39014120810768 87.1503855733568 l -3.0464329184033625 -2.3567622620142004 a24.85163366456182,24.85163366456182 0 0,0 0.26466506950727375,-0.33609776111562145 l 3.0054137683021174 2.4088524170828696" fill="#ff2403" stroke="none" /><path d="M 83.84228863543731 86.58626213691792 l -3.7502448559080905 -3.1133618050544163 a25.87415205019671,25.87415205019671 0 0,0 0.2874364313491075,-0.34023407259987065 l 3.696097811071859 3.1774548272834027" fill="#ff3204" stroke="none" /><path d="M 84.07557802195018 86.31012108654704 l -4.555375348675235 -3.916157020622344 a27.007306416147564,27.007306416147564 0 0,0 0.3060932699947348,-0.34991752117591407 l 4.487290215102656 3.993990098001201" fill="#ff4206" stroke="none" /><path d="M 85.57189188830299 84.74124197986013 l -5.829739062184374 -6.165366725961256 a29.485140210906863,29.485140210906863 0 0,0 0.3717825082405433,-0.3455313230881038 l 5.722748670148975 6.264802635124007" fill="#ff6509" stroke="none" /><path d="M 86.10567301691215 84.25364557470407 l -2.701118911479484 -3.0611612765984537 a25.08249332336233,25.08249332336233 0 0,0 0.3261992605719596,-0.28287678434711117 l 2.648025852260751 3.1072030543652454" fill="#ff2703" stroke="none" /><path d="M 86.37877921826538 84.01681056812374 l -3.9838711279863848 -4.674688703098764 a27.141982060807628,27.141982060807628 0 0,0 0.3581997981020889,-0.2999820296357789 l 3.902813792925185 4.742571890128356" fill="#ff4406" stroke="none" /><path d="M 86.93701828274178 83.55741782278169 l -6.292868221969637 -7.920932992919998 a31.116391151858643,31.116391151858643 0 0,0 0.4222456418669054,-0.32956942102650905 l 6.155590024943305 8.028080803169729" fill="#ff7b0b" stroke="none" /><path d="M 87.22198572758235 83.33499621200491 l -3.7930713903579028 -4.946899239649258 a27.233714996660822,27.233714996660822 0 0,0 0.37446856917779187,-0.2820419627571122 l 3.707356667421721 5.011457791912224" fill="#ff4506" stroke="none" /><path d="M 87.51073957382395 83.11751280151077 l -5.656740708849355 -7.6465578700052985 a30.511496344240136,30.511496344240136 0 0,0 0.4249157148060712,-0.30871933762440884 l 5.524279677689502 7.742796442446375" fill="#ff730a" stroke="none" /><path d="M 87.80319425747018 82.90503203632743 l -5.493194507363275 -7.699227658775484 a30.457975070668112,30.457975070668112 0 0,0 0.4294122842743806,-0.30083074706545443 l 5.359851083505234 7.792643248604882" fill="#ff720a" stroke="none" /><path d="M 88.39885842347998 82.49532879139004 l -3.7118985262387643 -5.600790476778584 a27.71915505356642,27.71915505356642 0 0,0 0.3999913332680352,-0.26016548964031444 l 3.614940167186442 5.663854890578433" fill="#ff4c07" stroke="none" /><path d="M 89.00827224532344 82.1063720568725 l -5.733030518982267 -9.332901740549204 a31.9531134309076,31.9531134309076 0 0,0 0.47113790574568154,-0.2838553166137688 l 5.571530547018937 9.430203666621592" fill="#ff860c" stroke="none" /><line stroke="#e1ed5e" stroke-width="0.3" x1="56.762969772571076" x2="54.21961505331055" y1="26.818313649435495" y2="22.513508569990535" /><path d="M 56.25429882871897 25.957352633546506 a86.0,86.0 0 0,1 42.265352541879196,-11.944610805530505" fill="none" id="id60" stroke="none" /><text fill="#e1ed5e" style="font-size:6.75px; font-family:Arial;" text-anchor="middle"><textPath startOffset="22.20632615414155" xlink:href="#id60">December</textPath></text><path d="M 89.63071344664047 81.73862282372117 l -4.022451389703157 -7.083949471607339 a29.146315443119715,29.146315443119715 0 0,0 0.4384104257518545,-0.243974927274012 l 3.8999168748792568 7.152139796441535" fill="#ff6008" stroke="none" /><path d="M 89.94658935756843 81.56283822128135 l -6.824166865842654 -12.514983520068501 a35.25461560058534,35.25461560058534 0 0,0 0.5352908960470057,-0.28593385837061835 l 6.607730923267344 12.630596104940869" fill="#ffb210" stroke="none" /><path d="M 90.58718382345135 81.22770947309562 l -1.8185109382754812 -3.626716491575843 a25.057099276933677,25.057099276933677 0 0,0 0.3872261276541551,-0.19001017913528473 l 1.7558135436109 3.6574818308459576" fill="#ff2603" stroke="none" /><path d="M 91.23893434514133 80.91482961587045 l -2.843061709848039 -6.1933467094785515 a27.81472988091332,27.81472988091332 0 0,0 0.4368473945115114,-0.19600069212140855 l 2.736032196869753 6.2413677321164895" fill="#ff4e07" stroke="none" /><path d="M 91.90106846888425 80.62456947434976 l -2.1621213220660773 -5.1725380444038676 a26.606239241428977,26.606239241428977 0 0,0 0.4240732116046138,-0.1729901108577358 l 2.0727642408730826 5.2089890414451805" fill="#ff3d05" stroke="none" /><path d="M 92.23578459929587 80.48803036053334 l -3.401913915521987 -8.549227141447458 a30.201212039980604,30.201212039980604 0 0,0 0.4846817568994253,-0.18804899169409456 l 3.2542489936228858 8.606518837032105" fill="#ff6f0a" stroke="none" /><path d="M 92.91201910852362 80.23233633223022 l -3.013506032198663 -8.40436432001872 a29.92830097105275,29.92830097105275 0 0,0 0.48643179567764555,-0.16970650217325173 l 2.8683922324577322 8.454991675364182" fill="#ff6b09" stroke="none" /><path d="M 93.59665428221793 80.00007090966166 l -1.8262998571490145 -5.704184851247853 a26.98941532918097,26.98941532918097 0 0,0 0.44367337874374063,-0.13785147846702175 l 1.727841105694545 5.7347764645974" fill="#ff4206" stroke="none" /><path d="M 93.94186890950719 79.89281104454417 l -2.6366653678700644 -8.751201975023152 a30.139777911403236,30.139777911403236 0 0,0 0.4980379890904987,-0.14539094611640177 l 2.485637161056144 8.795291250058252" fill="#ff6e0a" stroke="none" /><path d="M 94.28887869178378 79.79150937346287 l -1.1417251127227894 -4.039931914131736 a25.198164611332192,25.198164611332192 0 0,0 0.4184120565552206,-0.11436782066354689 l 1.0720151669438465 4.058986275621579" fill="#ff2803" stroke="none" /><path d="M 94.63758080256005 79.69619591428918 l -4.330736217588277 -16.39752814378689 a37.95978199779154,37.95978199779154 0 0,0 0.6331892486324548,-0.16141403802313853 l 4.0478380802708225 16.46964517797889" fill="#ffd513" stroke="none" /><path d="M 95.33964822691252 79.52364482259891 l -2.8929612955960238 -12.71090807890965 a34.035965988307396,34.035965988307396 0 0,0 0.5723832871063835,-0.12510081683645016 l 2.6737352843361193 12.758822393841967" fill="#ffa20f" stroke="none" /><path d="M 96.04723909329186 79.375362276772 l -1.1639817308755787 -6.073400866473725 a27.1839349571851,27.1839349571851 0 0,0 0.46032094754269687,-0.0841207108659795 l 1.0592656622299885 6.092537058690441" fill="#ff4506" stroke="none" /><path d="M 96.40284397218896 79.31037775812273 l -0.6391874565572374 -3.676389602138853 a24.731541385451163,24.731541385451163 0 0,0 0.42004849996942234,-0.06931160160938456 l 0.5758097504489295 3.6868474666878646" fill="#ff2203" stroke="none" /><path d="M 96.75951476605007 79.25152402106235 l -1.0798396095297669 -6.914096063361367 a27.99791239983029,27.99791239983029 0 0,0 0.47680580749622303,-0.07026878168805044 l 0.9606648216048951 6.931659329210386" fill="#ff5007" stroke="none" /><path d="M 97.11714578562143 79.19881850522333 l -1.2089566159067278 -8.72320419858891 a29.80658092504826,29.80658092504826 0 0,0 0.5088200121508778,-0.06605944080931445 l 1.0586218752479923 8.742721962562362" fill="#ff6909" stroke="none" /><path d="M 97.83486435360386 79.11191278185805 l -0.3780642684488228 -3.647364739741187 a24.666906344016034,24.666906344016034 0 0,0 0.42271427550618157,-0.040141813942942216 l 0.3152248658524049 3.65333209819931" fill="#ff2103" stroke="none" /><path d="M 98.55514903715128 79.0497635885617 l -0.33926104449448097 -4.919261065748464 a25.93094590208615,25.93094590208615 0 0,0 0.44556520909330194,-0.026877710198312216 l 0.254533786561556 4.924372045327083" fill="#ff3304" stroke="none" /><path d="M 99.63851952072746 79.00311137660856 l -0.0735216397024202 -4.27056443918491 a25.27119726314944,25.27119726314944 0 0,0 0.4350021189749549,-0.0037442005730876225 l 1.0461416113685792e-15 4.271197263149439" fill="#ff2a04" stroke="none" /></svg>