<?xml version="1.0" encoding="utf-8" ?>
<svg baseProfile="full" height="200mm" version="1.1" viewBox="0,0,200,200" width="200mm" xmlns="http://www.w3.org/2000/svg" xmlns:ev="http://www.w3.org/2001/xml-events" xmlns:xlink="http://www.w3.org/1999/xlink"><defs /><rect fill="#1a1a1a" height="200" width="200" x="0" y="0" /><text alignment-baseline="middle" fill="#e1ed5e" style="dominant-baseline: central; font-size:9.0px; font-family:Arial;" text-anchor="middle" x="100.0" y="100.0">2024</text><line stroke="#e1ed5e" stroke-width="0.3" x1="100.0" x2="100.0" y1="15.0" y2="10.0" /><path d="M 100.0 14.0 a86.0,86.0 0 0,1 42.35913384403234,11.155469271406648" fill="none" id="id133" stroke="none" /><text fill="#e1ed5e" style="font-size:6.75px; font-family:Arial;" text-anchor="middle"><textPath startOffset="22.145653131862478" xlink:href="#id133">January</textPath></text><path d="M 100.0 79.0 l 0.0 -13.12696886206109 a34.12696886206109,34.12696886206109 0 0,0 0.5858348010147713,0.005028687182299917 l -0.22534187616591644 13.125034573073226" fill="#ff800b" stroke="none" /><path d="M 100.36049292484886 79.00309439819443 l 0.30230706382883116 -17.60787090241597 a38.610465844973774,38.610465844973774 0 0,0 0.6626046584788062,0.017066345581879822 l -0.6045250363783787 17.600086839484046" fill="#ffbf11" stroke="none" /><path d="M 100.72087961077811 79.0123766808444 l 0.6077410282981551 -17.693716935273358 a38.70415115567691,38.70415115567691 0 0,0 0.6638208668612474,0.028507324268415696 l -0.9113876557602388 17.68067704257911" fill="#ffc011" stroke="none" /><path d="M 101.08105385017728 79.02784411241856 l 0.9096479799039017 -17.64692779572431 a38.67035710094311,38.67035710094311 0 0,0 0.662654590848996,0.03986365466896693 l -1.21244692288536 17.628712163230652" fill="#ffc011" stroke="none" /><path d="M 101.44090949804482 79.04949213459386 l 0.7076294299778668 -10.288776608566064 a31.313082153805766,31.313082153805766 0 0,0 0.5359472664394335,0.04148570798981959 l -0.8841456911925338 10.27511313358119" fill="#ff5808" stroke="none" /><path d="M 101.80034050326958 79.07731436759882 l 3.00452738922098 -34.91716257254955 a56.046189906328394,56.046189906328394 0 0,0 0.9578572394279877,0.09071007645424738 l -3.6034841920339806 34.86044074059012" fill="#69ff28" stroke="none" /><path d="M 102.15924093988457 79.11130261209362 l 0.8397919130086279 -8.12422496054841 a29.16751379960588,29.16751379960588 0 0,0 0.49760347780772013,0.055757507589886235 l -0.9791312924171447 8.108611692451554" fill="#ff3805" stroke="none" /><path d="M 102.51750503828377 79.15144685158666 l 1.5626016158201954 -12.940582974734742 a34.03458520766037,34.03458520766037 0 0,0 0.579434239737437,0.0750193630116275 l -1.7845136774484243 12.911852015522717" fill="#ff7f0b" stroke="none" /><path d="M 102.87502721639298 79.19773525538626 l 2.720101563554651 -19.681299896803225 a40.86837985704821,40.86837985704821 0 0,0 0.6941297652141812,0.10201317181524003 l -3.0575564343765143 19.631705651689103" fill="#ffdd14" stroke="none" /><path d="M 103.23170211078529 79.25015418208739 l 2.2622262686107 -14.525115456107821 a35.70022607661714,35.70022607661714 0 0,0 0.6047320743592445,0.09950843270827082 l -2.511235846023015 14.484141024903883" fill="#ff970d" stroke="none" /><path d="M 103.58742460773223 79.30868818359171 l 3.3019985230764846 -19.04505000914431 a40.329178050222595,40.329178050222595 0 0,0 0.6811123180404378,0.12412135339204575 l -3.628445574667976 18.985560481820897" fill="#ffd614" stroke="none" /><path d="M 103.94208987418118 79.37332000966035 l 1.7407182922958635 -9.108173662827845 a30.273021494926247,30.273021494926247 0 0,0 0.5096009281930148,0.10193445784497471 l -1.8968157060198352 9.07694980832001" fill="#ff4906" stroke="none" /><path d="M 104.29559338865022 79.4440306129975 l 7.3865943836280055 -35.347528102927235 a57.11107198042556,57.11107198042556 0 0,0 0.9579364751750372,0.20877779620750003 l -7.992293275422177 35.21551884858602" fill="#5dff2a" stroke="none" /><path d="M 104.9986988182912 79.60360301121754 l 3.516514449228762 -14.348578966351571 a35.773205211641155,35.773205211641155 0 0,0 0.595188978348055,0.15129471082768112 l -3.7623087208022117 14.286099023688623" fill="#ff980e" stroke="none" /><path d="M 105.3480935250658 79.69241777938227 l 5.9743099886361986 -22.68542813192381 a44.45892216980564,44.45892216980564 0 0,0 0.7363638107169203,0.20069923107531534 l -6.362855200287812 22.579528406704355" fill="#f2ff19" stroke="none" /><path d="M 105.69591212413111 79.78721728523813 l 6.086281259373982 -21.598065060636777 a43.43923425457531,43.43923425457531 0 0,0 0.7160026670014896,0.20841794122945767 l -6.4561439387570765 21.4904034251048" fill="#ffff18" stroke="none" /><path d="M 106.04205211174951 79.88797359093562 l 4.320213279885118 -14.38058493551808 a36.01550751294625,36.01550751294625 0 0,0 0.5905846368554867,0.18296463015983133 l -4.566438549612235 14.304303717551601" fill="#ff9b0e" stroke="none" /><path d="M 106.38641147887787 79.99465700312896 l 5.852207885353939 -18.331957848740053 a40.24341486590623,40.24341486590623 0 0,0 0.6563073595705577,0.21574126501142438 l -6.166037982572239 18.228795662326608" fill="#ffd513" stroke="none" /><path d="M 107.06938296918511 80.22567764915836 l 2.671266200855511 -7.472006987154892 a28.935146598010938,28.935146598010938 0 0,0 0.4662841670116738,0.1712260048353804 l -2.7991395195213093 7.42505013331079" fill="#ff3505" stroke="none" /><path d="M 107.40779381753099 80.34994680014964 l 5.2734314597711425 -13.988403468389867 a35.949398347604685,35.949398347604685 0 0,0 0.5755802319587667,0.2226467985933185 l -5.512783954223435 13.89581678165851" fill="#ff9a0e" stroke="none" /><path d="M 107.74402155503746 80.48000691201159 l 5.949995921700822 -14.997876547697361 a37.135016343599624,37.135016343599624 0 0,0 0.5905272876935811,0.24016230698081112 l -6.206577670584843 14.893526984137257" fill="#ffab0f" stroke="none" /><path d="M 108.07796709384702 80.6158196554323 l 8.681066128958856 -20.83139847834138 a43.56785483156962,43.56785483156962 0 0,0 0.6878844053435714,0.29361694850601067 l -9.037385609472857 20.679306880175968" fill="#feff18" stroke="none" /><path d="M 108.4095320186766 80.7573450057729 l 5.939427507900713 -13.590572477033186 a35.83173824523274,35.83173824523274 0 0,0 0.5615116575662554,0.25115702228944 l -6.171852568322599 13.486611703833894" fill="#ff990e" stroke="none" /><path d="M 108.73861861582097 80.90454125486305 l 9.09850449242114 -19.88187433456825 a42.86485104120701,42.86485104120701 0 0,0 0.6664694115795646,0.31194133663261875 l -9.43846261787221 19.722756766365094" fill="#fff717" stroke="none" /><path d="M 109.06512990194946 81.05736502329252 l 15.89100569378942 -33.20609009756158 a57.812613076599504,57.812613076599504 0 0,0 0.8915248670587879,0.436089487359261 l -16.458690810110273 32.9284068601051" fill="#56ff2b" stroke="none" /><path d="M 109.3889696526874 81.21577127319529 l 3.5103446526812068 -7.02304079202194 a28.851472571881768,28.851472571881768 0 0,0 0.4411153550623122,0.2252366433661594 l -3.6303872294570976 6.961746196982947" fill="#ff3304" stroke="none" /><path d="M 110.02825361518725 81.54914285379988 l 10.714767847013002 -19.71396600905008 a43.43761809598705,43.43761809598705 0 0,0 0.6520934074959841,0.36170522080827017 l -11.051605442665087 19.527127872808663" fill="#ffff18" stroke="none" /><path d="M 110.34350942703115 81.72400993836675 l 7.947091643947302 -14.041749459241073 a37.13465194769921,37.13465194769921 0 0,0 0.5520818114978219,0.3187445824829637 l -8.186965923305522 13.903257979481937" fill="#ffab0f" stroke="none" /><line stroke="#e1ed5e" stroke-width="0.3" x1="143.13028292997686" x2="145.6673583964461" y1="26.7553504044142" y2="22.446841604673864" /><path d="M 143.63769802327073 25.89364864446614 a86.0,86.0 0 0,1 29.32050498858742,28.57503671076993" fill="none" id="id134" stroke="none" /><text fill="#e1ed5e" style="font-size:6.75px; font-family:Arial;" text-anchor="middle"><textPath startOffset="20.669276256404974" xlink:href="#id134">February</textPath></text><path d="M 112.16784306229584 82.88440491214696 l 9.586176463410546 -13.484157705555129 a37.544403531585175,37.544403531585175 0 0,0 0.5220799421621684,0.37794561646833885 l -9.816237415946683 13.317611317713714" fill="#ffb010" stroke="none" /><path d="M 112.45986205192187 83.09580414077388 l 13.170683394159083 -17.868561527162417 a43.198026761835536,43.198026761835536 0 0,0 0.5931439000822859,0.44510624052386144 l -13.475480283152134 17.639836259374537" fill="#fffb17" stroke="none" /><path d="M 112.7482090630111 83.31218511350987 l 10.254795486608076 -13.423856475327476 a37.892624223084724,37.892624223084724 0 0,0 0.5135173345506789,0.39931418532843793 l -10.483722765793981 13.245841238378247" fill="#ffb510" stroke="none" /><path d="M 113.03279911837588 83.53348406188908 l 18.43427331364363 -23.2911021315913 a50.703499307427236,50.703499307427236 0 0,0 0.6778556367072776,0.5460325180485435 l -18.831379720706167 22.971221319749347" fill="#a6ff21" stroke="none" /><path d="M 113.59037401385872 83.9905735841838 l 12.528099382767426 -14.75806957144221 a40.35856119705248,40.35856119705248 0 0,0 0.5243163648477286,0.45289198816033766 l -12.779595227378014 14.540833450817154" fill="#ffd614" stroke="none" /><path d="M 113.86319453409587 84.22622945171908 l 12.826076792095394 -14.593720938962385 a40.428971581662196,40.428971581662196 0 0,0 0.5173656473122143,0.4626315520614734 l -13.074707466230985 14.371393857017523" fill="#ffd714" stroke="none" /><path d="M 114.13192950727249 84.46653392183569 l 11.453250972183723 -12.589129132689479 a38.01949265258393,38.01949265258393 0 0,0 0.4789917078867219,0.4433475738889697 l -11.667672451384409 12.390663812668134" fill="#ffb710" stroke="none" /><path d="M 114.65682725009322 84.96080404539774 l 13.4793321552099 -13.830982255595844 a40.31290929676528,40.31290929676528 0 0,0 0.49144907157332673,0.48724867739799727 l -13.714773146913188 13.597553567969188" fill="#ffd614" stroke="none" /><path d="M 114.91283532996326 85.21462403516908 l 10.514565767266157 -10.424698223792035 a35.806431924379964,35.806431924379964 0 0,0 0.42901766075566367,0.44020991432838474 l -10.691970229172632 10.24266561739591" fill="#ff980e" stroke="none" /><path d="M 115.16444852881244 85.47280134310134 l 26.53765934129409 -25.422477342819167 a57.7498260888501,57.7498260888501 0 0,0 0.6796444105049924,0.7217588116066153 l -26.97015958553534 24.96317707126806" fill="#56ff2a" stroke="none" /><path d="M 115.41159269507618 85.73525988315684 l 7.508361959815665 -6.949627736669964 a31.23097380496595,31.23097380496595 0 0,0 0.3607955261919922,0.3965774853584317 l -7.626555186849535 6.81971267575386" fill="#ff5708" stroke="none" /><path d="M 115.6541949942343 86.00192230759917 l 13.187947383700402 -11.792743871423976 a38.69154499223451,38.69154499223451 0 0,0 0.43848379173810614,0.4989140636385176 l -13.388442239397097 11.56461752997416" fill="#ffc011" stroke="none" /><path d="M 115.8921839302757 86.27271002978787 l 16.885630836204417 -14.58540574633987 a43.31274500194769,43.31274500194769 0 0,0 0.4811951846849786,0.5668467176108271 l -17.13352058439651 14.29339224627949" fill="#fffd17" stroke="none" /><path d="M 116.1254893667686 86.54754324733833 l 7.301552550775632 -6.0912148265723545 a30.508710097336706,30.508710097336706 0 0,0 0.3320410825558526,0.4050361315933121 l -7.405040452570113 5.964976413280548" fill="#ff4c07" stroke="none" /><path d="M 116.35404254752997 86.82634096563983 l 15.943382488947817 -12.842860360266666 a41.472677094659524,41.472677094659524 0 0,0 0.44184905129705815,0.558261842244133 l -16.161497970886433 12.567278574107856" fill="#ffe515" stroke="none" /><path d="M 116.7966241395341 87.39550010848427 l 38.629598630585555 -28.988370978813688 a69.2967032246039,69.2967032246039 0 0,0 0.7058297556781793,0.9575936221070123 l -39.12153040584756 28.3209710474378" fill="#3aff90" stroke="none" /><path d="M 117.01052211995028 87.68569379921539 l 7.094258584442334 -5.135696121514641 a29.758075103324604,29.758075103324604 0 0,0 0.2960005993283805,0.4163619121259856 l -7.181374282300675 5.013156982679152" fill="#ff4106" stroke="none" /><path d="M 117.21940702142032 87.97951657250589 l 14.468861905582196 -10.100389318540302 a38.64556117636644,38.64556117636644 0 0,0 0.37506485687022395,0.547230835122707 l -14.640116499267744 9.850523748347545" fill="#ffbf11" stroke="none" /><path d="M 117.42321728460499 88.27688183743584 l 21.143372446902646 -14.226204581007869 a46.483859503794385,46.483859503794385 0 0,0 0.4397717556212652,0.6658704891048347 l -21.384468641444638 13.861154213563976" fill="#d9ff1c" stroke="none" /><path d="M 117.62189284568427 88.57770195909679 l 10.810155475991838 -7.007012174944711 a33.882456327693866,33.882456327693866 0 0,0 0.3121740887460563,0.4907895182467417 l -10.928847256363785 6.8204089820192975" fill="#ff7d0b" stroke="none" /><path d="M 117.81537515405839 88.88188828441811 l 19.054682968273553 -11.891531450461796 a43.460842888429994,43.460842888429994 0 0,0 0.38955823444633947,0.6363140995302059 l -19.256009167175293 11.562680234807036" fill="#ffff18" stroke="none" /><line stroke="#e1ed5e" stroke-width="0.3" x1="172.87174338648825" x2="177.1583165268699" y1="56.24261187166439" y2="53.66864786411523" /><path d="M 173.72905801456457 55.72781907015455 a86.0,86.0 0 0,1 12.242430191666344,42.057860355516425" fill="none" id="id135" stroke="none" /><text fill="#e1ed5e" style="font-size:6.75px; font-family:Arial;" text-anchor="middle"><textPath startOffset="22.145653131862474" xlink:href="#id135">March</textPath></text><path d="M 118.18653347947321 89.5 l 35.93833439332548 -20.74900703621326 a62.498014072426514,62.498014072426514 0 0,0 0.5284553357946412,0.9337299427368507 l -36.289223094141505 20.129020323377294" fill="#31ff3d" stroke="none" /><path d="M 118.36410011445183 89.81374322990088 l 8.12967740306351 -4.509395013617274 a30.296574534026917,30.296574534026917 0 0,0 0.2483664855599123,0.45696635932997376 l -8.205889238238763 4.369173820812697" fill="#ff4906" stroke="none" /><path d="M 118.53625476483649 90.13048839642627 l 12.976995717302085 -6.909519287272765 a35.70183235614088,35.70183235614088 0 0,0 0.2833908274560918,0.5434392781282771 l -13.09369461373312 6.68573376603999" fill="#ff970d" stroke="none" /><path d="M 118.70294669586156 90.45014215332178 l 20.776705989183437 -10.608734117968352 a44.328453685289915,44.328453685289915 0 0,0 0.34023161962783455,0.6806911513822188 l -20.95575752202301 10.250511110422382" fill="#f4ff19" stroke="none" /><path d="M 118.8641267826498 90.77261029715802 l 6.821522570173432 -3.336748519927021 a28.593883121343172,28.593883121343172 0 0,0 0.2118953004357606,0.4427796813558312 l -6.877797128569105 3.2191563365060865" fill="#ff3004" stroke="none" /><path d="M 119.0197475246899 91.09779779509293 l 17.05755401465734 -7.983796565253297 a39.83351153020337,39.83351153020337 0 0,0 0.2845545499479018,0.6218030455561465 l -17.192093029460295 7.689804537482467" fill="#ffcf13" stroke="none" /><path d="M 119.31412917781788 91.75594674310238 l 31.299054959555615 -13.359705405382105 a55.031053023376735,55.031053023376735 0 0,0 0.3633992762992753,0.8720259722568122 l -31.523780080391372 12.820446923684015" fill="#74ff27" stroke="none" /><path d="M 119.4528033332814 92.08871423366111 l 6.781431732083012 -2.7579492486637545 a28.320799163691582,28.320799163691582 0 0,0 0.17928593175425875,0.4519176662596171 l -6.827776338803395 2.641130565190572" fill="#ff2b04" stroke="none" /><path d="M 119.58574465831526 92.42381321644754 l 10.910836904340563 -4.220546106071405 a32.69869101167282,32.69869101167282 0 0,0 0.19801286552939665,0.5252526511603538 l -10.981680453684401 4.032625174716893" fill="#ff6c09" stroke="none" /><path d="M 119.71291397450082 92.76114493625339 l 20.424321901684195 -7.5000939086348986 a42.75785682878622,42.75785682878622 0 0,0 0.24709934447747217,0.6911808444496395 l -20.55006141620561 7.1483781078043425" fill="#fff617" stroke="none" /><path d="M 119.83427380445688 93.10060997987247 l 6.882539657736986 -2.394104563437671 a28.287049389224382,28.287049389224382 0 0,0 0.155598408817045,0.4599990476422293 l -6.922623488126397 2.27560384132128" fill="#ff2b04" stroke="none" /><path d="M 119.94978838288452 93.4421083053983 l 18.17986019685288 -5.976081144612281 a40.13689793629328,40.13689793629328 0 0,0 0.20954381966974922,0.656393030613875 l -18.279768732299885 5.663119080307019" fill="#ffd313" stroke="none" /><path d="M 120.16314734710363 94.1308016681162 l 25.489292485957687 -7.41956155773324 a47.54720183265445,47.54720183265445 0 0,0 0.22139224251576897,0.7856429655483441 l -25.612903220548038 6.980910668281883" fill="#ccff1d" stroke="none" /><path d="M 120.35273937422433 94.82641323984039 l 9.909239283416246 -2.518889876065621 a31.22437427834807,31.22437427834807 0 0,0 0.12759241856219727,0.5206206087533521 l -9.951019228494735 2.348413442704174" fill="#ff5708" stroke="none" /><path d="M 120.43855184770803 95.1765574152323 l 14.181650846204533 -3.3468309850710263 a35.57122158112645,35.57122158112645 0 0,0 0.1351522439666392,0.5955057241795811 l -14.237013951728839 3.1028909269524187" fill="#ff950d" stroke="none" /><path d="M 120.51834098615036 95.52812308129327 l 10.138397746502333 -2.2096166013545884 a31.37639216641629,31.37639216641629 0 0,0 0.11017938021066391,0.527248219692658 l -10.174834837537365 2.035251930376526" fill="#ff5908" stroke="none" /><path d="M 120.592083275326 95.88100663000786 l 14.31341228011258 -2.8630833265127413 a35.59695232694253,35.59695232694253 0 0,0 0.11471322606759539,0.600228071981035 l -14.360451798462332 2.6169526894983917" fill="#ff950d" stroke="none" /><path d="M 120.65975698304385 96.23510406497455 l 8.627536914522533 -1.5722246242018625 a29.769622767279998,29.769622767279998 0 0,0 0.08730322149096548,0.5035417816316 l -8.653254953505733 1.4238898096496697" fill="#ff4106" stroke="none" /><path d="M 120.77682067341334 96.94652285012252 l 61.87938338838548 -9.09413842449563 a83.54407599613799,83.54407599613799 0 0,0 0.19635039332083115,1.4206936342305454 l -62.02637829826153 8.030556482065" fill="#4cd6ff" stroke="none" /><path d="M 120.86939407059847 97.66154086499901 l 7.661261243002061 -0.8584603021401186 a28.70920734731373,28.70920734731373 0 0,0 0.05067531571965211,0.4902377106470639 l -7.674868951203379 0.7268180692101233" fill="#ff3104" stroke="none" /><path d="M 120.9064616781168 98.02013634271609 l 7.81708776821344 -0.7402863390453226 a28.852062470442355,28.852062470442355 0 0,0 0.04246251088856401,0.49347874186597407 l -7.828643901799745 0.6059865498036866" fill="#ff3304" stroke="none" /><path d="M 120.96210409425399 98.7389718711861 l 7.793093443863883 -0.46881314962468085 a28.807182026445602,28.807182026445602 0 0,0 0.025457881459334204,0.4938760991833947 l -7.79999291477979 0.3349652570645555" fill="#ff3304" stroke="none" /><path d="M 120.98066250479742 99.09900007780936 l 11.660905121031345 -0.5007694396837705 a32.67165276528634,32.67165276528634 0 0,0 0.019253425204795747,0.5605424675080484 l -11.667783233232988 0.30052070761160227" fill="#ff6c09" stroke="none" /><path d="M 120.99303781780057 99.45929381324524 l 9.709485412143138 -0.25008190230092864 a30.71270548953683,30.71270548953683 0 0,0 0.009050841843429715,0.5271661625065398 l -9.712347685585234 0.08336882382532247" fill="#ff4f07" stroke="none" /><line stroke="#e1ed5e" stroke-width="0.3" x1="184.99686870605535" x2="189.99668451229388" y1="99.2704041080226" y2="99.22748670261217" /><path d="M 185.99683186730306 99.26182062694052 a86.0,86.0 0 0,1 -10.086455211305974,41.156179273409016" fill="none" id="id136" stroke="none" /><text fill="#e1ed5e" style="font-size:6.75px; font-family:Arial;" text-anchor="middle"><textPath startOffset="21.40746469413373" xlink:href="#id136">April</textPath></text><path d="M 120.99922638620191 99.81974689727618 l 13.181128408948531 -0.11314413442751121 a34.18161400316158,34.18161400316158 0 0,0 0.0,0.5867944743026745 l -13.181128408948531 -0.1131441344275096" fill="#ff810b" stroke="none" /><path d="M 120.99922638620191 100.18025310272382 l 19.339915690131118 0.1660099160535719 a40.34062817474158,40.34062817474158 0 0,0 -0.011888130324384506,0.6924239922538376 l -19.334216128208066 -0.4979808242764805" fill="#ffd614" stroke="none" /><path d="M 120.99303781780057 100.54070618675476 l 13.265214469241089 0.34166486977246874 a34.269613777280775,34.269613777280775 0 0,0 -0.020195104618621666,0.5879584361791289 l -13.257394677625621 -0.5693295705157083" fill="#ff830c" stroke="none" /><path d="M 120.93736805541906 101.62068470465957 l 13.248797389661965 1.0255407092106457 a34.28842978002149,34.28842978002149 0 0,0 -0.050463387994445934,0.586461061691497 l -13.229240378969777 -1.2528228182778" fill="#ff830c" stroke="none" /><path d="M 120.9064616781168 101.97986365728391 l 22.74300107908949 2.1537858479988414 a43.84475632530375,43.84475632530375 0 0,0 -0.07739143900968326,0.7486919685647982 l -22.70267724759814 -2.5438823388465712" fill="#faff18" stroke="none" /><path d="M 120.82617615685814 102.69636545807757 l 24.140239393821314 3.1254372939599193 a45.34172377358428,45.34172377358428 0 0,0 -0.10656489033644621,0.7710504612337669 l -24.08302998692966 -3.5393760633937714" fill="#e7ff1a" stroke="none" /><path d="M 120.77682067341334 103.0534771498775 l 13.070644749886556 1.9209346658613644 a34.21104629347142,34.21104629347142 0 0,0 -0.09037989527383085,0.5803037618202268 l -13.035743362474458 -2.145026609613042" fill="#ff820b" stroke="none" /><path d="M 120.65975698304385 103.76489593502545 l 13.052300819162097 2.3785640042680085 a34.26725756877807,34.26725756877807 0 0,0 -0.11042820823816446,0.5778070480212882 l -13.009546318641773 -2.602273617322611" fill="#ff820c" stroke="none" /><path d="M 120.592083275326 104.11899336999214 l 14.313216037526775 2.863044072499484 a35.5967521969097,35.5967521969097 0 0,0 -0.1249993330579978,0.5981670589504479 l -14.261958993644413 -3.108327582735341" fill="#ff950d" stroke="none" /><path d="M 120.51834098615036 104.47187691870673 l 30.279375837579618 6.599249033453318 a51.99017084365517,51.99017084365517 0 0,0 -0.19753575900405235,0.8703790019654253 l -30.161629217017904 -7.1180623693577605" fill="#97ff23" stroke="none" /><path d="M 120.35273937422433 105.17358676015961 l 23.42102645987367 5.953533338888357 a45.1658651748982,45.1658651748982 0 0,0 -0.1974619776957598,0.7497952922304277 l -23.31537500137318 -6.354709135491588" fill="#e9ff1a" stroke="none" /><path d="M 120.26092885502905 105.52220625578681 l 16.936937665010156 4.616237675814894 a38.5547574106865,38.5547574106865 0 0,0 -0.17952106272931898,0.6370569198738084 l -16.855198110206256 -4.90630251959171" fill="#ffbe11" stroke="none" /><path d="M 120.05942366710727 106.21446072829308 l 16.783703693060644 5.199634306885047 a38.570683156377086,38.570683156377086 0 0,0 -0.2013670385959453,0.63077938036086 l -16.691971938687445 -5.486982720937291" fill="#ffbe11" stroke="none" /><path d="M 119.94978838288452 106.5578916946017 l 21.397729050556304 7.033858551821449 a43.52416423861389,43.52416423861389 0 0,0 -0.23941311825898245,0.7077823432094414 l -21.273830510724956 -7.400142569505052" fill="#feff18" stroke="none" /><path d="M 119.83427380445688 106.89939002012753 l 20.928324331603196 7.27995758528902 a43.15835151297094,43.15835151297094 0 0,0 -0.24941381908561325,0.6976548418513431 l -20.800270342473638 -7.638147383521285" fill="#fffb17" stroke="none" /><line stroke="#e1ed5e" stroke-width="0.3" x1="174.33088141563837" x2="178.70328620479359" y1="141.23008692659167" y2="143.65538615756765" /><path d="M 175.20536237346943 141.71514677278685 a86.0,86.0 0 0,1 -30.301960400862466,31.631185727798858" fill="none" id="id137" stroke="none" /><text fill="#e1ed5e" style="font-size:6.75px; font-family:Arial;" text-anchor="middle"><textPath startOffset="22.145653131862474" xlink:href="#id137">May</textPath></text><path d="M 117.21940702142032 112.02048342749411 l 8.444832009925387 5.895148601633259 a31.29893027023676,31.29893027023676 0 0,0 -0.3113273316960018,0.4379208806203247 l -8.342389579699425 -6.039246708963087" fill="#ff5808" stroke="none" /><path d="M 117.01052211995028 112.31430620078461 l 8.442228301331404 6.111522244081976 a31.422184167999994,31.422184167999994 0 0,0 -0.3200543682762005,0.4342152187878557 l -8.336071913471377 -6.255543772138709" fill="#ff5908" stroke="none" /><path d="M 116.79662413953412 112.60449989151573 l 8.313714831741848 6.2387666012087974 a31.39423219905553,31.39423219905553 0 0,0 -0.32716979234491095,0.42827576047091775 l -8.205393062042633 -6.3805632749205925" fill="#ff5908" stroke="none" /><path d="M 116.35404254752997 113.17365903436017 l 8.273616803622366 6.664640038394404 a31.62403698480724,31.62403698480724 0 0,0 -0.34417972578061795,0.4198433026117491 l -8.15799025860312 -6.8056856227046465" fill="#ff5c08" stroke="none" /><path d="M 116.1254893667686 113.45245675266167 l 5.773094805009493 4.816121013570753 a28.518220882960634,28.518220882960634 0 0,0 -0.3168312367190311,0.3732264001942055 l -5.689569004783348 -4.914514196214515" fill="#ff2e04" stroke="none" /><path d="M 115.6541949942343 113.99807769240083 l 11.033716486717974 9.866417319695385 a35.801658360996484,35.801658360996484 0 0,0 -0.4135983158119658,0.45461700083806067 l -10.86272047006413 -10.054371896091117" fill="#ff980e" stroke="none" /><path d="M 115.41159269507618 114.26474011684316 l 35.10120195616408 32.48914850010784 a68.82927083940834,68.82927083940834 0 0,0 -0.8100358455307965,0.8602299970283765 l -34.53831027689703 -33.08691995708072" fill="#39ff8a" stroke="none" /><path d="M 115.16444852881244 114.52719865689866 l 11.22358904859981 10.751944420702928 a36.5426271896914,36.5426271896914 0 0,0 -0.4378384438834164,0.4492608148860396 l -11.037363803565588 -10.943027927656706" fill="#ffa20f" stroke="none" /><path d="M 114.91283532996324 114.78537596483092 l 13.138239937356765 13.025947963072904 a39.501045078271645,39.501045078271645 0 0,0 -0.4815517477784774,0.4774359456059086 l -12.912696269448324 -13.249563918907475" fill="#ffcb12" stroke="none" /><path d="M 114.65682725009322 115.03919595460226 l 15.398896058807864 15.800623925037463 a43.06322089474777,43.06322089474777 0 0,0 -0.5338352974363161,0.5114021391010178 l -15.125388275506236 -16.062638194444062" fill="#fffa17" stroke="none" /><path d="M 114.39649973595853 115.28858382429668 l 5.0224677154797845 5.3336866655958755 a28.326212896155283,28.326212896155283 0 0,0 -0.3568701249402406,0.3303136598830744 l -4.930167819225577 -5.419118071611329" fill="#ff2b04" stroke="none" /><path d="M 111.8722381534696 117.32195027204791 l 12.967956542056614 18.920636146937138 a43.93814223256655,43.93814223256655 0 0,0 -0.6258124493277369,0.42107454502993275 l -12.641247804631872 -19.14046036602419" fill="#f9ff18" stroke="none" /><path d="M 111.5731344415666 117.5232005979908 l 8.11622919323735 12.289005452278762 a35.72728187152318,35.72728187152318 0 0,0 -0.5146674326923542,0.33360121183566993 l -7.904076128287987 -12.426520505818326" fill="#ff970d" stroke="none" /><path d="M 111.27062007382361 117.71928675628689 l 13.696940568631845 21.533865575247795 a46.52084535342579,46.52084535342579 0 0,0 -0.6775115841954248,0.4228173370780573 l -13.325264855646706 -21.765818709167398" fill="#d8ff1c" stroke="none" /><line stroke="#e1ed5e" stroke-width="0.3" x1="143.1302829299769" x2="145.66735839644613" y1="173.24464959558577" y2="177.55315839532614" /><path d="M 143.63769802327073 174.10635135553383 a86.0,86.0 0 0,1 -40.68552437913181,11.842963189579606" fill="none" id="id138" stroke="none" /><text fill="#e1ed5e" style="font-size:6.75px; font-family:Arial;" text-anchor="middle"><textPath startOffset="21.407464694133747" xlink:href="#id138">June</textPath></text><path d="M 110.65571695917076 118.09573695890943 l 12.701226693100516 21.569459678263843 a46.031235493314725,46.031235493314725 0 0,0 -0.6843475445097438,0.3951082390419615 l -12.329086680730374 -21.784314814581975" fill="#dfff1b" stroke="none" /><path d="M 110.34350942703117 118.27599006163325 l 7.999055913506302 14.13356534443167 a37.24015285804663,37.24015285804663 0 0,0 -0.5590559344026014,0.31009890281479496 l -7.755255790947606 -14.26879716267961" fill="#ffac0f" stroke="none" /><path d="M 109.71004243097381 118.62028667847754 l 13.246063643840525 25.401073596022755 a49.64738630114863,49.64738630114863 0 0,0 -0.7590678216366107,0.38758543830001313 l -12.808068600490332 -25.624716985995605" fill="#b2ff20" stroke="none" /><path d="M 109.3889696526874 118.78422872680471 l 6.6029751627663344 13.210373483240723 a35.768657642684346,35.768657642684346 0 0,0 -0.5515863416779655,0.2698085200587578 l -6.3752285718263 -13.321775753396704" fill="#ff980e" stroke="none" /><path d="M 109.06512990194946 118.94263497670748 l 6.9635632426430805 14.551168937384832 a37.13157557334692,37.13157557334692 0 0,0 -0.5773275474490889,0.27021844318297156 l -6.712746981322486 -14.668563612138337" fill="#ffab0f" stroke="none" /><path d="M 108.73861861582097 119.09545874513695 l 16.076988190902956 35.131120631541584 a59.6350253800662,59.6350253800662 0 0,0 -0.9345279796640147,0.41800247858769646 l -15.471546808383312 -35.40192686103913" fill="#42ff2d" stroke="none" /><path d="M 108.4095320186766 119.2426549942271 l 12.412907320524079 28.403161140677806 a51.997093911062535,51.997093911062535 0 0,0 -0.8209720254274991,0.35042413964076197 l -11.923500219926149 -28.61205992997797" fill="#97ff23" stroke="none" /><path d="M 108.07796709384702 119.3841803445677 l 5.692915349272574 13.660924405190075 a35.79966691443767,35.79966691443767 0 0,0 -0.5692923360449826,0.231526237009398 l -5.45756855203715 -13.756637898778765" fill="#ff980e" stroke="none" /><path d="M 107.74402155503746 119.51999308798841 l 5.405873257419617 13.62633198647673 a35.659481200948534,35.659481200948534 0 0,0 -0.5709384135642593,0.22085124352070504 l -5.171162581361829 -13.717123118135476" fill="#ff960d" stroke="none" /><path d="M 107.407793817531 119.65005319985036 l 10.673501324968408 28.31273035272016 a51.257797847165676,51.257797847165676 0 0,0 -0.8260092787524095,0.3033220485785639 l -10.18590289456187 -28.491783250307446" fill="#9fff22" stroke="none" /><path d="M 107.06938296918513 119.77432235084164 l 5.459629262811824 15.27155473533122 a37.21813601254992,37.21813601254992 0 0,0 -0.6034552613103121,0.20991306505722873 l -5.19666822945649 -15.36302623295704" fill="#ffac0f" stroke="none" /><path d="M 106.72888874123015 119.89276391827305 l 4.676818599568212 13.826183173418118 a35.595751894238866,35.595751894238866 0 0,0 -0.5805112219099717,0.19082556905979717 l -4.438784640010506 -13.904429663879933" fill="#ff950d" stroke="none" /><path d="M 106.38641147887787 120.00534299687104 l 3.5968073060507955 11.26694765740975 a32.827135422902344,32.827135422902344 0 0,0 -0.5383015037556255,0.16676718187850462 l -3.4028651694235457 -11.327031427094898" fill="#ff6e0a" stroke="none" /><path d="M 106.0420521117495 120.11202640906438 l 10.541580871961228 35.08949425939047 a57.63874362829456,57.63874362829456 0 0,0 -0.9500511431351247,0.27654604157291546 l -9.937669716444496 -35.265283995265904" fill="#58ff2a" stroke="none" /><path d="M 105.69591212413111 120.21278271476187 l 3.987253606196982 14.149356418135493 a35.70042442814366,35.70042442814366 0 0,0 -0.5912986481254151,0.1611610759348771 l -3.7437735571368718 -14.215717988214513" fill="#ff970d" stroke="none" /><path d="M 104.9986988182912 120.39639698878246 l 7.249629319641817 29.580961566209997 a51.45636899654657,51.45636899654657 0 0,0 -0.8597326364849691,0.20289456127985125 l -6.7407645294169685 -29.701052271136074" fill="#9dff22" stroke="none" /><path d="M 104.64783097203109 120.47920084513623 l 3.494569311859489 15.397717179363342 a36.789290959731254,36.789290959731254 0 0,0 -0.6170748067595814,0.13448858206061573 l -3.229732088480772 -15.455437219557677" fill="#ffa60f" stroke="none" /><path d="M 104.29559338865022 120.5559693870025 l 5.074058612769866 24.281207291998413 a45.805706971639026,45.805706971639026 0 0,0 -0.7710703998673077,0.15423567505946514 l -4.6564917273716 -24.364732363720737" fill="#e1ff1b" stroke="none" /><path d="M 103.94208987418118 120.62667999033965 l 2.211978658520702 11.574007034592126 a32.78348371333958,32.78348371333958 0 0,0 -0.5536744279198171,0.100897924632597 l -2.012969497049828 -11.610273133156086" fill="#ff6d0a" stroke="none" /><path d="M 103.58742460773223 120.69131181640829 l 6.680347117035581 38.53046693789768 a60.10529273712846,60.10529273712846 0 0,0 -1.0181335624846368,0.1675334902615824 l -6.0179360514978715 -38.639466426654934" fill="#3dff2e" stroke="none" /><path d="M 103.2317021107853 120.74984581791261 l 2.0327639894014293 13.051803018451775 a34.20915180732942,34.20915180732942 0 0,0 -0.5810259813395179,0.08539081052837166 l -1.8084129024542257 -13.084774902279028" fill="#ff820b" stroke="none" /><path d="M 102.875027216393 120.80226474461374 l 0.8407493856294573 6.083243735576749 a27.141067812349092,27.141067812349092 0 0,0 -0.46207303240386743,0.05982460506907071 l -0.7361985313348145 -6.0967799368462146" fill="#ff1a02" stroke="none" /><path d="M 102.51750503828377 120.84855314841334 l 2.6772663575571243 22.171606054079785 a43.332663749911575,43.332663749911575 0 0,0 -0.739263700457038,0.08283603959273107 l -2.296266755499287 -22.214297854179485" fill="#fffd17" stroke="none" /><path d="M 102.15924093988457 120.88869738790638 l 2.018676792422448 19.5288667707256 a40.63292370842956,40.63292370842956 0 0,0 -0.6944368599951778,0.06576389264482484 l -1.6831403690422546 -19.560642418875606" fill="#ffda14" stroke="none" /><path d="M 101.80034050326958 120.92268563240118 l 1.2553950600522714 14.589593545355024 a35.64350561086616,35.64350561086616 0 0,0 -0.6100657643546735,0.04722294848660147 l -1.004760300922362 -14.60899426083668" fill="#ff960d" stroke="none" /><path d="M 101.44090949804482 120.95050786540614 l 1.0038506736378607 14.595768479755776 a35.63024858604923,35.63024858604923 0 0,0 -0.6105593423149553,0.0367297338810733 l -0.7531469791904402 -14.610850191461541" fill="#ff960d" stroke="none" /><path d="M 100.72087961077811 120.9876233191556 l 0.6626615217554868 19.292667178768948 a40.30404432141524,40.30404432141524 0 0,0 -0.6916686172638425,0.017814930063223138 l -0.3313795904209003 -19.301199826182216" fill="#ffd614" stroke="none" /><line stroke="#e1ed5e" stroke-width="0.3" x1="101.45913802915013" x2="101.54496967792366" y1="184.9874750549273" y2="189.98673829345242" /><path d="M 101.47630435890484 185.9873277026323 a86.0,86.0 0 0,1 -42.54439059252881,-10.42667462771756" fill="none" id="id139" stroke="none" /><text fill="#e1ed5e" style="font-size:6.75px; font-family:Arial;" text-anchor="middle"><textPath startOffset="22.145653131862474" xlink:href="#id139">July</textPath></text><path d="M 100.36049292484886 120.99690560180557 l 0.25254616519894285 14.709548025119977 a35.71171583021055,35.71171583021055 0 0,0 -0.6130390900477932,0.0052622032850083884 l -1.8016655701432796e-15 -14.71171583021055" fill="#ff970d" stroke="none" /><path d="M 100.0 121.0 l 2.1534481791579464e-15 17.584238824265583 a38.58423882426558,38.58423882426558 0 0,0 -0.6623497669917208,-0.005685476140545371 l 0.3018568421428665 -17.581647746319472" fill="#ffbe11" stroke="none" /><path d="M 99.27912038922189 120.98762331915562 l -0.6020748554703323 17.528752495728337 a38.539089434405994,38.539089434405994 0 0,0 -0.6609898678177825,-0.02838574898845462 l 0.9028904838889535 -17.515834178314055" fill="#ffbe11" stroke="none" /><path d="M 98.91894614982273 120.97215588758144 l -0.9044539929439114 17.546165836285436 a38.569461362824484,38.569461362824484 0 0,0 -0.6609256431724659,-0.03975964547010093 l 1.2055239882488236 -17.528054212990643" fill="#ffbe11" stroke="none" /><path d="M 98.55909050195518 120.95050786540614 l -1.2046510130778285 17.515361345596087 a38.55673851061498,38.55673851061498 0 0,0 -0.6599279657647004,-0.051082598226338954 l 1.5051479736177649 -17.492100980374694" fill="#ffbe11" stroke="none" /><path d="M 98.19965949673042 120.92268563240118 l -3.1443760465761046 36.54241595580714 a57.677448992664544,57.677448992664544 0 0,0 -0.9857362679193246,-0.09335024943809422 l 3.771211877880445 -36.483053950863855" fill="#57ff2a" stroke="none" /><path d="M 97.84075906011543 120.88869738790638 l -4.283679148745401 41.440709923650566 a62.661521167926004,62.661521167926004 0 0,0 -1.069017780264259,-0.1197856720363208 l 4.994432830610459 -41.361068491107275" fill="#31ff3f" stroke="none" /><path d="M 97.48249496171623 120.84855314841334 l -4.262047183797454 35.29586470779119 a56.552258882771646,56.552258882771646 0 0,0 -0.9627946082268671,-0.12465303785454372 l 4.867319613915115 -35.21750007373625" fill="#63ff29" stroke="none" /><path d="M 97.12497278360702 120.80226474461374 l -2.2836104760463307 16.52306782538507 a37.68012731272108,37.68012731272108 0 0,0 -0.6399788299977991,-0.09405484912830024 l 2.5669144116518146 -16.481431902957887" fill="#ffb210" stroke="none" /><path d="M 96.76829788921471 120.74984581791261 l -5.012778988395625 32.185637030513966 a53.57365782724582,53.57365782724582 0 0,0 -0.9074931110899367,-0.1493276460882169 l 5.564549602538625 -32.09484338593008" fill="#85ff25" stroke="none" /><path d="M 96.41257539226777 120.69131181640829 l -3.0002417519069993 17.30459714178013 a38.56275982894462,38.56275982894462 0 0,0 -0.6512795947494873,-0.11868483742813604 l 3.2968560802075437 -17.250544130420625" fill="#ffbe11" stroke="none" /><path d="M 96.05791012581884 120.62667999033965 l -3.2856260195736917 17.191783707812377 a38.5029359079185,38.5029359079185 0 0,0 -0.6481391981345457,-0.12964599182381392 l 3.5802617032391955 -17.132848319325703" fill="#ffbd11" stroke="none" /><path d="M 95.70440661134978 120.55596938700252 l -8.515682125410873 40.75062168172187 a62.63087807755035,62.63087807755035 0 0,0 -1.0505213875741828,-0.22895624694373237 l 9.213965929604193 -40.598433976644415" fill="#31ff3e" stroke="none" /><path d="M 95.35216902796893 120.47920084513623 l -7.58884472720493 33.43785010388793 a55.28819598438658,55.28819598438658 0 0,0 -0.9237547737451761,-0.21800361135001758 l 8.161731654689994 -33.30265034889169" fill="#71ff27" stroke="none" /><path d="M 95.00130118170881 120.39639698878247 l -8.150019601456021 33.25486117494911 a55.23899255628377,55.23899255628377 0 0,0 -0.9190576955584884,-0.23362087226380834 l 8.71968259023989 -33.110055070850045" fill="#72ff27" stroke="none" /><path d="M 94.6519064749342 120.30758222061772 l -4.283835361304428 16.266420624760638 a37.821048877653276,37.821048877653276 0 0,0 -0.6264221064669421,-0.17073413069293777 l 4.562438868706065 -16.190485999923556" fill="#ffb410" stroke="none" /><path d="M 94.30408787586889 120.21278271476187 l -8.564896051042878 30.393794546235284 a52.57752668091552,52.57752668091552 0 0,0 -0.8666278302065636,-0.2522627310038071 l 9.085383893631048 -30.24228812092896" fill="#90ff24" stroke="none" /><path d="M 93.95794788825049 120.11202640906438 l -8.268921727584608 27.524551110088577 a49.73979784808514,49.73979784808514 0 0,0 -0.8156364432409274,-0.2526862550591057 l 8.740198803697169 -27.378548267222822" fill="#b1ff20" stroke="none" /><path d="M 93.61358852112213 120.00534299687104 l -6.69744762886161 20.97965930665322 a43.0227588953924,43.0227588953924 0 0,0 -0.7016341278731038,-0.23064107405648843 l 7.056604494382458 -20.86159731119471" fill="#fff917" stroke="none" /><path d="M 93.27111125876986 119.89276391827306 l -7.051790351582376 20.847365153423386 a43.007734572255316,43.007734572255316 0 0,0 -0.6973278752034618,-0.2425668330672353 l 7.408623998830859 -20.72323988778756" fill="#fff917" stroke="none" /><path d="M 92.59220618246901 119.65005319985036 l -6.78083271238116 17.986964380980226 a40.22265798259829,40.22265798259829 0 0,0 -0.6439987280945548,-0.24911254269533661 l 7.088603702969243 -17.86791195014685" fill="#ffd413" stroke="none" /><path d="M 92.25597844496254 119.51999308798841 l -4.3184372658977335 10.885282922075692 a32.71060565099547,32.71060565099547 0 0,0 -0.5201695632813662,-0.21154843297212533 l 4.50466129036954 -10.809547232524276" fill="#ff6c0a" stroke="none" /><path d="M 91.92203290615298 119.3841803445677 l -6.796380598279689 16.308839300388133 a38.668305763783835,38.668305763783835 0 0,0 -0.6105263758978938,-0.260597405728419 l 7.075342049348014 -16.189767245000308" fill="#ffc011" stroke="none" /><path d="M 91.59046798132341 119.24265499422711 l -7.873872806927396 18.016961889869144 a40.662369865320606,40.662369865320606 0 0,0 -0.637211472895425,-0.28501658682339714 l 8.181997682678457 -17.87914155213589" fill="#ffda14" stroke="none" /><path d="M 91.26138138417905 119.09545874513695 l -6.821307258751304 14.905787410331081 a37.392459578729415,37.392459578729415 0 0,0 -0.5813838127885366,-0.27211698017467567 l 7.07617978541133 -14.786494198585878" fill="#ffae10" stroke="none" /><path d="M 90.93487009805054 118.94263497670748 l -11.997903431336256 25.07100368597188 a48.79397259424579,48.79397259424579 0 0,0 -0.752448948687332,-0.36806048650064005 l 12.426512629285659 -24.861349449374018" fill="#bdff1f" stroke="none" /><path d="M 90.6110303473126 118.78422872680471 l -7.875873532094893 15.757022902711416 a38.615707611394015,38.615707611394015 0 0,0 -0.5904025013469639,-0.3014637239721325 l 8.14520325515544 -15.619501227066447" fill="#ffbf11" stroke="none" /><path d="M 90.28995756902619 118.62028667847754 l -7.87966855756777 15.110303432379842 a38.041433225985195,38.041433225985195 0 0,0 -0.5764385483817706,-0.3069210589829351 l 8.137895921736103 -14.972811905674334" fill="#ffb711" stroke="none" /><path d="M 89.97174638481275 118.45085714620012 l -2.139247327979548 3.935974135034271 a25.47976244034507,25.47976244034507 0 0,0 -0.3825068187486014,-0.2121700844475767 l 2.2064983348842517 -3.898671135153546" fill="#ff0000" stroke="none" /><line stroke="#e1ed5e" stroke-width="0.3" x1="58.13341422392154" x2="55.67067388415222" y1="173.97424548756322" y2="178.32567169271397" /><path d="M 57.64086615596768 174.84453072859336 a86.0,86.0 0 0,1 -31.369924170532247,-30.572349798747897" fill="none" id="id140" stroke="none" /><text fill="#e1ed5e" style="font-size:6.75px; font-family:Arial;" text-anchor="middle"><textPath startOffset="22.145653131862474" xlink:href="#id140">August</textPath></text><path d="M 89.65649057296885 118.27599006163327 l -10.460615561929323 18.48290538110522 a42.237755749169125,42.237755749169125 0 0,0 -0.6279497850268241,-0.3625469774228073 l 10.776357814816548 -18.30061150640624" fill="#ffef16" stroke="none" /><path d="M 89.34428304082925 118.09573695890944 l -7.437657489748575 12.63076844483179 a35.65793506745652,35.65793506745652 0 0,0 -0.5247952237215732,-0.3151244532532967 l 7.653385470027575 -12.501229991042576" fill="#ff960d" stroke="none" /><path d="M 89.03521579738668 117.91015095944536 l -10.05661909380154 16.426731505458882 a40.26066186687906,40.26066186687906 0 0,0 -0.5863406951218931,-0.3659199593263695 l 10.337123917713145 -16.251675749290968" fill="#ffd513" stroke="none" /><path d="M 88.72937992617639 117.7192867562869 l -12.71726614233838 19.99365465751738 a44.69546548812942,44.69546548812942 0 0,0 -0.6438581182438151,-0.4173410533725456 l 13.058609892839206 -19.77239976244094" fill="#efff19" stroke="none" /><path d="M 88.4268655584334 117.5232005979908 l -8.899746452467003 13.475350445918242 a37.14901100868124,37.14901100868124 0 0,0 -0.5291146231534171,-0.35601193209298543 l 9.129757363717426 -13.320588839768135" fill="#ffab0f" stroke="none" /><path d="M 88.1277618465304 117.32195027204791 l -9.929536227170267 14.487490103226742 a38.56368580844521,38.56368580844521 0 0,0 -0.5428388013051906,-0.37894364229689725 l 10.176770119649223 -14.314901645124715" fill="#ffbe11" stroke="none" /><path d="M 87.83215693770417 117.11559508785305 l -4.2391277413086685 5.962864048661926 a28.316143223718193,28.316143223718193 0 0,0 -0.3937548349665047,-0.2850481350087537 l 4.340863586649127 -5.889215142280107" fill="#ff2b04" stroke="none" /><path d="M 87.54013794807813 116.9041958592261 l -12.521137161235341 16.987327313235312 a42.10327379951886,42.10327379951886 0 0,0 -0.5781120551029955,-0.43382606381473365 l 12.810902205249104 -16.769882222156564" fill="#ffed16" stroke="none" /><path d="M 87.2517909369889 116.68781488649013 l -8.860798062797643 11.599069099641149 a35.59630591238511,35.59630591238511 0 0,0 -0.4823978414470013,-0.37511547926644606 l 9.058605848879873 -11.44525256875391" fill="#ff950d" stroke="none" /><path d="M 86.96720088162412 116.46651593811092 l -19.157148741378784 24.20443162005755 a51.86828239389669,51.86828239389669 0 0,0 -0.6934276345277253,-0.5585762172088067 l 19.569827146261773 -23.872007109055332" fill="#98ff23" stroke="none" /><path d="M 86.40962598614128 116.0094264158162 l -9.499749176475241 11.190680643108303 a35.67912012594695,35.67912012594695 0 0,0 -0.4635236244935318,-0.40038066696073404 l 9.690452280731636 -11.025955843682846" fill="#ff960d" stroke="none" /><path d="M 86.13680546590413 115.77377054828092 l -10.79121220144315 12.278418569740936 a37.34655386772192,37.34655386772192 0 0,0 -0.477920245327704,-0.4273592303745065 l 11.000397473594225 -12.091363809483047" fill="#ffae10" stroke="none" /><path d="M 85.60350026404147 115.28858382429668 l -14.378660014010013 15.269638657803835 a41.97397741341369,41.97397741341369 0 0,0 -0.5203324380180679,-0.49846670522537323 l 14.638664937893395 -15.02055982227288" fill="#ffec16" stroke="none" /><path d="M 85.34317274990678 115.03919595460226 l -10.208092921977252 10.474402621851738 a35.62594514513085,35.62594514513085 0 0,0 -0.4343109433409635,-0.4305989063014977 l 10.38639578544818 -10.29762370532158" fill="#ff960d" stroke="none" /><path d="M 85.08716467003676 114.78537596483092 l -17.129012301588162 16.982611366756036 a45.120782559076105,45.120782559076105 0 0,0 -0.5406183063937097,-0.554722008233298 l 17.418017409132684 -16.686066666455" fill="#eaff1a" stroke="none" /><path d="M 84.83555147118756 114.52719865689866 l -17.012623050129793 16.297708040921634 a44.55938518792308,44.55938518792308 0 0,0 -0.5244091476902099,-0.5569043420092096 l 17.289888031556256 -16.003262238967935" fill="#f1ff19" stroke="none" /><path d="M 84.58840730492382 114.26474011684316 l -14.046245980445498 13.000995581223883 a40.13956405580295,40.13956405580295 0 0,0 -0.4637119298639254,-0.5097006412942121 l 14.267355611151302 -12.757957364371997" fill="#ffd313" stroke="none" /><path d="M 84.3458050057657 113.99807769240083 l -12.826362775762092 11.4694126853642 a38.20648161021447,38.20648161021447 0 0,0 -0.4329866623000258,-0.4926593394321155 l 13.02136050202071 -11.247541068120784" fill="#ffb911" stroke="none" /><path d="M 83.8745106332314 113.45245675266167 l -17.856595903669106 14.896607394681585 a44.25439590998258,44.25439590998258 0 0,0 -0.48164204513807074,-0.5875249811673614 l 18.10968476804581 -14.587880131815728" fill="#f5ff19" stroke="none" /><path d="M 83.64595745247003 113.17365903436017 l -14.929629810306356 12.026252962139964 a40.17093129146752,40.17093129146752 0 0,0 -0.42798027820441,-0.5407391004986453 l 15.133876519152327 -11.768193917726638" fill="#ffd413" stroke="none" /><path d="M 83.4222238831116 112.89097897827486 l -15.210666924875634 11.827906601679697 a40.26820601087615,40.26820601087615 0 0,0 -0.4196484409985778,-0.5493332801630617 l 15.411467343228505 -11.565052408275765" fill="#ffd513" stroke="none" /><path d="M 83.20337586046588 112.60449989151573 l -28.247621711085856 21.197541948618884 a56.31662380517235,56.31662380517235 0 0,0 -0.5736196236087402,-0.7782251862637635 l 28.607343354278427 -20.709510453086242" fill="#66ff29" stroke="none" /><path d="M 82.78059297857968 112.02048342749411 l -14.301864964684869 9.983812484157939 a38.441899357206154,38.441899357206154 0 0,0 -0.37308826787195115,-0.5443469327031449 l 14.471142969372146 -9.736830816384744" fill="#ffbc11" stroke="none" /><path d="M 82.37810715431573 111.42229804090323 l -19.643380917235728 12.732602185956877 a44.4090062216544,44.4090062216544 0 0,0 -0.40915985887456713,-0.6432672577970022 l 19.859058467736183 -12.393521253481202" fill="#f3ff19" stroke="none" /><path d="M 82.18462484594161 111.11811171558189 l -12.39944963504951 7.738173631600856 a35.61593932680798,35.61593932680798 0 0,0 -0.31924098844370813,-0.5214561627311041 l 12.530458587948623 -7.524180352745194" fill="#ff950d" stroke="none" /><path d="M 81.99639281039703 110.81064883170644 l -20.226245152899995 12.145279067090586 a44.592558076705444,44.592558076705444 0 0,0 -0.3884357716568802,-0.659648860444294 l 20.431754634686644 -11.796279038352733" fill="#f1ff19" stroke="none" /><line stroke="#e1ed5e" stroke-width="0.3" x1="26.387840678322732" x2="22.057713659400548" y1="142.50000000000003" y2="145.00000000000006" /><path d="M 25.521815274538298 143.00000000000003 a86.0,86.0 0 0,1 -11.493303480769221,-40.785679425670985" fill="none" id="id141" stroke="none" /><text fill="#e1ed5e" style="font-size:6.75px; font-family:Arial;" text-anchor="middle"><textPath startOffset="21.40746469413373" xlink:href="#id141">September</textPath></text><path d="M 81.81346652052679 110.50000000000001 l -20.407611248701723 11.782339847955189 a44.56467969591036,44.56467969591036 0 0,0 -0.3768190577382337,-0.6658031689187149 l 20.606863671461337 -11.430279908937353" fill="#f1ff19" stroke="none" /><path d="M 81.63589988554817 110.18625677009913 l -16.82153051716272 9.330619417557704 a40.23601693841897,40.23601693841897 0 0,0 -0.3298484489954854,-0.6068839945466121 l 16.979224315773536 -9.040480589536505" fill="#ffd513" stroke="none" /><path d="M 81.4637452351635 109.86951160357371 l -21.69499151830417 11.551361008240063 a45.57858006724511,45.57858006724511 0 0,0 -0.36178959641852265,-0.6937792548789105 l 21.890089183697643 -11.17723551025665" fill="#e4ff1a" stroke="none" /><path d="M 81.1358732173502 109.22738970284198 l -21.141828628372682 10.341527812680054 a44.53559251966931,44.53559251966931 0 0,0 -0.330031521671711,-0.6896389476437763 l 21.316239408004307 -9.977076362971173" fill="#f1ff19" stroke="none" /><path d="M 80.9802524753101 108.90220220490708 l -14.890386413695254 6.969452701295913 a37.44070796847755,37.44070796847755 0 0,0 -0.2674613258141298,-0.5844512659880587 l 15.00783220436444 -6.712812453093166" fill="#ffaf10" stroke="none" /><path d="M 80.83023694016515 108.57439118712176 l -17.683450364244294 7.909582423518374 a40.371781304235355,40.371781304235355 0 0,0 -0.2775389210929718,-0.6350633655001509 l 17.816623167354233 -7.604856988242373" fill="#ffd614" stroke="none" /><path d="M 80.68587082218212 108.24405325689762 l -34.6510655696707 14.790479411968562 a58.675650310903514,58.675650310903514 0 0,0 -0.3874664882446212,-0.9297785195647744 l 34.89985790245181 -14.193468382962507" fill="#4cff2c" stroke="none" /><path d="M 80.5471966667186 107.91128576633889 l -13.498097502252099 5.489558744446951 a35.57168114491387,35.57168114491387 0 0,0 -0.22518792500416082,-0.5676206746506683 l 13.590344102222383 -5.257037052582717" fill="#ff950d" stroke="none" /><path d="M 80.41425534168474 107.57618678355246 l -24.101139731301135 9.322838599517478 a46.841444539738006,46.841444539738006 0 0,0 -0.2836568795839288,-0.7524335735609715 l 24.2576272946995 -8.907736745762362" fill="#d4ff1c" stroke="none" /><path d="M 80.16572619554312 106.89939002012753 l -24.328653108762158 8.462768443986118 a46.75852891418704,46.75852891418704 0 0,0 -0.2572043693056471,-0.7603790156307796 l 24.47034289964017 -8.043887753881176" fill="#d6ff1c" stroke="none" /><path d="M 80.05021161711548 106.5578916946017 l -13.926168620670111 4.577808234470627 a35.6592803603357,35.6592803603357 0 0,0 -0.18616739702304566,-0.5831667196199842 l 14.002700733470412 -4.3380724811592515" fill="#ff960d" stroke="none" /><path d="M 79.94057633289273 106.21446072829308 l -22.44226288086255 6.952670407766613 a44.49456935150705,44.49456935150705 0 0,0 -0.21976859395200118,-0.7315381734047655 l 22.55830779481818 -6.566394630771123" fill="#f2ff19" stroke="none" /><path d="M 79.83685265289637 105.86919833188381 l -22.537670415270654 6.5603873903572305 a44.4730754367408,44.4730754367408 0 0,0 -0.2070783037278901,-0.7348478464863514 l 22.646967211073118 -6.1725316199678835" fill="#f2ff19" stroke="none" /><path d="M 79.73907114497094 105.5222062557868 l -18.601694996616487 5.069974689391223 a40.280241183611125,40.280241183611125 0 0,0 -0.17610237411323473,-0.6686893983415416 l 18.685986851534455 -4.749904786676879" fill="#ffd513" stroke="none" /><path d="M 79.64726062577567 105.17358676015961 l -23.957705263460355 6.089954992093951 a45.71961151184553,45.71961151184553 0 0,0 -0.1868244262164574,-0.7623074129549138 l 24.058717216193106 -5.677791754530937" fill="#e2ff1b" stroke="none" /><path d="M 79.48165901384964 104.47187691870673 l -25.54781626312947 5.568027646463437 a47.14753999301662,47.14753999301662 0 0,0 -0.1655603584802268,-0.792266248852324 l 25.639634332434063 -5.128644946325704" fill="#d1ff1d" stroke="none" /><path d="M 79.407916724674 104.11899336999214 l -12.947293091361562 2.589821228363259 a34.20377114268874,34.20377114268874 0 0,0 -0.11022361957896731,-0.5767365537054104 l 12.989843003222687 -2.3671821096245345" fill="#ff820b" stroke="none" /><path d="M 79.34024301695615 103.76489593502545 l -18.93859108494022 3.4512421733382705 a40.250488430728346,40.250488430728346 0 0,0 -0.11803969885871982,-0.6808216151877995 l 18.995045601291178 -3.1256275252298784" fill="#ffd513" stroke="none" /><path d="M 79.2786578344484 103.40968896794605 l -37.274280520857914 6.133468675179911 a58.775540053545505,58.775540053545505 0 0,0 -0.15527520290181887,-0.9969781895444917 l 37.374077215898 -5.492702303703969" fill="#4bff2c" stroke="none" /><path d="M 79.22317932658666 103.0534771498775 l -14.541288504449671 2.13706865338309 a35.697487329435354,35.697487329435354 0 0,0 -0.08389841642421222,-0.6070471472962222 l 14.575831437429096 -1.887133197886782" fill="#ff970d" stroke="none" /><path d="M 79.17382384314188 102.69636545807758 l -25.71967472836076 3.329926819413069 a46.93434172589167,46.93434172589167 0 0,0 -0.09659068248424593,-0.7999094130064079 l 25.77304749710467 -2.887923729483262" fill="#d3ff1c" stroke="none" /><path d="M 79.0935383218832 101.97986365728391 l -25.769980806261717 2.4404439753010085 a46.88527916696438,46.88527916696438 0 0,0 -0.0690025775169502,-0.8019145459376171 l 25.808077006476406 -1.9977083819877295" fill="#d4ff1c" stroke="none" /><path d="M 79.06263194458094 101.62068470465958 l -14.615375026213723 1.1313224611207715 a35.659095390504426,35.659095390504426 0 0,0 -0.042003084209434785,-0.6107156259953553 l 14.632642071588224 -0.880263410971073" fill="#ff960d" stroke="none" /><path d="M 79.03789590574601 101.26102812881392 l -23.503039825727747 1.4138845127193433 a44.545529309511224,44.545529309511224 0 0,0 -0.039366391466675435,-0.7636974776375048 l 23.523847806650995 -1.0102152417051078" fill="#f1ff19" stroke="none" /><path d="M 79.01933749520258 100.90099992219065 l -23.51807048453261 1.0099671386350573 a44.539746662540075,44.539746662540075 0 0,0 -0.02624730028714391,-0.7641615095435399 l 23.531942471816603 -0.6060993645273973" fill="#f1ff19" stroke="none" /><path d="M 79.00696218219943 100.54070618675478 l -19.223275945305495 0.49512339869684474 a40.229651199366515,40.229651199366515 0 0,0 -0.011855426105194616,-0.6905191354429033 l 19.228942803009357 -0.16505734728488894" fill="#ffd513" stroke="none" /><line stroke="#e1ed5e" stroke-width="0.3" x1="15.003131293944662" x2="10.003315487706104" y1="100.72959589197737" y2="100.7725132973878" /><path d="M 14.003168132696942 100.73817937305945 a86.0,86.0 0 0,1 10.791469493833604,-42.45332614584628" fill="none" id="id142" stroke="none" /><text fill="#e1ed5e" style="font-size:6.75px; font-family:Arial;" text-anchor="middle"><textPath startOffset="22.145653131862435" xlink:href="#id142">October</textPath></text><path d="M 79.00077361379809 100.18025310272382 l -24.712663289410177 0.21212849238161607 a45.71357370663016,45.71357370663016 0 0,0 0.0,-0.7847631902108582 l 24.712663289410177 0.21212849238160697" fill="#e3ff1b" stroke="none" /><path d="M 79.00696218219943 99.45929381324524 l -28.285936192882502 -0.7285453792053603 a49.29531700966402,49.29531700966402 0 0,0 0.029049760837336836,-0.845752090709848 l 28.269261745048315 1.2140037344793468" fill="#b7ff1f" stroke="none" /><path d="M 79.01933749520258 99.09900007780938 l -12.974562390536 -0.5571835351556353 a33.98652080881403,33.98652080881403 0 0,0 0.030035038386323133,-0.5826717207696369 l 12.963085762693106 0.7798270493019842" fill="#ff7e0b" stroke="none" /><path d="M 79.03789590574601 98.7389718711861 l -20.60243077089034 -1.239391074828005 a41.63967644866781,41.63967644866781 0 0,0 0.04904765017659177,-0.7131420690880791 l 20.578119159548685 1.5928765680704091" fill="#ffe715" stroke="none" /><path d="M 79.06263194458094 98.37931529534042 l -37.98360696006743 -2.9401714038288453 a59.097230943741515,59.097230943741515 0 0,0 0.0869753008126612,-1.0107848339700283 l 37.927538036557024 3.591777285174554" fill="#48ff2c" stroke="none" /><path d="M 79.0935383218832 98.0201363427161 l -14.591502295193868 -1.3818304380825903 a35.65678663931011,35.65678663931011 0 0,0 0.06293865583385731,-0.6088744018466506 l 14.565631246878347 1.6321093622121536" fill="#ff960d" stroke="none" /><path d="M 79.13060592940154 97.66154086499901 l -25.621590565681757 -2.8709526644084105 a46.781936938808656,46.781936938808656 0 0,0 0.09627703405843185,-0.7973119541032705 l 25.568531445363657 3.3103582954351176" fill="#d5ff1c" stroke="none" /><path d="M 79.22317932658666 96.9465228501225 l -27.931152134236303 -4.1049175016839055 a49.23118147087514,49.23118147087514 0 0,0 0.13006059467972975,-0.8350823170191974 l 27.856570047418305 4.583788000634553" fill="#b7ff1f" stroke="none" /><path d="M 79.2786578344484 96.59031103205396 l -13.940012179557572 -2.293823699349428 a35.127475596507345,35.127475596507345 0 0,0 0.10301580931657095,-0.5941678127519652 l 13.898581552748768 2.5327845450219857" fill="#ff8f0d" stroke="none" /><path d="M 79.34024301695615 96.23510406497455 l -23.187039227974342 -4.225450948252855 a44.56890374785624,44.56890374785624 0 0,0 0.14362585550176193,-0.7515111664949042 l 23.11108708019042 4.622864679781074" fill="#f1ff19" stroke="none" /><path d="M 79.407916724674 95.88100663000787 l -23.10312309444782 -4.621271659588126 a44.56078200036919,44.56078200036919 0 0,0 0.15647686057921786,-0.7487984231327403 l 23.020388523044236 5.017186534006275" fill="#f1ff19" stroke="none" /><path d="M 79.48165901384962 95.52812308129327 l -18.75040450941258 -4.086563392169667 a40.190561993459724,40.190561993459724 0 0,0 0.1527033483319779,-0.6728391284093452 l 18.67749029952294 4.40783685451802" fill="#ffd413" stroke="none" /><path d="M 79.56144815229197 95.17655741523228 l -23.84007914756577 -5.626193765655496 a45.49496744335254,45.49496744335254 0 0,0 0.1859064613035508,-0.7585618028539624 l 23.73998515974592 6.034611393117576" fill="#e5ff1a" stroke="none" /><path d="M 79.73907114497095 94.47779374421319 l -27.226510770571643 -7.420706581434868 a49.21966999998059,49.21966999998059 0 0,0 0.22917969296140753,-0.8132778799096116 l 27.095112585535652 7.886992385247494" fill="#b7ff1f" stroke="none" /><path d="M 79.83685265289637 94.1308016681162 l -15.798975503469356 -4.598851512323809 a37.45469726830694,37.45469726830694 0 0,0 0.18499709684851404,-0.6157951683637922 l 15.717702086617212 4.869384284278325" fill="#ffaf10" stroke="none" /><path d="M 79.94057633289273 93.78553927170692 l -18.177635601444187 -5.631477975293562 a40.029975834065255,40.029975834065255 0 0,0 0.2089856084760605,-0.6546444420001557 l 18.07828527719087 5.942691450985109" fill="#ffd213" stroke="none" /><path d="M 80.05021161711548 93.44210830539832 l -18.205164183168527 -5.984399067515262 a40.16353399390101,40.16353399390101 0 0,0 0.2209273189271173,-0.6531323621960611 l 18.099751442669046 6.296033104185484" fill="#ffd413" stroke="none" /><path d="M 80.16572619554312 93.10060997987247 l -13.858648489480665 -4.8207573427413655 a35.67316732381184,35.67316732381184 0 0,0 0.20615664382913168,-0.5766568238861177 l 13.77385167560759 5.057949123008404" fill="#ff960d" stroke="none" /><path d="M 80.28708602549916 92.7611449362534 l -11.041501829033454 -4.054592412357447 a32.76241821526916,32.76241821526916 0 0,0 0.1983987771914879,-0.5262763276931152 l 10.97027236802753 4.243537020244707" fill="#ff6d0a" stroke="none" /><path d="M 80.5471966667186 92.08871423366112 l -13.078003010720703 -5.318709971936925 a35.118174050280054,35.118174050280054 0 0,0 0.23190395846874007,-0.5564850786531724 l 12.984773207715486 5.542427560031362" fill="#ff8f0d" stroke="none" /><path d="M 80.68587082218212 91.75594674310238 l -11.11686395346943 -4.745128172143754 a33.08722075292829,33.08722075292829 0 0,0 0.2274606483308363,-0.5204744771614912 l 11.033769423121617 4.935264719081112" fill="#ff720a" stroke="none" /><path d="M 80.83023694016515 91.42560881287825 l -8.071330671332472 -3.6102035461055286 a29.84194257221258,29.84194257221258 0 0,0 0.21317880879692538,-0.465834169870873 l 8.0081673976805 3.7482266981910732" fill="#ff4206" stroke="none" /><path d="M 80.9802524753101 91.09779779509293 l -57.05924257406971 -26.706606614721213 a84.0,84.0 0 0,0 0.6224829681603801,-1.3007499917396512 l 56.59238034794942 27.68216910852595" fill="#4dd2ff" stroke="none" /><path d="M 81.46374523516351 90.13048839642627 l -7.733028214845141 -4.1174019598586575 a29.760863214925738,29.760863214925738 0 0,0 0.2439748096148054,-0.44888617023574856 l 7.661208055614985 4.249542963569025" fill="#ff4106" stroke="none" /><path d="M 81.63589988554816 89.8137432299009 l -7.656102825107362 -4.246711178265248 a29.755025202717576,29.755025202717576 0 0,0 0.2515952237595675,-0.44454465299443513 l 7.582074236326425 4.377512601358789" fill="#ff4106" stroke="none" /><line stroke="#e1ed5e" stroke-width="0.3" x1="26.387840678322718" x2="22.05771365940052" y1="57.49999999999999" y2="54.99999999999999" /><path d="M 25.521815274538284 56.99999999999999 a86.0,86.0 0 0,1 29.574782752854787,-30.34633250058573" fill="none" id="id143" stroke="none" /><text fill="#e1ed5e" style="font-size:6.75px; font-family:Arial;" text-anchor="middle"><textPath startOffset="21.40746469413373" xlink:href="#id143">November</textPath></text><path d="M 81.81346652052679 89.5 l -7.619079560407459 -4.398877635178423 a29.797755270356845,29.797755270356845 0 0,0 0.25956156276510434,-0.4407922791528756 l 7.542444287512575 4.529021082624872" fill="#ff4206" stroke="none" /><path d="M 82.18462484594161 88.88188828441811 l -52.92998212817865 -33.032223532535916 a83.3915923790436,83.3915923790436 0 0,0 0.7683237044042953,-1.2079324784988257 l 52.35514073214847 33.93596968571341" fill="#4cd8ff" stroke="none" /><path d="M 82.78059297857968 87.97951657250589 l -6.034068695351287 -4.212248578746267 a28.35887376636998,28.35887376636998 0 0,0 0.2820828834518641,-0.39678490178235515 l 5.9608707133694505 4.315210707238142" fill="#ff2c04" stroke="none" /><path d="M 82.98947788004972 87.6856937992154 l -5.948964708898192 -4.306591678165834 a28.34417544658101,28.34417544658101 0 0,0 0.28870294688502807,-0.3916809944559146 l 5.874159742429345 4.408078981890612" fill="#ff2c04" stroke="none" /><path d="M 83.2033758604659 87.39550010848427 l -7.025562487650887 -5.272113067351691 a29.783718145684535,29.783718145684535 0 0,0 0.31038608681998636,-0.4063053511746004 l 6.934024423476593 5.391939331767176" fill="#ff4106" stroke="none" /><path d="M 83.8745106332314 86.54754324733833 l -8.176562324039265 -6.821179100229872 a31.64822312671514,31.64822312671514 0 0,0 0.35160488146678615,-0.41418966626997494 l 8.058262879065364 6.960535548949404" fill="#ff5d08" stroke="none" /><path d="M 84.10781606972428 86.27271002978789 l -8.893065727336799 -7.68161836654439 a32.75133519052046,32.75133519052046 0 0,0 0.37116454361559387,-0.42231711689903056 l 8.759890119762613 7.833147761254721" fill="#ff6d0a" stroke="none" /><path d="M 84.34580500576568 86.00192230759919 l -8.91755569982681 -7.974133295162338 a32.962842532965574,32.962842532965574 0 0,0 0.3808029231088087,-0.4185691193500837 l 8.779355075876135 8.12603999007008" fill="#ff700a" stroke="none" /><path d="M 84.58840730492382 85.73525988315684 l -9.71138124446071 -8.988709497369197 a34.23283129580962,34.23283129580962 0 0,0 0.4028783118785589,-0.42784280589828766 l 9.555647098845881 9.154093763211995" fill="#ff820c" stroke="none" /><path d="M 84.83555147118756 85.47280134310135 l -10.618151478277941 -10.17194892388648 a35.70420639564786,35.70420639564786 0 0,0 0.42779283731337786,-0.4389531375755471 l 10.44197183981376 10.352724753529758" fill="#ff970d" stroke="none" /><path d="M 85.08716467003674 85.21462403516908 l -11.480188282643356 -11.382067604869535 a37.166205057673935,37.166205057673935 0 0,0 0.4530880377557457,-0.4492155136941821 l 11.283108324757633 11.57746312879239" fill="#ffab0f" stroke="none" /><path d="M 85.34317274990677 84.96080404539775 l -9.192078760823803 -9.431882586545957 a34.170220995548135,34.170220995548135 0 0,0 0.4235927947240174,-0.4057923152889374 l 9.028813480234485 9.588287032140462" fill="#ff810b" stroke="none" /><path d="M 85.60350026404147 84.71141617570332 l -10.283157561827254 -10.920356978840227 a35.99991753266229,35.99991753266229 0 0,0 0.45354792449025166,-0.41979718783082426 l 10.09417986602305 11.095271912803417" fill="#ff9b0e" stroke="none" /><path d="M 85.86807049272753 84.46653392183569 l -9.841688184278254 -10.817739324533495 a35.62471573775438,35.62471573775438 0 0,0 0.45588604896236723,-0.4076561161150254 l 9.654537108492496 10.985090970531921" fill="#ff960d" stroke="none" /><path d="M 86.13680546590413 84.22622945171909 l -9.836122133590806 -11.1917013959905 a35.89978116496785,35.89978116496785 0 0,0 0.4663903320869723,-0.4028568607027399 l 9.642552321740984 11.358902389157949" fill="#ff990e" stroke="none" /><path d="M 86.40962598614128 83.9905735841838 l -14.525164697816416 -17.110607491020623 a43.44444916255383,43.44444916255383 0 0,0 0.5726923126853838,-0.4777602957500693 l 14.229298050969124 17.357429970682574" fill="#ffff18" stroke="none" /><path d="M 86.68645165197937 83.75963576809568 l -12.119851521182701 -14.784248195551125 a40.1171335613677,40.1171335613677 0 0,0 0.5363263972814146,-0.43202658109625736 l 11.86427435354604 14.99012307044078" fill="#ffd313" stroke="none" /><path d="M 86.96720088162412 83.53348406188908 l -10.941400482105973 -13.824102081787057 a38.63008913413367,38.63008913413367 0 0,0 0.5235113907346921,-0.40708562386563596 l 10.702479146736035 14.009888757273497" fill="#ffbf11" stroke="none" /><path d="M 87.25179093698888 83.31218511350988 l -14.237801772406582 -18.637739559657128 a44.45379148888197,44.45379148888197 0 0,0 0.6103865670192262,-0.4580454592460742 l 13.915762216476603 18.879404046167203" fill="#f2ff19" stroke="none" /><path d="M 87.54013794807813 83.09580414077388 l -4.3945483614549925 -5.962048849763796 a28.40662418299569,28.40662418299569 0 0,0 0.3950130329811815,-0.2859589733419104 l 4.291554318099843 6.0366085944787855" fill="#ff2d04" stroke="none" /><path d="M 87.83215693770416 82.88440491214696 l -12.71755770577623 -17.888837576559045 a42.94873080249196,42.94873080249196 0 0,0 0.6045645549082442,-0.4220330121754408 l 12.40859805969422 18.10451540453961" fill="#fff817" stroke="none" /><path d="M 88.12776184653039 82.6780497279521 l -8.875707977095194 -12.949923192328376 a36.69964021186077,36.69964021186077 0 0,0 0.5227142196605975,-0.3517054549820853 l 8.652097469337606 13.10037832136757" fill="#ffa50f" stroke="none" /><path d="M 88.4268655584334 82.4767994020092 l -11.904227636809239 -18.024517895060164 a42.60078426766762,42.60078426766762 0 0,0 0.6136833008613478,-0.397782101307029 l 11.593058703690865 18.2262138380711" fill="#fff417" stroke="none" /><path d="M 88.72937992617638 82.28071324371311 l -10.651089437140778 -16.74528169411784 a40.845658598628816,40.845658598628816 0 0,0 0.5948603610795326,-0.37123686099571196 l 10.362064947271545 16.92565435195509" fill="#ffdd14" stroke="none" /><path d="M 89.03521579738668 82.08984904055464 l -13.965733273226826 -22.811975736214336 a47.74748479480915,47.74748479480915 0 0,0 0.7027230241355945,-0.42196498512097413 l 13.572077492533797 23.048354721871235" fill="#c9ff1d" stroke="none" /><line stroke="#e1ed5e" stroke-width="0.3" x1="56.869717070023135" x2="54.33264160355391" y1="26.7553504044142" y2="22.446841604673864" /><path d="M 56.362301976729285 25.89364864446614 a86.0,86.0 0 0,1 42.16139366436587,-11.88097634709845" fill="none" id="id144" stroke="none" /><text fill="#e1ed5e" style="font-size:6.75px; font-family:Arial;" text-anchor="middle"><textPath startOffset="22.145653131862474" xlink:href="#id144">December</textPath></text><path d="M 89.34428304082924 81.90426304109057 l -4.470179937193466 -7.591342808034039 a29.80971022792334,29.80971022792334 0 0,0 0.44318171733602607,-0.2558710838038739 l 4.33920575199704 7.6669607891140865" fill="#ff4206" stroke="none" /><path d="M 89.65649057296885 81.72400993836675 l -8.55973886603202 -15.124238397941756 a38.378484300203944,38.378484300203944 0 0,0 0.5761447726380508,-0.3195777933176876 l 8.298849905237866 15.26894910669259" fill="#ffbc11" stroke="none" /><path d="M 89.97174638481275 81.54914285379989 l -9.326249609797866 -17.159248844642605 a40.52994502543782,40.52994502543782 0 0,0 0.6141467525071483,-0.3269985537566504 l 9.030314041504157 17.31681786612183" fill="#ffd914" stroke="none" /><path d="M 90.28995756902619 81.37971332152246 l -10.077285621747768 -19.32452391961634 a42.79424029926504,42.79424029926504 0 0,0 0.6542888394067431,-0.3340845433936413 l 9.744069560627441 19.494666414682815" fill="#fff617" stroke="none" /><path d="M 90.61103034731259 81.2157712731953 l -9.211843453033858 -18.42985767536036 a41.60382764772706,41.60382764772706 0 0,0 0.6415701511992588,-0.313824110441823 l 8.894113052572546 18.5852755358994" fill="#ffe715" stroke="none" /><path d="M 90.93487009805054 81.0573650232925 l -5.930409716562627 -12.3922754266331 a34.73820401856935,34.73820401856935 0 0,0 0.5401150319950725,-0.2528011069804323 l 5.716805970696032 12.492252765184075" fill="#ff890c" stroke="none" /><path d="M 91.26138138417902 80.90454125486306 l -9.786319158876394 -21.384873511556837 a44.51775622342991,44.51775622342991 0 0,0 0.697628424193888,-0.31204032066660764 l 9.417777331826887 21.54971758313329" fill="#f2ff19" stroke="none" /><path d="M 91.5904679813234 80.7573450057729 l -5.9481887935238476 -13.610620013112179 a35.85361663248155,35.85361663248155 0 0,0 0.5660857954103297,-0.24162836451854164 l 5.713667922943087 13.710723027290124" fill="#ff990e" stroke="none" /><path d="M 91.92203290615298 80.6158196554323 l -8.666234183044168 -20.79580720752644 a43.52929675617887,43.52929675617887 0 0,0 0.6922102123449213,-0.2815158672205147 l 8.307969509508805 20.941510331326246" fill="#feff18" stroke="none" /><path d="M 92.25597844496254 80.48000691201159 l -7.132556569762636 -17.978701886603844 a40.341848017917954,40.341848017917954 0 0,0 0.6459070612330691,-0.24985072694897978 l 6.822877246036038 18.098492501690863" fill="#ffd614" stroke="none" /><path d="M 92.592206182469 80.34994680014964 l -11.02615736173482 -29.248192388300676 a52.257525560235706,52.257525560235706 0 0,0 0.8421196932045479,-0.30923801591788125 l 10.522448516876144 29.43316125322728" fill="#94ff23" stroke="none" /><path d="M 92.93061703081487 80.22567764915836 l -6.454662687431342 -18.0548403168388 a40.173938804404955,40.173938804404955 0 0,0 0.6513806798627194,-0.2265840134232113 l 6.143776235523618 18.162982762830595" fill="#ffd413" stroke="none" /><path d="M 93.27111125876988 80.10723608172694 l -3.060885513827455 -9.048964137917979 a30.55263168441474,30.55263168441474 0 0,0 0.49826579318736364,-0.16378986303688572 l 2.9050969829923305 9.100174922356892" fill="#ff4d07" stroke="none" /><path d="M 93.61358852112211 79.99465700312896 l -6.7150467848415625 -21.034788412098184 a43.08062899612126,43.08062899612126 0 0,0 0.7064389588855724,-0.21885659527344448 l 6.352967193084374 21.14696159517827" fill="#fffa17" stroke="none" /><path d="M 93.95794788825049 79.88797359093562 l -7.306418974211686 -24.320692481165203 a46.3944844600186,46.3944844600186 0 0,0 0.7647136322167507,-0.22259699328240914 l 6.887845329613311 24.442533168750135" fill="#daff1c" stroke="none" /><path d="M 94.30408787586887 79.78721728523814 l -6.48774823265626 -23.022729718598853 a44.91938462473458,44.91938462473458 0 0,0 0.7439903538595983,-0.20277787932257935 l 6.0915764778619845 23.13070809206557" fill="#edff1a" stroke="none" /><path d="M 94.6519064749342 79.69241777938228 l -4.889934646960861 -18.567878334809617 a40.200978274760914,40.200978274760914 0 0,0 0.6688575722077635,-0.1700209793080247 l 4.57047178152772 18.649084545952903" fill="#ffd413" stroke="none" /><path d="M 95.00130118170881 79.60360301121753 l -6.286267556931966 -25.65011682634628 a47.40919637176694,47.40919637176694 0 0,0 0.7921125058992252,-0.1869363945816839 l 5.845022897292834 25.754249364574196" fill="#cdff1d" stroke="none" /><path d="M 95.35216902796891 79.52079915486377 l -4.667709600024479 -20.56678974792811 a42.08981634452139,42.08981634452139 0 0,0 0.7059816759113975,-0.1538654203899369 l 4.313965507493963 20.64388662645176" fill="#ffed16" stroke="none" /><path d="M 95.70440661134978 79.44403061299748 l -2.3680099305495923 -11.331784746924312 a32.576563245705,32.576563245705 0 0,0 0.5483775998418633,-0.10969087817876669 l 2.173135845176752 11.370765021765944" fill="#ff6a09" stroke="none" /><path d="M 97.48249496171623 79.15144685158666 l -2.41287155978007 -19.982037846749815 a41.12719020809754,41.12719020809754 0 0,0 0.7016378914093572,-0.07861998920901099 l 2.0694977667699135 20.020513596465797" fill="#ffe015" stroke="none" /><path d="M 97.84075906011542 79.11130261209362 l -1.361981094051692 -13.175931595302306 a34.246137773126165,34.246137773126165 0 0,0 0.5852835142453282,-0.05542695731600838 l 1.1355980164213484 13.197370308123498" fill="#ff820c" stroke="none" /><path d="M 98.1996594967304 79.07731436759882 l -1.2597935572696448 -14.640710750331964 a35.69481170623918,35.69481170623918 0 0,0 0.6109439072801378,-0.047290922302793956 l 1.0082806552142898 14.660179439629811" fill="#ff970d" stroke="none" /><path d="M 98.5590905019552 79.04949213459386 l -1.2106391787024133 -17.602427959555982 a38.64401080515333,38.64401080515333 0 0,0 0.6622031211660833,-0.039836495373939095 l 0.9082917054038463 17.620616432754616" fill="#ffbf11" stroke="none" /><path d="M 98.9189461498227 79.02784411241856 l -0.9067846228009097 -17.591379432878 a38.61473498817485,38.61473498817485 0 0,0 0.6622872763793703,-0.028441465294493196 l 0.6046715858207192 17.604353466598322" fill="#ffbf11" stroke="none" /><path d="M 99.27912038922189 79.0123766808444 l -0.555515165774725 -16.173217931318124 a37.18275549321919,37.18275549321919 0 0,0 0.6381033345675765,-0.01643527839010589 l 0.2777985171364047 16.180370927058277" fill="#ffab0f" stroke="none" /><path d="M 99.63950707515114 79.00309439819443 l -0.2588568661829056 -15.077114719797843 a36.07933669466647,36.07933669466647 0 0,0 0.619349791031754,-0.00531637306306596 l 3.693372283277705e-15 15.079336694666473" fill="#ff9c0e" stroke="none" /></svg>