<?xml version="1.0" encoding="utf-8" ?>
<svg baseProfile="full" height="200mm" version="1.1" viewBox="0,0,200,200" width="200mm" xmlns="http://www.w3.org/2000/svg" xmlns:ev="http://www.w3.org/2001/xml-events" xmlns:xlink="http://www.w3.org/1999/xlink"><defs /><rect fill="#1a1a1a" height="200" width="200" x="0" y="0" /><text alignment-baseline="middle" fill="#e1ed5e" style="dominant-baseline: central; font-size:9.0px; font-family:Arial;" text-anchor="middle" x="100.0" y="100.0">2014</text><line stroke="#e1ed5e" stroke-width="0.3" x1="100.0" x2="100.0" y1="15.0" y2="10.0" /><path d="M 100.0 14.0 a86.0,86.0 0 0,1 42.46469731375804,11.215312516191453" fill="none" id="id13" stroke="none" /><text fill="#e1ed5e" style="font-size:6.75px; font-family:Arial;" text-anchor="middle"><textPath startOffset="22.20632615414155" xlink:href="#id13">January</textPath></text><line stroke="#e1ed5e" stroke-width="0.3" x1="143.23703022742887" x2="145.7803849466894" y1="26.81831364943548" y2="22.513508569990506" /><path d="M 143.74570117128098 25.957352633546492 a86.0,86.0 0 0,1 28.547481713284135,27.462654790039103" fill="none" id="id14" stroke="none" /><text fill="#e1ed5e" style="font-size:6.75px; font-family:Arial;" text-anchor="middle"><textPath startOffset="19.985693538727396" xlink:href="#id14">February</textPath></text><path d="M 117.65298651832404 88.62581576622439 l 5.40668815940028 -3.483640978015678 a27.431798451188378,27.431798451188378 0 0,0 0.25233649743392994,0.39913574019954307 l -5.465852253080166 3.3900575901019288" fill="#ff1d02" stroke="none" /><line stroke="#e1ed5e" stroke-width="0.3" x1="172.23445277983987" x2="176.4835382374775" y1="55.19839476539836" y2="52.563006222186495" /><path d="M 173.08426987136738 54.67131705675599 a86.0,86.0 0 0,1 12.851231095245387,41.99856678651699" fill="none" id="id15" stroke="none" /><text fill="#e1ed5e" style="font-size:6.75px; font-family:Arial;" text-anchor="middle"><textPath startOffset="22.20632615414155" xlink:href="#id15">March</textPath></text><path d="M 119.196687751892 91.48605970444005 l 9.341074238204005 -4.142868258750713 a31.2185627821628,31.2185627821628 0 0,0 0.21363797605506293,0.4931059037914403 l -9.41100292410175 3.9814632103726706" fill="#ff5607" stroke="none" /><path d="M 119.61058180528143 92.48833698450437 l 8.47956494629105 -3.2480236959310154 a30.080345786791234,30.080345786791234 0 0,0 0.18104846113023243,0.4851198641973032 l -8.534217995922909 3.101580694704379" fill="#ff4506" stroke="none" /><path d="M 119.85752413597 93.16781622104841 l 8.609317814506907 -2.9621236321987094 a30.104643301284025,30.104643301284025 0 0,0 0.16437523195051335,0.491461021457607 l -8.65903034022919 2.8134895078187885" fill="#ff4506" stroke="none" /><path d="M 120.18372546131832 94.20196356495316 l 6.629371433820906 -1.9043727674762871 a27.897477890146945,27.897477890146945 0 0,0 0.12861166321898138,0.4626845815360899 l -6.661169867606251 1.7899768825212454" fill="#ff2403" stroke="none" /><path d="M 120.37134235888165 94.90015583598534 l 17.00621424169232 -4.257404393121134 a38.53102435686249,38.53102435686249 0 0,0 0.1555317637053997,0.6447795713472673 l -17.07697880565854 3.9640395901144605" fill="#ffbd11" stroke="none" /><path d="M 120.53481517161879 95.60439243477599 l 8.783864480921297 -1.88024196183678 a29.98284949524607,29.98284949524607 0 0,0 0.10368455432473568,0.5056027097073902 l -8.81492833116103 1.7287635959659782" fill="#ff4306" stroke="none" /><line stroke="#e1ed5e" stroke-width="0.3" x1="184.98032266829074" x2="189.97916517819016" y1="98.17113171792111" y2="98.06355123074" /><path d="M 185.9800911702706 98.14961562048488 a86.0,86.0 0 0,1 -9.607161424134198,41.387399972396054" fill="none" id="id16" stroke="none" /><text fill="#e1ed5e" style="font-size:6.75px; font-family:Arial;" text-anchor="middle"><textPath startOffset="21.466115282336823" xlink:href="#id16">April</textPath></text><path d="M 120.41448212921028 104.9243191809786 l 15.489787362383383 3.7363993137363574 a36.934057623955724,36.934057623955724 0 0,0 -0.15439963697893144,0.6167497993720779 l -15.423176411109392 -4.002476952505831" fill="#ffa70f" stroke="none" /><path d="M 120.02730092923936 106.31721596034902 l 8.628142579872979 2.7215769217390338 a30.047199860706055,30.047199860706055 0 0,0 -0.1598335742716386,0.4919171602237038 l -8.580016754585094 -2.869692981940533" fill="#ff4406" stroke="none" /><path d="M 119.9155931802556 106.66101706037122 l 8.608536299545095 2.8792316973487657 a30.077272298857373,30.077272298857373 0 0,0 -0.16844585726489517,0.4895825089697848 l -8.55769961133697 -3.0269869094078508" fill="#ff4506" stroke="none" /><path d="M 119.54520255179757 107.68017299344265 l 8.450098613345988 3.3204168127783533 a30.079060214904015,30.079060214904015 0 0,0 -0.19350487622038132,0.48026323355959016 l -8.391691122868213 -3.4653794141807572" fill="#ff4506" stroke="none" /><path d="M 119.12269723197855 108.67885076344098 l 14.878953530319562 6.752824438901399 a37.33964185837722,37.33964185837722 0 0,0 -0.2706686328073783,0.5829961552551087 l -14.760510280672353 -7.007940661435339" fill="#ffad10" stroke="none" /><path d="M 118.81262510543309 109.33194174019688 l 9.282872739441611 4.604738950605727 a31.362207636401315,31.362207636401315 0 0,0 -0.24405969954190163,0.4815529411458668 l -9.202234370113441 -4.763846103454288" fill="#ff5808" stroke="none" /><line stroke="#e1ed5e" stroke-width="0.3" x1="174.80103733775053" x2="179.2010983576182" y1="140.37084112569926" y2="142.7455964860345" /><path d="M 175.68104954172406 140.8457921977663 a86.0,86.0 0 0,1 -30.038265399797805,32.042727171017184" fill="none" id="id17" stroke="none" /><text fill="#e1ed5e" style="font-size:6.75px; font-family:Arial;" text-anchor="middle"><textPath startOffset="22.206326154141568" xlink:href="#id17">May</textPath></text><path d="M 118.30583269289576 110.29060199501025 l 19.289743566409264 10.843706317973915 a43.128718299266566,43.128718299266566 0 0,0 -0.36936256641092535,0.6440147682008246 l -19.10022900384596 -11.174140932033055" fill="#fffa17" stroke="none" /><path d="M 117.94076556474637 110.91462005526583 l 7.8401098523432955 4.769686105147156 a30.176994499205296,30.176994499205296 0 0,0 -0.2737992628878087,0.44145159135837275 l -7.756845949787524 -4.903934027870802" fill="#ff4606" stroke="none" /><path d="M 117.55443506779139 111.5257021239791 l 5.833414669133754 3.8300406468474772 a27.97839079290983,27.97839079290983 0 0,0 -0.26778903166572143,0.4003082682473109 l -5.766622532057312 -3.9298858293005954" fill="#ff2503" stroke="none" /><path d="M 116.498646956653 112.99209946851258 l 25.34413491719127 19.957607593680503 a53.25881702053142,53.25881702053142 0 0,0 -0.5733745025471536,0.7153728522876597 l -24.996842502589264 -20.390908279546412" fill="#89ff25" stroke="none" /><path d="M 116.0416608686014 113.55231037782055 l 11.322283465713461 9.565287595210995 a35.82190371231259,35.82190371231259 0 0,0 -0.40198571101146613,0.4676001980559789 l -11.155955245131215 -9.758764892428502" fill="#ff980e" stroke="none" /><path d="M 115.56566222782051 114.09645910891815 l 10.642653240748578 9.638120371805972 a35.35825310768122,35.35825310768122 0 0,0 -0.41243481455823533,0.4476165343378027 l -10.47517201819462 -9.819888160945109" fill="#ff910d" stroke="none" /><path d="M 114.81725581225074 114.88116024355365 l 19.335845085876898 19.419237462956097 a48.40404511796949,48.40404511796949 0 0,0 -0.5954851124491248,0.5828075155337984 l -18.998710021051977 -19.74919508141247" fill="#c2ff1e" stroke="none" /><path d="M 112.63410532772338 116.77436683061366 l 8.802375547735044 11.686959431510322 a35.63102306871026,35.63102306871026 0 0,0 -0.4930909915776215,0.36477692742840434 l -8.599899585738859 -11.836746307678496" fill="#ff950d" stroke="none" /><path d="M 112.04921762599082 117.19931262002967 l 8.444591787699073 12.053992102514478 a35.71767155729316,35.71767155729316 0 0,0 -0.5065839319352774,0.34843304766399547 l -8.235850971140913 -12.197565939543567" fill="#ff960d" stroke="none" /><path d="M 111.45004920935366 117.60387380957326 l 9.07008016192483 13.944791301228955 a37.635010026404345,37.635010026404345 0 0,0 -0.5460986873900779,0.3485460200574728 l -8.828699672487822 -14.098851750110237" fill="#ffb110" stroke="none" /><line stroke="#e1ed5e" stroke-width="0.3" x1="143.8653032363475" x2="146.44561519142675" y1="172.8068346515853" y2="177.08958963109032" /><path d="M 144.38136562736335 173.6633856474863 a86.0,86.0 0 0,1 -40.68145358897372,12.25698825130547" fill="none" id="id18" stroke="none" /><text fill="#e1ed5e" style="font-size:6.75px; font-family:Arial;" text-anchor="middle"><textPath startOffset="21.466115282336833" xlink:href="#id18">June</textPath></text><path d="M 110.5260780823613 118.17145234162733 l 14.739320961108241 25.444887098219613 a50.40560936004741,50.40560936004741 0 0,0 -0.7545269264961548,0.4284400808076717 l -14.299145267690887 -25.694830344821913" fill="#aaff21" stroke="none" /><path d="M 109.89434966115114 118.52300852407294 l 6.970769901196006 13.049834978662199 a35.794925683684106,35.794925683684106 0 0,0 -0.5459733495177151,0.28562745217360125 l -6.745105649151795 -13.167891849780517" fill="#ff970e" stroke="none" /><path d="M 108.59647513512805 119.15986991738527 l 12.105270356002627 26.98029153693768 a50.571501514296955,50.571501514296955 0 0,0 -0.7972942191856104,0.34951035537369796 l -11.639055462159263 -27.18466644560583" fill="#a8ff21" stroke="none" /><path d="M 107.59598834532513 119.57807347666477 l 5.351197103676969 13.792297370806349 a35.79401153193928,35.79401153193928 0 0,0 -0.5763343436856575,0.21792033381247006 l -5.112992539231037 -13.882365954725449" fill="#ff970d" stroke="none" /><path d="M 105.18746579009965 120.34920634021253 l 3.9925481717162308 15.661825996915363 a37.162711234849446,37.162711234849446 0 0,0 -0.6212308432871649,0.1526834268086606 l -3.7223640436858547 -15.728230682038053" fill="#ffaa0f" stroke="none" /><path d="M 104.48393922423573 120.51570834832081 l 4.057745698849675 18.5657126794448 a40.00397293863129,40.00397293863129 0 0,0 -0.6739879620207546,0.14124073050365732 l -3.737566275399542 -18.632809390675" fill="#ffd113" stroke="none" /><path d="M 103.7750983002368 120.6578951692458 l 3.9631243958616156 21.686801720435785 a43.045945746067915,43.045945746067915 0 0,0 -0.7300408500676392,0.1269269595001987 l -3.5892345743219263 -21.75180725845699" fill="#fff917" stroke="none" /><path d="M 102.70371172650421 120.8252237178851 l 1.9771225132704027 15.228701437693486 a36.35650874746237,36.35650874746237 0 0,0 -0.621302570621755,0.07523108881014912 l -1.7146925195972673 -15.260478055228987" fill="#ff9f0e" stroke="none" /><path d="M 100.90346689309514 120.98055641714683 l 0.6316842270257185 14.66914467394791 a35.682739200431485,35.682739200431485 0 0,0 -0.6138784509341422,0.021143215075242573 l -0.37908542441692406 -14.677844687449246" fill="#ff960d" stroke="none" /><line stroke="#e1ed5e" stroke-width="0.3" x1="102.19456741930631" x2="102.32365962044197" y1="184.97166512339345" y2="189.96999836594603" /><path d="M 102.22038585953345 185.97133177190398 a86.0,86.0 0 0,1 -42.740103519485714,-10.115201625700543" fill="none" id="id19" stroke="none" /><text fill="#e1ed5e" style="font-size:6.75px; font-family:Arial;" text-anchor="middle"><textPath startOffset="22.20632615414155" xlink:href="#id19">July</textPath></text><path d="M 96.22490169976321 120.6578951692458 l -2.7731270017385 15.174960315424237 a36.42626506781443,36.42626506781443 0 0,0 -0.6158335132985663,-0.11802595851978195 l 3.0339281296087615 -15.124977158555987" fill="#ffa00e" stroke="none" /><path d="M 94.81253420990036 120.34920634021253 l -3.836953317130273 15.051464034145875 a36.53282911542594,36.53282911542594 0 0,0 -0.6080272822369549,-0.16058553151275218 l 4.095471042178717 -14.98318715332954" fill="#ffa20e" stroke="none" /><path d="M 93.42475214034765 119.94407469862007 l -5.397364292685946 16.371312371285214 a38.23808023145726,38.23808023145726 0 0,0 -0.6233358198858358,-0.21146935356339877 l 5.678369845509008 -16.275980030823693" fill="#ffb911" stroke="none" /><path d="M 91.07499286063937 119.00905698771935 l -6.254083851747225 13.320351960228786 a35.71547964454629,35.71547964454629 0 0,0 -0.5542486844025168,-0.2660730501502951 l 6.482445204149984 -13.210724633578929" fill="#ff960d" stroke="none" /><line stroke="#e1ed5e" stroke-width="0.3" x1="58.666819895761336" x2="56.23545636021788" y1="174.27360380694188" y2="178.64263932499728" /><path d="M 58.180547188652646 175.14741091055294 a86.0,86.0 0 0,1 -31.652253787137756,-30.449443065178592" fill="none" id="id20" stroke="none" /><text fill="#e1ed5e" style="font-size:6.75px; font-family:Arial;" text-anchor="middle"><textPath startOffset="22.20632615414155" xlink:href="#id20">August</textPath></text><path d="M 89.7882731507175 118.34994917583269 l -4.253719094374508 7.643714950672197 a29.747599921177006,29.747599921177006 0 0,0 -0.44529498649317095,-0.25285011481609126 l 4.384662847788886 -7.569361670061473" fill="#ff4006" stroke="none" /><path d="M 89.1626897886671 117.98757091392108 l -7.573935452892078 12.571080683276035 a35.67639491803118,35.67639491803118 0 0,0 -0.5232891288658513,-0.3214469228798542 l 7.789203781690238 -12.438845293567804" fill="#ff960d" stroke="none" /><path d="M 88.24862548938628 117.40417183066458 l -8.320736850303877 12.323284716152623 a35.86936474525276,35.86936474525276 0 0,0 -0.5087353972535215,-0.34991284512798815 l 8.531629132180289 -12.178231081659533" fill="#ff980e" stroke="none" /><path d="M 87.65650970185807 116.9893568818739 l -8.636785623782025 11.88751558355893 a35.693777344866916,35.693777344866916 0 0,0 -0.4939594361405561,-0.3654193819544901 l 8.840130030341145 -11.737086252864673" fill="#ff960d" stroke="none" /><path d="M 86.79598089348748 116.32954008644616 l -6.504096213607436 8.043679654615213 a31.34427619226852,31.34427619226852 0 0,0 -0.41662494211465156,-0.3428539636787019 l 6.641591284266776 -7.930530572079331" fill="#ff5708" stroke="none" /><path d="M 86.51685102203217 116.09983520530335 l -9.448199870627745 11.281820081676617 a35.71556812191265,35.71556812191265 0 0,0 -0.46793265780962423,-0.3987823625675802 l 9.640998005014426 -11.117513328886085" fill="#ff960d" stroke="none" /><path d="M 85.18274418774928 114.88116024355367 l -13.39221089563221 13.449969338357265 a39.9803316060558,39.9803316060558 0 0,0 -0.4834942868926876,-0.489777159974435 l 13.621745807580432 -13.217451684402164" fill="#ffd113" stroke="none" /><path d="M 84.67929136418377 114.36230785411682 l -10.730860321581396 10.059581651320144 a35.70872347421308,35.70872347421308 0 0,0 -0.4165228609950346,-0.45205330134596833 l 10.90242959057216 -9.873377095172833" fill="#ff960d" stroke="none" /><line stroke="#e1ed5e" stroke-width="0.3" x1="26.63291911575756" x2="22.317208475507996" y1="142.92168965132927" y2="145.44649492493687" /><path d="M 25.769776987707644 143.4266507060508 a86.0,86.0 0 0,1 -11.730757126820373,-40.83630448921669" fill="none" id="id21" stroke="none" /><text fill="#e1ed5e" style="font-size:6.75px; font-family:Arial;" text-anchor="middle"><textPath startOffset="21.46611528233685" xlink:href="#id21">September</textPath></text><path d="M 80.73074385275274 108.34839909993369 l -7.453297867109639 3.2291389314581704 a29.122745061524455,29.122745061524455 0 0,0 -0.19532905080487228,-0.4617001768338838 l 7.507777899106818 -3.1003642289581275" fill="#ff3705" stroke="none" /><path d="M 79.97269907076064 106.31721596034903 l -35.00951838290412 11.043060124478513 a57.709883605314644,57.709883605314644 0 0,0 -0.29067431653474685,-0.949940484738955 l 35.194419471945 -10.438792667187512" fill="#57ff2a" stroke="none" /><path d="M 79.58551787078972 104.9243191809786 l -14.230618440871096 3.432666422887122 a35.63877385509036,35.63877385509036 0 0,0 -0.13871872408781016,-0.5975966327639761 l 14.28759773088946 -3.1872011327745717" fill="#ff950d" stroke="none" /><path d="M 79.35854240842038 103.8639653848113 l -18.17116362754321 3.401540174527755 a39.486796995095595,39.486796995095595 0 0,0 -0.1193132261890023,-0.6691719354361241 l 18.227023296071398 -3.0882494883584175" fill="#ffca12" stroke="none" /><path d="M 79.29508885075956 103.50808413554451 l -16.18769677744671 2.74272136917859 a37.418405752919725,37.418405752919725 0 0,0 -0.10213130344546399,-0.6359717240468568 l 16.232509835253467 -2.4636704154385196" fill="#ffae10" stroke="none" /><path d="M 79.18660465613746 102.79330883721812 l -14.579184443719395 1.9566324510375057 a35.70989563499492,35.70989563499492 0 0,0 -0.07651863850130179,-0.6099288362153449 l 14.610704591467545 -1.705385860534752" fill="#ff960d" stroke="none" /><path d="M 79.07016306316243 101.71520430193888 l -62.338952938100334 5.108689598512991 a83.54793172306054,83.54793172306054 0 0,0 -0.10512494631430506,-1.4343463702998958 l 62.41765444307897 -4.034870091716335" fill="#4cd6ff" stroke="none" /><path d="M 79.0235259727143 100.99374915477108 l -13.079143515358108 0.6196173769056734 a34.093812309220624,34.093812309220624 0 0,0 -0.022725745490503,-0.5864505115297504 l 13.087871393699812 -0.3943896183619263" fill="#ff7f0b" stroke="none" /><line stroke="#e1ed5e" stroke-width="0.3" x1="15.007084014347285" x2="10.007500721073583" y1="101.09737516637583" y2="101.16192664675087" /><path d="M 14.007167355692545 101.11028546245083 a86.0,86.0 0 0,1 10.666146001902534,-42.60595125391555" fill="none" id="id22" stroke="none" /><text fill="#e1ed5e" style="font-size:6.75px; font-family:Arial;" text-anchor="middle"><textPath startOffset="22.20632615414155" xlink:href="#id22">October</textPath></text><path d="M 79.00019446554 99.90962569577889 l -31.305665521661272 -0.1347263780636721 a52.30595542306731,52.30595542306731 0 0,0 0.011624358174311561,-0.9003193510925742 l 31.298708156369244 0.6735819872167182" fill="#94ff23" stroke="none" /><path d="M 79.01574976396665 99.18683210126434 l -8.044788372161843 -0.3117463613320146 a29.050826401474207,29.050826401474207 0 0,0 0.023664515122106378,-0.49952051223787586 l 8.038230248806236 0.4501779801928995" fill="#ff3505" stroke="none" /><path d="M 79.08570108090925 98.10471618934814 l -14.996568642640648 -1.3590105924029579 a36.058020482244544,36.058020482244544 0 0,0 0.061337911134992665,-0.617664394372581 l 14.970953605823427 1.6169505174799692" fill="#ff9b0e" stroke="none" /><path d="M 79.26566170972629 96.67025291283419 l -14.572896827825508 -2.3402753482990124 a35.759614177216925,35.759614177216925 0 0,0 0.10283126347224628,-0.6069159379572815 l 14.53045370283304 2.590777074572122" fill="#ff970d" stroke="none" /><path d="M 79.81627453868168 94.20196356495316 l -14.09177410762305 -4.048044542967718 a35.66167664771414,35.66167664771414 0 0,0 0.17456238373781738,-0.5885375783545196 l 14.020005826773524 4.290011508068776" fill="#ff950d" stroke="none" /><path d="M 79.91906864156998 93.8553929516997 l -60.24279407529007 -18.433821144900918 a84.0,84.0 0 0,0 0.4349780649271846,-1.378999334294342 l 59.91656052659468 19.468070645621676" fill="#4dd2ff" stroke="none" /><path d="M 80.803312248108 91.48605970444005 l -13.458508712547527 -5.9689953353858956 a35.72278377480211,35.72278377480211 0 0,0 0.2541381489321243,-0.5599597238837343 l 13.35376824665205 6.199777068111701" fill="#ff960d" stroke="none" /><line stroke="#e1ed5e" stroke-width="0.3" x1="26.266209847984243" x2="21.928928074336255" y1="57.711370442889674" y2="55.22380399835377" /><path d="M 25.398753493254645 57.213857153982495 a86.0,86.0 0 0,1 29.58750427330803,-30.492523968695096" fill="none" id="id23" stroke="none" /><text fill="#e1ed5e" style="font-size:6.75px; font-family:Arial;" text-anchor="middle"><textPath startOffset="21.46611528233685" xlink:href="#id23">November</textPath></text><path d="M 81.78341655067845 89.55222093294921 l -12.93331200345543 -7.41765802535112 a35.909467125279164,35.909467125279164 0 0,0 0.31213932469741057,-0.5335472873565813 l 12.803713004287694 7.639184725061592" fill="#ff990e" stroke="none" /><path d="M 81.96595687620814 89.24020034530311 l -10.682228817929845 -6.373426145073318 a33.439074456940716,33.439074456940716 0 0,0 0.29917494335190764,-0.4917649441157828 l 10.570938076291721 6.556358862396175" fill="#ff760a" stroke="none" /><path d="M 83.17141714833178 87.43820079747576 l -13.30647672768142 -9.932701417554352 a37.604845086739395,37.604845086739395 0 0,0 0.3916706849816721,-0.5153927103142465 l 13.133530102475639 10.160278903749624" fill="#ffb010" stroke="none" /><path d="M 83.6137871275137 86.86637796730984 l -11.507294267561598 -9.223147209497023 a35.74734775504764,35.74734775504764 0 0,0 0.38896775553799856,-0.476828476224468 l 11.346828019947207 9.419859855329573" fill="#ff970d" stroke="none" /><path d="M 84.31358615837235 86.03803664274999 l -10.933241403065557 -9.731320197639949 a35.6367469188581,35.6367469188581 0 0,0 0.4117849175055944,-0.4547031908422984 l 10.764112844943917 9.918076175751803" fill="#ff950d" stroke="none" /><path d="M 84.80347519578584 85.50635884689758 l -3.290027231189729 -3.1378538637712503 a25.54647182465196,25.54647182465196 0 0,0 0.30623618545553816,-0.3156033080326039 l 3.235526782031072 3.1940213673539777" fill="#ff0000" stroke="none" /><path d="M 85.05521093208273 85.24692304244772 l -20.851994940719255 -20.5845050526226 a50.300640628990124,50.300640628990124 0 0,0 0.6135820646569901,-0.6109471482756149 l 20.494577075894952 20.940388051548325" fill="#abff21" stroke="none" /><path d="M 85.57189188830299 84.74124197986013 l -9.383433376638854 -9.92365306551585 a34.6575148580751,34.6575148580751 0 0,0 0.43700174769909156,-0.4061454983153356 l 9.211223745144906 10.083703149905833" fill="#ff870c" stroke="none" /><path d="M 86.65592168130627 83.78471172551755 l -10.261588214606718 -12.469546946586581 a37.14898739052335,37.14898739052335 0 0,0 0.4972597191545876,-0.4020827774608341 l 10.04542509688763 12.64433582131155" fill="#ffaa0f" stroke="none" /><path d="M 86.93701828274178 83.55741782278169 l -7.767501674785947 -9.777077497598713 a33.48700631303811,33.48700631303811 0 0,0 0.45441460116126914,-0.35467780401133703 l 7.598054518465252 9.909333690833272" fill="#ff770a" stroke="none" /><line stroke="#e1ed5e" stroke-width="0.3" x1="56.762969772571076" x2="54.21961505331055" y1="26.818313649435495" y2="22.513508569990535" /><path d="M 56.25429882871897 25.957352633546506 a86.0,86.0 0 0,1 42.265352541879196,-11.944610805530505" fill="none" id="id24" stroke="none" /><text fill="#e1ed5e" style="font-size:6.75px; font-family:Arial;" text-anchor="middle"><textPath startOffset="22.20632615414155" xlink:href="#id24">December</textPath></text><path d="M 89.63071344664047 81.73862282372117 l -5.094418081026746 -8.971792764386771 a31.317274882031352,31.317274882031352 0 0,0 0.4710653681496571,-0.26214736736363325 l 4.939228623805044 9.058155529310588" fill="#ff5708" stroke="none" /><path d="M 90.58718382345135 81.22770947309562 l -6.604599173552013 -13.171770506744513 a35.734865745083276,35.734865745083276 0 0,0 0.5522376525621145,-0.2709806177704356 l 6.3768902539794725 13.283506284649778" fill="#ff960d" stroke="none" /><path d="M 91.56875222667455 80.76684994638697 l -5.883227822414219 -13.420671121310662 a35.653558713050245,35.653558713050245 0 0,0 0.5642026977582605,-0.24156215064282416 l 5.65134136686565 13.519952799916272" fill="#ff950d" stroke="none" /><path d="M 93.25333710446033 80.11325718540243 l -5.197349246478174 -15.319921772093561 a37.177528930369235,37.177528930369235 0 0,0 0.6077944908750259,-0.20038028766062294 l 4.9328719333607385 15.407115784013419" fill="#ffaa0f" stroke="none" /><path d="M 96.04723909329186 79.375362276772 l -4.145548253117963 -21.630559728421183 a43.02422948672043,43.02422948672043 0 0,0 0.7285536150603117,-0.1331385163547614 l 3.7725995169547577 21.69871372612668" fill="#fff917" stroke="none" /><path d="M 97.47563105711357 79.15227682838746 l -1.9538926072056073 -16.136394126092465 a37.254258264008364,37.254258264008364 0 0,0 0.6372842859276217,-0.07160631495175115 l 1.6758416177682676 16.167636394514815" fill="#ffac0f" stroke="none" /></svg>