<?xml version="1.0" encoding="utf-8" ?>
<svg baseProfile="full" height="200mm" version="1.1" viewBox="0,0,200,200" width="200mm" xmlns="http://www.w3.org/2000/svg" xmlns:ev="http://www.w3.org/2001/xml-events" xmlns:xlink="http://www.w3.org/1999/xlink"><defs /><rect fill="#1a1a1a" height="200" width="200" x="0" y="0" /><text alignment-baseline="middle" fill="#e1ed5e" style="dominant-baseline: central; font-size:9.0px; font-family:Arial;" text-anchor="middle" x="100.0" y="100.0">2015</text><line stroke="#e1ed5e" stroke-width="0.3" x1="100.0" x2="100.0" y1="15.0" y2="10.0" /><path d="M 100.0 14.0 a86.0,86.0 0 0,1 42.46469731375804,11.215312516191453" fill="none" id="id25" stroke="none" /><text fill="#e1ed5e" style="font-size:6.75px; font-family:Arial;" text-anchor="middle"><textPath startOffset="22.20632615414155" xlink:href="#id25">January</textPath></text><path d="M 100.36148047927253 79.00311137660856 l 0.2554673234206465 -14.83902795407986 a35.841226841986455,35.841226841986455 0 0,0 0.6167649877444127,0.01592921999948088 l -0.510858946359927 14.83243194193802" fill="#ffa90f" stroke="none" /><path d="M 101.80526077348638 79.07773832637324 l 0.5957272377490982 -6.904244160926793 a27.929897428929802,27.929897428929802 0 0,0 0.47863182321993464,0.04545185887526667 l -0.714484188059277 6.892966757536349" fill="#ff3a05" stroke="none" /><path d="M 105.36241919743992 79.69619591428918 l 3.166642289651949 -11.989902745632971 a33.401023798072046,33.401023798072046 0 0,0 0.554619404784609,0.15159843419702548 l -3.372559583660269 11.933617770609652" fill="#ff870c" stroke="none" /><path d="M 106.40334571778207 80.00007090966166 l 3.788580625715736 -11.833086515526972 a33.42478489316797,33.42478489316797 0 0,0 0.5464429912703194,0.1801536628330393 l -3.991706439228473 11.766119128434697" fill="#ff880c" stroke="none" /><path d="M 107.08798089147638 80.2323363322302 l 4.18480474407499 -11.670998266324474 a33.39858021220903,33.39858021220903 0 0,0 0.539494700099219,0.19870045102960682 l -4.385081769946785 11.597234547488542" fill="#ff870c" stroke="none" /><path d="M 110.05341064243156 81.56283822128135 l 5.9237458641048395 -10.863682457329801 a33.373777175793755,33.373777175793755 0 0,0 0.5019986793576561,0.2793617215600975 l -6.10986863253453 10.760105338209524" fill="#ff870c" stroke="none" /><line stroke="#e1ed5e" stroke-width="0.3" x1="143.23703022742887" x2="145.7803849466894" y1="26.81831364943548" y2="22.513508569990506" /><path d="M 143.74570117128098 25.957352633546492 a86.0,86.0 0 0,1 28.547481713284135,27.462654790039103" fill="none" id="id26" stroke="none" /><text fill="#e1ed5e" style="font-size:6.75px; font-family:Arial;" text-anchor="middle"><textPath startOffset="19.985693538727396" xlink:href="#id26">February</textPath></text><path d="M 110.68208982089419 81.91981866633111 l 6.32062038848037 -10.698090418738268 a33.42575473372838,33.42575473372838 0 0,0 0.4928515062317942,0.29693751795151396 l -6.503833960929803 10.58770629132814" fill="#ff880c" stroke="none" /><path d="M 111.90073688211348 82.69761687909136 l 2.845248404847388 -4.136683170334988 a26.020715699680608,26.020715699680608 0 0,0 0.36685350687724955,0.2570043256306754 l -2.9160330513082884 4.087094001940377" fill="#ff1e03" stroke="none" /><path d="M 112.48926042617603 83.11751280151076 l 12.501367345077904 -16.898852851570325 a42.02035711389335,42.02035711389335 0 0,0 0.5777876065277618,0.4351776464434169 l -12.79040110536405 16.68115861562106" fill="#fff917" stroke="none" /><path d="M 113.6212207817346 84.01681056812373 l 8.016682008539437 -9.406803487791572 a33.35941512709916,33.35941512709916 0 0,0 0.43384110212989163,0.3762227286258309 l -8.177416909316094 9.267415765746069" fill="#ff870c" stroke="none" /><path d="M 114.94478906791727 85.2469230424477 l 15.082303183108873 -14.888827038396645 a42.193230992147164,42.193230992147164 0 0,0 0.5057878128834745,0.5212588011803594 l -15.336355259695457 14.627004041666172" fill="#fffc17" stroke="none" /><path d="M 116.15771136456269 86.58626213691792 l 10.415789929217421 -8.64693474187667 a34.53728777413928,34.53728777413928 0 0,0 0.37580106361818255,0.46068766877795286 l -10.563089484912012 8.466362903490616" fill="#ff970d" stroke="none" /><path d="M 116.60985879189232 87.15038557335679 l 9.771870162256123 -7.559652696957415 a33.354666946810305,33.354666946810305 0 0,0 0.34740324605137723,0.4571419496528424 l -9.900549348531614 7.390325971423539" fill="#ff870c" stroke="none" /><path d="M 117.2510076193507 88.02491185347247 l 10.168619567691263 -7.058724819935519 a33.378465979110956,33.378465979110956 0 0,0 0.32357328794550083,0.4748038732134054 l -10.288617321305496 6.882642923451708" fill="#ff870c" stroke="none" /><line stroke="#e1ed5e" stroke-width="0.3" x1="172.23445277983987" x2="176.4835382374775" y1="55.19839476539836" y2="52.563006222186495" /><path d="M 173.08426987136738 54.67131705675599 a86.0,86.0 0 0,1 12.851231095245387,41.99856678651699" fill="none" id="id27" stroke="none" /><text fill="#e1ed5e" style="font-size:6.75px; font-family:Arial;" text-anchor="middle"><textPath startOffset="22.20632615414155" xlink:href="#id27">March</textPath></text><path d="M 119.34039704204932 91.81776055985345 l 8.859746711901282 -3.7482461615558424 a30.620003174981996,30.620003174981996 0 0,0 0.20118554217253787,0.487186748264861 l -8.922953940960017 3.595184842837678" fill="#ff6008" stroke="none" /><path d="M 119.47837535516314 92.15188598940014 l 8.912186601504628 -3.590846528882026 a30.608394705361697,30.608394705361697 0 0,0 0.192696533705506,0.49039165986483557 l -8.972676685091834 3.4369058641214063" fill="#ff6008" stroke="none" /><path d="M 119.97218684219823 93.5106431181261 l 11.698773841125565 -3.80116204275599 a33.300818763850344,33.300818763850344 0 0,0 0.17244197269512132,0.5466881774619707 l -11.762471297588894 3.5992236988676" fill="#ff860c" stroke="none" /><path d="M 120.53481517161879 95.60439243477599 l 14.752412436163366 -3.1578475466060243 a36.086605775132895,36.086605775132895 0 0,0 0.1247921294965757,0.6085307424480272 l -14.804583861574939 2.9034411479945854" fill="#ffac0f" stroke="none" /><path d="M 120.67395015179393 96.31383870115 l 9.43559837788186 -1.682365359143609 a30.584407647337063,30.584407647337063 0 0,0 0.08794930687282573,0.5190817876882238 l -9.463159546274907 1.5196977831395473" fill="#ff6008" stroke="none" /><path d="M 120.78858239683441 97.02765380044208 l 11.010036410892635 -1.5742121929340533 a32.122007273759706,32.122007273759706 0 0,0 0.07355022038169783,0.5480345724882637 l -11.03550263033217 1.3844592783811254" fill="#ff760a" stroke="none" /><line stroke="#e1ed5e" stroke-width="0.3" x1="184.98032266829074" x2="189.97916517819016" y1="98.17113171792111" y2="98.06355123074" /><path d="M 185.9800911702706 98.14961562048488 a86.0,86.0 0 0,1 -9.607161424134198,41.387399972396054" fill="none" id="id28" stroke="none" /><text fill="#e1ed5e" style="font-size:6.75px; font-family:Arial;" text-anchor="middle"><textPath startOffset="21.466115282336823" xlink:href="#id28">April</textPath></text><path d="M 120.99980553446 99.90962569577887 l 12.349723929663172 -0.05314800204386986 a33.34983829242377,33.34983829242377 0 0,0 -0.002470592086959993,0.5740785926738574 l -12.348809040286708 -0.1594400688336722" fill="#ff870c" stroke="none" /><path d="M 120.9904718944345 100.63252640178507 l 37.71015078098086 1.1363568243832898 a58.727268371254155,58.727268371254155 0 0,0 -0.03914554765107391,1.0101726455434146 l -37.68500310047858 -1.7853067169407104" fill="#45ff2d" stroke="none" /><path d="M 120.9764740272857 100.99374915477107 l 7.564519727119932 0.3583650462559261 a28.573003645077996,28.573003645077996 0 0,0 -0.02750307951290252,0.49108596022665213 l -7.5572302967195 -0.48852272281800146" fill="#ff4306" stroke="none" /><path d="M 120.95626037817324 101.35467743843564 l 29.533029748420972 1.9091063179623458 a50.59467068670307,50.59467068670307 0 0,0 -0.06366120537082155,0.8686065682217075 l -29.495791984385814 -2.4171860226808235" fill="#9eff22" stroke="none" /><path d="M 120.92983693683757 101.71520430193887 l 22.052644198629867 1.8072185804775038 a43.12657124700948,43.12657124700948 0 0,0 -0.06700103800567422,0.7393508712861664 l -22.018268564347117 -2.1865508403122407" fill="#f7ff19" stroke="none" /><path d="M 120.64145759157962 103.86396538481128 l 12.563827421281216 2.3518782063325356 a33.782061280136304,33.782061280136304 0 0,0 -0.11191525083234784,0.5706534528798972 l -12.521482237473203 -2.5677953862803777" fill="#ff8d0d" stroke="none" /><path d="M 120.23288151984713 105.62410040840565 l 24.487085332583693 6.806634363205064 a46.415499590596276,46.415499590596276 0 0,0 -0.220600410559607,0.767938969212991 l -24.366292285137988 -7.227130807922637" fill="#cfff1d" stroke="none" /><path d="M 120.02730092923936 106.31721596034902 l 9.00232916259992 2.839606678265036 a30.439560182500262,30.439560182500262 0 0,0 -0.16192070228774202,0.49834067975884255 l -8.952116209295932 -2.9941462580016736" fill="#ff5e08" stroke="none" /><path d="M 119.79798401119884 107.00284435728193 l 5.7545113974310595 2.035457127635817 a27.10389114758835,27.10389114758835 0 0,0 -0.15936538043249357,0.43850508224281726 l -5.71862175599334 -2.1342100068847656" fill="#ff2e04" stroke="none" /><path d="M 119.41010516605496 108.01547362559984 l 21.015841520098448 8.67856830156332 a43.737263304162035,43.737263304162035 0 0,0 -0.2933500296059455,0.6933928157905737 l -20.863340509300194 -9.039035643020059" fill="#efff19" stroke="none" /><path d="M 119.26925614724726 108.34839909993367 l 9.031399424191386 3.912850929371857 a30.842590002370855,30.842590002370855 0 0,0 -0.21525031118216953,0.48533262729321186 l -8.962708028277945 -4.067731893157757" fill="#ff6409" stroke="none" /><path d="M 118.81262510543309 109.33194174019688 l 12.250922154107906 6.077030247777869 a34.675357043178764,34.675357043178764 0 0,0 -0.2698425225539209,0.5324248969656337 l -12.144500961767715 -6.287009356446197" fill="#ff990e" stroke="none" /><line stroke="#e1ed5e" stroke-width="0.3" x1="174.80103733775053" x2="179.2010983576182" y1="140.37084112569926" y2="142.7455964860345" /><path d="M 175.68104954172406 140.8457921977663 a86.0,86.0 0 0,1 -30.038265399797805,32.042727171017184" fill="none" id="id29" stroke="none" /><text fill="#e1ed5e" style="font-size:6.75px; font-family:Arial;" text-anchor="middle"><textPath startOffset="22.206326154141568" xlink:href="#id29">May</textPath></text><path d="M 118.30583269289576 110.29060199501025 l 10.844002088748423 6.09594282873987 a33.43997187585427,33.43997187585427 0 0,0 -0.2863862947901409,0.4993386445392376 l -10.737463797805901 -6.281701319137422" fill="#ff880c" stroke="none" /><path d="M 117.94076556474637 110.91462005526583 l 8.485725249710988 5.16245901880389 a30.93269933776374,30.93269933776374 0 0,0 -0.2806558578268276,0.45250660558742833 l -8.395604752216197 -5.307761955756592" fill="#ff6509" stroke="none" /><path d="M 117.75023020441432 111.22182372390056 l 2.567502382795527 1.6231935484003315 a24.037569057853528,24.037569057853528 0 0,0 -0.22411614846504851,0.34783323938467225 l -2.539181370953428 -1.6671483877064568" fill="#ff0000" stroke="none" /><path d="M 117.35343817320211 111.8261652097733 l 8.018750758607448 5.464684882660812 a30.703769607500433,30.703769607500433 0 0,0 -0.30139272445680537,0.4341786985116133 l -7.923497126988505 -5.601904843359445" fill="#ff6209" stroke="none" /><path d="M 117.14729908036423 112.12312394758627 l 20.907228898247777 14.781390710345704 a46.60472088376714,46.60472088376714 0 0,0 -0.46875518196887506,0.651059949267959 l -20.6496939239033 -15.139084265064794" fill="#ccff1d" stroke="none" /><path d="M 116.498646956653 112.99209946851258 l 8.014652278372228 6.31125448527548 a31.20130306976158,31.20130306976158 0 0,0 -0.33590741641052346,0.4190961500985351 l -7.904826949906851 -6.448278468952266" fill="#ff6909" stroke="none" /><path d="M 116.0416608686014 113.55231037782055 l 4.945750684635616 4.178267380074847 a27.474439599994056,27.474439599994056 0 0,0 -0.30831226128970557,0.3586368134315124 l -4.873095913775132 -4.262781292667888" fill="#ff3304" stroke="none" /><path d="M 115.80600337817218 113.82643327865902 l 7.420720700413889 6.491337322218231 a30.859237087339697,30.859237087339697 0 0,0 -0.35317831145456596,0.3967995769367784 l -7.307883539310984 -6.6181110688958755" fill="#ff6409" stroke="none" /><path d="M 115.32070863581623 114.36230785411682 l 9.346700043815519 8.76200877128774 a33.81146359387499,33.81146359387499 0 0,0 -0.40170184071240295,0.42118277400415927 l -9.194491651724151 -8.921598661874405" fill="#ff8d0d" stroke="none" /><path d="M 114.81725581225074 114.88116024355365 l 5.642671980292545 5.667007913241164 a28.997169859763925,28.997169859763925 0 0,0 -0.3567342959160569,0.34913959117038124 l -5.544287732000694 -5.763297607334118" fill="#ff4906" stroke="none" /><path d="M 114.29624159901734 115.38237550388516 l 6.623353543704837 7.126552149990193 a30.72916017503244,30.72916017503244 0 0,0 -0.39055365215338383,0.35676150130440065 l -6.49970034208459 -7.239506417881176" fill="#ff6209" stroke="none" /><path d="M 114.0293411484842 115.62618273729858 l 4.075041342812265 4.538868932680494 a27.09977812167634,27.09977812167634 0 0,0 -0.34979057592452956,0.3086495138005053 l -3.996308413981148 -4.608341588253287" fill="#ff2e04" stroke="none" /><path d="M 113.48314897796784 116.09983520530334 l 7.901042900282904 9.434405037906725 a33.30587166077197,33.30587166077197 0 0,0 -0.44269827025610925,0.36431053767598554 l -7.737474501482103 -9.56901069443989" fill="#ff860c" stroke="none" /><path d="M 112.92097659922987 116.55440617244103 l 6.009724127133853 7.699682250861916 a30.76738915209652,30.76738915209652 0 0,0 -0.4202990498570198,0.3222673889594544 l -5.87629634878334 -7.8019889816487416" fill="#ff6309" stroke="none" /><path d="M 112.34349029814194 116.9893568818739 l 4.9904699177213345 6.868792569406908 a29.490294539132382,29.490294539132382 0 0,0 -0.4132470369787587,0.2948407884949966 l -4.871495552893692 -6.9536776197461245" fill="#ff5007" stroke="none" /><path d="M 111.1453310114006 117.79835938074945 l 7.941720257918188 12.682404058454534 a35.963766015175864,35.963766015175864 0 0,0 -0.5275041895924626,0.32403615744556646 l -7.722236868393416 -12.817228682728478" fill="#ffaa0f" stroke="none" /><line stroke="#e1ed5e" stroke-width="0.3" x1="143.8653032363475" x2="146.44561519142675" y1="172.8068346515853" y2="177.08958963109032" /><path d="M 144.38136562736335 173.6633856474863 a86.0,86.0 0 0,1 -40.68145358897372,12.25698825130547" fill="none" id="id30" stroke="none" /><text fill="#e1ed5e" style="font-size:6.75px; font-family:Arial;" text-anchor="middle"><textPath startOffset="21.466115282336833" xlink:href="#id30">June</textPath></text><path d="M 110.8373102113329 117.98757091392108 l 3.891151796951551 6.458463172098208 a28.540080162191124,28.540080162191124 0 0,0 -0.4229804718999705,0.249904318432121 l -3.7794034540231984 -6.524486062824079" fill="#ff4306" stroke="none" /><path d="M 110.5260780823613 118.17145234162733 l 5.011516494249959 8.651516017836116 a30.998201187164334,30.998201187164334 0 0,0 -0.4640153698290409,0.2634800370461916 l -4.861852357499719 -8.736499220676937" fill="#ff6609" stroke="none" /><path d="M 110.21172684928248 118.3499491758327 l 4.828894148439475 8.677275010109216 a30.93042397372332,30.93042397372332 0 0,0 -0.46745766611861167,0.2548951911279299 l -4.6788136704522145 -8.759110852996915" fill="#ff6509" stroke="none" /><path d="M 109.89434966115114 118.52300852407294 l 5.925799985679096 11.093568289551927 a33.57705700333852,33.57705700333852 0 0,0 -0.5121446106931319,0.2679298548655144 l -5.733964472459468 -11.193927563362157" fill="#ff8a0c" stroke="none" /><path d="M 108.92500713936063 119.00905698771935 l 10.975879087472782 23.377136601263697 a46.82557719426548,46.82557719426548 0 0,0 -0.732557177379974,0.33628107047453004 l -10.571853914325388 -23.5626047420723" fill="#caff1d" stroke="none" /><path d="M 108.59647513512805 119.15986991738527 l 2.4965971483368725 5.564429123139317 a27.098841593903288,27.098841593903288 0 0,0 -0.42723172345075716,0.18728583237780805 l -2.4004447502283615 -5.6065795088115795" fill="#ff2e04" stroke="none" /><path d="M 107.93186726928326 119.44442032107085 l 4.060529382118482 9.954105048848646 a31.750446790090244,31.750446790090244 0 0,0 -0.5078240906212139,0.20207368595298864 l -3.888584215455402 -10.022525579207704" fill="#ff700a" stroke="none" /><path d="M 107.59598834532513 119.57807347666477 l 3.7123283250723325 9.568239630396523 a31.263166724643273,31.263166724643273 0 0,0 -0.5033813172827787,0.19033574156922817 l -3.5470767870292788 -9.630723622072383" fill="#ff6a09" stroke="none" /><path d="M 106.57524785965236 119.94407469862006 l 5.7997247067842235 17.591753992016418 a39.523137293399,39.523137293399 0 0,0 -0.6479510735789286,0.20745347213947438 l -5.496052288114355 -17.688980310815598" fill="#ffd914" stroke="none" /><path d="M 106.2309692047433 120.05430185196036 l 2.8788812981018426 9.265645945441044 a30.70258482646911,30.70258482646911 0 0,0 -0.5060444265624829,0.15246703457754673 l -2.718961897099114 -9.313828349124316" fill="#ff6209" stroke="none" /><path d="M 105.88484417918355 120.15858648285463 l 2.7280697185750236 9.34502727322531 a30.735085984557657,30.735085984557657 0 0,0 -0.5091323076025036,0.14388587571363023 l -2.5668062428679144 -9.39060194227746" fill="#ff6209" stroke="none" /><path d="M 105.53697534728816 120.25689768951611 l 1.650034375330449 6.036613029462716 a27.25805962797185,27.25805962797185 0 0,0 -0.4536643976376305,0.11981689070764444 l -1.545879534881321 -6.064121269473944" fill="#ff3004" stroke="none" /><path d="M 105.18746579009965 120.34920634021253 l 2.9831527844190764 11.702205664735024 a33.07645717729102,33.07645717729102 0 0,0 -0.5529229354485643,0.13589500498507343 l -2.781276564227301 -11.751821928034126" fill="#ff830c" stroke="none" /><path d="M 104.13013068566511 120.58985236759428 l 6.035799631198713 30.090143093558872 a51.68953548978588,51.68953548978588 0 0,0 -0.8738790041247251,0.16748099099006275 l -5.516953012502284 -30.1895812828974" fill="#91ff24" stroke="none" /><path d="M 103.41894727170886 120.7198165907248 l 2.1371889093740637 12.951987469472915 a34.12713052588931,34.12713052588931 0 0,0 -0.5804279572285079,0.09065090981525534 l -1.9139250885370387 -12.986856686635274" fill="#ff910d" stroke="none" /><path d="M 101.98527174616119 120.90594882070398 l 0.581123161564811 6.119530536658944 a27.147060933324834,27.147060933324834 0 0,0 -0.46557944055969264,0.04017215318760737 l -0.47569940326357674 -6.128626942125215" fill="#ff2e04" stroke="none" /><path d="M 101.26447882468166 120.96189622390904 l 0.7243766352433669 12.008352815887264 a33.030181164908285,33.030181164908285 0 0,0 -0.5678233096664879,0.029349979200793713 l -0.5175652571633995 -12.01904260185026" fill="#ff820c" stroke="none" /><path d="M 100.90346689309514 120.98055641714683 l 0.41784992893413325 9.703425853126605 a30.712418434676096,30.712418434676096 0 0,0 -0.5283700824428907,0.01819813397165847 l -0.2507594948165902 -9.709180785524358" fill="#ff6209" stroke="none" /><line stroke="#e1ed5e" stroke-width="0.3" x1="102.19456741930631" x2="102.32365962044197" y1="184.97166512339345" y2="189.96999836594603" /><path d="M 102.22038585953345 185.97133177190398 a86.0,86.0 0 0,1 -42.740103519485714,-10.115201625700543" fill="none" id="id31" stroke="none" /><text fill="#e1ed5e" style="font-size:6.75px; font-family:Arial;" text-anchor="middle"><textPath startOffset="22.20632615414155" xlink:href="#id31">July</textPath></text><path d="M 100.54218724476979 120.99299961872073 l 0.2215341677214916 8.577602559583447 a29.580462869661552,29.580462869661552 0 0,0 -0.5091224606061378,0.00876500487140205 l -0.07385201722268588 -8.58014504173401" fill="#ff5207" stroke="none" /><path d="M 100.18074693466247 120.99922214144158 l 0.05250996975042682 6.10062085693889 a27.100846837697286,27.100846837697286 0 0,0 -0.4665138088257603,0.0 l 0.05250996975042262 -6.10062085693889" fill="#ff2e04" stroke="none" /><path d="M 99.81925306533755 120.99922214144158 l -0.2170081553244294 25.21205943919617 a46.212993350751475,46.212993350751475 0 0,0 -0.7953923165563661,-0.013693400053480695 l 0.6509601617734634 -25.20458856186353" fill="#d1ff1c" stroke="none" /><path d="M 99.45781275523022 120.99299961872073 l -0.2512288900388561 9.72735534388451 a30.730599053572636,30.730599053572636 0 0,0 -0.5286828580429652,-0.018208906595737897 l 0.41863209975646437 -9.721589638862678" fill="#ff6209" stroke="none" /><path d="M 99.09653310690486 120.98055641714683 l -0.3106579019188681 7.2141831509867425 a28.22086884439855,28.22086884439855 0 0,0 -0.4851462082174243,-0.025076517427382525 l 0.43479217854978136 -7.207766826797157" fill="#ff3e05" stroke="none" /><path d="M 98.73552117531835 120.96189622390904 l -0.6023707488064768 9.985800377462816 a31.003952203881934,31.003952203881934 0 0,0 -0.5324371298928565,-0.036719981802310134 l 0.7741706394782634 -9.97395205114422" fill="#ff6609" stroke="none" /><path d="M 98.37488393609728 120.93702456842531 l -0.9507396657014774 12.248761907604827 a33.28560434741121,33.28560434741121 0 0,0 -0.5708571211012853,-0.0492559544501131 l 1.1614411045443043 -12.23058170087605" fill="#ff860c" stroke="none" /><path d="M 98.01472825383883 120.90594882070398 l -3.078451541383136 32.41770326687969 a53.5635432499614,53.5635432499614 0 0,0 -0.9171287696663152,-0.09506414688920169 l 3.6360129076550445 -32.35990975153473" fill="#7cff26" stroke="none" /><path d="M 97.65516085044442 120.86867818915974 l -1.230618943215652 10.952303787796565 a32.021224126365645,32.021224126365645 0 0,0 -0.5472161532989459,-0.06626025542753955 l 1.4189625195659874 -10.929498003643676" fill="#ff740a" stroke="none" /><path d="M 97.2962882734958 120.8252237178851 l -8.111135179512582 62.47567115365527 a84.0,84.0 0 0,0 -1.4322856352526758,-0.19850173802958038 l 9.185349405952088 -62.32679485013308" fill="#4dd2ff" stroke="none" /><path d="M 96.93821686468263 120.77559828337769 l -2.6864233983050143 18.228610870072693 a39.425502026471165,39.425502026471165 0 0,0 -0.6705416849088205,-0.10472482079650824 l 2.999800946822352 -18.17966774192908" fill="#ffd814" stroke="none" /><path d="M 96.22490169976321 120.6578951692458 l -2.6388958739220714 14.440427769157166 a35.679568303926665,35.679568303926665 0 0,0 -0.6032096307616773,-0.1156065613864936 l 2.8870731192554437 -14.392864009422205" fill="#ffa70f" stroke="none" /><path d="M 95.86986931433489 120.58985236759428 l -2.4081814993330664 12.005455836479138 a33.24460321837262,33.24460321837262 0 0,0 -0.5601059276215391,-0.1173756429410243 l 2.6144788883839922 -11.962224212811574" fill="#ff850c" stroke="none" /><path d="M 95.51606077576429 120.51570834832081 l -1.326645051508203 6.06990005827398 a27.213185480100016,27.213185480100016 0 0,0 -0.4567666453604749,-0.10395860137951858 l 1.4309318462615408 -6.046164723316775" fill="#ff2f04" stroke="none" /><path d="M 94.46302465271185 120.25689768951611 l -4.145196529581661 15.165106711879876 a36.721422195576324,36.721422195576324 0 0,0 -0.6082970592720209,-0.17191082506536726 l 4.405624756958296 -15.091507093475986" fill="#ffb510" stroke="none" /><path d="M 94.11515582081647 120.15858648285463 l -2.060911832587757 7.059671954903433 a28.35434060215804,28.35434060215804 0 0,0 -0.467340326935806,-0.1408058068545995 l 2.1821271339638084 -7.023150778943107" fill="#ff4006" stroke="none" /><path d="M 93.76903079525671 120.05430185196036 l -3.649184281304803 11.744857129931932 a33.29870785576416,33.29870785576416 0 0,0 -0.5459063976567724,-0.17478198937385472 l 3.850812024052516 -11.68030229389837" fill="#ff860c" stroke="none" /><path d="M 93.08242187328487 119.8279376855182 l -4.039811433216624 11.579360274908797 a33.26383548454902,33.26383548454902 0 0,0 -0.5390015501820395,-0.193266779138673 l 4.23853254402839 -11.508105954730167" fill="#ff860c" stroke="none" /><path d="M 92.7421414339146 119.70592522655815 l -4.383554871387591 11.901858342311238 a33.68344532494659,33.68344532494659 0 0,0 -0.5423512348455842,-0.20507082986818886 l 4.587776326993458 -11.824639262336417" fill="#ff8b0c" stroke="none" /><path d="M 92.40401165467489 119.57807347666478 l -12.092374010505475 31.16716036441665 a54.430785129745495,54.430785129745495 0 0,0 -0.8705787399797975,-0.3464212473355158 l 12.62707382652713 -30.95439227267507" fill="#73ff27" stroke="none" /><path d="M 92.06813273071674 119.44442032107085 l -4.617642404375667 11.319828831577773 a33.225430305347444,33.225430305347444 0 0,0 -0.52769663225292,-0.2205772350791854 l 4.81181049612605 -11.238666553478614" fill="#ff850c" stroke="none" /><path d="M 91.07499286063937 119.00905698771935 l -8.435474333451399 17.96641838143209 a40.84815902513324,40.84815902513324 0 0,0 -0.6338998838953575,-0.304310466302281 l 8.743486885346998 -17.818553638630245" fill="#ffea16" stroke="none" /><path d="M 90.7491055286396 118.85261126421891 l -5.448045814082753 11.102698252642934 a33.36734052581981,33.36734052581981 0 0,0 -0.5134536048541589,-0.2574562965958632 l 5.638353326619672 -11.00727411513777" fill="#ff870c" stroke="none" /><path d="M 90.10565033884886 118.52300852407294 l -5.629930445424254 10.539677007776028 a32.949096545285656,32.949096545285656 0 0,0 -0.4979662672862596,-0.2715309130110327 l 5.810519524579154 -10.441205443005229" fill="#ff810b" stroke="none" /><line stroke="#e1ed5e" stroke-width="0.3" x1="58.666819895761336" x2="56.23545636021788" y1="174.27360380694188" y2="178.64263932499728" /><path d="M 58.180547188652646 175.14741091055294 a86.0,86.0 0 0,1 -31.652253787137756,-30.449443065178592" fill="none" id="id32" stroke="none" /><text fill="#e1ed5e" style="font-size:6.75px; font-family:Arial;" text-anchor="middle"><textPath startOffset="22.20632615414155" xlink:href="#id32">August</textPath></text><path d="M 89.7882731507175 118.34994917583269 l -17.476274020095488 31.403967691733754 a56.939245128534935,56.939245128534935 0 0,0 -0.8523296150824096,-0.48397499988032594 l 18.014252402099107 -31.098489526058795" fill="#58ff2a" stroke="none" /><path d="M 89.4739219176387 118.17145234162733 l -12.966226861328261 22.38394695705123 a46.86820674873915,46.86820674873915 0 0,0 -0.6946138936900969,-0.410390131951899 l 13.34960862604674 -22.157438252805584" fill="#c9ff1d" stroke="none" /><path d="M 89.1626897886671 117.98757091392108 l -5.015518580874455 8.324666765488121 a30.718822119553344,30.718822119553344 0 0,0 -0.4505731507810435,-0.276778830022239 l 5.158070931587807 -8.237099468637503" fill="#ff6209" stroke="none" /><path d="M 88.8546689885994 117.79835938074946 l -7.908607862351107 12.629525744148973 a35.90137573657424,35.90137573657424 0 0,0 -0.5209429770707241,-0.33249045553042184 l 8.124832641468755 -12.491520859794747" fill="#ffaa0f" stroke="none" /><path d="M 88.54995079064634 117.60387380957326 l -4.618889733725605 7.101310267419257 a29.47128974161963,29.47128974161963 0 0,0 -0.4228783457102575,-0.28026070868536035 l 4.740442778175824 -7.020751537642579" fill="#ff5007" stroke="none" /><path d="M 88.24862548938628 117.40417183066458 l -7.138021121937616 10.571643855355903 a33.75582217427445,33.75582217427445 0 0,0 -0.47875901135722015,-0.32929481356923235 l 7.318937017917726 -10.44720825242157" fill="#ff8c0c" stroke="none" /><path d="M 87.07902340077011 116.55440617244103 l -7.450727227913151 9.545901106135537 a33.109399826287266,33.109399826287266 0 0,0 -0.4462555972121817,-0.3545324356464964 l 7.61394031784269 -9.41623475648391" fill="#ff830c" stroke="none" /><path d="M 86.79598089348748 116.32954008644616 l -7.903159877804789 9.773915426292696 a33.56938179921613,33.56938179921613 0 0,0 -0.4462008203071173,-0.36719289791556486 l 8.070230826656594 -9.63642740951995" fill="#ff8a0c" stroke="none" /><path d="M 86.51685102203217 116.09983520530335 l -7.496969855914407 8.951913193021802 a32.6765280300219,32.6765280300219 0 0,0 -0.4281162365074537,-0.36484994453505726 l 7.649951568998918 -8.821538858263795" fill="#ff7d0b" stroke="none" /><path d="M 86.24171649860922 115.8653595955263 l -8.028042334498114 9.25753408643206 a33.25362807848946,33.25362807848946 0 0,0 -0.4292214373464182,-0.3787380137374243 l 8.186206124751118 -9.117972930922345" fill="#ff850c" stroke="none" /><path d="M 85.97065885151581 115.62618273729859 l -8.807320138671193 9.809783114985104 a34.183350590350315,34.183350590350315 0 0,0 -0.4344548415855695,-0.396864196963545 l 8.974874529723616 -9.656726151434983" fill="#ff920d" stroke="none" /><path d="M 84.67929136418377 114.36230785411682 l -9.469358165585172 8.876993903342612 a33.9795903181925,33.9795903181925 0 0,0 -0.39635346206070493,-0.43016340230742245 l 9.620758035641606 -8.712679246233845" fill="#ff8f0d" stroke="none" /><path d="M 84.43433777217949 114.09645910891817 l -5.42837251425619 4.916002291147113 a28.32354468000952,28.32354468000952 0 0,0 -0.32415777668715123,-0.3641946984810143 l 5.512189140591679 -4.821833422925235" fill="#ff4006" stroke="none" /><path d="M 84.19399662182784 113.82643327865904 l -6.437652354811308 5.631390088016924 a29.553123532653018,29.553123532653018 0 0,0 -0.33163880600237006,-0.38577085483849943 l 6.533633670384456 -5.519742134016894" fill="#ff5107" stroke="none" /><path d="M 83.95833913139862 113.55231037782056 l -21.556224911948338 18.211122462552215 a49.219068265989506,49.219068265989506 0 0,0 -0.54118474972048,-0.6518918939778234 l 21.866505661562353 -17.83736931146063" fill="#adff20" stroke="none" /><path d="M 83.72743513129214 113.27417163493432 l -6.016881293191549 4.908206889157255 a28.76487961034356,28.76487961034356 0 0,0 -0.3096773353236681,-0.38637009088334073 l 6.100476540570078 -4.803908964695656" fill="#ff4606" stroke="none" /><path d="M 83.28015986056508 112.70617746262583 l -10.443948859864454 7.936838302122156 a34.11752530096654,34.11752530096654 0 0,0 -0.3513109740275901,-0.4706384601288251 l 10.579021100587129 -7.7558869624840225" fill="#ff910d" stroke="none" /><path d="M 83.06392112726016 112.41649034213515 l -9.963957490628063 7.304960190694606 a33.35487321920691,33.35487321920691 0 0,0 -0.33548682126886537,-0.4659618522358628 l 10.088224104272538 -7.132364733007605" fill="#ff870c" stroke="none" /><path d="M 82.85270091963577 112.12312394758628 l -7.245531754608566 5.122583977547685 a29.873477165918068,29.873477165918068 0 0,0 -0.29324245156643136,-0.4224376225369586 l 7.3326351133371315 -4.997105092823714" fill="#ff5607" stroke="none" /><path d="M 82.44556493220864 111.52570212397912 l -45.08464360076097 29.601190269093088 a74.93380715242239,74.93380715242239 0 0,0 -0.6986511909088883,-1.0843221632987072 l 45.587499655046905 -28.820746505872933" fill="#41ffd2" stroke="none" /><line stroke="#e1ed5e" stroke-width="0.3" x1="26.63291911575756" x2="22.317208475507996" y1="142.92168965132927" y2="145.44649492493687" /><path d="M 25.769776987707644 143.4266507060508 a86.0,86.0 0 0,1 -11.730757126820373,-40.83630448921669" fill="none" id="id33" stroke="none" /><text fill="#e1ed5e" style="font-size:6.75px; font-family:Arial;" text-anchor="middle"><textPath startOffset="21.46611528233685" xlink:href="#id33">September</textPath></text><path d="M 81.87401531095188 110.60418214915194 l -8.503360773755093 4.974691751744376 a30.8516345077104,30.8516345077104 0 0,0 -0.26421928007848344,-0.4606885859262383 l 8.587732049985954 -4.827583319959831" fill="#ff6409" stroke="none" /><path d="M 81.69416730710424 110.29060199501025 l -7.113791271874976 3.9990092711189833 a29.16076598183652,29.16076598183652 0 0,0 -0.24220597646171418,-0.43967420075958613 l 7.181573657788206 -3.8759645519615744" fill="#ff4c07" stroke="none" /><path d="M 81.51974371655577 109.97397251340807 l -10.830696536155571 5.845431356352738 a33.30743901874489,33.30743901874489 0 0,0 -0.26796229903188146,-0.5068836855393027 l 10.92971134341234 -5.658132655727309" fill="#ff860c" stroke="none" /><path d="M 81.18737489456691 109.33194174019688 l -12.007852251043083 5.9564562097856335 a34.40402500228846,34.40402500228846 0 0,0 -0.25859825266462,-0.5327889947614608 l 12.10860376032242 -5.7488782590588885" fill="#ff950d" stroke="none" /><path d="M 80.87730276802145 108.67885076344099 l -11.494091105157683 5.216602038557551 a33.62248260693386,33.62248260693386 0 0,0 -0.23465117045303024,-0.5290764432717473 l 11.582183360341993 -5.017977258793108" fill="#ff8a0c" stroke="none" /><path d="M 80.58989483394504 108.01547362559985 l -11.849844219402186 4.893436330999018 a33.820472969030455,33.820472969030455 0 0,0 -0.21757416584260458,-0.5400012364938679 l 11.93232099950218 -4.688735726662345" fill="#ff8d0d" stroke="none" /><path d="M 80.32549172779594 107.34259656027581 l -11.476158683027883 4.282943294203107 a33.2493192210586,33.2493192210586 0 0,0 -0.19549925056635273,-0.5379299739715006 l 11.54818219459946 -4.084765523225489" fill="#ff850c" stroke="none" /><path d="M 80.0844068197444 106.66101706037122 l -11.754364836368609 3.931393054689524 a33.394391637225276,33.394391637225276 0 0,0 -0.17763868183220116,-0.5467156466404806 l 11.82029576921706 -3.7284785080712397" fill="#ff870c" stroke="none" /><path d="M 79.97269907076064 106.31721596034903 l -4.768212427898999 1.5040383004322384 a25.999798092597096,25.999798092597096 0 0,0 -0.13095631230680718,-0.42797280570016816 l 4.793395512711936 -1.4217385221800225" fill="#ff1d03" stroke="none" /><path d="M 79.4281124754447 104.21870165774334 l -52.42273230154918 10.75039261224824 a74.5136786558107,74.5136786558107 0 0,0 -0.2468534103959239,-1.2587002213723033 l 52.60001564492077 -9.84642866380798" fill="#41ffcd" stroke="none" /><path d="M 79.29508885075956 103.50808413554451 l -5.884118797465464 0.9969607527538261 a26.967979956837816,26.967979956837816 0 0,0 -0.07360749045456273,-0.45835391332440606 l 5.900408042281318 -0.8955276097362064" fill="#ff2c04" stroke="none" /><path d="M 79.23777060512086 103.15116336523772 l -7.319896931841379 1.1109688950177805 a28.40372493941245,28.40372493941245 0 0,0 -0.06920493053278723,-0.4840191229615222 l 7.337935913390766 -0.9848043000758576" fill="#ff4106" stroke="none" /><path d="M 79.1416061653843 102.43462659150553 l -9.545358812279964 1.114150234869541 a30.61016158038098,30.61016158038098 0 0,0 -0.05658171539196733,-0.5238764123661931 l 9.563122829172984 -0.9496775006185658" fill="#ff6008" stroke="none" /><path d="M 79.07016306316243 101.71520430193888 l -12.298121402687189 1.007833496233769 a33.3393483779073,33.3393483779073 0 0,0 -0.04194953885871048,-0.5723681286632728 l 12.313647500210234 -0.7959922310737354" fill="#ff870c" stroke="none" /><path d="M 79.0235259727143 100.99374915477108 l -12.849300283256524 0.6087286776260092 a33.86371129854291,33.86371129854291 0 0,0 -0.02257236818677581,-0.5824925248372805 l 12.8578747842945 -0.38745890577473185" fill="#ff8e0d" stroke="none" /><line stroke="#e1ed5e" stroke-width="0.3" x1="15.007084014347285" x2="10.007500721073583" y1="101.09737516637583" y2="101.16192664675087" /><path d="M 14.007167355692545 101.11028546245083 a86.0,86.0 0 0,1 10.666146001902534,-42.60595125391555" fill="none" id="id34" stroke="none" /><text fill="#e1ed5e" style="font-size:6.75px; font-family:Arial;" text-anchor="middle"><textPath startOffset="22.20632615414155" xlink:href="#id34">October</textPath></text><path d="M 79.00175016825051 100.2711162175752 l -11.093654696937744 0.14323430403097426 a32.094579334104566,32.094579334104566 0 0,0 -0.0023776011458250977,-0.5524707728723331 l 11.094476595373072 0.04774594704503427" fill="#ff750a" stroke="none" /><path d="M 79.00486145842228 99.54816195383935 l -12.310510489995695 -0.26493547523034483 a33.313361008690094,33.313361008690094 0 0,0 0.01727266920819133,-0.5731958010499015 l 12.304126126331857 0.4768014237052407" fill="#ff860c" stroke="none" /><path d="M 79.01574976396665 99.18683210126434 l -12.43951597875349 -0.4820479624457471 a33.44885247819097,33.44885247819097 0 0,0 0.0272471035538971,-0.5751432917181046 l 12.429375266966094 0.6961023607868608" fill="#ff880c" stroke="none" /><path d="M 79.12142395522702 97.74499172005258 l -9.788089133865698 -1.0571708527630361 a30.845013920987185,30.845013920987185 0 0,0 0.061557316429902795,-0.5273854947517741 l 9.768441464432206 1.225500085839672" fill="#ff6409" stroke="none" /><path d="M 79.21141760316559 97.0276538004421 l -9.748004290709654 -1.3937671628430548 a30.847140425317058,30.847140425317058 0 0,0 0.07967978915827174,-0.5249902556273379 l 9.722568608112079 1.5613565308624846" fill="#ff6409" stroke="none" /><path d="M 79.26566170972629 96.67025291283419 l -9.69726436592628 -1.5572928985665542 a30.821511968866577,30.821511968866577 0 0,0 0.08863113013961993,-0.5231059472046597 l 9.669021374266437 1.7239846340870417" fill="#ff6309" stroke="none" /><path d="M 79.32604984820605 96.31383870115002 l -9.792801141917678 -1.7460545426312037 a30.947243873103105,30.947243873103105 0 0,0 0.09802064396211539,-0.523630199534553 l 9.761294774045702 1.9143628196283293" fill="#ff6509" stroke="none" /><path d="M 79.3925641242962 95.95851677861259 l -7.596077719021712 -1.4897253998482978 a28.740780224264945,28.740780224264945 0 0,0 0.09938931884945336,-0.4846576161080801 l 7.569309104257264 1.6202586721197803" fill="#ff4606" stroke="none" /><path d="M 79.46518482838121 95.60439243477599 l -10.164177419566903 -2.1757067101084258 a31.394431312238517,31.394431312238517 0 0,0 0.11766276005486467,-0.5274590819772415 l 10.125220272510001 2.3503439616356263" fill="#ff6b09" stroke="none" /><path d="M 79.62865764111835 94.90015583598534 l -7.635796962484491 -1.9115762668310068 a28.871436913054627,28.871436913054627 0 0,0 0.1248396369466843,-0.48105804644849004 l 7.601760993667499 2.042730738828361" fill="#ff4706" stroke="none" /><path d="M 79.81627453868168 94.20196356495316 l -11.749514855701234 -3.375200250223298 a33.224691246548986,33.224691246548986 0 0,0 0.16263344430616788,-0.5483191247844463 l 11.689675514283358 3.5769487617542834" fill="#ff850c" stroke="none" /><path d="M 80.02781315780177 93.51064311812611 l -7.40076865556979 -2.404655503457749 a28.78162867165826,28.78162867165826 0 0,0 0.15715140157848972,-0.4698626881117394 l 7.3582799602195275 2.5316912944918104" fill="#ff4606" stroke="none" /><path d="M 80.14247586403 93.16781622104843 l -10.61634617967852 -3.6526622183048385 a32.227143336031936,32.227143336031936 0 0,0 0.18499442111711079,-0.5230041401147385 l 10.551898677751598 3.834863984846188" fill="#ff770b" stroke="none" /><path d="M 80.38941819471856 92.48833698450439 l -7.445614505610537 -2.851977960917499 a28.973139510614196,28.973139510614196 0 0,0 0.18240171064194383,-0.4641924580780962 l 7.395419245086902 2.9797194238913587" fill="#ff4906" stroke="none" /><path d="M 80.65960295795068 91.81776055985345 l -11.16866941067142 -4.725069870451363 a33.12705494691579,33.12705494691579 0 0,0 0.22669835959160856,-0.5232510696770808 l 11.085680341237131 4.916620084715043" fill="#ff840c" stroke="none" /><path d="M 80.95270993114464 91.15688171328213 l -7.159683997556939 -3.324038866265972 a28.893687942230784,28.893687942230784 0 0,0 0.21332045548267936,-0.44930728274529363 l 7.1014053482325075 3.446788564651798" fill="#ff4806" stroke="none" /><path d="M 81.10775173730289 90.83032412892265 l -10.987273226439477 -5.332861012225171 a33.21309049864714,33.21309049864714 0 0,0 0.2540643060704669,-0.5121781378239582 l 10.893848907415599 5.521198738548091" fill="#ff850c" stroke="none" /><path d="M 81.43458229118936 90.18545643968196 l -10.79683863332781 -5.7077112264612255 a33.212685696389286,33.212685696389286 0 0,0 0.2715404351082166,-0.5031231864106195 l 10.696990099001123 5.892715396204318" fill="#ff850c" stroke="none" /><line stroke="#e1ed5e" stroke-width="0.3" x1="26.266209847984243" x2="21.928928074336255" y1="57.711370442889674" y2="55.22380399835377" /><path d="M 25.398753493254645 57.213857153982495 a86.0,86.0 0 0,1 29.58750427330803,-30.492523968695096" fill="none" id="id35" stroke="none" /><text fill="#e1ed5e" style="font-size:6.75px; font-family:Arial;" text-anchor="middle"><textPath startOffset="21.46611528233685" xlink:href="#id35">November</textPath></text><path d="M 81.78341655067845 89.55222093294921 l -10.46702108975203 -6.003163224329163 a33.066337438976745,33.066337438976745 0 0,0 0.28742571429451885,-0.49130371614352536 l 10.362135700987187 6.18244635282658" fill="#ff830c" stroke="none" /><path d="M 82.15384107792192 88.93136811851018 l -6.41454068596364 -3.978457765157185 a28.548142712020116,28.548142712020116 0 0,0 0.26260539763782037,-0.41537867424038194 l 6.345107692079857 4.0882840871117825" fill="#ff4306" stroke="none" /><path d="M 82.34701348167596 88.62581576622439 l -9.08200236906701 -5.851721919694861 a31.803953741902827,31.803953741902827 0 0,0 0.300476734824504,-0.4576466816615676 l 8.979928998884587 6.007186665334095" fill="#ff710a" stroke="none" /><path d="M 82.7489923806493 88.02491185347247 l -13.05745943399212 -9.064063453103282 a36.89510909532339,36.89510909532339 0 0,0 0.36664493615014965,-0.5185932605860548 l 12.899501878038093 9.287483214021124" fill="#ffb711" stroke="none" /><path d="M 83.6137871275137 86.86637796730984 l -6.109241641734989 -4.896584174348304 a28.829391420384287,28.829391420384287 0 0,0 0.3136933053370343,-0.38455090082926546 l 6.024049844321562 5.001019244785652" fill="#ff4706" stroke="none" /><path d="M 83.84228863543731 86.58626213691792 l -8.504185381004955 -7.059967272966734 a32.05279633802504,32.05279633802504 0 0,0 0.3560751044628578,-0.4214806118145839 l 8.381399663054973 7.205306834410433" fill="#ff750a" stroke="none" /><path d="M 85.31137513191541 84.99185889309783 l -5.520658654704098 -5.640747506110435 a28.892762786847857,28.892762786847857 0 0,0 0.3584308973478648,-0.3448102392642145 l 5.422744513743806 5.734940832136963" fill="#ff4806" stroke="none" /><path d="M 85.57189188830299 84.74124197986013 l -6.735144048842936 -7.122897366478893 a30.802950181045315,30.802950181045315 0 0,0 0.3883989697047909,-0.36097451309173134 l 6.611537195343288 7.237776465645272" fill="#ff6309" stroke="none" /><path d="M 86.10567301691215 84.25364557470407 l -6.443094635589631 -7.301919110670744 a30.738146188158325,30.738146188158325 0 0,0 0.3997513496232419,-0.3466604311780618 l 6.316449487319615 7.411744535268486" fill="#ff6209" stroke="none" /><path d="M 87.22198572758235 83.33499621200491 l -4.893495116173469 -6.382064764444554 a29.04220399576996,29.04220399576996 0 0,0 0.399335624148192,-0.30077131301270266 l 4.782913338266886 6.465352666963111" fill="#ff4a06" stroke="none" /><path d="M 87.51073957382395 83.11751280151077 l -6.672917104681289 -9.020184842991101 a32.220140698212056,32.220140698212056 0 0,0 0.4487110026158214,-0.32600762618431994 l 6.516660785711687 9.13371170399209" fill="#ff770b" stroke="none" /><line stroke="#e1ed5e" stroke-width="0.3" x1="56.762969772571076" x2="54.21961505331055" y1="26.818313649435495" y2="22.513508569990535" /><path d="M 56.25429882871897 25.957352633546506 a86.0,86.0 0 0,1 42.265352541879196,-11.944610805530505" fill="none" id="id36" stroke="none" /><text fill="#e1ed5e" style="font-size:6.75px; font-family:Arial;" text-anchor="middle"><textPath startOffset="22.20632615414155" xlink:href="#id36">December</textPath></text><path d="M 90.26544431104013 81.39251694778311 l -5.765303528028781 -11.020306536470624 a33.43727787452215,33.43727787452215 0 0,0 0.5122901657003703,-0.26241492032971614 l 5.574752874739647 11.117913982112846" fill="#ff880c" stroke="none" /><path d="M 90.58718382345135 81.22770947309562 l -8.801856193965609 -17.553832832815388 a40.636947817358944,40.636947817358944 0 0,0 0.6279931994157587,-0.3081535356087909 l 8.498391727539424 17.70274152855901" fill="#ffe815" stroke="none" /><path d="M 92.23578459929587 80.48803036053334 l -4.53587471956843 -11.398943131925106 a33.26825431740321,33.26825431740321 0 0,0 0.5339029417160516,-0.20714604670595863 l 4.338988612852702 11.475331882521617" fill="#ff860c" stroke="none" /><path d="M 92.91201910852362 80.23233633223022 l -8.214765873374573 -22.910153311730713 a45.33839565627458,45.33839565627458 0 0,0 0.7368957306850233,-0.257088451109046 l 7.819188138626263 23.048162616011968" fill="#dcff1b" stroke="none" /><path d="M 93.94186890950719 79.89281104454417 l -2.365130292157851 -7.8499657696944665 a29.19852449433784,29.19852449433784 0 0,0 0.4824844584560726,-0.14085044401832034 l 2.2296556159783574 7.889514542631486" fill="#ff4c07" stroke="none" /><path d="M 94.28887869178378 79.79150937346287 l -2.7611384359513087 -9.770137454657059 a31.152806082329178,31.152806082329178 0 0,0 0.5172880589291543,-0.14139436717497147 l 2.5925524877984323 9.816218362658327" fill="#ff6809" stroke="none" /><path d="M 99.63851952072746 79.00311137660856 l -0.23326897224483362 -13.549618611147563 a34.55162643083732,34.55162643083732 0 0,0 0.594749451517366,-0.005119196298312933 l 3.319191186353118e-15 13.551626430837317" fill="#ff970e" stroke="none" /></svg>