<?xml version="1.0" encoding="utf-8" ?>
<svg baseProfile="full" height="200mm" version="1.1" viewBox="0,0,200,200" width="200mm" xmlns="http://www.w3.org/2000/svg" xmlns:ev="http://www.w3.org/2001/xml-events" xmlns:xlink="http://www.w3.org/1999/xlink"><defs /><rect fill="#1a1a1a" height="200" width="200" x="0" y="0" /><text alignment-baseline="middle" fill="#e1ed5e" style="dominant-baseline: central; font-size:9.0px; font-family:Arial;" text-anchor="middle" x="100.0" y="100.0">2016</text><line stroke="#e1ed5e" stroke-width="0.3" x1="100.0" x2="100.0" y1="15.0" y2="10.0" /><path d="M 100.0 14.0 a86.0,86.0 0 0,1 42.35913384403234,11.155469271406648" fill="none" id="id37" stroke="none" /><text fill="#e1ed5e" style="font-size:6.75px; font-family:Arial;" text-anchor="middle"><textPath startOffset="22.145653131862478" xlink:href="#id37">January</textPath></text><path d="M 100.72087961077811 79.0123766808444 l 0.3495669567723917 -10.17726053542206 a31.183262201432626,31.183262201432626 0 0,0 0.5348289402564613,0.022967855921906293 l -0.5242216576296893 10.169760111074323" fill="#ff6609" stroke="none" /><path d="M 101.44090949804482 79.04949213459386 l 0.6758589328310655 -9.826840552717242 a30.850054849878536,30.850054849878536 0 0,0 0.5280222012348107,0.04087225782136647 l -0.8444501288411097 9.813790527900823" fill="#ff6108" stroke="none" /><path d="M 102.15924093988457 79.11130261209362 l 0.949681618960512 -9.187308181727808 a30.23626151662209,30.23626151662209 0 0,0 0.5158365224388163,0.057800558271292275 l -1.1072540430001248 9.169651862949545" fill="#ff5808" stroke="none" /><path d="M 102.87502721639298 79.19773525538626 l 1.2652915801140217 -9.155019569409454 a30.242042312117896,30.242042312117896 0 0,0 0.5136465356134602,0.07548835234528593 l -1.4222632213351638 9.131950143765286" fill="#ff5808" stroke="none" /><path d="M 104.9986988182912 79.60360301121754 l 2.329586457442818 -9.505507719694567 a30.786810004893013,30.786810004893013 0 0,0 0.5122261168659565,0.13020587586267784 l -2.492417867534169 9.464116611996621" fill="#ff6008" stroke="none" /><path d="M 105.69591212413111 79.78721728523813 l 5.570632180573883 -19.76820839155351 a41.538111059762336,41.538111059762336 0 0,0 0.6846667260913178,0.19929650552540273 l -5.9091589190468055 19.66966819172559" fill="#fff116" stroke="none" /><path d="M 106.38641147887787 79.99465700312896 l 2.8138757776964556 -8.81442579601772 a30.25267523507712,30.25267523507712 0 0,0 0.4933739711114835,0.16218182395661254 l -2.9647724864556815 8.764823050659086" fill="#ff5808" stroke="none" /><path d="M 108.73861861582097 80.90454125486305 l 3.8767611532141943 -8.47142276376785 a30.316344813367245,30.316344813367245 0 0,0 0.47136327312987936,0.22062181235170913 l -4.021613140215579 8.403624719845608" fill="#ff5908" stroke="none" /><path d="M 110.34350942703115 81.72400993836675 l 1.721557161386491 -3.0418265477487747 a24.495206403992523,24.495206403992523 0 0,0 0.3641708543162236,0.2102541407704877 l -1.773520483563112 3.011825509702115" fill="#ff0400" stroke="none" /><line stroke="#e1ed5e" stroke-width="0.3" x1="143.13028292997686" x2="145.6673583964461" y1="26.7553504044142" y2="22.446841604673864" /><path d="M 143.63769802327073 25.89364864446614 a86.0,86.0 0 0,1 29.32050498858742,28.57503671076993" fill="none" id="id38" stroke="none" /><text fill="#e1ed5e" style="font-size:6.75px; font-family:Arial;" text-anchor="middle"><textPath startOffset="20.669276256404974" xlink:href="#id38">February</textPath></text><path d="M 110.96478420261332 82.08984904055464 l 5.454991306008414 -8.9103183398527 a31.44752138385669,31.44752138385669 0 0,0 0.45798952856361685,0.28581933858277475 l -5.607144963361743 8.815363204428381" fill="#ff6909" stroke="none" /><path d="M 111.5731344415666 82.4767994020092 l 4.98631505965119 -7.549916530929241 a30.047904591567203,30.047904591567203 0 0,0 0.4279733237259485,0.2879595520454045 l -5.11518467147414 7.463207304826717" fill="#ff5507" stroke="none" /><path d="M 112.45986205192187 83.09580414077388 l 5.51907295406206 -7.487682430836571 a30.301911333554948,30.301911333554948 0 0,0 0.4160697887295973,0.3122265261959139 l -5.646795731702424 7.391836877376643" fill="#ff5908" stroke="none" /><path d="M 112.7482090630111 83.31218511350987 l 5.234822126633222 -6.852550203810672 a29.623271246646162,29.623271246646162 0 0,0 0.4014518287699404,0.3121713702111838 l -5.351683900038389 6.7616777819786975" fill="#ff4f07" stroke="none" /><path d="M 114.13192950727249 84.46653392183569 l 6.248458787267232 -6.868150776075882 a30.28518886717383,30.28518886717383 0 0,0 0.38155044497085444,0.3531573956476302 l -6.365439003552051 6.759875634295877" fill="#ff5908" stroke="none" /><path d="M 114.65682725009322 84.96080404539774 l 6.494726147349052 -6.664161181325255 a30.30550976463632,30.30550976463632 0 0,0 0.3694502554441531,0.36629257992739295 l -6.608168322923168 6.551688591169203" fill="#ff5908" stroke="none" /><path d="M 115.16444852881244 85.47280134310134 l 6.694893219845265 -6.413556260000216 a30.27120807259324,30.27120807259324 0 0,0 0.3562548800427263,0.37833033697377355 l -6.8040039336242515 6.297684463081947" fill="#ff5908" stroke="none" /><path d="M 116.57777611688842 87.10902102172516 l 7.284885969065595 -5.664771391784269 a30.228174169545472,30.228174169545472 0 0,0 0.31501791167593557,0.4123685585946166 l -7.381055858095837 5.538881919948771" fill="#ff5808" stroke="none" /><path d="M 117.01052211995028 87.68569379921539 l 8.018382215252656 -5.804690363839073 a30.898933456182352,30.898933456182352 0 0,0 0.30734860335828346,0.4323243009435233 l -8.1168459171409 5.666188836186047" fill="#ff6209" stroke="none" /><path d="M 117.42321728460499 88.27688183743584 l 8.187454237100487 -5.508884605194296 a30.868242826256427,30.868242826256427 0 0,0 0.2920364506208486,0.4421804077359018 l -8.28081512664206 5.367524319119335" fill="#ff6109" stroke="none" /><line stroke="#e1ed5e" stroke-width="0.3" x1="172.87174338648825" x2="177.1583165268699" y1="56.24261187166439" y2="53.66864786411523" /><path d="M 173.72905801456457 55.72781907015455 a86.0,86.0 0 0,1 12.242430191666344,42.057860355516425" fill="none" id="id39" stroke="none" /><text fill="#e1ed5e" style="font-size:6.75px; font-family:Arial;" text-anchor="middle"><textPath startOffset="22.145653131862474" xlink:href="#id39">March</textPath></text><path d="M 118.8641267826498 90.77261029715802 l 8.577055009234147 -4.195467406723988 a30.54818408873184,30.54818408873184 0 0,0 0.2263776702793171,0.4730422642985392 l -8.647811937473376 4.047612640360345" fill="#ff5d08" stroke="none" /><path d="M 119.16976305983485 91.42560881287824 l 6.981477680982108 -3.122726165892213 a28.648035650884427,28.648035650884427 0 0,0 0.1969431283217915,0.45064441913813524 l -7.03405469132087 3.0024196769782283" fill="#ff4106" stroke="none" /><path d="M 119.4528033332814 92.08871423366111 l 9.18473636084259 -3.735352318850182 a30.915252844185236,30.915252844185236 0 0,0 0.19571022270777502,0.493317608603424 l -9.24750525851649 3.577133693033193" fill="#ff6209" stroke="none" /><path d="M 119.71291397450082 92.76114493625339 l 10.226179145978083 -3.7551946297436176 a31.893861878732093,31.893861878732093 0 0,0 0.1843158882973756,0.5155643435164192 l -10.289135204319402 3.5790953298462815" fill="#ff700a" stroke="none" /><path d="M 120.43855184770803 95.1765574152323 l 7.4088646075051265 -1.7484718740787861 a28.612386528992513,28.612386528992513 0 0,0 0.10871226999654021,0.47900632036472784 l -7.437787739059334 1.621031219775032" fill="#ff4106" stroke="none" /><path d="M 120.51834098615036 95.52812308129327 l 5.127527581844962 -1.1175207712339843 a26.24789403253536,26.24789403253536 0 0,0 0.09217046628564758,0.4410690472612254 l -5.145955758954976 1.0293352726873546" fill="#ff1e03" stroke="none" /><path d="M 120.9064616781168 98.02013634271609 l 10.502234413563764 -0.9945725180964398 a31.549222823089657,31.549222823089657 0 0,0 0.046432008769688386,0.5396103242718668 l -10.517760045031194 0.814141146448911" fill="#ff6b09" stroke="none" /><line stroke="#e1ed5e" stroke-width="0.3" x1="184.99686870605535" x2="189.99668451229388" y1="99.2704041080226" y2="99.22748670261217" /><path d="M 185.99683186730306 99.26182062694052 a86.0,86.0 0 0,1 -10.086455211305974,41.156179273409016" fill="none" id="id40" stroke="none" /><text fill="#e1ed5e" style="font-size:6.75px; font-family:Arial;" text-anchor="middle"><textPath startOffset="21.40746469413373" xlink:href="#id40">April</textPath></text><path d="M 120.98066250479742 100.90099992219065 l 10.351739232223942 0.4445482234242566 a31.361280242079836,31.361280242079836 0 0,0 -0.027715024471428266,0.5376640706174178 l -10.34258261829594 -0.622184087418405" fill="#ff6809" stroke="none" /><path d="M 120.93736805541906 101.62068470465957 l 8.466686139632577 0.655375054273079 a29.492013344832298,29.492013344832298 0 0,0 -0.04340434723041193,0.5044243078085715 l -8.454188169704425 -0.8006204094573078" fill="#ff4d07" stroke="none" /><path d="M 120.86939407059847 102.33845913500097 l 7.045819122988521 0.7894987289031827 a28.08991363535625,28.08991363535625 0 0,0 -0.05780892687934877,0.47874084308425546 l -7.0312281098495095 -0.9103332489108468" fill="#ff3905" stroke="none" /><path d="M 120.82617615685814 102.69636545807757 l 37.64091439758563 4.873369966127098 a58.95508097097303,58.95508097097303 0 0,0 -0.13855983442138578,1.0025499383688168 l -37.55171004660904 -5.518808212695999" fill="#44ff2d" stroke="none" /><path d="M 120.7213421655516 103.40968896794604 l 26.78954737530061 4.40820982598733 a48.14980962075806,48.14980962075806 0 0,0 -0.14120546729564556,0.8144356114685983 l -26.70992709051273 -4.867438470376517" fill="#bcff1f" stroke="none" /><path d="M 120.65975698304385 103.76489593502545 l 27.005218358523308 4.92125037607773 a48.44996400463158,48.44996400463158 0 0,0 -0.15613279538044492,0.8169527608699183 l -26.916759270860705 -5.384105701980963" fill="#b8ff1f" stroke="none" /><path d="M 120.592083275326 104.11899336999214 l 50.019377544292816 10.005276383227613 a72.01023118378583,72.01023118378583 0 0,0 -0.2528666329313858,1.2100583773282114 l -49.84025320053707 -10.862451211841233" fill="#3effb2" stroke="none" /><path d="M 120.26092885502905 105.52220625578681 l 19.758613766440806 5.385298044696096 a41.47936163559772,41.47936163559772 0 0,0 -0.19313878707202725,0.6853814194816169 l -19.6632564872942 -5.723687388080722" fill="#fff016" stroke="none" /><path d="M 119.94978838288452 106.5578916946017 l 43.53180839885591 14.30977007228647 a66.82344227572179,66.82344227572179 0 0,0 -0.3675753220744479,1.086671125858647 l -43.27974765520909 -15.054942872619279" fill="#37ff76" stroke="none" /><path d="M 119.83427380445688 106.89939002012753 l 38.847444932251 13.513157906129122 a62.130638389894386,62.130638389894386 0 0,0 -0.3590554147647064,1.0043418986241281 l -38.60974934744235 -14.178034761134171" fill="#31ff3e" stroke="none" /><path d="M 119.31412917781788 108.2440532568976 l 42.95249966092173 18.333867991739396 a67.70169100428814,67.70169100428814 0 0,0 -0.46542049100838073,1.0649731656681838 l -42.63144528789638 -19.068503227183424" fill="#38ff81" stroke="none" /><path d="M 119.0197475246899 108.90220220490707 l 18.784361094321127 8.792029470136859 a41.74010616958361,41.74010616958361 0 0,0 -0.3093155378544123,0.646350508991611 l -18.630666298506803 -9.113192481193574" fill="#fff417" stroke="none" /><path d="M 118.5362547648365 109.86951160357373 l 55.608764294509484 29.608534810721164 a84.0,84.0 0 0,0 -0.6886186015386442,1.2669806661015868 l -55.092300343355504 -30.558770310297355" fill="#4dd2ff" stroke="none" /><line stroke="#e1ed5e" stroke-width="0.3" x1="174.33088141563837" x2="178.70328620479359" y1="141.23008692659167" y2="143.65538615756765" /><path d="M 175.20536237346943 141.71514677278685 a86.0,86.0 0 0,1 -30.301960400862466,31.631185727798858" fill="none" id="id41" stroke="none" /><text fill="#e1ed5e" style="font-size:6.75px; font-family:Arial;" text-anchor="middle"><textPath startOffset="22.145653131862474" xlink:href="#id41">May</textPath></text><path d="M 116.1254893667686 113.45245675266167 l 12.74449454745641 10.631910625143766 a37.59697758060759,37.59697758060759 0 0,0 -0.4176942507265183,0.4920427770785841 l -12.560105733222779 -10.849120184671907" fill="#ffbe11" stroke="none" /><path d="M 115.89218393027572 113.72728997021213 l 4.196423942075014 3.6247710537166515 a26.54517259366041,26.54517259366041 0 0,0 -0.3008313039333788,0.3422908010353995 l -4.13358157418305 -3.6962741325633446" fill="#ff2203" stroke="none" /><path d="M 115.16444852881244 114.52719865689866 l 6.221985329750514 5.960521198898704 a29.616316754051667,29.616316754051667 0 0,0 -0.35485029507704213,0.36410766335382033 l -6.118748233522664 -6.0664515543202615" fill="#ff4f07" stroke="none" /><path d="M 114.91283532996324 114.78537596483092 l 4.14583726533468 4.110402971715157 a26.83809722602515,26.83809722602515 0 0,0 -0.3271795113428579,0.3243831220662802 l -4.074665833861857 -4.180966104010099" fill="#ff2703" stroke="none" /><path d="M 114.65682725009322 115.03919595460226 l 6.9665738624692715 7.148318504553527 a30.981563445862697,30.981563445862697 0 0,0 -0.38406444742226437,0.367925052741248 l -6.842836929181695 -7.266855687600355" fill="#ff6309" stroke="none" /><path d="M 114.39649973595853 115.28858382429668 l 6.8797973304845605 7.306106352960846 a31.03547713610655,31.03547713610655 0 0,0 -0.3910030134895167,0.36190655194984633 l -6.753364545681077 -7.423130651043072" fill="#ff6409" stroke="none" /><path d="M 114.13192950727249 115.5334660781643 l 8.200035507514277 9.013275457549291 a33.18522534868171,33.18522534868171 0 0,0 -0.4246681259018162,0.37974085681501685 l -8.044102354789084 -9.152711844247696" fill="#ff820c" stroke="none" /><path d="M 113.86319453409587 115.77377054828091 l 4.20741516328439 4.787266111268931 a27.373402480334924,27.373402480334924 0 0,0 -0.3556202812069387,0.30717632899503694 l -4.124615402314595 -4.858786572728685" fill="#ff2f04" stroke="none" /><path d="M 113.31354834802062 116.24036423190432 l 6.698029293248302 8.170506653433955 a31.565073373480228,31.565073373480228 0 0,0 -0.4219938111087859,0.33992834285471235 l -6.556784711784264 -8.28428329008207" fill="#ff6b09" stroke="none" /><path d="M 113.03279911837588 116.46651593811092 l 9.501577013530877 12.004932164564206 a36.310073873755364,36.310073873755364 0 0,0 -0.49207075876337636,0.38263719827777976 l -9.29409631013227 -12.166270414462778" fill="#ffad10" stroke="none" /><path d="M 112.7482090630111 116.68781488649013 l 6.203381564522855 8.120425599183848 a31.218769727660096,31.218769727660096 0 0,0 -0.4286589971835161,0.32167370291865793 l -6.063069578428572 -8.225718329366522" fill="#ff6609" stroke="none" /><path d="M 112.45986205192187 116.90419585922612 l 6.23309734397033 8.45639364810178 a31.50533655010948,31.50533655010948 0 0,0 -0.4381026927233843,0.3171525640154641 l -6.087013640872978 -8.562146983490322" fill="#ff6a09" stroke="none" /><path d="M 112.16784306229584 117.11559508785304 l 8.244511642417208 11.596938113539283 a35.22887718097296,35.22887718097296 0 0,0 -0.49589662033963683,0.34617435426944804 l -8.044219930903814 -11.736757283613851" fill="#ff9e0e" stroke="none" /><path d="M 111.8722381534696 117.32195027204791 l 23.736794104320904 34.632691980890336 a62.98641147078599,62.98641147078599 0 0,0 -0.8971175938267417,0.6036207542127602 l -23.13878022239716 -35.03506240916022" fill="#32ff48" stroke="none" /><path d="M 111.27062007382361 117.71928675628689 l 6.3995429078969615 10.061144387038013 a32.92395805958914,32.92395805958914 0 0,0 -0.4794917808021587,0.2992383342793231 l -6.2258869983050875 -10.169518518158883" fill="#ff7e0b" stroke="none" /><path d="M 110.96478420261333 117.91015095944535 l 3.842606590511405 6.276609082503972 a28.35944610578901,28.35944610578901 0 0,0 -0.4173798015940071,0.25062457856145093 l -3.7342940323599616 -6.341647661601346" fill="#ff3d05" stroke="none" /><line stroke="#e1ed5e" stroke-width="0.3" x1="143.1302829299769" x2="145.66735839644613" y1="173.24464959558577" y2="177.55315839532614" /><path d="M 143.63769802327073 174.10635135553383 a86.0,86.0 0 0,1 -40.68552437913181,11.842963189579606" fill="none" id="id42" stroke="none" /><text fill="#e1ed5e" style="font-size:6.75px; font-family:Arial;" text-anchor="middle"><textPath startOffset="21.407464694133747" xlink:href="#id42">June</textPath></text><path d="M 110.65571695917076 118.09573695890943 l 7.689670541733271 13.058741702417425 a36.15459560301285,36.15459560301285 0 0,0 -0.5375112889867585,0.31033228738896895 l -7.464366784886114 -13.188820887082567" fill="#ffab0f" stroke="none" /><path d="M 110.34350942703117 118.27599006163325 l 4.686116603817547 8.279919023925116 a30.514029002863694,30.514029002863694 0 0,0 -0.4580821421869654,0.254090442386632 l -4.543290273474487 -8.359142381744892" fill="#ff5c08" stroke="none" /><path d="M 109.06512990194946 118.94263497670748 l 4.703203381418827 9.827886179135074 a31.89529571865875,31.89529571865875 0 0,0 -0.49591304888323384,0.23211234699512653 l -4.5338016186640875 -9.907174757700734" fill="#ff700a" stroke="none" /><path d="M 108.73861861582097 119.09545874513695 l 1.356724495556965 2.9646878725798307 a24.260379661736685,24.260379661736685 0 0,0 -0.3801793232529277,0.17004937560526645 l -1.3056317694484103 -2.9875409990949473" fill="#ff0000" stroke="none" /><path d="M 108.4095320186766 119.2426549942271 l 4.110280834773145 9.405126927071288 a31.264054805729792,31.264054805729792 0 0,0 -0.493622094358539,0.2106979194975479 l -3.9482236652441753 -9.47429949622824" fill="#ff6709" stroke="none" /><path d="M 107.407793817531 119.65005319985036 l 3.2238902879352263 8.5517520099557 a30.13925221385341,30.13925221385341 0 0,0 -0.48568809096192206,0.1783513944822649 l -3.0766130453191773 -8.60583425344669" fill="#ff5708" stroke="none" /><path d="M 107.06938296918513 119.77432235084164 l 8.43640521627968 23.59812687418544 a46.0608165258721,46.0608165258721 0 0,0 -0.7468305791406058,0.2597864431664221 l -8.030068865094051 -23.73947174992045" fill="#d5ff1c" stroke="none" /><path d="M 106.38641147887787 120.00534299687104 l 2.8842069384220865 9.034737155274437 a30.48394037984943,30.48394037984943 0 0,0 -0.4998776388944802,0.1548633703248169 l -2.728688666655982 -9.082917113405898" fill="#ff5c08" stroke="none" /><path d="M 106.0420521117495 120.11202640906438 l 2.867594309044136 9.545288820304282 a30.96672643270037,30.96672643270037 0 0,0 -0.5104201097141464,0.1485758549954022 l -2.7033141869483828 -9.593108369602202" fill="#ff6309" stroke="none" /><path d="M 105.69591212413111 120.21278271476187 l 2.077873968408566 7.373641677891793 a28.660819265753034,28.660819265753034 0 0,0 -0.4747031430989581,0.12938245256273528 l -1.9509894243749129 -7.40822462459867" fill="#ff4106" stroke="none" /><path d="M 105.3480935250658 120.30758222061773 l 1.881558622367993 7.1445845603794105 a28.388189994160896,28.388189994160896 0 0,0 -0.47231825327959787,0.1200614529975099 l -1.7586350758629978 -7.17583124521219" fill="#ff3d05" stroke="none" /><path d="M 104.9986988182912 120.39639698878246 l 4.890631860320267 19.95544692232121 a41.546000629386704,41.546000629386704 0 0,0 -0.6941502743597399,0.1638175746756941 l -4.547349432220648 -20.03646064064313" fill="#fff116" stroke="none" /><path d="M 104.29559338865022 120.5559693870025 l 1.1611719109293417 5.55662794276043 a26.676656965239076,26.676656965239076 0 0,0 -0.44906152340462113,0.0898248813823778 l -1.065613901993762 -5.57574222080567" fill="#ff2403" stroke="none" /><path d="M 103.94208987418118 120.62667999033965 l 1.2592337187221756 6.588842917875584 a27.708093660258935,27.708093660258935 0 0,0 -0.46795706765752376,0.08527736619730199 l -1.1459419175135948 -6.6094884580042494" fill="#ff3304" stroke="none" /><path d="M 103.58742460773223 120.69131181640829 l 1.2172266236559273 7.0206396998597365 a28.125378758254428,28.125378758254428 0 0,0 -0.476420474260207,0.07839480774026172 l -1.096528646342648 -7.040500506095668" fill="#ff3a05" stroke="none" /><path d="M 103.2317021107853 120.74984581791261 l 1.3055482669051546 8.382556410665623 a29.48361410338839,29.48361410338839 0 0,0 -0.5007649974585623,0.07359520983664537 l -1.1614581638389068 -8.403732693801151" fill="#ff4d07" stroke="none" /><path d="M 102.875027216393 120.80226474461374 l 0.7498275836177815 5.425378868865275 a26.476949632403418,26.476949632403418 0 0,0 -0.45076650963167164,0.058360749331738127 l -0.6565832520953345 -5.437451214397408" fill="#ff2103" stroke="none" /><path d="M 102.51750503828377 120.84855314841334 l 1.382297418252529 11.447405567457702 a32.53056114759248,32.53056114759248 0 0,0 -0.5549777219029661,0.06218641131198007 l -1.1855837947487635 -11.469447739276653" fill="#ff790b" stroke="none" /><path d="M 101.80034050326958 120.92268563240118 l 0.5803912885778304 6.745026539504486 a27.769951038706033,27.769951038706033 0 0,0 -0.47530387699450444,0.036791526111182436 l -0.4645184168080901 -6.753995832610722" fill="#ff3405" stroke="none" /><path d="M 101.44090949804482 120.95050786540614 l 0.5130595799767064 7.459773691761476 a28.477396182154756,28.477396182154756 0 0,0 -0.4879881834623697,0.029356157335539278 l -0.3849270443818716 -7.467481826921707" fill="#ff3f05" stroke="none" /><path d="M 101.08105385017728 120.97215588758144 l 1.0645412258695843 20.651815387395168 a41.67923419318587,41.67923419318587 0 0,0 -0.7148469749652675,0.030698604902231932 l -0.7098684903034873 -20.66704656072323" fill="#fff316" stroke="none" /><path d="M 100.72087961077811 120.9876233191556 l 0.2533743430597938 7.376717542527742 a28.381067691056458,28.381067691056458 0 0,0 -0.48705518706255824,0.012544813915042329 l -0.1267058419264917 -7.379980073792829" fill="#ff3d05" stroke="none" /><line stroke="#e1ed5e" stroke-width="0.3" x1="101.45913802915013" x2="101.54496967792366" y1="184.9874750549273" y2="189.98673829345242" /><path d="M 101.47630435890484 185.9873277026323 a86.0,86.0 0 0,1 -42.54439059252881,-10.42667462771756" fill="none" id="id43" stroke="none" /><text fill="#e1ed5e" style="font-size:6.75px; font-family:Arial;" text-anchor="middle"><textPath startOffset="22.145653131862474" xlink:href="#id43">July</textPath></text><path d="M 100.36049292484886 120.99690560180557 l 0.15665971427430575 9.124642969352522 a30.125987704584688,30.125987704584688 0 0,0 -0.5171526391231569,0.0044391334266016755 l -1.117611163147774e-15 -9.125987704584688" fill="#ff5708" stroke="none" /><path d="M 99.63950707515114 120.99690560180557 l -0.14300715320927926 8.32944973213325 a29.33067727654863,29.33067727654863 0 0,0 -0.5033516942740904,-0.012964554133117399 l 0.28597216155411365 -8.325767460650086" fill="#ff4b07" stroke="none" /><path d="M 99.27912038922189 120.98762331915562 l -0.33613991899264084 9.78634698064801 a30.792118119731747,30.792118119731747 0 0,0 -0.528120367774453,-0.022679760954321636 l 0.5040860473679326 -9.77913465126786" fill="#ff6008" stroke="none" /><path d="M 98.91894614982273 120.97215588758144 l -0.8222792954661069 15.951998658362921 a36.97317765618866,36.97317765618866 0 0,0 -0.6335717523423776,-0.038114103323465896 l 1.0959953999409309 -15.935532577214763" fill="#ffb610" stroke="none" /><path d="M 98.55909050195518 120.95050786540614 l -0.3470273744984712 5.045701863168167 a26.057621505275975,26.057621505275975 0 0,0 -0.44599605197179853,-0.03452291509878519 l 0.43359242124550584 -5.039001181074329" fill="#ff1b02" stroke="none" /><path d="M 98.19965949673042 120.92268563240118 l -0.7608548725245665 8.842286934500212 a29.874961316483443,29.874961316483443 0 0,0 -0.510577936206747,-0.048352261404658016 l 0.9125323721163288 -8.82792291759037" fill="#ff5307" stroke="none" /><path d="M 97.84075906011543 120.88869738790638 l -0.5989659732569445 5.794452453131975 a26.825327413006654,26.825327413006654 0 0,0 -0.45764532094686633,-0.051280112768888525 l 0.6983471958046101 -5.783316579856115" fill="#ff2603" stroke="none" /><path d="M 96.76829788921471 120.74984581791261 l -1.211253051669443 7.77711348602913 a28.87087213272803,28.87087213272803 0 0,0 -0.48904851067094,-0.08047274632611756 l 1.3445790653934466 -7.755174741207345" fill="#ff4406" stroke="none" /><path d="M 96.41257539226777 120.69131181640829 l -0.8325953592678986 4.802188778650556 a25.87383135716366,25.87383135716366 0 0,0 -0.43697853773064105,-0.07963204609549387 l 0.9149086305495968 -4.787188558623696" fill="#ff1802" stroke="none" /><path d="M 96.05791012581884 120.62667999033965 l -2.814877352545764 14.728627762469829 a35.99519957437286,35.99519957437286 0 0,0 -0.6059252168359699,-0.1212020132926008 l 3.0672990549126924 -14.678136352514366" fill="#ffa80f" stroke="none" /><path d="M 95.70440661134978 120.55596938700252 l -1.492490826122427 7.142108890756775 a28.296385973445112,28.296385973445112 0 0,0 -0.4746214577951653,-0.10344153767937496 l 1.6148747005367288 -7.115435894943682" fill="#ff3c05" stroke="none" /><path d="M 95.35216902796893 120.47920084513623 l -1.6471814878615465 7.257785560899137 a28.442355682305823,28.442355682305823 0 0,0 -0.475214670514986,-0.11214936829907414 l 1.7715283121164203 -7.228440048953836" fill="#ff3e05" stroke="none" /><path d="M 94.6519064749342 120.30758222061772 l -4.163398745993423 15.809103179518127 a37.348138501333715,37.348138501333715 0 0,0 -0.6185893910109937,-0.16859928926488058 l 4.434169537939113 -15.735303396109101" fill="#ffbb11" stroke="none" /><path d="M 94.30408787586889 120.21278271476187 l -12.682877948446244 45.00705955130843 a67.75992731506548,67.75992731506548 0 0,0 -1.1168771619933329,-0.32510666431409707 l 13.453615122821184 -44.78270919269182" fill="#38ff81" stroke="none" /><path d="M 93.27111125876986 119.89276391827306 l -3.340417291820313 9.87535017001196 a31.42501456420313,31.42501456420313 0 0,0 -0.50952552726249,-0.17723942769233772 l 3.5094485911278253 -9.816552309751032" fill="#ff6909" stroke="none" /><path d="M 92.93061703081489 119.77432235084164 l -2.3297760526700926 6.5167982653626595 a27.92073089254515,27.92073089254515 0 0,0 -0.44993705846586934,-0.16522312014631438 l 2.441302262790081 -6.475844296207625" fill="#ff3705" stroke="none" /><path d="M 92.59220618246901 119.65005319985036 l -4.6187947748255995 12.251901886054922 a34.093600154177324,34.093600154177324 0 0,0 -0.5458673353947304,-0.21115321189662953 l 4.828434372713858 -12.170808786020253" fill="#ff8e0d" stroke="none" /><path d="M 92.25597844496254 119.51999308798841 l -2.7841342937294087 7.017837151328364 a28.549929936634165,28.549929936634165 0 0,0 -0.4540057969364028,-0.18464020519825267 l 2.904194551856252 -6.96900968955082" fill="#ff4006" stroke="none" /><path d="M 91.92203290615298 119.3841803445677 l -3.0571915975355637 7.336146902562349 a28.947670843713723,28.947670843713723 0 0,0 -0.45704915748985914,-0.19508710750956398 l 3.1826758301958544 -7.282585145393381" fill="#ff4606" stroke="none" /><path d="M 91.59046798132341 119.24265499422711 l -21.492099838249494 49.17813040849828 a74.66934754524735,74.66934754524735 0 0,0 -1.170127690221685,-0.5233832324128019 l 22.333140931326813 -48.80194342517563" fill="#41ffce" stroke="none" /><path d="M 91.26138138417905 119.09545874513695 l -9.365004521656466 20.46422499404523 a43.50528414167552,43.50528414167552 0 0,0 -0.6764269656421309,-0.3166019747202791 l 9.714920201170086 -20.300446787754424" fill="#f4ff19" stroke="none" /><path d="M 90.93487009805054 118.94263497670748 l -3.8812747583137615 8.110371476886973 a29.99124125149722,29.99124125149722 0 0,0 -0.4624931472002858,-0.226228574122819 l 4.0199281547761165 -8.042549152666933" fill="#ff5507" stroke="none" /><path d="M 90.6110303473126 118.78422872680471 l -2.9769061190031043 5.955806388358409 a27.658348126748027,27.658348126748027 0 0,0 -0.4228734607556155,-0.21592220215451638 l 3.0787068014723022 -5.903826234531056" fill="#ff3304" stroke="none" /><path d="M 89.97174638481275 118.45085714620012 l -10.164438965713451 18.70142285229262 a42.28518348964759,42.28518348964759 0 0,0 -0.634792849999858,-0.35210889320043065 l 10.483976003869412 -18.524181043659038" fill="#fffb17" stroke="none" /><line stroke="#e1ed5e" stroke-width="0.3" x1="58.13341422392154" x2="55.67067388415222" y1="173.97424548756322" y2="178.32567169271397" /><path d="M 57.64086615596768 174.84453072859336 a86.0,86.0 0 0,1 -31.369924170532247,-30.572349798747897" fill="none" id="id44" stroke="none" /><text fill="#e1ed5e" style="font-size:6.75px; font-family:Arial;" text-anchor="middle"><textPath startOffset="22.145653131862474" xlink:href="#id44">August</textPath></text><path d="M 89.65649057296885 118.27599006163327 l -4.688743985896275 8.284561356307353 a30.519363268186567,30.519363268186567 0 0,0 -0.453732147068214,-0.2619623772498222 l 4.83026860082489 -8.20285208178136" fill="#ff5c08" stroke="none" /><path d="M 89.34428304082925 118.09573695890944 l -7.473983872114448 12.692458583794787 a35.72952612346958,35.72952612346958 0 0,0 -0.525848864213816,-0.3157571340953383 l 7.690765492885691 -12.56228744916353" fill="#ffa50f" stroke="none" /><path d="M 89.03521579738668 117.91015095944536 l -6.5618843251586165 10.718344900394715 a33.567467656635515,33.567467656635515 0 0,0 -0.48886360548048896,-0.30508704601575515 l 6.744912059428818 -10.604122057537412" fill="#ff870c" stroke="none" /><path d="M 88.72937992617639 117.7192867562869 l -7.571467020443039 11.903603743381678 a35.107547445289946,35.107547445289946 0 0,0 -0.5057398818294726,-0.32781448122595963 l 7.774692534529522 -11.771875420451824" fill="#ff9c0e" stroke="none" /><path d="M 88.4268655584334 117.5232005979908 l -4.380098336781242 6.632027147172225 a28.947895666193862,28.947895666193862 0 0,0 -0.41230585931138986,-0.2774177827705697 l 4.493300484189638 -6.555859690344534" fill="#ff4606" stroke="none" /><path d="M 88.1277618465304 117.32195027204791 l -2.96552574303612 4.326790684900253 a26.245518140617715,26.245518140617715 0 0,0 -0.3694430474787898,-0.2578999395331903 l 3.039363881688675 -4.275245929561934" fill="#ff1e03" stroke="none" /><path d="M 87.83215693770417 117.11559508785305 l -16.82043656254709 23.660050506203305 a50.0297274549859,50.0297274549859 0 0,0 -0.6956966886986401,-0.5036307520190377 l 17.224114261619686 -23.3678189828112" fill="#a6ff21" stroke="none" /><path d="M 87.54013794807813 116.9041958592261 l -5.043854779389511 6.842957708600209 a29.50097295827139,29.50097295827139 0 0,0 -0.4050722560353268,-0.3039737726366074 l 5.160580024335604 -6.755364908699586" fill="#ff4e07" stroke="none" /><path d="M 87.2517909369889 116.68781488649013 l -7.760228375614729 10.158388050357136 a33.78334823993052,33.78334823993052 0 0,0 -0.45782880695281847,-0.35601044943929294 l 7.933467127202777 -10.02367654929705" fill="#ff8a0c" stroke="none" /><path d="M 86.96720088162412 116.46651593811092 l -8.087785503297132 10.218652776308655 a34.032004408766284,34.032004408766284 0 0,0 -0.454974239096546,-0.36649504107965086 l 8.26201051274894 -10.078309441435595" fill="#ff8e0d" stroke="none" /><path d="M 86.13680546590413 115.77377054828092 l -4.966185959563634 5.650607991800788 a28.522790284327346,28.522790284327346 0 0,0 -0.36500339438006313,-0.32638828597727115 l 5.062454380767068 -5.564524175940135" fill="#ff3f05" stroke="none" /><path d="M 85.86807049272751 115.53346607816431 l -13.428089928981173 14.759823087075837 a40.95409673983221,40.95409673983221 0 0,0 -0.5159635590517769,-0.4775681673696558 l 13.679483259346917 -14.527137173573804" fill="#ffea16" stroke="none" /><path d="M 85.60350026404147 115.28858382429668 l -5.833462931776662 6.194935481131864 a29.50920180697337,29.50920180697337 0 0,0 -0.3658122452622928,-0.3504398559535116 l 5.938947662904269 -6.09388349487277" fill="#ff4e07" stroke="none" /><path d="M 85.34317274990678 115.03919595460226 l -9.70280242360977 9.955930056863371 a34.901975333338896,34.901975333338896 0 0,0 -0.4254851280361668,-0.4218485248622695 l 9.872279471775899 -9.787901521772442" fill="#ff9a0e" stroke="none" /><path d="M 85.08716467003676 114.78537596483092 l -4.461738159117202 4.423603874082543 a27.28294346905339,27.28294346905339 0 0,0 -0.3268927942985788,-0.33542080463372914 l 4.537017754566589 -4.346360377381076" fill="#ff2d04" stroke="none" /><path d="M 84.83555147118756 114.52719865689866 l -6.14437108196903 5.886168505229359 a29.508835153232862,29.508835153232862 0 0,0 -0.34728268863619455,-0.368802180621724 l 6.244509604341477 -5.779824864663145" fill="#ff4e07" stroke="none" /><path d="M 84.1078160697243 113.72728997021213 l -26.912325753504053 23.24622600719852 a56.56206266571823,56.56206266571823 0 0,0 -0.6283922247220698,-0.7402444606528228 l 27.307412541733235 -22.780814764096142" fill="#5dff2a" stroke="none" /><path d="M 83.8745106332314 113.45245675266167 l -5.643519030784611 4.708024294190252 a28.349476158578494,28.349476158578494 0 0,0 -0.30854109280770203,-0.3763699651454568 l 5.7235069428309435 -4.610452047346299" fill="#ff3d05" stroke="none" /><path d="M 83.4222238831116 112.89097897827486 l -13.039316732317909 10.139451558652583 a37.51763478092333,37.51763478092333 0 0,0 -0.39098381838803786,-0.5118103690191179 l 13.211452528060242 -9.914120276392595" fill="#ffbd11" stroke="none" /><path d="M 83.20337586046588 112.60449989151573 l -8.376275138278285 6.285713021537132 a31.47244829928801,31.47244829928801 0 0,0 -0.3205663395223817,-0.4349098061102266 l 8.482943497384497 -6.140996906158026" fill="#ff6a09" stroke="none" /><path d="M 82.98947788004972 112.3143062007846 l -12.499974508301126 9.049017573463638 a36.43159362324681,36.43159362324681 0 0,0 -0.3623814211613535,-0.5097348511321299 l 12.653471027992438 -8.833105495622004" fill="#ffae10" stroke="none" /><path d="M 82.78059297857968 112.02048342749411 l -7.232120154950137 5.0485815429115535 a29.819962444991656,29.819962444991656 0 0,0 -0.28941020924147015,-0.42225814441219395 l 7.317720101006932 -4.923688663429309" fill="#ff5207" stroke="none" /><path d="M 82.37810715431573 111.42229804090323 l -8.477517933464805 5.495024702005948 a31.102653452824804,31.102653452824804 0 0,0 -0.28656253269583465,-0.4505238981694044 l 8.57059815778653 -5.348687129157872" fill="#ff6509" stroke="none" /><path d="M 82.18462484594161 111.11811171558189 l -6.850542669540699 4.275245289738597 a29.075125829027673,29.075125829027673 0 0,0 -0.260612862786339,-0.425691525544487 l 6.922923496782444 -4.157016648069552" fill="#ff4706" stroke="none" /><path d="M 81.99639281039703 110.81064883170644 l -6.296497615068758 3.7808659047779756 a28.34444206229984,28.34444206229984 0 0,0 -0.24690207737610473,-0.41929370533449317 l 6.360473402574633 -3.6722210311499235" fill="#ff3d05" stroke="none" /><line stroke="#e1ed5e" stroke-width="0.3" x1="26.387840678322732" x2="22.057713659400548" y1="142.50000000000003" y2="145.00000000000006" /><path d="M 25.521815274538298 143.00000000000003 a86.0,86.0 0 0,1 -11.493303480769221,-40.785679425670985" fill="none" id="id45" stroke="none" /><text fill="#e1ed5e" style="font-size:6.75px; font-family:Arial;" text-anchor="middle"><textPath startOffset="21.40746469413373" xlink:href="#id45">September</textPath></text><path d="M 81.81346652052679 110.50000000000001 l -8.718521965547327 5.03364100374442 a31.06728200748883,31.06728200748883 0 0,0 -0.26269108209531766,-0.46414997148909487 l 8.803646412664023 -4.883234262156204" fill="#ff6409" stroke="none" /><path d="M 81.63589988554817 110.18625677009913 l -8.187475360220722 4.541454566153004 a30.3626685485845,30.3626685485845 0 0,0 -0.2489083137489139,-0.4579632621703485 l 8.264229023584965 -4.4002364705080685" fill="#ff5a08" stroke="none" /><path d="M 81.4637452351635 109.86951160357371 l -12.109361961744876 6.447553182104175 a34.71887710990281,34.71887710990281 0 0,0 -0.27558841278433965,-0.5284771192082626 l 12.218258443504164 -6.23872981979141" fill="#ff970d" stroke="none" /><path d="M 81.1358732173502 109.22738970284198 l -8.44271556082824 4.129755250673052 a30.398634181172973,30.398634181172973 0 0,0 -0.22526942896568197,-0.4707264661911345 l 8.512364247753835 -3.984216282416813" fill="#ff5a08" stroke="none" /><path d="M 80.83023694016515 108.57439118712176 l -8.15500119468863 3.647628306956659 a29.93360155542458,29.93360155542458 0 0,0 -0.2057808501813093,-0.4708668562844463 l 8.216415926886906 -3.507099380896363" fill="#ff5407" stroke="none" /><path d="M 80.68587082218212 108.24405325689762 l -8.637954365898183 3.6870290742852667 a30.39193478586624,30.39193478586624 0 0,0 -0.2006940899682004,-0.4815927558055685 l 8.699974300402868 -3.538203809038417" fill="#ff5a08" stroke="none" /><path d="M 79.83685265289637 105.86919833188381 l -5.677298889179812 1.65257896479968 a26.912929892361376,26.912929892361376 0 0,0 -0.1253136603603019,-0.44469397224779056 l 5.704831041614689 -1.554877068648894" fill="#ff2803" stroke="none" /><path d="M 79.73907114497094 105.5222062557868 l -4.600440896399464 1.2538706235656503 a25.76825418595796,25.76825418595796 0 0,0 -0.11265699026516299,-0.4277769417858134 l 4.6212873674693595 -1.1747131774070343" fill="#ff1702" stroke="none" /><path d="M 79.64726062577567 105.17358676015961 l -39.06240396382833 9.929510335262687 a61.30467192437373,61.30467192437373 0 0,0 -0.25050978733036405,-1.0221654189824203 l 39.22710127767499 -9.257489091672168" fill="#30ff33" stroke="none" /><path d="M 79.48165901384964 104.47187691870673 l -10.455009025049481 2.2786205558991046 a31.700435755221935,31.700435755221935 0 0,0 -0.11131727145024561,-0.5326934411953153 l 10.492584007324092 -2.09881066341838" fill="#ff6d0a" stroke="none" /><path d="M 79.17382384314188 102.69636545807758 l -17.21926708182661 2.229378865479359 a38.36298617637887,38.36298617637887 0 0,0 -0.07895086797107366,-0.6538264440298202 l 17.25500003605735 -1.9334587445261395" fill="#ffc812" stroke="none" /><path d="M 79.0935383218832 101.97986365728391 l -10.930768502985883 1.0351551419099263 a31.979674231674217,31.979674231674217 0 0,0 -0.047065517990831404,-0.5469726617047751 l 10.946927643674456 -0.8473614328294893" fill="#ff710a" stroke="none" /><path d="M 79.03789590574601 101.26102812881392 l -11.062485899227676 0.665491681121713 a32.08248498524827,32.08248498524827 0 0,0 -0.02835237750521812,-0.5500285492027094 l 11.072279866189467 -0.4754913385422729" fill="#ff720a" stroke="none" /><path d="M 79.00696218219943 100.54070618675478 l -9.364845826075607 0.24120520908460735 a30.367951606357458,30.367951606357458 0 0,0 -0.008949245034492523,-0.5212486577244817 l 9.367606502708766 -0.08040963539107326" fill="#ff5a08" stroke="none" /><line stroke="#e1ed5e" stroke-width="0.3" x1="15.003131293944662" x2="10.003315487706104" y1="100.72959589197737" y2="100.7725132973878" /><path d="M 14.003168132696942 100.73817937305945 a86.0,86.0 0 0,1 10.791469493833604,-42.45332614584628" fill="none" id="id46" stroke="none" /><text fill="#e1ed5e" style="font-size:6.75px; font-family:Arial;" text-anchor="middle"><textPath startOffset="22.145653131862435" xlink:href="#id46">October</textPath></text><path d="M 79.00077361379809 99.81974689727619 l -5.770698694131319 -0.04953450786096158 a26.77091128730272,26.77091128730272 0 0,0 0.007889219793691265,-0.4595075017060558 l 5.7689980427389616 0.14858892553606975" fill="#ff2603" stroke="none" /><path d="M 79.00696218219943 99.45929381324524 l -10.890786659452106 -0.28050803206760144 a31.89439850646902,31.89439850646902 0 0,0 0.018795388788797104,-0.5472072370178898 l 10.88436658366646 0.46742153364962974" fill="#ff700a" stroke="none" /><path d="M 79.03789590574601 98.7389718711861 l -11.051431705274736 -0.6648266882634852 a32.07141080719973,32.07141080719973 0 0,0 0.037777126819908885,-0.5492711330217825 l 11.038390617289762 0.8544412454395927" fill="#ff720a" stroke="none" /><path d="M 79.0935383218832 98.0201363427161 l -11.185611694241949 -1.0592890570813385 a32.235657625649445,32.235657625649445 0 0,0 0.0568999383315732,-0.5504552878949633 l 11.165779363428712 1.2511488672592146" fill="#ff750a" stroke="none" /><path d="M 79.13060592940154 97.66154086499901 l -4.348309079991294 -0.48723710211782917 a25.37552189445041,25.37552189445041 0 0,0 0.05222271982620266,-0.432479035113885 l 4.339304273905423 0.5618098141551505" fill="#ff1101" stroke="none" /><path d="M 79.22317932658666 96.9465228501225 l -12.498109361712102 -1.8367916801386261 a33.6323608756852,33.6323608756852 0 0,0 0.08885110463096786,-0.570487829212638 l 12.464736764942867 2.051067691282714" fill="#ff880c" stroke="none" /><path d="M 79.34024301695615 96.23510406497455 l -11.532907968462888 -2.1016800132317592 a32.72284202260922,32.72284202260922 0 0,0 0.10545124032072065,-0.5517654488107615 l 11.495130435860009 2.299348027075835" fill="#ff7b0b" stroke="none" /><path d="M 79.48165901384962 95.52812308129327 l -3.7250572417188637 -0.8118588881697532 a24.812501319131886,24.812501319131886 0 0,0 0.09427467156442451,-0.4153915977571352 l 3.710571708596777 0.8756848198658965" fill="#ff0801" stroke="none" /><path d="M 79.64726062577567 94.8264132398404 l -9.550289763896375 -2.42764631186484 a30.85400939668188,30.85400939668188 0 0,0 0.1348915534269161,-0.5122051997118382 l 9.507208729664733 2.591232015949463" fill="#ff6108" stroke="none" /><path d="M 79.73907114497095 94.47779374421319 l -5.502266883601069 -1.4996673066194852 a26.702976669154133,26.702976669154133 0 0,0 0.12433606308605455,-0.4412248243999617 l 5.475712328440433 1.59390005492246" fill="#ff2503" stroke="none" /><path d="M 80.41425534168474 92.42381321644754 l -37.713588502026816 -14.588426212739618 a61.43682649596476,61.43682649596476 0 0,0 0.3889282438214019,-0.9803532411630188 l 37.45760158323928 15.23368047111622" fill="#30ff35" stroke="none" /><path d="M 80.5471966667186 92.08871423366112 l -3.4627183782832236 -1.4082574192318758 a24.738128880352043,24.738128880352043 0 0,0 0.1633590062014557,-0.39200214612539747 l 3.4380335275452896 1.467492074798537" fill="#ff0701" stroke="none" /><path d="M 80.68587082218212 91.75594674310238 l -5.633205829349962 -2.404480597425207 a27.124911008269155,27.124911008269155 0 0,0 0.1864722906142274,-0.4266850933326399 l 5.591099656718757 2.500827760533714" fill="#ff2b04" stroke="none" /><path d="M 80.83023694016515 91.42560881287825 l -6.155952667487751 -2.7534793276104415 a27.743693472565877,27.743693472565877 0 0,0 0.1981897630087865,-0.4330803997317142 l 6.107778439623918 2.8587487095568274" fill="#ff3404" stroke="none" /><path d="M 81.1358732173502 90.77261029715801 l -10.425145747411761 -5.099461195774555 a32.60552318260525,32.60552318260525 0 0,0 0.2502552883975623,-0.5006782161668512 l 10.336070545802455 5.277671268105176" fill="#ff7a0b" stroke="none" /><path d="M 81.63589988554816 89.8137432299009 l -9.702087589372962 -5.381584437865869 a32.09468136783319,32.09468136783319 0 0,0 0.2713783129141669,-0.4794994759516215 l 9.608275911437426 5.5473406839165955" fill="#ff730a" stroke="none" /><line stroke="#e1ed5e" stroke-width="0.3" x1="26.387840678322718" x2="22.05771365940052" y1="57.49999999999999" y2="54.99999999999999" /><path d="M 25.521815274538284 56.99999999999999 a86.0,86.0 0 0,1 29.574782752854787,-30.34633250058573" fill="none" id="id47" stroke="none" /><text fill="#e1ed5e" style="font-size:6.75px; font-family:Arial;" text-anchor="middle"><textPath startOffset="21.40746469413373" xlink:href="#id47">November</textPath></text><path d="M 82.78059297857968 87.97951657250589 l -14.498314151761093 -10.120949273749888 a38.681479786629126,38.681479786629126 0 0,0 0.38476081399737583,-0.5412142698041429 l 14.322438239233744 10.368340770263552" fill="#ffcc13" stroke="none" /><path d="M 82.98947788004972 87.6856937992154 l -9.488897391482686 -6.86922994853291 a32.71432856769471,32.71432856769471 0 0,0 0.3332156576810134,-0.4520710355643041 l 9.369579714217853 7.031107293366077" fill="#ff7b0b" stroke="none" /><path d="M 83.64595745247003 86.82634096563983 l -7.168811583565125 -5.774687158174365 a30.20537187165415,30.20537187165415 0 0,0 0.32873970558793214,-0.4010089884888429 l 7.068625058738563 5.896898428361701" fill="#ff5808" stroke="none" /><path d="M 84.10781606972428 86.27271002978789 l -15.290212960183966 -13.20732178356428 a41.20455297853405,41.20455297853405 0 0,0 0.46696322492491077,-0.5313184307076593 l 15.061238671300464 13.46785249208324" fill="#ffed16" stroke="none" /><path d="M 84.58840730492382 85.73525988315684 l -7.372476968388414 -6.823854617250032 a31.04581547146782,31.04581547146782 0 0,0 0.36537105622254634,-0.38801140016540725 l 7.254250078429595 6.949407477359951" fill="#ff6409" stroke="none" /><path d="M 85.86807049272753 84.46653392183569 l -16.22594102543103 -17.835151553446522 a45.11169411499681,45.11169411499681 0 0,0 0.5772899956164294,-0.5162162738269718 l 15.91738600299121 18.111063357156898" fill="#e0ff1b" stroke="none" /><path d="M 86.96720088162412 83.53348406188908 l -5.699616531505043 -7.201279295774493 a30.183901790739924,30.183901790739924 0 0,0 0.40904944198814347,-0.31807932020341195 l 5.575157144881655 7.298059667598711" fill="#ff5708" stroke="none" /><path d="M 88.12776184653039 82.6780497279521 l -5.103849328448476 -7.446668700591438 a30.027854269086987,30.027854269086987 0 0,0 0.42768774630317064,-0.28776740281044627 l 4.975265294048317 7.533185777458994" fill="#ff5507" stroke="none" /><path d="M 88.72937992617638 82.28071324371311 l -5.817254991914237 -9.145691067661026 a31.8390092142246,31.8390092142246 0 0,0 0.4636910057859617,-0.289377482048951 l 5.659399857338577 9.244204346551513" fill="#ff6f0a" stroke="none" /><line stroke="#e1ed5e" stroke-width="0.3" x1="56.869717070023135" x2="54.33264160355391" y1="26.7553504044142" y2="22.446841604673864" /><path d="M 56.362301976729285 25.89364864446614 a86.0,86.0 0 0,1 42.16139366436587,-11.88097634709845" fill="none" id="id48" stroke="none" /><text fill="#e1ed5e" style="font-size:6.75px; font-family:Arial;" text-anchor="middle"><textPath startOffset="22.145653131862474" xlink:href="#id48">December</textPath></text><path d="M 89.34428304082924 81.90426304109057 l -6.0708331937575934 -10.309601973906283 a32.964234556661005,32.964234556661005 0 0,0 0.4900801104669554,-0.28294788370257673 l 5.892960615430239 10.412296754885034" fill="#ff7f0b" stroke="none" /><path d="M 90.28995756902619 81.37971332152246 l -5.536520379136825 -10.617007844570436 a32.97388464451982,32.97388464451982 0 0,0 0.5041436549386583,-0.25741934237744135 l 5.353449502484584 10.710485138620712" fill="#ff7f0b" stroke="none" /><path d="M 90.93487009805054 81.0573650232925 l -4.663194292367772 -9.744282570820351 a31.802611898442184,31.802611898442184 0 0,0 0.4944719863431037,-0.23143785696282979 l 4.495233592153145 9.822896659353724" fill="#ff6e0a" stroke="none" /><path d="M 91.5904679813234 80.7573450057729 l -3.9475917449913753 -9.032862451587654 a30.85779309249419,30.85779309249419 0 0,0 0.4872077070056774,-0.20795999895966033 l 3.7919489628152667 9.09929710020672" fill="#ff6109" stroke="none" /><path d="M 92.25597844496254 80.48000691201159 l -4.78517930446548 -12.061777757732415 a33.976302387537565,33.976302387537565 0 0,0 0.5439892990760691,-0.2104267471037569 l 4.57741774289588 12.142144392974211" fill="#ff8d0d" stroke="none" /><path d="M 93.27111125876988 80.10723608172694 l -2.0293746831498636 -5.999485654482716 a27.33341848632739,27.33341848632739 0 0,0 0.4457654444726421,-0.14653195562492843 l 1.9260865010294603 6.033438531509673" fill="#ff2e04" stroke="none" /><path d="M 93.95794788825049 79.88797359093562 l -1.899771999558788 -6.32372311917449 a27.602924180867863,27.602924180867863 0 0,0 0.454975039723646,-0.13243660318627945 l 1.7909369474535177 6.35540341666329" fill="#ff3204" stroke="none" /><path d="M 94.30408787586887 79.78721728523814 l -2.2995752896130432 -8.160381454669007 a29.478199808821728,29.478199808821728 0 0,0 0.4882412457367632,-0.13307232263793403 l 2.159152642941603 8.198654271451081" fill="#ff4d07" stroke="none" /><path d="M 96.41257539226777 79.30868818359171 l -1.8410645783667778 -10.61877124414671 a31.7771898710765,31.7771898710765 0 0,0 0.5382791108045684,-0.0885736228436678 l 1.6585079645091367 10.648810865486048" fill="#ff6e0a" stroke="none" /><path d="M 97.48249496171623 79.15144685158666 l -1.6001280944326264 -13.251356050429296 a34.34761578312178,34.34761578312178 0 0,0 0.5859770286048706,-0.06565994828629469 l 1.3724151642269566 13.276871759222562" fill="#ff920d" stroke="none" /><path d="M 98.1996594967304 79.07731436759882 l -0.9836683022606327 -11.431716732129258 a32.47395968149254,32.47395968149254 0 0,0 0.5558165700927586,-0.04302371775484375 l 0.787282737392657 11.446918216879155" fill="#ff780b" stroke="none" /><path d="M 98.9189461498227 79.02784411241856 l -0.5637674313236865 -10.936937555999332 a31.951458205209477,31.951458205209477 0 0,0 0.5480043884169529,-0.02353366635638453 l 0.3759372823059135 10.945003790781545" fill="#ff710a" stroke="none" /></svg>